%TF.GenerationSoftware,KiCad,Pcbnew,(5.1.8)-1*%
%TF.CreationDate,2021-01-21T22:43:38-05:00*%
%TF.ProjectId,Sensor Project,53656e73-6f72-4205-9072-6f6a6563742e,rev?*%
%TF.SameCoordinates,Original*%
%TF.FileFunction,Soldermask,Bot*%
%TF.FilePolarity,Negative*%
%FSLAX46Y46*%
G04 Gerber Fmt 4.6, Leading zero omitted, Abs format (unit mm)*
G04 Created by KiCad (PCBNEW (5.1.8)-1) date 2021-01-21 22:43:38*
%MOMM*%
%LPD*%
G01*
G04 APERTURE LIST*
%ADD10O,0.800000X0.800000*%
%ADD11O,1.800000X1.150000*%
%ADD12O,2.000000X1.450000*%
%ADD13C,0.900000*%
%ADD14C,2.400000*%
%ADD15R,2.400000X2.400000*%
%ADD16O,0.800000X1.300000*%
%ADD17O,1.300000X0.800000*%
%ADD18C,3.200000*%
G04 APERTURE END LIST*
D10*
%TO.C,J1*%
X180350000Y-80970000D03*
X180350000Y-85970000D03*
D11*
X183100000Y-79595000D03*
X183100000Y-87345000D03*
D12*
X179300000Y-79745000D03*
X179300000Y-87195000D03*
%TD*%
D13*
%TO.C,SW1*%
X153090000Y-69200000D03*
X150090000Y-69200000D03*
%TD*%
D14*
%TO.C,J2*%
X179860000Y-93830000D03*
D15*
X179860000Y-97330000D03*
%TD*%
D16*
%TO.C,J4*%
X136840000Y-71030000D03*
X138090000Y-71030000D03*
X139340000Y-71030000D03*
G36*
G01*
X140990000Y-70580000D02*
X140990000Y-71480000D01*
G75*
G02*
X140790000Y-71680000I-200000J0D01*
G01*
X140390000Y-71680000D01*
G75*
G02*
X140190000Y-71480000I0J200000D01*
G01*
X140190000Y-70580000D01*
G75*
G02*
X140390000Y-70380000I200000J0D01*
G01*
X140790000Y-70380000D01*
G75*
G02*
X140990000Y-70580000I0J-200000D01*
G01*
G37*
%TD*%
%TO.C,J3*%
X158250000Y-121000000D03*
X157000000Y-121000000D03*
X155750000Y-121000000D03*
G36*
G01*
X154100000Y-121450000D02*
X154100000Y-120550000D01*
G75*
G02*
X154300000Y-120350000I200000J0D01*
G01*
X154700000Y-120350000D01*
G75*
G02*
X154900000Y-120550000I0J-200000D01*
G01*
X154900000Y-121450000D01*
G75*
G02*
X154700000Y-121650000I-200000J0D01*
G01*
X154300000Y-121650000D01*
G75*
G02*
X154100000Y-121450000I0J200000D01*
G01*
G37*
%TD*%
%TO.C,J7*%
X142670000Y-120410000D03*
X141420000Y-120410000D03*
X140170000Y-120410000D03*
G36*
G01*
X138520000Y-120860000D02*
X138520000Y-119960000D01*
G75*
G02*
X138720000Y-119760000I200000J0D01*
G01*
X139120000Y-119760000D01*
G75*
G02*
X139320000Y-119960000I0J-200000D01*
G01*
X139320000Y-120860000D01*
G75*
G02*
X139120000Y-121060000I-200000J0D01*
G01*
X138720000Y-121060000D01*
G75*
G02*
X138520000Y-120860000I0J200000D01*
G01*
G37*
%TD*%
D17*
%TO.C,J6*%
X130100000Y-113340000D03*
X130100000Y-112090000D03*
X130100000Y-110840000D03*
G36*
G01*
X129650000Y-109190000D02*
X130550000Y-109190000D01*
G75*
G02*
X130750000Y-109390000I0J-200000D01*
G01*
X130750000Y-109790000D01*
G75*
G02*
X130550000Y-109990000I-200000J0D01*
G01*
X129650000Y-109990000D01*
G75*
G02*
X129450000Y-109790000I0J200000D01*
G01*
X129450000Y-109390000D01*
G75*
G02*
X129650000Y-109190000I200000J0D01*
G01*
G37*
%TD*%
%TO.C,J8*%
X130000000Y-85250000D03*
X130000000Y-84000000D03*
X130000000Y-82750000D03*
G36*
G01*
X129550000Y-81100000D02*
X130450000Y-81100000D01*
G75*
G02*
X130650000Y-81300000I0J-200000D01*
G01*
X130650000Y-81700000D01*
G75*
G02*
X130450000Y-81900000I-200000J0D01*
G01*
X129550000Y-81900000D01*
G75*
G02*
X129350000Y-81700000I0J200000D01*
G01*
X129350000Y-81300000D01*
G75*
G02*
X129550000Y-81100000I200000J0D01*
G01*
G37*
%TD*%
%TO.C,J9*%
X130000000Y-101870000D03*
X130000000Y-100620000D03*
X130000000Y-99370000D03*
G36*
G01*
X129550000Y-97720000D02*
X130450000Y-97720000D01*
G75*
G02*
X130650000Y-97920000I0J-200000D01*
G01*
X130650000Y-98320000D01*
G75*
G02*
X130450000Y-98520000I-200000J0D01*
G01*
X129550000Y-98520000D01*
G75*
G02*
X129350000Y-98320000I0J200000D01*
G01*
X129350000Y-97920000D01*
G75*
G02*
X129550000Y-97720000I200000J0D01*
G01*
G37*
%TD*%
D18*
%TO.C,H1*%
X129000000Y-122050000D03*
%TD*%
%TO.C,H2*%
X181100000Y-69940000D03*
%TD*%
%TO.C,H3*%
X181000000Y-122300000D03*
%TD*%
%TO.C,H4*%
X129000000Y-70000000D03*
%TD*%
M02*
