M48
; DRILL file {KiCad (5.1.8)-1} date 01/21/21 22:43:04
; FORMAT={-:-/ absolute / inch / decimal}
; #@! TF.CreationDate,2021-01-21T22:43:04-05:00
; #@! TF.GenerationSoftware,Kicad,Pcbnew,(5.1.8)-1
FMAT,2
INCH
T1C0.0157
T2C0.0197
T3C0.0217
T4C0.0335
T5C0.0472
T6C0.0315
T7C0.0354
T8C0.1260
%
G90
G05
T1
X5.3252Y-2.9512
X5.3961Y-3.6839
X5.3965Y-3.8035
X5.3969Y-3.6382
X5.3969Y-3.7248
X5.3969Y-3.7654
X5.3996Y-3.5051
X5.4Y-3.5965
X5.4004Y-3.4154
X5.4004Y-3.5551
X5.4024Y-3.4575
X5.4358Y-3.8047
X5.4445Y-3.4146
X5.4476Y-3.8555
X5.474Y-3.8031
X5.489Y-3.4142
X5.5Y-3.7598
X5.515Y-3.8043
X5.5343Y-3.4142
X5.5606Y-3.8031
X5.5787Y-3.4992
X5.5803Y-3.4154
X5.6098Y-2.9492
X5.6287Y-3.5669
X5.6335Y-3.7406
X5.6575Y-3.5
X5.6683Y-3.3813
X5.674Y-3.7409
X5.6815Y-4.1433
X5.7276Y-4.2921
X5.7293Y-3.3947
X5.7441Y-4.0028
X5.7516Y-4.1827
X5.7835Y-3.5669
X5.7909Y-4.2008
X5.7945Y-4.3547
X5.8004Y-3.0543
X5.8004Y-3.1524
X5.8024Y-3.8051
X5.8067Y-4.0386
X5.811Y-3.5433
X5.8185Y-3.7461
X5.8189Y-3.3976
X5.8189Y-4.4622
X5.8358Y-2.8106
X5.8465Y-4.0433
X5.865Y-4.4677
X5.8732Y-4.3524
X5.8795Y-3.0492
X5.8898Y-3.8866
X5.898Y-3.563
X5.9189Y-4.1965
X5.9402Y-4.3366
X5.9984Y-3.3992
X6.0276Y-4.1142
X6.0439Y-3.0108
X6.0512Y-3.8228
X6.0835Y-3.2319
X6.0909Y-2.8094
X6.1012Y-3.3783
X6.1063Y-3.8819
X6.1091Y-3.7122
X6.126Y-3.5866
X6.139Y-4.463
X6.15Y-3.4886
X6.1535Y-3.9213
X6.1831Y-2.8846
X6.1843Y-3.2315
X6.1862Y-4.4484
X6.1969Y-3.4587
X6.1998Y-4.0502
X6.2437Y-3.3268
X6.2528Y-3.8976
X6.2799Y-3.9894
X6.2953Y-3.4789
X6.2984Y-3.3791
X6.311Y-4.1299
X6.3142Y-2.8272
X6.3232Y-3.852
X6.3307Y-4.5079
X6.3693Y-4.5386
X6.4268Y-4.5488
X6.4295Y-2.6382
X6.4803Y-4.5
X6.5157Y-3.8898
X6.5157Y-4.0866
X6.5295Y-2.6366
X6.5795Y-2.6358
X6.6205Y-4.0146
X6.6295Y-2.6335
X6.6543Y-4.1299
X6.7008Y-3.9146
X6.7126Y-4.7795
X6.7205Y-4.0413
X6.7205Y-4.6449
X6.7283Y-4.487
X6.7283Y-4.5472
X6.7717Y-3.2362
X6.8126Y-4.05
X6.815Y-4.6449
X6.8189Y-4.7795
X6.8669Y-4.4866
X6.8697Y-4.5437
X6.8996Y-3.6268
X6.8996Y-3.7075
X6.9331Y-3.185
X6.9331Y-3.2323
X6.9409Y-4.748
X6.9449Y-4.6142
X6.9449Y-4.6772
X6.9449Y-4.815
X6.9567Y-4.2402
X6.9567Y-4.3031
X6.9764Y-3.185
X6.9803Y-3.2323
X6.9972Y-3.6941
X7.0079Y-4.2913
X7.0094Y-4.1228
X7.0102Y-4.2165
X7.0102Y-4.2524
X7.0472Y-4.2165
X7.0472Y-4.252
X7.0472Y-4.2913
X7.0984Y-4.3583
X7.1024Y-3.2323
X7.1319Y-4.0996
X7.1496Y-4.3583
X7.1602Y-3.6941
X7.1827Y-4.0622
X7.1848Y-4.1262
X7.2402Y-4.1693
T2
X5.1181Y-3.863
X5.1181Y-3.9122
X5.1181Y-3.9614
X5.1181Y-4.0106
X5.1181Y-3.2087
X5.1181Y-3.2579
X5.1181Y-3.3071
X5.1181Y-3.3563
X5.3874Y-2.7965
X5.4366Y-2.7965
X5.4858Y-2.7965
X5.535Y-2.7965
X5.122Y-4.3146
X5.122Y-4.3638
X5.122Y-4.413
X5.122Y-4.4622
X6.0827Y-4.7638
X6.1319Y-4.7638
X6.1811Y-4.7638
X6.2303Y-4.7638
X5.4693Y-4.7406
X5.5185Y-4.7406
X5.5677Y-4.7406
X5.6169Y-4.7406
T5
X7.0811Y-3.6941
X7.0811Y-3.8319
T6
X7.1004Y-3.1878
X7.1004Y-3.3846
T7
X5.9091Y-2.7244
X6.0272Y-2.7244
T8
X7.126Y-4.815
X7.1299Y-2.7535
X5.0787Y-4.8051
X5.0787Y-2.7559
T3
G00X7.1959Y-3.1337
M15
G01X7.2215Y-3.1337
M16
G05
G00X7.1959Y-3.4388
M15
G01X7.2215Y-3.4388
M16
G05
T4
G00X7.0482Y-3.1396
M15
G01X7.0699Y-3.1396
M16
G05
G00X7.0482Y-3.4329
M15
G01X7.0699Y-3.4329
M16
G05
T0
M30
