%TF.GenerationSoftware,KiCad,Pcbnew,(5.1.8)-1*%
%TF.CreationDate,2021-01-21T22:43:38-05:00*%
%TF.ProjectId,Sensor Project,53656e73-6f72-4205-9072-6f6a6563742e,rev?*%
%TF.SameCoordinates,Original*%
%TF.FileFunction,Paste,Top*%
%TF.FilePolarity,Positive*%
%FSLAX46Y46*%
G04 Gerber Fmt 4.6, Leading zero omitted, Abs format (unit mm)*
G04 Created by KiCad (PCBNEW (5.1.8)-1) date 2021-01-21 22:43:38*
%MOMM*%
%LPD*%
G01*
G04 APERTURE LIST*
%ADD10R,0.800000X0.550000*%
%ADD11R,1.300000X0.450000*%
%ADD12R,0.700000X1.500000*%
%ADD13R,1.000000X0.800000*%
%ADD14R,0.900000X1.200000*%
%ADD15R,0.740000X2.400000*%
%ADD16R,2.500000X1.900000*%
%ADD17R,0.800000X0.900000*%
%ADD18R,0.650000X1.060000*%
%ADD19R,0.750000X0.500000*%
%ADD20R,3.450000X4.350000*%
%ADD21R,0.350000X0.500000*%
%ADD22R,0.250000X0.475000*%
%ADD23R,0.475000X0.250000*%
%ADD24R,1.060000X0.650000*%
%ADD25R,1.200000X1.400000*%
G04 APERTURE END LIST*
D10*
%TO.C,D5*%
X149340000Y-79200000D03*
X149340000Y-78300000D03*
X150940000Y-78300000D03*
X150940000Y-79200000D03*
%TD*%
%TO.C,C16*%
G36*
G01*
X140000000Y-94330000D02*
X140000000Y-94670000D01*
G75*
G02*
X139860000Y-94810000I-140000J0D01*
G01*
X139580000Y-94810000D01*
G75*
G02*
X139440000Y-94670000I0J140000D01*
G01*
X139440000Y-94330000D01*
G75*
G02*
X139580000Y-94190000I140000J0D01*
G01*
X139860000Y-94190000D01*
G75*
G02*
X140000000Y-94330000I0J-140000D01*
G01*
G37*
G36*
G01*
X140960000Y-94330000D02*
X140960000Y-94670000D01*
G75*
G02*
X140820000Y-94810000I-140000J0D01*
G01*
X140540000Y-94810000D01*
G75*
G02*
X140400000Y-94670000I0J140000D01*
G01*
X140400000Y-94330000D01*
G75*
G02*
X140540000Y-94190000I140000J0D01*
G01*
X140820000Y-94190000D01*
G75*
G02*
X140960000Y-94330000I0J-140000D01*
G01*
G37*
%TD*%
%TO.C,C15*%
G36*
G01*
X140500000Y-89050000D02*
X140500000Y-88710000D01*
G75*
G02*
X140640000Y-88570000I140000J0D01*
G01*
X140920000Y-88570000D01*
G75*
G02*
X141060000Y-88710000I0J-140000D01*
G01*
X141060000Y-89050000D01*
G75*
G02*
X140920000Y-89190000I-140000J0D01*
G01*
X140640000Y-89190000D01*
G75*
G02*
X140500000Y-89050000I0J140000D01*
G01*
G37*
G36*
G01*
X139540000Y-89050000D02*
X139540000Y-88710000D01*
G75*
G02*
X139680000Y-88570000I140000J0D01*
G01*
X139960000Y-88570000D01*
G75*
G02*
X140100000Y-88710000I0J-140000D01*
G01*
X140100000Y-89050000D01*
G75*
G02*
X139960000Y-89190000I-140000J0D01*
G01*
X139680000Y-89190000D01*
G75*
G02*
X139540000Y-89050000I0J140000D01*
G01*
G37*
%TD*%
D11*
%TO.C,J1*%
X179250000Y-82170000D03*
X179250000Y-82820000D03*
X179250000Y-83470000D03*
X179250000Y-84120000D03*
X179250000Y-84770000D03*
%TD*%
D12*
%TO.C,SW1*%
X153840000Y-70960000D03*
X150840000Y-70960000D03*
X149340000Y-70960000D03*
D13*
X155240000Y-68100000D03*
X147940000Y-68100000D03*
X147940000Y-70310000D03*
X155240000Y-70310000D03*
%TD*%
%TO.C,FB1*%
G36*
G01*
X173255000Y-98048750D02*
X173255000Y-98811250D01*
G75*
G02*
X173036250Y-99030000I-218750J0D01*
G01*
X172598750Y-99030000D01*
G75*
G02*
X172380000Y-98811250I0J218750D01*
G01*
X172380000Y-98048750D01*
G75*
G02*
X172598750Y-97830000I218750J0D01*
G01*
X173036250Y-97830000D01*
G75*
G02*
X173255000Y-98048750I0J-218750D01*
G01*
G37*
G36*
G01*
X175380000Y-98048750D02*
X175380000Y-98811250D01*
G75*
G02*
X175161250Y-99030000I-218750J0D01*
G01*
X174723750Y-99030000D01*
G75*
G02*
X174505000Y-98811250I0J218750D01*
G01*
X174505000Y-98048750D01*
G75*
G02*
X174723750Y-97830000I218750J0D01*
G01*
X175161250Y-97830000D01*
G75*
G02*
X175380000Y-98048750I0J-218750D01*
G01*
G37*
%TD*%
%TO.C,U2*%
G36*
G01*
X144910000Y-90715000D02*
X144910000Y-90565000D01*
G75*
G02*
X144985000Y-90490000I75000J0D01*
G01*
X146385000Y-90490000D01*
G75*
G02*
X146460000Y-90565000I0J-75000D01*
G01*
X146460000Y-90715000D01*
G75*
G02*
X146385000Y-90790000I-75000J0D01*
G01*
X144985000Y-90790000D01*
G75*
G02*
X144910000Y-90715000I0J75000D01*
G01*
G37*
G36*
G01*
X144910000Y-91215000D02*
X144910000Y-91065000D01*
G75*
G02*
X144985000Y-90990000I75000J0D01*
G01*
X146385000Y-90990000D01*
G75*
G02*
X146460000Y-91065000I0J-75000D01*
G01*
X146460000Y-91215000D01*
G75*
G02*
X146385000Y-91290000I-75000J0D01*
G01*
X144985000Y-91290000D01*
G75*
G02*
X144910000Y-91215000I0J75000D01*
G01*
G37*
G36*
G01*
X144910000Y-91715000D02*
X144910000Y-91565000D01*
G75*
G02*
X144985000Y-91490000I75000J0D01*
G01*
X146385000Y-91490000D01*
G75*
G02*
X146460000Y-91565000I0J-75000D01*
G01*
X146460000Y-91715000D01*
G75*
G02*
X146385000Y-91790000I-75000J0D01*
G01*
X144985000Y-91790000D01*
G75*
G02*
X144910000Y-91715000I0J75000D01*
G01*
G37*
G36*
G01*
X144910000Y-92215000D02*
X144910000Y-92065000D01*
G75*
G02*
X144985000Y-91990000I75000J0D01*
G01*
X146385000Y-91990000D01*
G75*
G02*
X146460000Y-92065000I0J-75000D01*
G01*
X146460000Y-92215000D01*
G75*
G02*
X146385000Y-92290000I-75000J0D01*
G01*
X144985000Y-92290000D01*
G75*
G02*
X144910000Y-92215000I0J75000D01*
G01*
G37*
G36*
G01*
X144910000Y-92715000D02*
X144910000Y-92565000D01*
G75*
G02*
X144985000Y-92490000I75000J0D01*
G01*
X146385000Y-92490000D01*
G75*
G02*
X146460000Y-92565000I0J-75000D01*
G01*
X146460000Y-92715000D01*
G75*
G02*
X146385000Y-92790000I-75000J0D01*
G01*
X144985000Y-92790000D01*
G75*
G02*
X144910000Y-92715000I0J75000D01*
G01*
G37*
G36*
G01*
X144910000Y-93215000D02*
X144910000Y-93065000D01*
G75*
G02*
X144985000Y-92990000I75000J0D01*
G01*
X146385000Y-92990000D01*
G75*
G02*
X146460000Y-93065000I0J-75000D01*
G01*
X146460000Y-93215000D01*
G75*
G02*
X146385000Y-93290000I-75000J0D01*
G01*
X144985000Y-93290000D01*
G75*
G02*
X144910000Y-93215000I0J75000D01*
G01*
G37*
G36*
G01*
X144910000Y-93715000D02*
X144910000Y-93565000D01*
G75*
G02*
X144985000Y-93490000I75000J0D01*
G01*
X146385000Y-93490000D01*
G75*
G02*
X146460000Y-93565000I0J-75000D01*
G01*
X146460000Y-93715000D01*
G75*
G02*
X146385000Y-93790000I-75000J0D01*
G01*
X144985000Y-93790000D01*
G75*
G02*
X144910000Y-93715000I0J75000D01*
G01*
G37*
G36*
G01*
X144910000Y-94215000D02*
X144910000Y-94065000D01*
G75*
G02*
X144985000Y-93990000I75000J0D01*
G01*
X146385000Y-93990000D01*
G75*
G02*
X146460000Y-94065000I0J-75000D01*
G01*
X146460000Y-94215000D01*
G75*
G02*
X146385000Y-94290000I-75000J0D01*
G01*
X144985000Y-94290000D01*
G75*
G02*
X144910000Y-94215000I0J75000D01*
G01*
G37*
G36*
G01*
X144910000Y-94715000D02*
X144910000Y-94565000D01*
G75*
G02*
X144985000Y-94490000I75000J0D01*
G01*
X146385000Y-94490000D01*
G75*
G02*
X146460000Y-94565000I0J-75000D01*
G01*
X146460000Y-94715000D01*
G75*
G02*
X146385000Y-94790000I-75000J0D01*
G01*
X144985000Y-94790000D01*
G75*
G02*
X144910000Y-94715000I0J75000D01*
G01*
G37*
G36*
G01*
X144910000Y-95215000D02*
X144910000Y-95065000D01*
G75*
G02*
X144985000Y-94990000I75000J0D01*
G01*
X146385000Y-94990000D01*
G75*
G02*
X146460000Y-95065000I0J-75000D01*
G01*
X146460000Y-95215000D01*
G75*
G02*
X146385000Y-95290000I-75000J0D01*
G01*
X144985000Y-95290000D01*
G75*
G02*
X144910000Y-95215000I0J75000D01*
G01*
G37*
G36*
G01*
X144910000Y-95715000D02*
X144910000Y-95565000D01*
G75*
G02*
X144985000Y-95490000I75000J0D01*
G01*
X146385000Y-95490000D01*
G75*
G02*
X146460000Y-95565000I0J-75000D01*
G01*
X146460000Y-95715000D01*
G75*
G02*
X146385000Y-95790000I-75000J0D01*
G01*
X144985000Y-95790000D01*
G75*
G02*
X144910000Y-95715000I0J75000D01*
G01*
G37*
G36*
G01*
X144910000Y-96215000D02*
X144910000Y-96065000D01*
G75*
G02*
X144985000Y-95990000I75000J0D01*
G01*
X146385000Y-95990000D01*
G75*
G02*
X146460000Y-96065000I0J-75000D01*
G01*
X146460000Y-96215000D01*
G75*
G02*
X146385000Y-96290000I-75000J0D01*
G01*
X144985000Y-96290000D01*
G75*
G02*
X144910000Y-96215000I0J75000D01*
G01*
G37*
G36*
G01*
X144910000Y-96715000D02*
X144910000Y-96565000D01*
G75*
G02*
X144985000Y-96490000I75000J0D01*
G01*
X146385000Y-96490000D01*
G75*
G02*
X146460000Y-96565000I0J-75000D01*
G01*
X146460000Y-96715000D01*
G75*
G02*
X146385000Y-96790000I-75000J0D01*
G01*
X144985000Y-96790000D01*
G75*
G02*
X144910000Y-96715000I0J75000D01*
G01*
G37*
G36*
G01*
X144910000Y-97215000D02*
X144910000Y-97065000D01*
G75*
G02*
X144985000Y-96990000I75000J0D01*
G01*
X146385000Y-96990000D01*
G75*
G02*
X146460000Y-97065000I0J-75000D01*
G01*
X146460000Y-97215000D01*
G75*
G02*
X146385000Y-97290000I-75000J0D01*
G01*
X144985000Y-97290000D01*
G75*
G02*
X144910000Y-97215000I0J75000D01*
G01*
G37*
G36*
G01*
X144910000Y-97715000D02*
X144910000Y-97565000D01*
G75*
G02*
X144985000Y-97490000I75000J0D01*
G01*
X146385000Y-97490000D01*
G75*
G02*
X146460000Y-97565000I0J-75000D01*
G01*
X146460000Y-97715000D01*
G75*
G02*
X146385000Y-97790000I-75000J0D01*
G01*
X144985000Y-97790000D01*
G75*
G02*
X144910000Y-97715000I0J75000D01*
G01*
G37*
G36*
G01*
X144910000Y-98215000D02*
X144910000Y-98065000D01*
G75*
G02*
X144985000Y-97990000I75000J0D01*
G01*
X146385000Y-97990000D01*
G75*
G02*
X146460000Y-98065000I0J-75000D01*
G01*
X146460000Y-98215000D01*
G75*
G02*
X146385000Y-98290000I-75000J0D01*
G01*
X144985000Y-98290000D01*
G75*
G02*
X144910000Y-98215000I0J75000D01*
G01*
G37*
G36*
G01*
X147460000Y-100765000D02*
X147460000Y-99365000D01*
G75*
G02*
X147535000Y-99290000I75000J0D01*
G01*
X147685000Y-99290000D01*
G75*
G02*
X147760000Y-99365000I0J-75000D01*
G01*
X147760000Y-100765000D01*
G75*
G02*
X147685000Y-100840000I-75000J0D01*
G01*
X147535000Y-100840000D01*
G75*
G02*
X147460000Y-100765000I0J75000D01*
G01*
G37*
G36*
G01*
X147960000Y-100765000D02*
X147960000Y-99365000D01*
G75*
G02*
X148035000Y-99290000I75000J0D01*
G01*
X148185000Y-99290000D01*
G75*
G02*
X148260000Y-99365000I0J-75000D01*
G01*
X148260000Y-100765000D01*
G75*
G02*
X148185000Y-100840000I-75000J0D01*
G01*
X148035000Y-100840000D01*
G75*
G02*
X147960000Y-100765000I0J75000D01*
G01*
G37*
G36*
G01*
X148460000Y-100765000D02*
X148460000Y-99365000D01*
G75*
G02*
X148535000Y-99290000I75000J0D01*
G01*
X148685000Y-99290000D01*
G75*
G02*
X148760000Y-99365000I0J-75000D01*
G01*
X148760000Y-100765000D01*
G75*
G02*
X148685000Y-100840000I-75000J0D01*
G01*
X148535000Y-100840000D01*
G75*
G02*
X148460000Y-100765000I0J75000D01*
G01*
G37*
G36*
G01*
X148960000Y-100765000D02*
X148960000Y-99365000D01*
G75*
G02*
X149035000Y-99290000I75000J0D01*
G01*
X149185000Y-99290000D01*
G75*
G02*
X149260000Y-99365000I0J-75000D01*
G01*
X149260000Y-100765000D01*
G75*
G02*
X149185000Y-100840000I-75000J0D01*
G01*
X149035000Y-100840000D01*
G75*
G02*
X148960000Y-100765000I0J75000D01*
G01*
G37*
G36*
G01*
X149460000Y-100765000D02*
X149460000Y-99365000D01*
G75*
G02*
X149535000Y-99290000I75000J0D01*
G01*
X149685000Y-99290000D01*
G75*
G02*
X149760000Y-99365000I0J-75000D01*
G01*
X149760000Y-100765000D01*
G75*
G02*
X149685000Y-100840000I-75000J0D01*
G01*
X149535000Y-100840000D01*
G75*
G02*
X149460000Y-100765000I0J75000D01*
G01*
G37*
G36*
G01*
X149960000Y-100765000D02*
X149960000Y-99365000D01*
G75*
G02*
X150035000Y-99290000I75000J0D01*
G01*
X150185000Y-99290000D01*
G75*
G02*
X150260000Y-99365000I0J-75000D01*
G01*
X150260000Y-100765000D01*
G75*
G02*
X150185000Y-100840000I-75000J0D01*
G01*
X150035000Y-100840000D01*
G75*
G02*
X149960000Y-100765000I0J75000D01*
G01*
G37*
G36*
G01*
X150460000Y-100765000D02*
X150460000Y-99365000D01*
G75*
G02*
X150535000Y-99290000I75000J0D01*
G01*
X150685000Y-99290000D01*
G75*
G02*
X150760000Y-99365000I0J-75000D01*
G01*
X150760000Y-100765000D01*
G75*
G02*
X150685000Y-100840000I-75000J0D01*
G01*
X150535000Y-100840000D01*
G75*
G02*
X150460000Y-100765000I0J75000D01*
G01*
G37*
G36*
G01*
X150960000Y-100765000D02*
X150960000Y-99365000D01*
G75*
G02*
X151035000Y-99290000I75000J0D01*
G01*
X151185000Y-99290000D01*
G75*
G02*
X151260000Y-99365000I0J-75000D01*
G01*
X151260000Y-100765000D01*
G75*
G02*
X151185000Y-100840000I-75000J0D01*
G01*
X151035000Y-100840000D01*
G75*
G02*
X150960000Y-100765000I0J75000D01*
G01*
G37*
G36*
G01*
X151460000Y-100765000D02*
X151460000Y-99365000D01*
G75*
G02*
X151535000Y-99290000I75000J0D01*
G01*
X151685000Y-99290000D01*
G75*
G02*
X151760000Y-99365000I0J-75000D01*
G01*
X151760000Y-100765000D01*
G75*
G02*
X151685000Y-100840000I-75000J0D01*
G01*
X151535000Y-100840000D01*
G75*
G02*
X151460000Y-100765000I0J75000D01*
G01*
G37*
G36*
G01*
X151960000Y-100765000D02*
X151960000Y-99365000D01*
G75*
G02*
X152035000Y-99290000I75000J0D01*
G01*
X152185000Y-99290000D01*
G75*
G02*
X152260000Y-99365000I0J-75000D01*
G01*
X152260000Y-100765000D01*
G75*
G02*
X152185000Y-100840000I-75000J0D01*
G01*
X152035000Y-100840000D01*
G75*
G02*
X151960000Y-100765000I0J75000D01*
G01*
G37*
G36*
G01*
X152460000Y-100765000D02*
X152460000Y-99365000D01*
G75*
G02*
X152535000Y-99290000I75000J0D01*
G01*
X152685000Y-99290000D01*
G75*
G02*
X152760000Y-99365000I0J-75000D01*
G01*
X152760000Y-100765000D01*
G75*
G02*
X152685000Y-100840000I-75000J0D01*
G01*
X152535000Y-100840000D01*
G75*
G02*
X152460000Y-100765000I0J75000D01*
G01*
G37*
G36*
G01*
X152960000Y-100765000D02*
X152960000Y-99365000D01*
G75*
G02*
X153035000Y-99290000I75000J0D01*
G01*
X153185000Y-99290000D01*
G75*
G02*
X153260000Y-99365000I0J-75000D01*
G01*
X153260000Y-100765000D01*
G75*
G02*
X153185000Y-100840000I-75000J0D01*
G01*
X153035000Y-100840000D01*
G75*
G02*
X152960000Y-100765000I0J75000D01*
G01*
G37*
G36*
G01*
X153460000Y-100765000D02*
X153460000Y-99365000D01*
G75*
G02*
X153535000Y-99290000I75000J0D01*
G01*
X153685000Y-99290000D01*
G75*
G02*
X153760000Y-99365000I0J-75000D01*
G01*
X153760000Y-100765000D01*
G75*
G02*
X153685000Y-100840000I-75000J0D01*
G01*
X153535000Y-100840000D01*
G75*
G02*
X153460000Y-100765000I0J75000D01*
G01*
G37*
G36*
G01*
X153960000Y-100765000D02*
X153960000Y-99365000D01*
G75*
G02*
X154035000Y-99290000I75000J0D01*
G01*
X154185000Y-99290000D01*
G75*
G02*
X154260000Y-99365000I0J-75000D01*
G01*
X154260000Y-100765000D01*
G75*
G02*
X154185000Y-100840000I-75000J0D01*
G01*
X154035000Y-100840000D01*
G75*
G02*
X153960000Y-100765000I0J75000D01*
G01*
G37*
G36*
G01*
X154460000Y-100765000D02*
X154460000Y-99365000D01*
G75*
G02*
X154535000Y-99290000I75000J0D01*
G01*
X154685000Y-99290000D01*
G75*
G02*
X154760000Y-99365000I0J-75000D01*
G01*
X154760000Y-100765000D01*
G75*
G02*
X154685000Y-100840000I-75000J0D01*
G01*
X154535000Y-100840000D01*
G75*
G02*
X154460000Y-100765000I0J75000D01*
G01*
G37*
G36*
G01*
X154960000Y-100765000D02*
X154960000Y-99365000D01*
G75*
G02*
X155035000Y-99290000I75000J0D01*
G01*
X155185000Y-99290000D01*
G75*
G02*
X155260000Y-99365000I0J-75000D01*
G01*
X155260000Y-100765000D01*
G75*
G02*
X155185000Y-100840000I-75000J0D01*
G01*
X155035000Y-100840000D01*
G75*
G02*
X154960000Y-100765000I0J75000D01*
G01*
G37*
G36*
G01*
X156260000Y-98215000D02*
X156260000Y-98065000D01*
G75*
G02*
X156335000Y-97990000I75000J0D01*
G01*
X157735000Y-97990000D01*
G75*
G02*
X157810000Y-98065000I0J-75000D01*
G01*
X157810000Y-98215000D01*
G75*
G02*
X157735000Y-98290000I-75000J0D01*
G01*
X156335000Y-98290000D01*
G75*
G02*
X156260000Y-98215000I0J75000D01*
G01*
G37*
G36*
G01*
X156260000Y-97715000D02*
X156260000Y-97565000D01*
G75*
G02*
X156335000Y-97490000I75000J0D01*
G01*
X157735000Y-97490000D01*
G75*
G02*
X157810000Y-97565000I0J-75000D01*
G01*
X157810000Y-97715000D01*
G75*
G02*
X157735000Y-97790000I-75000J0D01*
G01*
X156335000Y-97790000D01*
G75*
G02*
X156260000Y-97715000I0J75000D01*
G01*
G37*
G36*
G01*
X156260000Y-97215000D02*
X156260000Y-97065000D01*
G75*
G02*
X156335000Y-96990000I75000J0D01*
G01*
X157735000Y-96990000D01*
G75*
G02*
X157810000Y-97065000I0J-75000D01*
G01*
X157810000Y-97215000D01*
G75*
G02*
X157735000Y-97290000I-75000J0D01*
G01*
X156335000Y-97290000D01*
G75*
G02*
X156260000Y-97215000I0J75000D01*
G01*
G37*
G36*
G01*
X156260000Y-96715000D02*
X156260000Y-96565000D01*
G75*
G02*
X156335000Y-96490000I75000J0D01*
G01*
X157735000Y-96490000D01*
G75*
G02*
X157810000Y-96565000I0J-75000D01*
G01*
X157810000Y-96715000D01*
G75*
G02*
X157735000Y-96790000I-75000J0D01*
G01*
X156335000Y-96790000D01*
G75*
G02*
X156260000Y-96715000I0J75000D01*
G01*
G37*
G36*
G01*
X156260000Y-96215000D02*
X156260000Y-96065000D01*
G75*
G02*
X156335000Y-95990000I75000J0D01*
G01*
X157735000Y-95990000D01*
G75*
G02*
X157810000Y-96065000I0J-75000D01*
G01*
X157810000Y-96215000D01*
G75*
G02*
X157735000Y-96290000I-75000J0D01*
G01*
X156335000Y-96290000D01*
G75*
G02*
X156260000Y-96215000I0J75000D01*
G01*
G37*
G36*
G01*
X156260000Y-95715000D02*
X156260000Y-95565000D01*
G75*
G02*
X156335000Y-95490000I75000J0D01*
G01*
X157735000Y-95490000D01*
G75*
G02*
X157810000Y-95565000I0J-75000D01*
G01*
X157810000Y-95715000D01*
G75*
G02*
X157735000Y-95790000I-75000J0D01*
G01*
X156335000Y-95790000D01*
G75*
G02*
X156260000Y-95715000I0J75000D01*
G01*
G37*
G36*
G01*
X156260000Y-95215000D02*
X156260000Y-95065000D01*
G75*
G02*
X156335000Y-94990000I75000J0D01*
G01*
X157735000Y-94990000D01*
G75*
G02*
X157810000Y-95065000I0J-75000D01*
G01*
X157810000Y-95215000D01*
G75*
G02*
X157735000Y-95290000I-75000J0D01*
G01*
X156335000Y-95290000D01*
G75*
G02*
X156260000Y-95215000I0J75000D01*
G01*
G37*
G36*
G01*
X156260000Y-94715000D02*
X156260000Y-94565000D01*
G75*
G02*
X156335000Y-94490000I75000J0D01*
G01*
X157735000Y-94490000D01*
G75*
G02*
X157810000Y-94565000I0J-75000D01*
G01*
X157810000Y-94715000D01*
G75*
G02*
X157735000Y-94790000I-75000J0D01*
G01*
X156335000Y-94790000D01*
G75*
G02*
X156260000Y-94715000I0J75000D01*
G01*
G37*
G36*
G01*
X156260000Y-94215000D02*
X156260000Y-94065000D01*
G75*
G02*
X156335000Y-93990000I75000J0D01*
G01*
X157735000Y-93990000D01*
G75*
G02*
X157810000Y-94065000I0J-75000D01*
G01*
X157810000Y-94215000D01*
G75*
G02*
X157735000Y-94290000I-75000J0D01*
G01*
X156335000Y-94290000D01*
G75*
G02*
X156260000Y-94215000I0J75000D01*
G01*
G37*
G36*
G01*
X156260000Y-93715000D02*
X156260000Y-93565000D01*
G75*
G02*
X156335000Y-93490000I75000J0D01*
G01*
X157735000Y-93490000D01*
G75*
G02*
X157810000Y-93565000I0J-75000D01*
G01*
X157810000Y-93715000D01*
G75*
G02*
X157735000Y-93790000I-75000J0D01*
G01*
X156335000Y-93790000D01*
G75*
G02*
X156260000Y-93715000I0J75000D01*
G01*
G37*
G36*
G01*
X156260000Y-93215000D02*
X156260000Y-93065000D01*
G75*
G02*
X156335000Y-92990000I75000J0D01*
G01*
X157735000Y-92990000D01*
G75*
G02*
X157810000Y-93065000I0J-75000D01*
G01*
X157810000Y-93215000D01*
G75*
G02*
X157735000Y-93290000I-75000J0D01*
G01*
X156335000Y-93290000D01*
G75*
G02*
X156260000Y-93215000I0J75000D01*
G01*
G37*
G36*
G01*
X156260000Y-92715000D02*
X156260000Y-92565000D01*
G75*
G02*
X156335000Y-92490000I75000J0D01*
G01*
X157735000Y-92490000D01*
G75*
G02*
X157810000Y-92565000I0J-75000D01*
G01*
X157810000Y-92715000D01*
G75*
G02*
X157735000Y-92790000I-75000J0D01*
G01*
X156335000Y-92790000D01*
G75*
G02*
X156260000Y-92715000I0J75000D01*
G01*
G37*
G36*
G01*
X156260000Y-92215000D02*
X156260000Y-92065000D01*
G75*
G02*
X156335000Y-91990000I75000J0D01*
G01*
X157735000Y-91990000D01*
G75*
G02*
X157810000Y-92065000I0J-75000D01*
G01*
X157810000Y-92215000D01*
G75*
G02*
X157735000Y-92290000I-75000J0D01*
G01*
X156335000Y-92290000D01*
G75*
G02*
X156260000Y-92215000I0J75000D01*
G01*
G37*
G36*
G01*
X156260000Y-91715000D02*
X156260000Y-91565000D01*
G75*
G02*
X156335000Y-91490000I75000J0D01*
G01*
X157735000Y-91490000D01*
G75*
G02*
X157810000Y-91565000I0J-75000D01*
G01*
X157810000Y-91715000D01*
G75*
G02*
X157735000Y-91790000I-75000J0D01*
G01*
X156335000Y-91790000D01*
G75*
G02*
X156260000Y-91715000I0J75000D01*
G01*
G37*
G36*
G01*
X156260000Y-91215000D02*
X156260000Y-91065000D01*
G75*
G02*
X156335000Y-90990000I75000J0D01*
G01*
X157735000Y-90990000D01*
G75*
G02*
X157810000Y-91065000I0J-75000D01*
G01*
X157810000Y-91215000D01*
G75*
G02*
X157735000Y-91290000I-75000J0D01*
G01*
X156335000Y-91290000D01*
G75*
G02*
X156260000Y-91215000I0J75000D01*
G01*
G37*
G36*
G01*
X156260000Y-90715000D02*
X156260000Y-90565000D01*
G75*
G02*
X156335000Y-90490000I75000J0D01*
G01*
X157735000Y-90490000D01*
G75*
G02*
X157810000Y-90565000I0J-75000D01*
G01*
X157810000Y-90715000D01*
G75*
G02*
X157735000Y-90790000I-75000J0D01*
G01*
X156335000Y-90790000D01*
G75*
G02*
X156260000Y-90715000I0J75000D01*
G01*
G37*
G36*
G01*
X154960000Y-89415000D02*
X154960000Y-88015000D01*
G75*
G02*
X155035000Y-87940000I75000J0D01*
G01*
X155185000Y-87940000D01*
G75*
G02*
X155260000Y-88015000I0J-75000D01*
G01*
X155260000Y-89415000D01*
G75*
G02*
X155185000Y-89490000I-75000J0D01*
G01*
X155035000Y-89490000D01*
G75*
G02*
X154960000Y-89415000I0J75000D01*
G01*
G37*
G36*
G01*
X154460000Y-89415000D02*
X154460000Y-88015000D01*
G75*
G02*
X154535000Y-87940000I75000J0D01*
G01*
X154685000Y-87940000D01*
G75*
G02*
X154760000Y-88015000I0J-75000D01*
G01*
X154760000Y-89415000D01*
G75*
G02*
X154685000Y-89490000I-75000J0D01*
G01*
X154535000Y-89490000D01*
G75*
G02*
X154460000Y-89415000I0J75000D01*
G01*
G37*
G36*
G01*
X153960000Y-89415000D02*
X153960000Y-88015000D01*
G75*
G02*
X154035000Y-87940000I75000J0D01*
G01*
X154185000Y-87940000D01*
G75*
G02*
X154260000Y-88015000I0J-75000D01*
G01*
X154260000Y-89415000D01*
G75*
G02*
X154185000Y-89490000I-75000J0D01*
G01*
X154035000Y-89490000D01*
G75*
G02*
X153960000Y-89415000I0J75000D01*
G01*
G37*
G36*
G01*
X153460000Y-89415000D02*
X153460000Y-88015000D01*
G75*
G02*
X153535000Y-87940000I75000J0D01*
G01*
X153685000Y-87940000D01*
G75*
G02*
X153760000Y-88015000I0J-75000D01*
G01*
X153760000Y-89415000D01*
G75*
G02*
X153685000Y-89490000I-75000J0D01*
G01*
X153535000Y-89490000D01*
G75*
G02*
X153460000Y-89415000I0J75000D01*
G01*
G37*
G36*
G01*
X152960000Y-89415000D02*
X152960000Y-88015000D01*
G75*
G02*
X153035000Y-87940000I75000J0D01*
G01*
X153185000Y-87940000D01*
G75*
G02*
X153260000Y-88015000I0J-75000D01*
G01*
X153260000Y-89415000D01*
G75*
G02*
X153185000Y-89490000I-75000J0D01*
G01*
X153035000Y-89490000D01*
G75*
G02*
X152960000Y-89415000I0J75000D01*
G01*
G37*
G36*
G01*
X152460000Y-89415000D02*
X152460000Y-88015000D01*
G75*
G02*
X152535000Y-87940000I75000J0D01*
G01*
X152685000Y-87940000D01*
G75*
G02*
X152760000Y-88015000I0J-75000D01*
G01*
X152760000Y-89415000D01*
G75*
G02*
X152685000Y-89490000I-75000J0D01*
G01*
X152535000Y-89490000D01*
G75*
G02*
X152460000Y-89415000I0J75000D01*
G01*
G37*
G36*
G01*
X151960000Y-89415000D02*
X151960000Y-88015000D01*
G75*
G02*
X152035000Y-87940000I75000J0D01*
G01*
X152185000Y-87940000D01*
G75*
G02*
X152260000Y-88015000I0J-75000D01*
G01*
X152260000Y-89415000D01*
G75*
G02*
X152185000Y-89490000I-75000J0D01*
G01*
X152035000Y-89490000D01*
G75*
G02*
X151960000Y-89415000I0J75000D01*
G01*
G37*
G36*
G01*
X151460000Y-89415000D02*
X151460000Y-88015000D01*
G75*
G02*
X151535000Y-87940000I75000J0D01*
G01*
X151685000Y-87940000D01*
G75*
G02*
X151760000Y-88015000I0J-75000D01*
G01*
X151760000Y-89415000D01*
G75*
G02*
X151685000Y-89490000I-75000J0D01*
G01*
X151535000Y-89490000D01*
G75*
G02*
X151460000Y-89415000I0J75000D01*
G01*
G37*
G36*
G01*
X150960000Y-89415000D02*
X150960000Y-88015000D01*
G75*
G02*
X151035000Y-87940000I75000J0D01*
G01*
X151185000Y-87940000D01*
G75*
G02*
X151260000Y-88015000I0J-75000D01*
G01*
X151260000Y-89415000D01*
G75*
G02*
X151185000Y-89490000I-75000J0D01*
G01*
X151035000Y-89490000D01*
G75*
G02*
X150960000Y-89415000I0J75000D01*
G01*
G37*
G36*
G01*
X150460000Y-89415000D02*
X150460000Y-88015000D01*
G75*
G02*
X150535000Y-87940000I75000J0D01*
G01*
X150685000Y-87940000D01*
G75*
G02*
X150760000Y-88015000I0J-75000D01*
G01*
X150760000Y-89415000D01*
G75*
G02*
X150685000Y-89490000I-75000J0D01*
G01*
X150535000Y-89490000D01*
G75*
G02*
X150460000Y-89415000I0J75000D01*
G01*
G37*
G36*
G01*
X149960000Y-89415000D02*
X149960000Y-88015000D01*
G75*
G02*
X150035000Y-87940000I75000J0D01*
G01*
X150185000Y-87940000D01*
G75*
G02*
X150260000Y-88015000I0J-75000D01*
G01*
X150260000Y-89415000D01*
G75*
G02*
X150185000Y-89490000I-75000J0D01*
G01*
X150035000Y-89490000D01*
G75*
G02*
X149960000Y-89415000I0J75000D01*
G01*
G37*
G36*
G01*
X149460000Y-89415000D02*
X149460000Y-88015000D01*
G75*
G02*
X149535000Y-87940000I75000J0D01*
G01*
X149685000Y-87940000D01*
G75*
G02*
X149760000Y-88015000I0J-75000D01*
G01*
X149760000Y-89415000D01*
G75*
G02*
X149685000Y-89490000I-75000J0D01*
G01*
X149535000Y-89490000D01*
G75*
G02*
X149460000Y-89415000I0J75000D01*
G01*
G37*
G36*
G01*
X148960000Y-89415000D02*
X148960000Y-88015000D01*
G75*
G02*
X149035000Y-87940000I75000J0D01*
G01*
X149185000Y-87940000D01*
G75*
G02*
X149260000Y-88015000I0J-75000D01*
G01*
X149260000Y-89415000D01*
G75*
G02*
X149185000Y-89490000I-75000J0D01*
G01*
X149035000Y-89490000D01*
G75*
G02*
X148960000Y-89415000I0J75000D01*
G01*
G37*
G36*
G01*
X148460000Y-89415000D02*
X148460000Y-88015000D01*
G75*
G02*
X148535000Y-87940000I75000J0D01*
G01*
X148685000Y-87940000D01*
G75*
G02*
X148760000Y-88015000I0J-75000D01*
G01*
X148760000Y-89415000D01*
G75*
G02*
X148685000Y-89490000I-75000J0D01*
G01*
X148535000Y-89490000D01*
G75*
G02*
X148460000Y-89415000I0J75000D01*
G01*
G37*
G36*
G01*
X147960000Y-89415000D02*
X147960000Y-88015000D01*
G75*
G02*
X148035000Y-87940000I75000J0D01*
G01*
X148185000Y-87940000D01*
G75*
G02*
X148260000Y-88015000I0J-75000D01*
G01*
X148260000Y-89415000D01*
G75*
G02*
X148185000Y-89490000I-75000J0D01*
G01*
X148035000Y-89490000D01*
G75*
G02*
X147960000Y-89415000I0J75000D01*
G01*
G37*
G36*
G01*
X147460000Y-89415000D02*
X147460000Y-88015000D01*
G75*
G02*
X147535000Y-87940000I75000J0D01*
G01*
X147685000Y-87940000D01*
G75*
G02*
X147760000Y-88015000I0J-75000D01*
G01*
X147760000Y-89415000D01*
G75*
G02*
X147685000Y-89490000I-75000J0D01*
G01*
X147535000Y-89490000D01*
G75*
G02*
X147460000Y-89415000I0J75000D01*
G01*
G37*
%TD*%
D14*
%TO.C,D1*%
X173650000Y-91080000D03*
X170350000Y-91080000D03*
%TD*%
%TO.C,C1*%
G36*
G01*
X176550000Y-100649999D02*
X176550000Y-101950001D01*
G75*
G02*
X176300001Y-102200000I-249999J0D01*
G01*
X175649999Y-102200000D01*
G75*
G02*
X175400000Y-101950001I0J249999D01*
G01*
X175400000Y-100649999D01*
G75*
G02*
X175649999Y-100400000I249999J0D01*
G01*
X176300001Y-100400000D01*
G75*
G02*
X176550000Y-100649999I0J-249999D01*
G01*
G37*
G36*
G01*
X173600000Y-100649999D02*
X173600000Y-101950001D01*
G75*
G02*
X173350001Y-102200000I-249999J0D01*
G01*
X172699999Y-102200000D01*
G75*
G02*
X172450000Y-101950001I0J249999D01*
G01*
X172450000Y-100649999D01*
G75*
G02*
X172699999Y-100400000I249999J0D01*
G01*
X173350001Y-100400000D01*
G75*
G02*
X173600000Y-100649999I0J-249999D01*
G01*
G37*
%TD*%
%TO.C,C2*%
G36*
G01*
X174950000Y-105005000D02*
X175450000Y-105005000D01*
G75*
G02*
X175675000Y-105230000I0J-225000D01*
G01*
X175675000Y-105680000D01*
G75*
G02*
X175450000Y-105905000I-225000J0D01*
G01*
X174950000Y-105905000D01*
G75*
G02*
X174725000Y-105680000I0J225000D01*
G01*
X174725000Y-105230000D01*
G75*
G02*
X174950000Y-105005000I225000J0D01*
G01*
G37*
G36*
G01*
X174950000Y-103455000D02*
X175450000Y-103455000D01*
G75*
G02*
X175675000Y-103680000I0J-225000D01*
G01*
X175675000Y-104130000D01*
G75*
G02*
X175450000Y-104355000I-225000J0D01*
G01*
X174950000Y-104355000D01*
G75*
G02*
X174725000Y-104130000I0J225000D01*
G01*
X174725000Y-103680000D01*
G75*
G02*
X174950000Y-103455000I225000J0D01*
G01*
G37*
%TD*%
%TO.C,C3*%
G36*
G01*
X174250000Y-122030001D02*
X174250000Y-120729999D01*
G75*
G02*
X174499999Y-120480000I249999J0D01*
G01*
X175150001Y-120480000D01*
G75*
G02*
X175400000Y-120729999I0J-249999D01*
G01*
X175400000Y-122030001D01*
G75*
G02*
X175150001Y-122280000I-249999J0D01*
G01*
X174499999Y-122280000D01*
G75*
G02*
X174250000Y-122030001I0J249999D01*
G01*
G37*
G36*
G01*
X171300000Y-122030001D02*
X171300000Y-120729999D01*
G75*
G02*
X171549999Y-120480000I249999J0D01*
G01*
X172200001Y-120480000D01*
G75*
G02*
X172450000Y-120729999I0J-249999D01*
G01*
X172450000Y-122030001D01*
G75*
G02*
X172200001Y-122280000I-249999J0D01*
G01*
X171549999Y-122280000D01*
G75*
G02*
X171300000Y-122030001I0J249999D01*
G01*
G37*
%TD*%
%TO.C,C4*%
G36*
G01*
X171350000Y-118630001D02*
X171350000Y-117329999D01*
G75*
G02*
X171599999Y-117080000I249999J0D01*
G01*
X172250001Y-117080000D01*
G75*
G02*
X172500000Y-117329999I0J-249999D01*
G01*
X172500000Y-118630001D01*
G75*
G02*
X172250001Y-118880000I-249999J0D01*
G01*
X171599999Y-118880000D01*
G75*
G02*
X171350000Y-118630001I0J249999D01*
G01*
G37*
G36*
G01*
X174300000Y-118630001D02*
X174300000Y-117329999D01*
G75*
G02*
X174549999Y-117080000I249999J0D01*
G01*
X175200001Y-117080000D01*
G75*
G02*
X175450000Y-117329999I0J-249999D01*
G01*
X175450000Y-118630001D01*
G75*
G02*
X175200001Y-118880000I-249999J0D01*
G01*
X174549999Y-118880000D01*
G75*
G02*
X174300000Y-118630001I0J249999D01*
G01*
G37*
%TD*%
%TO.C,C5*%
G36*
G01*
X145975000Y-86820000D02*
X145975000Y-87320000D01*
G75*
G02*
X145750000Y-87545000I-225000J0D01*
G01*
X145300000Y-87545000D01*
G75*
G02*
X145075000Y-87320000I0J225000D01*
G01*
X145075000Y-86820000D01*
G75*
G02*
X145300000Y-86595000I225000J0D01*
G01*
X145750000Y-86595000D01*
G75*
G02*
X145975000Y-86820000I0J-225000D01*
G01*
G37*
G36*
G01*
X144425000Y-86820000D02*
X144425000Y-87320000D01*
G75*
G02*
X144200000Y-87545000I-225000J0D01*
G01*
X143750000Y-87545000D01*
G75*
G02*
X143525000Y-87320000I0J225000D01*
G01*
X143525000Y-86820000D01*
G75*
G02*
X143750000Y-86595000I225000J0D01*
G01*
X144200000Y-86595000D01*
G75*
G02*
X144425000Y-86820000I0J-225000D01*
G01*
G37*
%TD*%
%TO.C,C6*%
G36*
G01*
X155475000Y-102200000D02*
X155475000Y-101700000D01*
G75*
G02*
X155700000Y-101475000I225000J0D01*
G01*
X156150000Y-101475000D01*
G75*
G02*
X156375000Y-101700000I0J-225000D01*
G01*
X156375000Y-102200000D01*
G75*
G02*
X156150000Y-102425000I-225000J0D01*
G01*
X155700000Y-102425000D01*
G75*
G02*
X155475000Y-102200000I0J225000D01*
G01*
G37*
G36*
G01*
X157025000Y-102200000D02*
X157025000Y-101700000D01*
G75*
G02*
X157250000Y-101475000I225000J0D01*
G01*
X157700000Y-101475000D01*
G75*
G02*
X157925000Y-101700000I0J-225000D01*
G01*
X157925000Y-102200000D01*
G75*
G02*
X157700000Y-102425000I-225000J0D01*
G01*
X157250000Y-102425000D01*
G75*
G02*
X157025000Y-102200000I0J225000D01*
G01*
G37*
%TD*%
%TO.C,C7*%
G36*
G01*
X143870000Y-90880000D02*
X143530000Y-90880000D01*
G75*
G02*
X143390000Y-90740000I0J140000D01*
G01*
X143390000Y-90460000D01*
G75*
G02*
X143530000Y-90320000I140000J0D01*
G01*
X143870000Y-90320000D01*
G75*
G02*
X144010000Y-90460000I0J-140000D01*
G01*
X144010000Y-90740000D01*
G75*
G02*
X143870000Y-90880000I-140000J0D01*
G01*
G37*
G36*
G01*
X143870000Y-89920000D02*
X143530000Y-89920000D01*
G75*
G02*
X143390000Y-89780000I0J140000D01*
G01*
X143390000Y-89500000D01*
G75*
G02*
X143530000Y-89360000I140000J0D01*
G01*
X143870000Y-89360000D01*
G75*
G02*
X144010000Y-89500000I0J-140000D01*
G01*
X144010000Y-89780000D01*
G75*
G02*
X143870000Y-89920000I-140000J0D01*
G01*
G37*
%TD*%
%TO.C,C8*%
G36*
G01*
X159170000Y-88815000D02*
X158670000Y-88815000D01*
G75*
G02*
X158445000Y-88590000I0J225000D01*
G01*
X158445000Y-88140000D01*
G75*
G02*
X158670000Y-87915000I225000J0D01*
G01*
X159170000Y-87915000D01*
G75*
G02*
X159395000Y-88140000I0J-225000D01*
G01*
X159395000Y-88590000D01*
G75*
G02*
X159170000Y-88815000I-225000J0D01*
G01*
G37*
G36*
G01*
X159170000Y-90365000D02*
X158670000Y-90365000D01*
G75*
G02*
X158445000Y-90140000I0J225000D01*
G01*
X158445000Y-89690000D01*
G75*
G02*
X158670000Y-89465000I225000J0D01*
G01*
X159170000Y-89465000D01*
G75*
G02*
X159395000Y-89690000I0J-225000D01*
G01*
X159395000Y-90140000D01*
G75*
G02*
X159170000Y-90365000I-225000J0D01*
G01*
G37*
%TD*%
%TO.C,C9*%
G36*
G01*
X148730000Y-101700000D02*
X148730000Y-102040000D01*
G75*
G02*
X148590000Y-102180000I-140000J0D01*
G01*
X148310000Y-102180000D01*
G75*
G02*
X148170000Y-102040000I0J140000D01*
G01*
X148170000Y-101700000D01*
G75*
G02*
X148310000Y-101560000I140000J0D01*
G01*
X148590000Y-101560000D01*
G75*
G02*
X148730000Y-101700000I0J-140000D01*
G01*
G37*
G36*
G01*
X147770000Y-101700000D02*
X147770000Y-102040000D01*
G75*
G02*
X147630000Y-102180000I-140000J0D01*
G01*
X147350000Y-102180000D01*
G75*
G02*
X147210000Y-102040000I0J140000D01*
G01*
X147210000Y-101700000D01*
G75*
G02*
X147350000Y-101560000I140000J0D01*
G01*
X147630000Y-101560000D01*
G75*
G02*
X147770000Y-101700000I0J-140000D01*
G01*
G37*
%TD*%
%TO.C,C10*%
G36*
G01*
X157030000Y-100460000D02*
X157030000Y-100120000D01*
G75*
G02*
X157170000Y-99980000I140000J0D01*
G01*
X157450000Y-99980000D01*
G75*
G02*
X157590000Y-100120000I0J-140000D01*
G01*
X157590000Y-100460000D01*
G75*
G02*
X157450000Y-100600000I-140000J0D01*
G01*
X157170000Y-100600000D01*
G75*
G02*
X157030000Y-100460000I0J140000D01*
G01*
G37*
G36*
G01*
X156070000Y-100460000D02*
X156070000Y-100120000D01*
G75*
G02*
X156210000Y-99980000I140000J0D01*
G01*
X156490000Y-99980000D01*
G75*
G02*
X156630000Y-100120000I0J-140000D01*
G01*
X156630000Y-100460000D01*
G75*
G02*
X156490000Y-100600000I-140000J0D01*
G01*
X156210000Y-100600000D01*
G75*
G02*
X156070000Y-100460000I0J140000D01*
G01*
G37*
%TD*%
%TO.C,C11*%
G36*
G01*
X147520000Y-87220000D02*
X147520000Y-86880000D01*
G75*
G02*
X147660000Y-86740000I140000J0D01*
G01*
X147940000Y-86740000D01*
G75*
G02*
X148080000Y-86880000I0J-140000D01*
G01*
X148080000Y-87220000D01*
G75*
G02*
X147940000Y-87360000I-140000J0D01*
G01*
X147660000Y-87360000D01*
G75*
G02*
X147520000Y-87220000I0J140000D01*
G01*
G37*
G36*
G01*
X146560000Y-87220000D02*
X146560000Y-86880000D01*
G75*
G02*
X146700000Y-86740000I140000J0D01*
G01*
X146980000Y-86740000D01*
G75*
G02*
X147120000Y-86880000I0J-140000D01*
G01*
X147120000Y-87220000D01*
G75*
G02*
X146980000Y-87360000I-140000J0D01*
G01*
X146700000Y-87360000D01*
G75*
G02*
X146560000Y-87220000I0J140000D01*
G01*
G37*
%TD*%
%TO.C,C12*%
G36*
G01*
X157570000Y-89900000D02*
X157230000Y-89900000D01*
G75*
G02*
X157090000Y-89760000I0J140000D01*
G01*
X157090000Y-89480000D01*
G75*
G02*
X157230000Y-89340000I140000J0D01*
G01*
X157570000Y-89340000D01*
G75*
G02*
X157710000Y-89480000I0J-140000D01*
G01*
X157710000Y-89760000D01*
G75*
G02*
X157570000Y-89900000I-140000J0D01*
G01*
G37*
G36*
G01*
X157570000Y-88940000D02*
X157230000Y-88940000D01*
G75*
G02*
X157090000Y-88800000I0J140000D01*
G01*
X157090000Y-88520000D01*
G75*
G02*
X157230000Y-88380000I140000J0D01*
G01*
X157570000Y-88380000D01*
G75*
G02*
X157710000Y-88520000I0J-140000D01*
G01*
X157710000Y-88800000D01*
G75*
G02*
X157570000Y-88940000I-140000J0D01*
G01*
G37*
%TD*%
%TO.C,C13*%
G36*
G01*
X143260000Y-95870000D02*
X142920000Y-95870000D01*
G75*
G02*
X142780000Y-95730000I0J140000D01*
G01*
X142780000Y-95450000D01*
G75*
G02*
X142920000Y-95310000I140000J0D01*
G01*
X143260000Y-95310000D01*
G75*
G02*
X143400000Y-95450000I0J-140000D01*
G01*
X143400000Y-95730000D01*
G75*
G02*
X143260000Y-95870000I-140000J0D01*
G01*
G37*
G36*
G01*
X143260000Y-96830000D02*
X142920000Y-96830000D01*
G75*
G02*
X142780000Y-96690000I0J140000D01*
G01*
X142780000Y-96410000D01*
G75*
G02*
X142920000Y-96270000I140000J0D01*
G01*
X143260000Y-96270000D01*
G75*
G02*
X143400000Y-96410000I0J-140000D01*
G01*
X143400000Y-96690000D01*
G75*
G02*
X143260000Y-96830000I-140000J0D01*
G01*
G37*
%TD*%
%TO.C,C14*%
G36*
G01*
X144290000Y-96850000D02*
X143950000Y-96850000D01*
G75*
G02*
X143810000Y-96710000I0J140000D01*
G01*
X143810000Y-96430000D01*
G75*
G02*
X143950000Y-96290000I140000J0D01*
G01*
X144290000Y-96290000D01*
G75*
G02*
X144430000Y-96430000I0J-140000D01*
G01*
X144430000Y-96710000D01*
G75*
G02*
X144290000Y-96850000I-140000J0D01*
G01*
G37*
G36*
G01*
X144290000Y-95890000D02*
X143950000Y-95890000D01*
G75*
G02*
X143810000Y-95750000I0J140000D01*
G01*
X143810000Y-95470000D01*
G75*
G02*
X143950000Y-95330000I140000J0D01*
G01*
X144290000Y-95330000D01*
G75*
G02*
X144430000Y-95470000I0J-140000D01*
G01*
X144430000Y-95750000D01*
G75*
G02*
X144290000Y-95890000I-140000J0D01*
G01*
G37*
%TD*%
%TO.C,C17*%
G36*
G01*
X147160000Y-78030000D02*
X147500000Y-78030000D01*
G75*
G02*
X147640000Y-78170000I0J-140000D01*
G01*
X147640000Y-78450000D01*
G75*
G02*
X147500000Y-78590000I-140000J0D01*
G01*
X147160000Y-78590000D01*
G75*
G02*
X147020000Y-78450000I0J140000D01*
G01*
X147020000Y-78170000D01*
G75*
G02*
X147160000Y-78030000I140000J0D01*
G01*
G37*
G36*
G01*
X147160000Y-78990000D02*
X147500000Y-78990000D01*
G75*
G02*
X147640000Y-79130000I0J-140000D01*
G01*
X147640000Y-79410000D01*
G75*
G02*
X147500000Y-79550000I-140000J0D01*
G01*
X147160000Y-79550000D01*
G75*
G02*
X147020000Y-79410000I0J140000D01*
G01*
X147020000Y-79130000D01*
G75*
G02*
X147160000Y-78990000I140000J0D01*
G01*
G37*
%TD*%
%TO.C,C18*%
G36*
G01*
X160100000Y-103880000D02*
X160440000Y-103880000D01*
G75*
G02*
X160580000Y-104020000I0J-140000D01*
G01*
X160580000Y-104300000D01*
G75*
G02*
X160440000Y-104440000I-140000J0D01*
G01*
X160100000Y-104440000D01*
G75*
G02*
X159960000Y-104300000I0J140000D01*
G01*
X159960000Y-104020000D01*
G75*
G02*
X160100000Y-103880000I140000J0D01*
G01*
G37*
G36*
G01*
X160100000Y-102920000D02*
X160440000Y-102920000D01*
G75*
G02*
X160580000Y-103060000I0J-140000D01*
G01*
X160580000Y-103340000D01*
G75*
G02*
X160440000Y-103480000I-140000J0D01*
G01*
X160100000Y-103480000D01*
G75*
G02*
X159960000Y-103340000I0J140000D01*
G01*
X159960000Y-103060000D01*
G75*
G02*
X160100000Y-102920000I140000J0D01*
G01*
G37*
%TD*%
%TO.C,C19*%
G36*
G01*
X157740000Y-83260000D02*
X158080000Y-83260000D01*
G75*
G02*
X158220000Y-83400000I0J-140000D01*
G01*
X158220000Y-83680000D01*
G75*
G02*
X158080000Y-83820000I-140000J0D01*
G01*
X157740000Y-83820000D01*
G75*
G02*
X157600000Y-83680000I0J140000D01*
G01*
X157600000Y-83400000D01*
G75*
G02*
X157740000Y-83260000I140000J0D01*
G01*
G37*
G36*
G01*
X157740000Y-84220000D02*
X158080000Y-84220000D01*
G75*
G02*
X158220000Y-84360000I0J-140000D01*
G01*
X158220000Y-84640000D01*
G75*
G02*
X158080000Y-84780000I-140000J0D01*
G01*
X157740000Y-84780000D01*
G75*
G02*
X157600000Y-84640000I0J140000D01*
G01*
X157600000Y-84360000D01*
G75*
G02*
X157740000Y-84220000I140000J0D01*
G01*
G37*
%TD*%
%TO.C,C20*%
G36*
G01*
X156010000Y-82250000D02*
X156010000Y-81910000D01*
G75*
G02*
X156150000Y-81770000I140000J0D01*
G01*
X156430000Y-81770000D01*
G75*
G02*
X156570000Y-81910000I0J-140000D01*
G01*
X156570000Y-82250000D01*
G75*
G02*
X156430000Y-82390000I-140000J0D01*
G01*
X156150000Y-82390000D01*
G75*
G02*
X156010000Y-82250000I0J140000D01*
G01*
G37*
G36*
G01*
X155050000Y-82250000D02*
X155050000Y-81910000D01*
G75*
G02*
X155190000Y-81770000I140000J0D01*
G01*
X155470000Y-81770000D01*
G75*
G02*
X155610000Y-81910000I0J-140000D01*
G01*
X155610000Y-82250000D01*
G75*
G02*
X155470000Y-82390000I-140000J0D01*
G01*
X155190000Y-82390000D01*
G75*
G02*
X155050000Y-82250000I0J140000D01*
G01*
G37*
%TD*%
%TO.C,C21*%
G36*
G01*
X147360000Y-107430000D02*
X147360000Y-107770000D01*
G75*
G02*
X147220000Y-107910000I-140000J0D01*
G01*
X146940000Y-107910000D01*
G75*
G02*
X146800000Y-107770000I0J140000D01*
G01*
X146800000Y-107430000D01*
G75*
G02*
X146940000Y-107290000I140000J0D01*
G01*
X147220000Y-107290000D01*
G75*
G02*
X147360000Y-107430000I0J-140000D01*
G01*
G37*
G36*
G01*
X146400000Y-107430000D02*
X146400000Y-107770000D01*
G75*
G02*
X146260000Y-107910000I-140000J0D01*
G01*
X145980000Y-107910000D01*
G75*
G02*
X145840000Y-107770000I0J140000D01*
G01*
X145840000Y-107430000D01*
G75*
G02*
X145980000Y-107290000I140000J0D01*
G01*
X146260000Y-107290000D01*
G75*
G02*
X146400000Y-107430000I0J-140000D01*
G01*
G37*
%TD*%
%TO.C,C22*%
G36*
G01*
X148290000Y-112540000D02*
X148290000Y-112880000D01*
G75*
G02*
X148150000Y-113020000I-140000J0D01*
G01*
X147870000Y-113020000D01*
G75*
G02*
X147730000Y-112880000I0J140000D01*
G01*
X147730000Y-112540000D01*
G75*
G02*
X147870000Y-112400000I140000J0D01*
G01*
X148150000Y-112400000D01*
G75*
G02*
X148290000Y-112540000I0J-140000D01*
G01*
G37*
G36*
G01*
X149250000Y-112540000D02*
X149250000Y-112880000D01*
G75*
G02*
X149110000Y-113020000I-140000J0D01*
G01*
X148830000Y-113020000D01*
G75*
G02*
X148690000Y-112880000I0J140000D01*
G01*
X148690000Y-112540000D01*
G75*
G02*
X148830000Y-112400000I140000J0D01*
G01*
X149110000Y-112400000D01*
G75*
G02*
X149250000Y-112540000I0J-140000D01*
G01*
G37*
%TD*%
%TO.C,C23*%
G36*
G01*
X160540000Y-72840000D02*
X160200000Y-72840000D01*
G75*
G02*
X160060000Y-72700000I0J140000D01*
G01*
X160060000Y-72420000D01*
G75*
G02*
X160200000Y-72280000I140000J0D01*
G01*
X160540000Y-72280000D01*
G75*
G02*
X160680000Y-72420000I0J-140000D01*
G01*
X160680000Y-72700000D01*
G75*
G02*
X160540000Y-72840000I-140000J0D01*
G01*
G37*
G36*
G01*
X160540000Y-73800000D02*
X160200000Y-73800000D01*
G75*
G02*
X160060000Y-73660000I0J140000D01*
G01*
X160060000Y-73380000D01*
G75*
G02*
X160200000Y-73240000I140000J0D01*
G01*
X160540000Y-73240000D01*
G75*
G02*
X160680000Y-73380000I0J-140000D01*
G01*
X160680000Y-73660000D01*
G75*
G02*
X160540000Y-73800000I-140000J0D01*
G01*
G37*
%TD*%
%TO.C,D2*%
X171700000Y-108490000D03*
X175000000Y-108490000D03*
%TD*%
%TO.C,D3*%
G36*
G01*
X163093750Y-114040000D02*
X163606250Y-114040000D01*
G75*
G02*
X163825000Y-114258750I0J-218750D01*
G01*
X163825000Y-114696250D01*
G75*
G02*
X163606250Y-114915000I-218750J0D01*
G01*
X163093750Y-114915000D01*
G75*
G02*
X162875000Y-114696250I0J218750D01*
G01*
X162875000Y-114258750D01*
G75*
G02*
X163093750Y-114040000I218750J0D01*
G01*
G37*
G36*
G01*
X163093750Y-112465000D02*
X163606250Y-112465000D01*
G75*
G02*
X163825000Y-112683750I0J-218750D01*
G01*
X163825000Y-113121250D01*
G75*
G02*
X163606250Y-113340000I-218750J0D01*
G01*
X163093750Y-113340000D01*
G75*
G02*
X162875000Y-113121250I0J218750D01*
G01*
X162875000Y-112683750D01*
G75*
G02*
X163093750Y-112465000I218750J0D01*
G01*
G37*
%TD*%
%TO.C,D4*%
G36*
G01*
X152875000Y-73013750D02*
X152875000Y-73526250D01*
G75*
G02*
X152656250Y-73745000I-218750J0D01*
G01*
X152218750Y-73745000D01*
G75*
G02*
X152000000Y-73526250I0J218750D01*
G01*
X152000000Y-73013750D01*
G75*
G02*
X152218750Y-72795000I218750J0D01*
G01*
X152656250Y-72795000D01*
G75*
G02*
X152875000Y-73013750I0J-218750D01*
G01*
G37*
G36*
G01*
X151300000Y-73013750D02*
X151300000Y-73526250D01*
G75*
G02*
X151081250Y-73745000I-218750J0D01*
G01*
X150643750Y-73745000D01*
G75*
G02*
X150425000Y-73526250I0J218750D01*
G01*
X150425000Y-73013750D01*
G75*
G02*
X150643750Y-72795000I218750J0D01*
G01*
X151081250Y-72795000D01*
G75*
G02*
X151300000Y-73013750I0J-218750D01*
G01*
G37*
%TD*%
%TO.C,F1*%
G36*
G01*
X170925000Y-97025000D02*
X169675000Y-97025000D01*
G75*
G02*
X169425000Y-96775000I0J250000D01*
G01*
X169425000Y-96025000D01*
G75*
G02*
X169675000Y-95775000I250000J0D01*
G01*
X170925000Y-95775000D01*
G75*
G02*
X171175000Y-96025000I0J-250000D01*
G01*
X171175000Y-96775000D01*
G75*
G02*
X170925000Y-97025000I-250000J0D01*
G01*
G37*
G36*
G01*
X170925000Y-94225000D02*
X169675000Y-94225000D01*
G75*
G02*
X169425000Y-93975000I0J250000D01*
G01*
X169425000Y-93225000D01*
G75*
G02*
X169675000Y-92975000I250000J0D01*
G01*
X170925000Y-92975000D01*
G75*
G02*
X171175000Y-93225000I0J-250000D01*
G01*
X171175000Y-93975000D01*
G75*
G02*
X170925000Y-94225000I-250000J0D01*
G01*
G37*
%TD*%
%TO.C,FB2*%
G36*
G01*
X141940000Y-97648750D02*
X141940000Y-98411250D01*
G75*
G02*
X141721250Y-98630000I-218750J0D01*
G01*
X141283750Y-98630000D01*
G75*
G02*
X141065000Y-98411250I0J218750D01*
G01*
X141065000Y-97648750D01*
G75*
G02*
X141283750Y-97430000I218750J0D01*
G01*
X141721250Y-97430000D01*
G75*
G02*
X141940000Y-97648750I0J-218750D01*
G01*
G37*
G36*
G01*
X139815000Y-97648750D02*
X139815000Y-98411250D01*
G75*
G02*
X139596250Y-98630000I-218750J0D01*
G01*
X139158750Y-98630000D01*
G75*
G02*
X138940000Y-98411250I0J218750D01*
G01*
X138940000Y-97648750D01*
G75*
G02*
X139158750Y-97430000I218750J0D01*
G01*
X139596250Y-97430000D01*
G75*
G02*
X139815000Y-97648750I0J-218750D01*
G01*
G37*
%TD*%
D15*
%TO.C,J5*%
X168390000Y-68490000D03*
X168390000Y-72390000D03*
X167120000Y-68490000D03*
X167120000Y-72390000D03*
X165850000Y-68490000D03*
X165850000Y-72390000D03*
X164580000Y-68490000D03*
X164580000Y-72390000D03*
X163310000Y-68490000D03*
X163310000Y-72390000D03*
%TD*%
D16*
%TO.C,L1*%
X172760000Y-111060000D03*
X172760000Y-115160000D03*
%TD*%
D17*
%TO.C,Q1*%
X175250000Y-93300000D03*
X173350000Y-93300000D03*
X174300000Y-95300000D03*
%TD*%
%TO.C,R1*%
G36*
G01*
X177325000Y-101715000D02*
X177325000Y-101165000D01*
G75*
G02*
X177525000Y-100965000I200000J0D01*
G01*
X177925000Y-100965000D01*
G75*
G02*
X178125000Y-101165000I0J-200000D01*
G01*
X178125000Y-101715000D01*
G75*
G02*
X177925000Y-101915000I-200000J0D01*
G01*
X177525000Y-101915000D01*
G75*
G02*
X177325000Y-101715000I0J200000D01*
G01*
G37*
G36*
G01*
X178975000Y-101715000D02*
X178975000Y-101165000D01*
G75*
G02*
X179175000Y-100965000I200000J0D01*
G01*
X179575000Y-100965000D01*
G75*
G02*
X179775000Y-101165000I0J-200000D01*
G01*
X179775000Y-101715000D01*
G75*
G02*
X179575000Y-101915000I-200000J0D01*
G01*
X179175000Y-101915000D01*
G75*
G02*
X178975000Y-101715000I0J200000D01*
G01*
G37*
%TD*%
%TO.C,R2*%
G36*
G01*
X180875000Y-102695000D02*
X181425000Y-102695000D01*
G75*
G02*
X181625000Y-102895000I0J-200000D01*
G01*
X181625000Y-103295000D01*
G75*
G02*
X181425000Y-103495000I-200000J0D01*
G01*
X180875000Y-103495000D01*
G75*
G02*
X180675000Y-103295000I0J200000D01*
G01*
X180675000Y-102895000D01*
G75*
G02*
X180875000Y-102695000I200000J0D01*
G01*
G37*
G36*
G01*
X180875000Y-101045000D02*
X181425000Y-101045000D01*
G75*
G02*
X181625000Y-101245000I0J-200000D01*
G01*
X181625000Y-101645000D01*
G75*
G02*
X181425000Y-101845000I-200000J0D01*
G01*
X180875000Y-101845000D01*
G75*
G02*
X180675000Y-101645000I0J200000D01*
G01*
X180675000Y-101245000D01*
G75*
G02*
X180875000Y-101045000I200000J0D01*
G01*
G37*
%TD*%
%TO.C,R3*%
G36*
G01*
X181245000Y-105615000D02*
X181245000Y-106165000D01*
G75*
G02*
X181045000Y-106365000I-200000J0D01*
G01*
X180645000Y-106365000D01*
G75*
G02*
X180445000Y-106165000I0J200000D01*
G01*
X180445000Y-105615000D01*
G75*
G02*
X180645000Y-105415000I200000J0D01*
G01*
X181045000Y-105415000D01*
G75*
G02*
X181245000Y-105615000I0J-200000D01*
G01*
G37*
G36*
G01*
X182895000Y-105615000D02*
X182895000Y-106165000D01*
G75*
G02*
X182695000Y-106365000I-200000J0D01*
G01*
X182295000Y-106365000D01*
G75*
G02*
X182095000Y-106165000I0J200000D01*
G01*
X182095000Y-105615000D01*
G75*
G02*
X182295000Y-105415000I200000J0D01*
G01*
X182695000Y-105415000D01*
G75*
G02*
X182895000Y-105615000I0J-200000D01*
G01*
G37*
%TD*%
%TO.C,R4*%
G36*
G01*
X180455000Y-107875000D02*
X180455000Y-107325000D01*
G75*
G02*
X180655000Y-107125000I200000J0D01*
G01*
X181055000Y-107125000D01*
G75*
G02*
X181255000Y-107325000I0J-200000D01*
G01*
X181255000Y-107875000D01*
G75*
G02*
X181055000Y-108075000I-200000J0D01*
G01*
X180655000Y-108075000D01*
G75*
G02*
X180455000Y-107875000I0J200000D01*
G01*
G37*
G36*
G01*
X182105000Y-107875000D02*
X182105000Y-107325000D01*
G75*
G02*
X182305000Y-107125000I200000J0D01*
G01*
X182705000Y-107125000D01*
G75*
G02*
X182905000Y-107325000I0J-200000D01*
G01*
X182905000Y-107875000D01*
G75*
G02*
X182705000Y-108075000I-200000J0D01*
G01*
X182305000Y-108075000D01*
G75*
G02*
X182105000Y-107875000I0J200000D01*
G01*
G37*
%TD*%
%TO.C,R5*%
G36*
G01*
X181255000Y-108875000D02*
X181255000Y-109425000D01*
G75*
G02*
X181055000Y-109625000I-200000J0D01*
G01*
X180655000Y-109625000D01*
G75*
G02*
X180455000Y-109425000I0J200000D01*
G01*
X180455000Y-108875000D01*
G75*
G02*
X180655000Y-108675000I200000J0D01*
G01*
X181055000Y-108675000D01*
G75*
G02*
X181255000Y-108875000I0J-200000D01*
G01*
G37*
G36*
G01*
X182905000Y-108875000D02*
X182905000Y-109425000D01*
G75*
G02*
X182705000Y-109625000I-200000J0D01*
G01*
X182305000Y-109625000D01*
G75*
G02*
X182105000Y-109425000I0J200000D01*
G01*
X182105000Y-108875000D01*
G75*
G02*
X182305000Y-108675000I200000J0D01*
G01*
X182705000Y-108675000D01*
G75*
G02*
X182905000Y-108875000I0J-200000D01*
G01*
G37*
%TD*%
%TO.C,R6*%
G36*
G01*
X161505000Y-112455000D02*
X162055000Y-112455000D01*
G75*
G02*
X162255000Y-112655000I0J-200000D01*
G01*
X162255000Y-113055000D01*
G75*
G02*
X162055000Y-113255000I-200000J0D01*
G01*
X161505000Y-113255000D01*
G75*
G02*
X161305000Y-113055000I0J200000D01*
G01*
X161305000Y-112655000D01*
G75*
G02*
X161505000Y-112455000I200000J0D01*
G01*
G37*
G36*
G01*
X161505000Y-114105000D02*
X162055000Y-114105000D01*
G75*
G02*
X162255000Y-114305000I0J-200000D01*
G01*
X162255000Y-114705000D01*
G75*
G02*
X162055000Y-114905000I-200000J0D01*
G01*
X161505000Y-114905000D01*
G75*
G02*
X161305000Y-114705000I0J200000D01*
G01*
X161305000Y-114305000D01*
G75*
G02*
X161505000Y-114105000I200000J0D01*
G01*
G37*
%TD*%
%TO.C,R7*%
G36*
G01*
X142110000Y-74725000D02*
X142110000Y-75095000D01*
G75*
G02*
X141975000Y-75230000I-135000J0D01*
G01*
X141705000Y-75230000D01*
G75*
G02*
X141570000Y-75095000I0J135000D01*
G01*
X141570000Y-74725000D01*
G75*
G02*
X141705000Y-74590000I135000J0D01*
G01*
X141975000Y-74590000D01*
G75*
G02*
X142110000Y-74725000I0J-135000D01*
G01*
G37*
G36*
G01*
X141090000Y-74725000D02*
X141090000Y-75095000D01*
G75*
G02*
X140955000Y-75230000I-135000J0D01*
G01*
X140685000Y-75230000D01*
G75*
G02*
X140550000Y-75095000I0J135000D01*
G01*
X140550000Y-74725000D01*
G75*
G02*
X140685000Y-74590000I135000J0D01*
G01*
X140955000Y-74590000D01*
G75*
G02*
X141090000Y-74725000I0J-135000D01*
G01*
G37*
%TD*%
%TO.C,R8*%
G36*
G01*
X143910000Y-92765000D02*
X143910000Y-93135000D01*
G75*
G02*
X143775000Y-93270000I-135000J0D01*
G01*
X143505000Y-93270000D01*
G75*
G02*
X143370000Y-93135000I0J135000D01*
G01*
X143370000Y-92765000D01*
G75*
G02*
X143505000Y-92630000I135000J0D01*
G01*
X143775000Y-92630000D01*
G75*
G02*
X143910000Y-92765000I0J-135000D01*
G01*
G37*
G36*
G01*
X142890000Y-92765000D02*
X142890000Y-93135000D01*
G75*
G02*
X142755000Y-93270000I-135000J0D01*
G01*
X142485000Y-93270000D01*
G75*
G02*
X142350000Y-93135000I0J135000D01*
G01*
X142350000Y-92765000D01*
G75*
G02*
X142485000Y-92630000I135000J0D01*
G01*
X142755000Y-92630000D01*
G75*
G02*
X142890000Y-92765000I0J-135000D01*
G01*
G37*
%TD*%
%TO.C,R9*%
G36*
G01*
X136690000Y-75145000D02*
X136690000Y-74775000D01*
G75*
G02*
X136825000Y-74640000I135000J0D01*
G01*
X137095000Y-74640000D01*
G75*
G02*
X137230000Y-74775000I0J-135000D01*
G01*
X137230000Y-75145000D01*
G75*
G02*
X137095000Y-75280000I-135000J0D01*
G01*
X136825000Y-75280000D01*
G75*
G02*
X136690000Y-75145000I0J135000D01*
G01*
G37*
G36*
G01*
X135670000Y-75145000D02*
X135670000Y-74775000D01*
G75*
G02*
X135805000Y-74640000I135000J0D01*
G01*
X136075000Y-74640000D01*
G75*
G02*
X136210000Y-74775000I0J-135000D01*
G01*
X136210000Y-75145000D01*
G75*
G02*
X136075000Y-75280000I-135000J0D01*
G01*
X135805000Y-75280000D01*
G75*
G02*
X135670000Y-75145000I0J135000D01*
G01*
G37*
%TD*%
%TO.C,R10*%
G36*
G01*
X149200000Y-73465000D02*
X149200000Y-73095000D01*
G75*
G02*
X149335000Y-72960000I135000J0D01*
G01*
X149605000Y-72960000D01*
G75*
G02*
X149740000Y-73095000I0J-135000D01*
G01*
X149740000Y-73465000D01*
G75*
G02*
X149605000Y-73600000I-135000J0D01*
G01*
X149335000Y-73600000D01*
G75*
G02*
X149200000Y-73465000I0J135000D01*
G01*
G37*
G36*
G01*
X148180000Y-73465000D02*
X148180000Y-73095000D01*
G75*
G02*
X148315000Y-72960000I135000J0D01*
G01*
X148585000Y-72960000D01*
G75*
G02*
X148720000Y-73095000I0J-135000D01*
G01*
X148720000Y-73465000D01*
G75*
G02*
X148585000Y-73600000I-135000J0D01*
G01*
X148315000Y-73600000D01*
G75*
G02*
X148180000Y-73465000I0J135000D01*
G01*
G37*
%TD*%
%TO.C,R11*%
G36*
G01*
X152285000Y-81270000D02*
X152655000Y-81270000D01*
G75*
G02*
X152790000Y-81405000I0J-135000D01*
G01*
X152790000Y-81675000D01*
G75*
G02*
X152655000Y-81810000I-135000J0D01*
G01*
X152285000Y-81810000D01*
G75*
G02*
X152150000Y-81675000I0J135000D01*
G01*
X152150000Y-81405000D01*
G75*
G02*
X152285000Y-81270000I135000J0D01*
G01*
G37*
G36*
G01*
X152285000Y-80250000D02*
X152655000Y-80250000D01*
G75*
G02*
X152790000Y-80385000I0J-135000D01*
G01*
X152790000Y-80655000D01*
G75*
G02*
X152655000Y-80790000I-135000J0D01*
G01*
X152285000Y-80790000D01*
G75*
G02*
X152150000Y-80655000I0J135000D01*
G01*
X152150000Y-80385000D01*
G75*
G02*
X152285000Y-80250000I135000J0D01*
G01*
G37*
%TD*%
%TO.C,R12*%
G36*
G01*
X150925000Y-81360000D02*
X151295000Y-81360000D01*
G75*
G02*
X151430000Y-81495000I0J-135000D01*
G01*
X151430000Y-81765000D01*
G75*
G02*
X151295000Y-81900000I-135000J0D01*
G01*
X150925000Y-81900000D01*
G75*
G02*
X150790000Y-81765000I0J135000D01*
G01*
X150790000Y-81495000D01*
G75*
G02*
X150925000Y-81360000I135000J0D01*
G01*
G37*
G36*
G01*
X150925000Y-80340000D02*
X151295000Y-80340000D01*
G75*
G02*
X151430000Y-80475000I0J-135000D01*
G01*
X151430000Y-80745000D01*
G75*
G02*
X151295000Y-80880000I-135000J0D01*
G01*
X150925000Y-80880000D01*
G75*
G02*
X150790000Y-80745000I0J135000D01*
G01*
X150790000Y-80475000D01*
G75*
G02*
X150925000Y-80340000I135000J0D01*
G01*
G37*
%TD*%
%TO.C,R13*%
G36*
G01*
X149165000Y-81250000D02*
X149535000Y-81250000D01*
G75*
G02*
X149670000Y-81385000I0J-135000D01*
G01*
X149670000Y-81655000D01*
G75*
G02*
X149535000Y-81790000I-135000J0D01*
G01*
X149165000Y-81790000D01*
G75*
G02*
X149030000Y-81655000I0J135000D01*
G01*
X149030000Y-81385000D01*
G75*
G02*
X149165000Y-81250000I135000J0D01*
G01*
G37*
G36*
G01*
X149165000Y-80230000D02*
X149535000Y-80230000D01*
G75*
G02*
X149670000Y-80365000I0J-135000D01*
G01*
X149670000Y-80635000D01*
G75*
G02*
X149535000Y-80770000I-135000J0D01*
G01*
X149165000Y-80770000D01*
G75*
G02*
X149030000Y-80635000I0J135000D01*
G01*
X149030000Y-80365000D01*
G75*
G02*
X149165000Y-80230000I135000J0D01*
G01*
G37*
%TD*%
%TO.C,R14*%
G36*
G01*
X153825000Y-73545000D02*
X153825000Y-72995000D01*
G75*
G02*
X154025000Y-72795000I200000J0D01*
G01*
X154425000Y-72795000D01*
G75*
G02*
X154625000Y-72995000I0J-200000D01*
G01*
X154625000Y-73545000D01*
G75*
G02*
X154425000Y-73745000I-200000J0D01*
G01*
X154025000Y-73745000D01*
G75*
G02*
X153825000Y-73545000I0J200000D01*
G01*
G37*
G36*
G01*
X155475000Y-73545000D02*
X155475000Y-72995000D01*
G75*
G02*
X155675000Y-72795000I200000J0D01*
G01*
X156075000Y-72795000D01*
G75*
G02*
X156275000Y-72995000I0J-200000D01*
G01*
X156275000Y-73545000D01*
G75*
G02*
X156075000Y-73745000I-200000J0D01*
G01*
X155675000Y-73745000D01*
G75*
G02*
X155475000Y-73545000I0J200000D01*
G01*
G37*
%TD*%
%TO.C,R15*%
G36*
G01*
X153145000Y-102470000D02*
X153515000Y-102470000D01*
G75*
G02*
X153650000Y-102605000I0J-135000D01*
G01*
X153650000Y-102875000D01*
G75*
G02*
X153515000Y-103010000I-135000J0D01*
G01*
X153145000Y-103010000D01*
G75*
G02*
X153010000Y-102875000I0J135000D01*
G01*
X153010000Y-102605000D01*
G75*
G02*
X153145000Y-102470000I135000J0D01*
G01*
G37*
G36*
G01*
X153145000Y-103490000D02*
X153515000Y-103490000D01*
G75*
G02*
X153650000Y-103625000I0J-135000D01*
G01*
X153650000Y-103895000D01*
G75*
G02*
X153515000Y-104030000I-135000J0D01*
G01*
X153145000Y-104030000D01*
G75*
G02*
X153010000Y-103895000I0J135000D01*
G01*
X153010000Y-103625000D01*
G75*
G02*
X153145000Y-103490000I135000J0D01*
G01*
G37*
%TD*%
%TO.C,R16*%
G36*
G01*
X170885000Y-101110000D02*
X170515000Y-101110000D01*
G75*
G02*
X170380000Y-100975000I0J135000D01*
G01*
X170380000Y-100705000D01*
G75*
G02*
X170515000Y-100570000I135000J0D01*
G01*
X170885000Y-100570000D01*
G75*
G02*
X171020000Y-100705000I0J-135000D01*
G01*
X171020000Y-100975000D01*
G75*
G02*
X170885000Y-101110000I-135000J0D01*
G01*
G37*
G36*
G01*
X170885000Y-102130000D02*
X170515000Y-102130000D01*
G75*
G02*
X170380000Y-101995000I0J135000D01*
G01*
X170380000Y-101725000D01*
G75*
G02*
X170515000Y-101590000I135000J0D01*
G01*
X170885000Y-101590000D01*
G75*
G02*
X171020000Y-101725000I0J-135000D01*
G01*
X171020000Y-101995000D01*
G75*
G02*
X170885000Y-102130000I-135000J0D01*
G01*
G37*
%TD*%
%TO.C,R17*%
G36*
G01*
X159240000Y-102165000D02*
X159240000Y-101795000D01*
G75*
G02*
X159375000Y-101660000I135000J0D01*
G01*
X159645000Y-101660000D01*
G75*
G02*
X159780000Y-101795000I0J-135000D01*
G01*
X159780000Y-102165000D01*
G75*
G02*
X159645000Y-102300000I-135000J0D01*
G01*
X159375000Y-102300000D01*
G75*
G02*
X159240000Y-102165000I0J135000D01*
G01*
G37*
G36*
G01*
X160260000Y-102165000D02*
X160260000Y-101795000D01*
G75*
G02*
X160395000Y-101660000I135000J0D01*
G01*
X160665000Y-101660000D01*
G75*
G02*
X160800000Y-101795000I0J-135000D01*
G01*
X160800000Y-102165000D01*
G75*
G02*
X160665000Y-102300000I-135000J0D01*
G01*
X160395000Y-102300000D01*
G75*
G02*
X160260000Y-102165000I0J135000D01*
G01*
G37*
%TD*%
%TO.C,R18*%
G36*
G01*
X156055000Y-118730000D02*
X155685000Y-118730000D01*
G75*
G02*
X155550000Y-118595000I0J135000D01*
G01*
X155550000Y-118325000D01*
G75*
G02*
X155685000Y-118190000I135000J0D01*
G01*
X156055000Y-118190000D01*
G75*
G02*
X156190000Y-118325000I0J-135000D01*
G01*
X156190000Y-118595000D01*
G75*
G02*
X156055000Y-118730000I-135000J0D01*
G01*
G37*
G36*
G01*
X156055000Y-117710000D02*
X155685000Y-117710000D01*
G75*
G02*
X155550000Y-117575000I0J135000D01*
G01*
X155550000Y-117305000D01*
G75*
G02*
X155685000Y-117170000I135000J0D01*
G01*
X156055000Y-117170000D01*
G75*
G02*
X156190000Y-117305000I0J-135000D01*
G01*
X156190000Y-117575000D01*
G75*
G02*
X156055000Y-117710000I-135000J0D01*
G01*
G37*
%TD*%
%TO.C,R19*%
G36*
G01*
X157235000Y-117690000D02*
X156865000Y-117690000D01*
G75*
G02*
X156730000Y-117555000I0J135000D01*
G01*
X156730000Y-117285000D01*
G75*
G02*
X156865000Y-117150000I135000J0D01*
G01*
X157235000Y-117150000D01*
G75*
G02*
X157370000Y-117285000I0J-135000D01*
G01*
X157370000Y-117555000D01*
G75*
G02*
X157235000Y-117690000I-135000J0D01*
G01*
G37*
G36*
G01*
X157235000Y-118710000D02*
X156865000Y-118710000D01*
G75*
G02*
X156730000Y-118575000I0J135000D01*
G01*
X156730000Y-118305000D01*
G75*
G02*
X156865000Y-118170000I135000J0D01*
G01*
X157235000Y-118170000D01*
G75*
G02*
X157370000Y-118305000I0J-135000D01*
G01*
X157370000Y-118575000D01*
G75*
G02*
X157235000Y-118710000I-135000J0D01*
G01*
G37*
%TD*%
%TO.C,R20*%
G36*
G01*
X139355000Y-73660000D02*
X139725000Y-73660000D01*
G75*
G02*
X139860000Y-73795000I0J-135000D01*
G01*
X139860000Y-74065000D01*
G75*
G02*
X139725000Y-74200000I-135000J0D01*
G01*
X139355000Y-74200000D01*
G75*
G02*
X139220000Y-74065000I0J135000D01*
G01*
X139220000Y-73795000D01*
G75*
G02*
X139355000Y-73660000I135000J0D01*
G01*
G37*
G36*
G01*
X139355000Y-74680000D02*
X139725000Y-74680000D01*
G75*
G02*
X139860000Y-74815000I0J-135000D01*
G01*
X139860000Y-75085000D01*
G75*
G02*
X139725000Y-75220000I-135000J0D01*
G01*
X139355000Y-75220000D01*
G75*
G02*
X139220000Y-75085000I0J135000D01*
G01*
X139220000Y-74815000D01*
G75*
G02*
X139355000Y-74680000I135000J0D01*
G01*
G37*
%TD*%
%TO.C,R21*%
G36*
G01*
X137905000Y-73660000D02*
X138275000Y-73660000D01*
G75*
G02*
X138410000Y-73795000I0J-135000D01*
G01*
X138410000Y-74065000D01*
G75*
G02*
X138275000Y-74200000I-135000J0D01*
G01*
X137905000Y-74200000D01*
G75*
G02*
X137770000Y-74065000I0J135000D01*
G01*
X137770000Y-73795000D01*
G75*
G02*
X137905000Y-73660000I135000J0D01*
G01*
G37*
G36*
G01*
X137905000Y-74680000D02*
X138275000Y-74680000D01*
G75*
G02*
X138410000Y-74815000I0J-135000D01*
G01*
X138410000Y-75085000D01*
G75*
G02*
X138275000Y-75220000I-135000J0D01*
G01*
X137905000Y-75220000D01*
G75*
G02*
X137770000Y-75085000I0J135000D01*
G01*
X137770000Y-74815000D01*
G75*
G02*
X137905000Y-74680000I135000J0D01*
G01*
G37*
%TD*%
%TO.C,R22*%
G36*
G01*
X134060000Y-110945000D02*
X134060000Y-110575000D01*
G75*
G02*
X134195000Y-110440000I135000J0D01*
G01*
X134465000Y-110440000D01*
G75*
G02*
X134600000Y-110575000I0J-135000D01*
G01*
X134600000Y-110945000D01*
G75*
G02*
X134465000Y-111080000I-135000J0D01*
G01*
X134195000Y-111080000D01*
G75*
G02*
X134060000Y-110945000I0J135000D01*
G01*
G37*
G36*
G01*
X133040000Y-110945000D02*
X133040000Y-110575000D01*
G75*
G02*
X133175000Y-110440000I135000J0D01*
G01*
X133445000Y-110440000D01*
G75*
G02*
X133580000Y-110575000I0J-135000D01*
G01*
X133580000Y-110945000D01*
G75*
G02*
X133445000Y-111080000I-135000J0D01*
G01*
X133175000Y-111080000D01*
G75*
G02*
X133040000Y-110945000I0J135000D01*
G01*
G37*
%TD*%
%TO.C,R23*%
G36*
G01*
X133040000Y-112265000D02*
X133040000Y-111895000D01*
G75*
G02*
X133175000Y-111760000I135000J0D01*
G01*
X133445000Y-111760000D01*
G75*
G02*
X133580000Y-111895000I0J-135000D01*
G01*
X133580000Y-112265000D01*
G75*
G02*
X133445000Y-112400000I-135000J0D01*
G01*
X133175000Y-112400000D01*
G75*
G02*
X133040000Y-112265000I0J135000D01*
G01*
G37*
G36*
G01*
X134060000Y-112265000D02*
X134060000Y-111895000D01*
G75*
G02*
X134195000Y-111760000I135000J0D01*
G01*
X134465000Y-111760000D01*
G75*
G02*
X134600000Y-111895000I0J-135000D01*
G01*
X134600000Y-112265000D01*
G75*
G02*
X134465000Y-112400000I-135000J0D01*
G01*
X134195000Y-112400000D01*
G75*
G02*
X134060000Y-112265000I0J135000D01*
G01*
G37*
%TD*%
%TO.C,R24*%
G36*
G01*
X161585000Y-73830000D02*
X161215000Y-73830000D01*
G75*
G02*
X161080000Y-73695000I0J135000D01*
G01*
X161080000Y-73425000D01*
G75*
G02*
X161215000Y-73290000I135000J0D01*
G01*
X161585000Y-73290000D01*
G75*
G02*
X161720000Y-73425000I0J-135000D01*
G01*
X161720000Y-73695000D01*
G75*
G02*
X161585000Y-73830000I-135000J0D01*
G01*
G37*
G36*
G01*
X161585000Y-72810000D02*
X161215000Y-72810000D01*
G75*
G02*
X161080000Y-72675000I0J135000D01*
G01*
X161080000Y-72405000D01*
G75*
G02*
X161215000Y-72270000I135000J0D01*
G01*
X161585000Y-72270000D01*
G75*
G02*
X161720000Y-72405000I0J-135000D01*
G01*
X161720000Y-72675000D01*
G75*
G02*
X161585000Y-72810000I-135000J0D01*
G01*
G37*
%TD*%
%TO.C,R25*%
G36*
G01*
X168615000Y-76690000D02*
X168245000Y-76690000D01*
G75*
G02*
X168110000Y-76555000I0J135000D01*
G01*
X168110000Y-76285000D01*
G75*
G02*
X168245000Y-76150000I135000J0D01*
G01*
X168615000Y-76150000D01*
G75*
G02*
X168750000Y-76285000I0J-135000D01*
G01*
X168750000Y-76555000D01*
G75*
G02*
X168615000Y-76690000I-135000J0D01*
G01*
G37*
G36*
G01*
X168615000Y-75670000D02*
X168245000Y-75670000D01*
G75*
G02*
X168110000Y-75535000I0J135000D01*
G01*
X168110000Y-75265000D01*
G75*
G02*
X168245000Y-75130000I135000J0D01*
G01*
X168615000Y-75130000D01*
G75*
G02*
X168750000Y-75265000I0J-135000D01*
G01*
X168750000Y-75535000D01*
G75*
G02*
X168615000Y-75670000I-135000J0D01*
G01*
G37*
%TD*%
%TO.C,R26*%
G36*
G01*
X140285000Y-118240000D02*
X139915000Y-118240000D01*
G75*
G02*
X139780000Y-118105000I0J135000D01*
G01*
X139780000Y-117835000D01*
G75*
G02*
X139915000Y-117700000I135000J0D01*
G01*
X140285000Y-117700000D01*
G75*
G02*
X140420000Y-117835000I0J-135000D01*
G01*
X140420000Y-118105000D01*
G75*
G02*
X140285000Y-118240000I-135000J0D01*
G01*
G37*
G36*
G01*
X140285000Y-117220000D02*
X139915000Y-117220000D01*
G75*
G02*
X139780000Y-117085000I0J135000D01*
G01*
X139780000Y-116815000D01*
G75*
G02*
X139915000Y-116680000I135000J0D01*
G01*
X140285000Y-116680000D01*
G75*
G02*
X140420000Y-116815000I0J-135000D01*
G01*
X140420000Y-117085000D01*
G75*
G02*
X140285000Y-117220000I-135000J0D01*
G01*
G37*
%TD*%
%TO.C,R27*%
G36*
G01*
X141545000Y-117160000D02*
X141175000Y-117160000D01*
G75*
G02*
X141040000Y-117025000I0J135000D01*
G01*
X141040000Y-116755000D01*
G75*
G02*
X141175000Y-116620000I135000J0D01*
G01*
X141545000Y-116620000D01*
G75*
G02*
X141680000Y-116755000I0J-135000D01*
G01*
X141680000Y-117025000D01*
G75*
G02*
X141545000Y-117160000I-135000J0D01*
G01*
G37*
G36*
G01*
X141545000Y-118180000D02*
X141175000Y-118180000D01*
G75*
G02*
X141040000Y-118045000I0J135000D01*
G01*
X141040000Y-117775000D01*
G75*
G02*
X141175000Y-117640000I135000J0D01*
G01*
X141545000Y-117640000D01*
G75*
G02*
X141680000Y-117775000I0J-135000D01*
G01*
X141680000Y-118045000D01*
G75*
G02*
X141545000Y-118180000I-135000J0D01*
G01*
G37*
%TD*%
%TO.C,R28*%
G36*
G01*
X167405000Y-75670000D02*
X167035000Y-75670000D01*
G75*
G02*
X166900000Y-75535000I0J135000D01*
G01*
X166900000Y-75265000D01*
G75*
G02*
X167035000Y-75130000I135000J0D01*
G01*
X167405000Y-75130000D01*
G75*
G02*
X167540000Y-75265000I0J-135000D01*
G01*
X167540000Y-75535000D01*
G75*
G02*
X167405000Y-75670000I-135000J0D01*
G01*
G37*
G36*
G01*
X167405000Y-76690000D02*
X167035000Y-76690000D01*
G75*
G02*
X166900000Y-76555000I0J135000D01*
G01*
X166900000Y-76285000D01*
G75*
G02*
X167035000Y-76150000I135000J0D01*
G01*
X167405000Y-76150000D01*
G75*
G02*
X167540000Y-76285000I0J-135000D01*
G01*
X167540000Y-76555000D01*
G75*
G02*
X167405000Y-76690000I-135000J0D01*
G01*
G37*
%TD*%
%TO.C,R29*%
G36*
G01*
X166035000Y-75630000D02*
X165665000Y-75630000D01*
G75*
G02*
X165530000Y-75495000I0J135000D01*
G01*
X165530000Y-75225000D01*
G75*
G02*
X165665000Y-75090000I135000J0D01*
G01*
X166035000Y-75090000D01*
G75*
G02*
X166170000Y-75225000I0J-135000D01*
G01*
X166170000Y-75495000D01*
G75*
G02*
X166035000Y-75630000I-135000J0D01*
G01*
G37*
G36*
G01*
X166035000Y-76650000D02*
X165665000Y-76650000D01*
G75*
G02*
X165530000Y-76515000I0J135000D01*
G01*
X165530000Y-76245000D01*
G75*
G02*
X165665000Y-76110000I135000J0D01*
G01*
X166035000Y-76110000D01*
G75*
G02*
X166170000Y-76245000I0J-135000D01*
G01*
X166170000Y-76515000D01*
G75*
G02*
X166035000Y-76650000I-135000J0D01*
G01*
G37*
%TD*%
%TO.C,R30*%
G36*
G01*
X132030000Y-99515000D02*
X132030000Y-99145000D01*
G75*
G02*
X132165000Y-99010000I135000J0D01*
G01*
X132435000Y-99010000D01*
G75*
G02*
X132570000Y-99145000I0J-135000D01*
G01*
X132570000Y-99515000D01*
G75*
G02*
X132435000Y-99650000I-135000J0D01*
G01*
X132165000Y-99650000D01*
G75*
G02*
X132030000Y-99515000I0J135000D01*
G01*
G37*
G36*
G01*
X133050000Y-99515000D02*
X133050000Y-99145000D01*
G75*
G02*
X133185000Y-99010000I135000J0D01*
G01*
X133455000Y-99010000D01*
G75*
G02*
X133590000Y-99145000I0J-135000D01*
G01*
X133590000Y-99515000D01*
G75*
G02*
X133455000Y-99650000I-135000J0D01*
G01*
X133185000Y-99650000D01*
G75*
G02*
X133050000Y-99515000I0J135000D01*
G01*
G37*
%TD*%
%TO.C,R31*%
G36*
G01*
X133060000Y-100745000D02*
X133060000Y-100375000D01*
G75*
G02*
X133195000Y-100240000I135000J0D01*
G01*
X133465000Y-100240000D01*
G75*
G02*
X133600000Y-100375000I0J-135000D01*
G01*
X133600000Y-100745000D01*
G75*
G02*
X133465000Y-100880000I-135000J0D01*
G01*
X133195000Y-100880000D01*
G75*
G02*
X133060000Y-100745000I0J135000D01*
G01*
G37*
G36*
G01*
X132040000Y-100745000D02*
X132040000Y-100375000D01*
G75*
G02*
X132175000Y-100240000I135000J0D01*
G01*
X132445000Y-100240000D01*
G75*
G02*
X132580000Y-100375000I0J-135000D01*
G01*
X132580000Y-100745000D01*
G75*
G02*
X132445000Y-100880000I-135000J0D01*
G01*
X132175000Y-100880000D01*
G75*
G02*
X132040000Y-100745000I0J135000D01*
G01*
G37*
%TD*%
%TO.C,R32*%
G36*
G01*
X132740000Y-82935000D02*
X132740000Y-82565000D01*
G75*
G02*
X132875000Y-82430000I135000J0D01*
G01*
X133145000Y-82430000D01*
G75*
G02*
X133280000Y-82565000I0J-135000D01*
G01*
X133280000Y-82935000D01*
G75*
G02*
X133145000Y-83070000I-135000J0D01*
G01*
X132875000Y-83070000D01*
G75*
G02*
X132740000Y-82935000I0J135000D01*
G01*
G37*
G36*
G01*
X131720000Y-82935000D02*
X131720000Y-82565000D01*
G75*
G02*
X131855000Y-82430000I135000J0D01*
G01*
X132125000Y-82430000D01*
G75*
G02*
X132260000Y-82565000I0J-135000D01*
G01*
X132260000Y-82935000D01*
G75*
G02*
X132125000Y-83070000I-135000J0D01*
G01*
X131855000Y-83070000D01*
G75*
G02*
X131720000Y-82935000I0J135000D01*
G01*
G37*
%TD*%
%TO.C,R33*%
G36*
G01*
X131720000Y-84185000D02*
X131720000Y-83815000D01*
G75*
G02*
X131855000Y-83680000I135000J0D01*
G01*
X132125000Y-83680000D01*
G75*
G02*
X132260000Y-83815000I0J-135000D01*
G01*
X132260000Y-84185000D01*
G75*
G02*
X132125000Y-84320000I-135000J0D01*
G01*
X131855000Y-84320000D01*
G75*
G02*
X131720000Y-84185000I0J135000D01*
G01*
G37*
G36*
G01*
X132740000Y-84185000D02*
X132740000Y-83815000D01*
G75*
G02*
X132875000Y-83680000I135000J0D01*
G01*
X133145000Y-83680000D01*
G75*
G02*
X133280000Y-83815000I0J-135000D01*
G01*
X133280000Y-84185000D01*
G75*
G02*
X133145000Y-84320000I-135000J0D01*
G01*
X132875000Y-84320000D01*
G75*
G02*
X132740000Y-84185000I0J135000D01*
G01*
G37*
%TD*%
D18*
%TO.C,U1*%
X177120000Y-105750000D03*
X178070000Y-105750000D03*
X179020000Y-105750000D03*
X179020000Y-103550000D03*
X177120000Y-103550000D03*
X178070000Y-103550000D03*
%TD*%
D19*
%TO.C,U3*%
X169370000Y-100700000D03*
X169370000Y-99430000D03*
X169370000Y-101970000D03*
X169370000Y-103240000D03*
X161700000Y-101970000D03*
X161700000Y-103240000D03*
X161700000Y-100700000D03*
X161700000Y-99430000D03*
D20*
X165530000Y-101330000D03*
%TD*%
D21*
%TO.C,U4*%
X156775000Y-84760000D03*
X154825000Y-83160000D03*
X155475000Y-83160000D03*
X156125000Y-83160000D03*
X154825000Y-84760000D03*
X155475000Y-84760000D03*
X156125000Y-84760000D03*
X156775000Y-83160000D03*
%TD*%
D22*
%TO.C,U5*%
X148190000Y-111310000D03*
X147690000Y-111310000D03*
X147190000Y-111310000D03*
X146690000Y-111310000D03*
X148690000Y-111310000D03*
X149190000Y-111310000D03*
X149690000Y-111310000D03*
X149690000Y-108990000D03*
X149190000Y-108990000D03*
X148690000Y-108990000D03*
X148190000Y-108990000D03*
X147690000Y-109000000D03*
X147190000Y-109000000D03*
X146690000Y-109000000D03*
D23*
X150100000Y-110150000D03*
X146280000Y-110160000D03*
%TD*%
D24*
%TO.C,U6*%
X170900000Y-84500000D03*
X170900000Y-85450000D03*
X170900000Y-83550000D03*
X173100000Y-83550000D03*
X173100000Y-84500000D03*
X173100000Y-85450000D03*
%TD*%
D25*
%TO.C,Y1*%
X139490000Y-90650000D03*
X139490000Y-92850000D03*
X141190000Y-92850000D03*
X141190000Y-90650000D03*
%TD*%
M02*
