%TF.GenerationSoftware,KiCad,Pcbnew,(5.1.8)-1*%
%TF.CreationDate,2021-01-21T22:43:38-05:00*%
%TF.ProjectId,Sensor Project,53656e73-6f72-4205-9072-6f6a6563742e,rev?*%
%TF.SameCoordinates,Original*%
%TF.FileFunction,Copper,L4,Bot*%
%TF.FilePolarity,Positive*%
%FSLAX46Y46*%
G04 Gerber Fmt 4.6, Leading zero omitted, Abs format (unit mm)*
G04 Created by KiCad (PCBNEW (5.1.8)-1) date 2021-01-21 22:43:38*
%MOMM*%
%LPD*%
G01*
G04 APERTURE LIST*
%TA.AperFunction,ComponentPad*%
%ADD10O,1.800000X1.150000*%
%TD*%
%TA.AperFunction,ComponentPad*%
%ADD11O,2.000000X1.450000*%
%TD*%
%TA.AperFunction,ComponentPad*%
%ADD12C,2.400000*%
%TD*%
%TA.AperFunction,ComponentPad*%
%ADD13R,2.400000X2.400000*%
%TD*%
%TA.AperFunction,ComponentPad*%
%ADD14O,0.800000X1.300000*%
%TD*%
%TA.AperFunction,ComponentPad*%
%ADD15O,1.300000X0.800000*%
%TD*%
%TA.AperFunction,ViaPad*%
%ADD16C,0.800000*%
%TD*%
%TA.AperFunction,Conductor*%
%ADD17C,0.300000*%
%TD*%
%TA.AperFunction,Conductor*%
%ADD18C,0.250000*%
%TD*%
G04 APERTURE END LIST*
D10*
%TO.P,J1,6*%
%TO.N,Net-(J1-Pad6)*%
X183100000Y-79595000D03*
X183100000Y-87345000D03*
D11*
X179300000Y-79745000D03*
X179300000Y-87195000D03*
%TD*%
D12*
%TO.P,J2,2*%
%TO.N,GND*%
X179860000Y-93830000D03*
D13*
%TO.P,J2,1*%
%TO.N,VCC*%
X179860000Y-97330000D03*
%TD*%
D14*
%TO.P,J4,4*%
%TO.N,GND*%
X136840000Y-71030000D03*
%TO.P,J4,3*%
%TO.N,Net-(J4-Pad3)*%
X138090000Y-71030000D03*
%TO.P,J4,2*%
%TO.N,Net-(J4-Pad2)*%
X139340000Y-71030000D03*
%TO.P,J4,1*%
%TO.N,+3V3*%
%TA.AperFunction,ComponentPad*%
G36*
G01*
X140990000Y-70580000D02*
X140990000Y-71480000D01*
G75*
G02*
X140790000Y-71680000I-200000J0D01*
G01*
X140390000Y-71680000D01*
G75*
G02*
X140190000Y-71480000I0J200000D01*
G01*
X140190000Y-70580000D01*
G75*
G02*
X140390000Y-70380000I200000J0D01*
G01*
X140790000Y-70380000D01*
G75*
G02*
X140990000Y-70580000I0J-200000D01*
G01*
G37*
%TD.AperFunction*%
%TD*%
%TO.P,J3,4*%
%TO.N,GND*%
X158250000Y-121000000D03*
%TO.P,J3,3*%
%TO.N,Net-(J3-Pad3)*%
X157000000Y-121000000D03*
%TO.P,J3,2*%
%TO.N,Net-(J3-Pad2)*%
X155750000Y-121000000D03*
%TO.P,J3,1*%
%TO.N,+3V3*%
%TA.AperFunction,ComponentPad*%
G36*
G01*
X154100000Y-121450000D02*
X154100000Y-120550000D01*
G75*
G02*
X154300000Y-120350000I200000J0D01*
G01*
X154700000Y-120350000D01*
G75*
G02*
X154900000Y-120550000I0J-200000D01*
G01*
X154900000Y-121450000D01*
G75*
G02*
X154700000Y-121650000I-200000J0D01*
G01*
X154300000Y-121650000D01*
G75*
G02*
X154100000Y-121450000I0J200000D01*
G01*
G37*
%TD.AperFunction*%
%TD*%
%TO.P,J7,4*%
%TO.N,GND*%
X142670000Y-120410000D03*
%TO.P,J7,3*%
%TO.N,Net-(J7-Pad3)*%
X141420000Y-120410000D03*
%TO.P,J7,2*%
%TO.N,Net-(J7-Pad2)*%
X140170000Y-120410000D03*
%TO.P,J7,1*%
%TO.N,+3V3*%
%TA.AperFunction,ComponentPad*%
G36*
G01*
X138520000Y-120860000D02*
X138520000Y-119960000D01*
G75*
G02*
X138720000Y-119760000I200000J0D01*
G01*
X139120000Y-119760000D01*
G75*
G02*
X139320000Y-119960000I0J-200000D01*
G01*
X139320000Y-120860000D01*
G75*
G02*
X139120000Y-121060000I-200000J0D01*
G01*
X138720000Y-121060000D01*
G75*
G02*
X138520000Y-120860000I0J200000D01*
G01*
G37*
%TD.AperFunction*%
%TD*%
D15*
%TO.P,J6,4*%
%TO.N,GND*%
X130100000Y-113340000D03*
%TO.P,J6,3*%
%TO.N,Net-(J6-Pad3)*%
X130100000Y-112090000D03*
%TO.P,J6,2*%
%TO.N,Net-(J6-Pad2)*%
X130100000Y-110840000D03*
%TO.P,J6,1*%
%TO.N,+3V3*%
%TA.AperFunction,ComponentPad*%
G36*
G01*
X129650000Y-109190000D02*
X130550000Y-109190000D01*
G75*
G02*
X130750000Y-109390000I0J-200000D01*
G01*
X130750000Y-109790000D01*
G75*
G02*
X130550000Y-109990000I-200000J0D01*
G01*
X129650000Y-109990000D01*
G75*
G02*
X129450000Y-109790000I0J200000D01*
G01*
X129450000Y-109390000D01*
G75*
G02*
X129650000Y-109190000I200000J0D01*
G01*
G37*
%TD.AperFunction*%
%TD*%
%TO.P,J8,4*%
%TO.N,GND*%
X130000000Y-85250000D03*
%TO.P,J8,3*%
%TO.N,Net-(J8-Pad3)*%
X130000000Y-84000000D03*
%TO.P,J8,2*%
%TO.N,Net-(J8-Pad2)*%
X130000000Y-82750000D03*
%TO.P,J8,1*%
%TO.N,+3V3*%
%TA.AperFunction,ComponentPad*%
G36*
G01*
X129550000Y-81100000D02*
X130450000Y-81100000D01*
G75*
G02*
X130650000Y-81300000I0J-200000D01*
G01*
X130650000Y-81700000D01*
G75*
G02*
X130450000Y-81900000I-200000J0D01*
G01*
X129550000Y-81900000D01*
G75*
G02*
X129350000Y-81700000I0J200000D01*
G01*
X129350000Y-81300000D01*
G75*
G02*
X129550000Y-81100000I200000J0D01*
G01*
G37*
%TD.AperFunction*%
%TD*%
%TO.P,J9,4*%
%TO.N,GND*%
X130000000Y-101870000D03*
%TO.P,J9,3*%
%TO.N,Net-(J9-Pad3)*%
X130000000Y-100620000D03*
%TO.P,J9,2*%
%TO.N,Net-(J9-Pad2)*%
X130000000Y-99370000D03*
%TO.P,J9,1*%
%TO.N,+3V3*%
%TA.AperFunction,ComponentPad*%
G36*
G01*
X129550000Y-97720000D02*
X130450000Y-97720000D01*
G75*
G02*
X130650000Y-97920000I0J-200000D01*
G01*
X130650000Y-98320000D01*
G75*
G02*
X130450000Y-98520000I-200000J0D01*
G01*
X129550000Y-98520000D01*
G75*
G02*
X129350000Y-98320000I0J200000D01*
G01*
X129350000Y-97920000D01*
G75*
G02*
X129550000Y-97720000I200000J0D01*
G01*
G37*
%TD.AperFunction*%
%TD*%
D16*
%TO.N,GND*%
X153100000Y-104500000D03*
X172000000Y-82200000D03*
X160380000Y-71810000D03*
X163310000Y-67010000D03*
X139700000Y-95500000D03*
X141700000Y-88880000D03*
X143090000Y-95010000D03*
X144120000Y-95020000D03*
X147800000Y-86300000D03*
X147330000Y-80070000D03*
X157050000Y-73270000D03*
X158590000Y-84500000D03*
X157080000Y-82080000D03*
X157475000Y-102875000D03*
X160300000Y-104900000D03*
X165850000Y-66970000D03*
X167120000Y-66950000D03*
X146090000Y-106240000D03*
X147180000Y-110610000D03*
X148230000Y-71390000D03*
X170200000Y-99430000D03*
X165500000Y-98800000D03*
X165500000Y-103800000D03*
X176300000Y-120600000D03*
X182440000Y-103180000D03*
X175250000Y-92120000D03*
X175250000Y-94170000D03*
X176100000Y-80900000D03*
X176100000Y-82100000D03*
X176400000Y-117200000D03*
X176700000Y-109300000D03*
X178060000Y-107100000D03*
X178060000Y-108010000D03*
X178040000Y-104720000D03*
X180300000Y-110700000D03*
X181600000Y-110700000D03*
X157400000Y-87850000D03*
X160800000Y-114500000D03*
X161780000Y-115280000D03*
X173040000Y-102870000D03*
X149180000Y-110550000D03*
X147800000Y-113340000D03*
X181150000Y-104130000D03*
X143700000Y-88900000D03*
X147490000Y-102580000D03*
X141740000Y-86750000D03*
X140570000Y-86720000D03*
X139420000Y-86720000D03*
X138290000Y-86730000D03*
X137170000Y-86750000D03*
X137220000Y-87820000D03*
X137150000Y-89030000D03*
X137170000Y-90300000D03*
X137160000Y-91350000D03*
X137060000Y-93570000D03*
X137080000Y-94610000D03*
X137080000Y-95640000D03*
X138070000Y-96640000D03*
X139040000Y-96600000D03*
X140080000Y-96630000D03*
X141240000Y-96600000D03*
X137070000Y-96610000D03*
X137080000Y-92410000D03*
X143975000Y-85885000D03*
X176400000Y-122300000D03*
X176400000Y-118800000D03*
X159900000Y-88365000D03*
X180400000Y-82100000D03*
X177200000Y-80900000D03*
X177300000Y-82100000D03*
X176700000Y-107700000D03*
X179000000Y-107100000D03*
X179000000Y-108000000D03*
X179000000Y-109000000D03*
X178000000Y-109000000D03*
X177730000Y-93830000D03*
X181870000Y-93830000D03*
%TO.N,+3V3*%
X145525000Y-86225000D03*
X147330000Y-77580000D03*
X142490000Y-74910000D03*
X135260000Y-74960000D03*
X154520000Y-82090000D03*
X168390000Y-66890000D03*
X147090000Y-106700000D03*
X156300000Y-99600000D03*
X149340000Y-77450000D03*
X154710000Y-71360000D03*
X170700000Y-102650000D03*
X146900000Y-90600000D03*
X147600000Y-90000000D03*
X170900000Y-115500000D03*
X174490000Y-115410000D03*
X174420000Y-113960000D03*
X170900000Y-113970000D03*
X155600000Y-91100000D03*
X183900000Y-105900000D03*
X148970000Y-113480000D03*
X159510000Y-101330000D03*
X138370000Y-97930000D03*
X142970000Y-90600000D03*
X163240000Y-115540000D03*
X164600000Y-114300000D03*
X148500000Y-102700000D03*
X155100000Y-98600000D03*
X182495000Y-104805000D03*
X170700000Y-117980000D03*
X173100000Y-117980000D03*
X170500000Y-121400000D03*
X173200000Y-121400000D03*
%TO.N,NRST*%
X153515000Y-76475000D03*
X149810000Y-90500000D03*
%TO.N,USART1_TX*%
X155170000Y-94290000D03*
X155930000Y-113360000D03*
%TO.N,USART1_RX*%
X153700000Y-97100000D03*
X157130000Y-112990000D03*
%TO.N,SWO*%
X159980000Y-85830000D03*
X156210000Y-88610000D03*
%TO.N,INT_ACC*%
X147790000Y-95150000D03*
X150880000Y-110150000D03*
%TO.N,INT_GYR*%
X147380000Y-96650000D03*
X145900000Y-101670000D03*
%TO.N,SPI1_SCK*%
X149600000Y-98720000D03*
X144310000Y-105240000D03*
%TO.N,SPI1_MOSI*%
X150340000Y-106590000D03*
X145480000Y-109020000D03*
%TO.N,SPI2_!CS*%
X158820000Y-99000000D03*
X169020000Y-104900000D03*
%TO.N,SPI2_MISO*%
X168160000Y-101970000D03*
X160610000Y-97840000D03*
%TO.N,SPI3_MOSI*%
X154970000Y-85810000D03*
X152360000Y-86340000D03*
%TD*%
D17*
%TO.N,NRST*%
X153515000Y-76475000D02*
X149810000Y-80180000D01*
X149810000Y-80180000D02*
X149810000Y-90500000D01*
X149810000Y-90500000D02*
X149810000Y-90720000D01*
%TO.N,USART1_TX*%
X154080001Y-95379999D02*
X155170000Y-94290000D01*
X155910000Y-113360000D02*
X154080001Y-111530001D01*
X154080001Y-111530001D02*
X154030001Y-111530001D01*
X154030001Y-111530001D02*
X152200000Y-109700000D01*
X152200000Y-97260000D02*
X154080001Y-95379999D01*
X152200000Y-109700000D02*
X152200000Y-97260000D01*
%TO.N,USART1_RX*%
X153700000Y-100700000D02*
X153700000Y-97100000D01*
X154300000Y-101300000D02*
X153700000Y-100700000D01*
X154300000Y-110100000D02*
X154300000Y-101300000D01*
X157130000Y-112930000D02*
X154300000Y-110100000D01*
%TO.N,SWO*%
X159980000Y-85830000D02*
X158110000Y-85830000D01*
X158110000Y-85830000D02*
X156210000Y-87730000D01*
X156210000Y-87730000D02*
X156210000Y-88610000D01*
X156210000Y-88610000D02*
X156210000Y-88610000D01*
%TO.N,INT_ACC*%
X149150000Y-95150000D02*
X147790000Y-95150000D01*
X151600000Y-97600000D02*
X149150000Y-95150000D01*
X151600000Y-107400000D02*
X151600000Y-97600000D01*
X150880000Y-108120000D02*
X151600000Y-107400000D01*
X150880000Y-110150000D02*
X150880000Y-108120000D01*
%TO.N,INT_GYR*%
X147380000Y-96650000D02*
X147380000Y-99560000D01*
X147380000Y-99560000D02*
X145900000Y-101040000D01*
X145900000Y-101040000D02*
X145900000Y-101670000D01*
X145900000Y-101670000D02*
X145900000Y-101670000D01*
%TO.N,SPI1_SCK*%
X145810000Y-103840000D02*
X145810000Y-103840000D01*
X148560000Y-103840000D02*
X149600000Y-102800000D01*
X145710000Y-103840000D02*
X148560000Y-103840000D01*
X149600000Y-102800000D02*
X149600000Y-98720000D01*
X144310000Y-105240000D02*
X145710000Y-103840000D01*
%TO.N,SPI1_MOSI*%
X145480000Y-109020000D02*
X145480000Y-109020000D01*
X150340000Y-108140000D02*
X149460000Y-109020000D01*
X150340000Y-106590000D02*
X150340000Y-108140000D01*
X145480000Y-109020000D02*
X149460000Y-109020000D01*
D18*
%TO.N,SPI2_!CS*%
X169020000Y-104900000D02*
X169020000Y-104900000D01*
D17*
X158370000Y-99450000D02*
X158820000Y-99000000D01*
X158370000Y-105070000D02*
X158370000Y-99450000D01*
X159860000Y-106560000D02*
X158370000Y-105070000D01*
X167890000Y-106560000D02*
X159860000Y-106560000D01*
X169020000Y-105430000D02*
X167890000Y-106560000D01*
X169020000Y-104900000D02*
X169020000Y-105430000D01*
%TO.N,SPI2_MISO*%
X168160000Y-101970000D02*
X164610000Y-101970000D01*
X164610000Y-101970000D02*
X164600000Y-101980000D01*
X164600000Y-101980000D02*
X162280000Y-101980000D01*
X162280000Y-101980000D02*
X160610000Y-100310000D01*
X160610000Y-100310000D02*
X160610000Y-97840000D01*
X160610000Y-97840000D02*
X160610000Y-97840000D01*
%TO.N,SPI3_MOSI*%
X154830000Y-85820000D02*
X153080000Y-85820000D01*
X153080000Y-85820000D02*
X152880000Y-85820000D01*
X152880000Y-85820000D02*
X152610000Y-86090000D01*
X152610000Y-86090000D02*
X152360000Y-86340000D01*
X152360000Y-86340000D02*
X152360000Y-86340000D01*
%TD*%
M02*
