%TF.GenerationSoftware,KiCad,Pcbnew,(5.1.8)-1*%
%TF.CreationDate,2021-01-21T22:43:38-05:00*%
%TF.ProjectId,Sensor Project,53656e73-6f72-4205-9072-6f6a6563742e,rev?*%
%TF.SameCoordinates,Original*%
%TF.FileFunction,Copper,L2,Inr*%
%TF.FilePolarity,Positive*%
%FSLAX46Y46*%
G04 Gerber Fmt 4.6, Leading zero omitted, Abs format (unit mm)*
G04 Created by KiCad (PCBNEW (5.1.8)-1) date 2021-01-21 22:43:38*
%MOMM*%
%LPD*%
G01*
G04 APERTURE LIST*
%TA.AperFunction,ComponentPad*%
%ADD10O,1.800000X1.150000*%
%TD*%
%TA.AperFunction,ComponentPad*%
%ADD11O,2.000000X1.450000*%
%TD*%
%TA.AperFunction,ComponentPad*%
%ADD12C,2.400000*%
%TD*%
%TA.AperFunction,ComponentPad*%
%ADD13R,2.400000X2.400000*%
%TD*%
%TA.AperFunction,ComponentPad*%
%ADD14O,0.800000X1.300000*%
%TD*%
%TA.AperFunction,ComponentPad*%
%ADD15O,1.300000X0.800000*%
%TD*%
%TA.AperFunction,ViaPad*%
%ADD16C,0.800000*%
%TD*%
%TA.AperFunction,Conductor*%
%ADD17C,0.250000*%
%TD*%
%TA.AperFunction,Conductor*%
%ADD18C,0.254000*%
%TD*%
%TA.AperFunction,Conductor*%
%ADD19C,0.100000*%
%TD*%
G04 APERTURE END LIST*
D10*
%TO.N,Net-(J1-Pad6)*%
%TO.C,J1*%
X183100000Y-79595000D03*
X183100000Y-87345000D03*
D11*
X179300000Y-79745000D03*
X179300000Y-87195000D03*
%TD*%
D12*
%TO.N,GND*%
%TO.C,J2*%
X179860000Y-93830000D03*
D13*
%TO.N,VCC*%
X179860000Y-97330000D03*
%TD*%
D14*
%TO.N,GND*%
%TO.C,J4*%
X136840000Y-71030000D03*
%TO.N,Net-(J4-Pad3)*%
X138090000Y-71030000D03*
%TO.N,Net-(J4-Pad2)*%
X139340000Y-71030000D03*
%TO.N,+3V3*%
%TA.AperFunction,ComponentPad*%
G36*
G01*
X140990000Y-70580000D02*
X140990000Y-71480000D01*
G75*
G02*
X140790000Y-71680000I-200000J0D01*
G01*
X140390000Y-71680000D01*
G75*
G02*
X140190000Y-71480000I0J200000D01*
G01*
X140190000Y-70580000D01*
G75*
G02*
X140390000Y-70380000I200000J0D01*
G01*
X140790000Y-70380000D01*
G75*
G02*
X140990000Y-70580000I0J-200000D01*
G01*
G37*
%TD.AperFunction*%
%TD*%
%TO.N,GND*%
%TO.C,J3*%
X158250000Y-121000000D03*
%TO.N,Net-(J3-Pad3)*%
X157000000Y-121000000D03*
%TO.N,Net-(J3-Pad2)*%
X155750000Y-121000000D03*
%TO.N,+3V3*%
%TA.AperFunction,ComponentPad*%
G36*
G01*
X154100000Y-121450000D02*
X154100000Y-120550000D01*
G75*
G02*
X154300000Y-120350000I200000J0D01*
G01*
X154700000Y-120350000D01*
G75*
G02*
X154900000Y-120550000I0J-200000D01*
G01*
X154900000Y-121450000D01*
G75*
G02*
X154700000Y-121650000I-200000J0D01*
G01*
X154300000Y-121650000D01*
G75*
G02*
X154100000Y-121450000I0J200000D01*
G01*
G37*
%TD.AperFunction*%
%TD*%
%TO.N,GND*%
%TO.C,J7*%
X142670000Y-120410000D03*
%TO.N,Net-(J7-Pad3)*%
X141420000Y-120410000D03*
%TO.N,Net-(J7-Pad2)*%
X140170000Y-120410000D03*
%TO.N,+3V3*%
%TA.AperFunction,ComponentPad*%
G36*
G01*
X138520000Y-120860000D02*
X138520000Y-119960000D01*
G75*
G02*
X138720000Y-119760000I200000J0D01*
G01*
X139120000Y-119760000D01*
G75*
G02*
X139320000Y-119960000I0J-200000D01*
G01*
X139320000Y-120860000D01*
G75*
G02*
X139120000Y-121060000I-200000J0D01*
G01*
X138720000Y-121060000D01*
G75*
G02*
X138520000Y-120860000I0J200000D01*
G01*
G37*
%TD.AperFunction*%
%TD*%
D15*
%TO.N,GND*%
%TO.C,J6*%
X130100000Y-113340000D03*
%TO.N,Net-(J6-Pad3)*%
X130100000Y-112090000D03*
%TO.N,Net-(J6-Pad2)*%
X130100000Y-110840000D03*
%TO.N,+3V3*%
%TA.AperFunction,ComponentPad*%
G36*
G01*
X129650000Y-109190000D02*
X130550000Y-109190000D01*
G75*
G02*
X130750000Y-109390000I0J-200000D01*
G01*
X130750000Y-109790000D01*
G75*
G02*
X130550000Y-109990000I-200000J0D01*
G01*
X129650000Y-109990000D01*
G75*
G02*
X129450000Y-109790000I0J200000D01*
G01*
X129450000Y-109390000D01*
G75*
G02*
X129650000Y-109190000I200000J0D01*
G01*
G37*
%TD.AperFunction*%
%TD*%
%TO.N,GND*%
%TO.C,J8*%
X130000000Y-85250000D03*
%TO.N,Net-(J8-Pad3)*%
X130000000Y-84000000D03*
%TO.N,Net-(J8-Pad2)*%
X130000000Y-82750000D03*
%TO.N,+3V3*%
%TA.AperFunction,ComponentPad*%
G36*
G01*
X129550000Y-81100000D02*
X130450000Y-81100000D01*
G75*
G02*
X130650000Y-81300000I0J-200000D01*
G01*
X130650000Y-81700000D01*
G75*
G02*
X130450000Y-81900000I-200000J0D01*
G01*
X129550000Y-81900000D01*
G75*
G02*
X129350000Y-81700000I0J200000D01*
G01*
X129350000Y-81300000D01*
G75*
G02*
X129550000Y-81100000I200000J0D01*
G01*
G37*
%TD.AperFunction*%
%TD*%
%TO.N,GND*%
%TO.C,J9*%
X130000000Y-101870000D03*
%TO.N,Net-(J9-Pad3)*%
X130000000Y-100620000D03*
%TO.N,Net-(J9-Pad2)*%
X130000000Y-99370000D03*
%TO.N,+3V3*%
%TA.AperFunction,ComponentPad*%
G36*
G01*
X129550000Y-97720000D02*
X130450000Y-97720000D01*
G75*
G02*
X130650000Y-97920000I0J-200000D01*
G01*
X130650000Y-98320000D01*
G75*
G02*
X130450000Y-98520000I-200000J0D01*
G01*
X129550000Y-98520000D01*
G75*
G02*
X129350000Y-98320000I0J200000D01*
G01*
X129350000Y-97920000D01*
G75*
G02*
X129550000Y-97720000I200000J0D01*
G01*
G37*
%TD.AperFunction*%
%TD*%
D16*
%TO.N,GND*%
X153100000Y-104500000D03*
X172000000Y-82200000D03*
X160380000Y-71810000D03*
X163310000Y-67010000D03*
X139700000Y-95500000D03*
X141700000Y-88880000D03*
X143090000Y-95010000D03*
X144120000Y-95020000D03*
X147800000Y-86300000D03*
X147330000Y-80070000D03*
X157050000Y-73270000D03*
X158590000Y-84500000D03*
X157080000Y-82080000D03*
X157475000Y-102875000D03*
X160300000Y-104900000D03*
X165850000Y-66970000D03*
X167120000Y-66950000D03*
X146090000Y-106240000D03*
X147180000Y-110610000D03*
X148230000Y-71390000D03*
X170200000Y-99430000D03*
X165500000Y-98800000D03*
X165500000Y-103800000D03*
X176300000Y-120600000D03*
X182440000Y-103180000D03*
X175250000Y-92120000D03*
X175250000Y-94170000D03*
X176100000Y-80900000D03*
X176100000Y-82100000D03*
X176400000Y-117200000D03*
X176700000Y-109300000D03*
X178060000Y-107100000D03*
X178060000Y-108010000D03*
X178040000Y-104720000D03*
X180300000Y-110700000D03*
X181600000Y-110700000D03*
X157400000Y-87850000D03*
X160800000Y-114500000D03*
X161780000Y-115280000D03*
X173040000Y-102870000D03*
X149180000Y-110550000D03*
X147800000Y-113340000D03*
X181150000Y-104130000D03*
X143700000Y-88900000D03*
X147490000Y-102580000D03*
X141740000Y-86750000D03*
X140570000Y-86720000D03*
X139420000Y-86720000D03*
X138290000Y-86730000D03*
X137170000Y-86750000D03*
X137220000Y-87820000D03*
X137150000Y-89030000D03*
X137170000Y-90300000D03*
X137160000Y-91350000D03*
X137060000Y-93570000D03*
X137080000Y-94610000D03*
X137080000Y-95640000D03*
X138070000Y-96640000D03*
X139040000Y-96600000D03*
X140080000Y-96630000D03*
X141240000Y-96600000D03*
X137070000Y-96610000D03*
X137080000Y-92410000D03*
X143975000Y-85885000D03*
X176400000Y-122300000D03*
X176400000Y-118800000D03*
X159900000Y-88365000D03*
X180400000Y-82100000D03*
X177200000Y-80900000D03*
X177300000Y-82100000D03*
X176700000Y-107700000D03*
X179000000Y-107100000D03*
X179000000Y-108000000D03*
X179000000Y-109000000D03*
X178000000Y-109000000D03*
X177730000Y-93830000D03*
X181870000Y-93830000D03*
%TO.N,+3V3*%
X145525000Y-86225000D03*
X147330000Y-77580000D03*
X142490000Y-74910000D03*
X135260000Y-74960000D03*
X154520000Y-82090000D03*
X168390000Y-66890000D03*
X147090000Y-106700000D03*
X156300000Y-99600000D03*
X149340000Y-77450000D03*
X154710000Y-71360000D03*
X170700000Y-102650000D03*
X146900000Y-90600000D03*
X147600000Y-90000000D03*
X170900000Y-115500000D03*
X174490000Y-115410000D03*
X174420000Y-113960000D03*
X170900000Y-113970000D03*
X155600000Y-91100000D03*
X183900000Y-105900000D03*
X148970000Y-113480000D03*
X159510000Y-101330000D03*
X138370000Y-97930000D03*
X142970000Y-90600000D03*
X163240000Y-115540000D03*
X164600000Y-114300000D03*
X148500000Y-102700000D03*
X155100000Y-98600000D03*
X182495000Y-104805000D03*
X170700000Y-117980000D03*
X173100000Y-117980000D03*
X170500000Y-121400000D03*
X173200000Y-121400000D03*
%TO.N,NRST*%
X153515000Y-76475000D03*
X149810000Y-90500000D03*
%TO.N,USART1_TX*%
X155170000Y-94290000D03*
X155930000Y-113360000D03*
%TO.N,USART1_RX*%
X153700000Y-97100000D03*
X157130000Y-112990000D03*
%TO.N,SWO*%
X159980000Y-85830000D03*
X156210000Y-88610000D03*
%TO.N,INT_ACC*%
X147790000Y-95150000D03*
X150880000Y-110150000D03*
%TO.N,INT_GYR*%
X147380000Y-96650000D03*
X145900000Y-101670000D03*
%TO.N,SPI1_SCK*%
X149600000Y-98720000D03*
X144310000Y-105240000D03*
%TO.N,SPI1_MOSI*%
X150340000Y-106590000D03*
X145480000Y-109020000D03*
%TO.N,SPI2_!CS*%
X158820000Y-99000000D03*
X169020000Y-104900000D03*
%TO.N,SPI2_MISO*%
X168160000Y-101970000D03*
X160610000Y-97840000D03*
%TO.N,SPI3_MOSI*%
X154970000Y-85810000D03*
X152360000Y-86340000D03*
%TD*%
D17*
%TO.N,GND*%
X143090000Y-95010000D02*
X141530000Y-95010000D01*
%TD*%
D18*
%TO.N,GND*%
X167355000Y-66788061D02*
X167355000Y-66991939D01*
X167394774Y-67191898D01*
X167472795Y-67380256D01*
X167586063Y-67549774D01*
X167730226Y-67693937D01*
X167899744Y-67807205D01*
X168088102Y-67885226D01*
X168288061Y-67925000D01*
X168491939Y-67925000D01*
X168691898Y-67885226D01*
X168880256Y-67807205D01*
X169049774Y-67693937D01*
X169193937Y-67549774D01*
X169307205Y-67380256D01*
X169385226Y-67191898D01*
X169425000Y-66991939D01*
X169425000Y-66788061D01*
X169399527Y-66660000D01*
X180967722Y-66660000D01*
X181648126Y-66726714D01*
X182271572Y-66914943D01*
X182846579Y-67220681D01*
X183351247Y-67632279D01*
X183766362Y-68134067D01*
X184076105Y-68706924D01*
X184268682Y-69329039D01*
X184339995Y-70007535D01*
X184333236Y-78794355D01*
X184284739Y-78735261D01*
X184100492Y-78584054D01*
X183890287Y-78471697D01*
X183662201Y-78402508D01*
X183484437Y-78385000D01*
X182715563Y-78385000D01*
X182537799Y-78402508D01*
X182309713Y-78471697D01*
X182099508Y-78584054D01*
X181915261Y-78735261D01*
X181764054Y-78919508D01*
X181651697Y-79129713D01*
X181582508Y-79357799D01*
X181559146Y-79595000D01*
X181582508Y-79832201D01*
X181651697Y-80060287D01*
X181764054Y-80270492D01*
X181915261Y-80454739D01*
X182099508Y-80605946D01*
X182309713Y-80718303D01*
X182537799Y-80787492D01*
X182715563Y-80805000D01*
X183484437Y-80805000D01*
X183662201Y-80787492D01*
X183890287Y-80718303D01*
X184100492Y-80605946D01*
X184284739Y-80454739D01*
X184332003Y-80397148D01*
X184327280Y-86537097D01*
X184284739Y-86485261D01*
X184100492Y-86334054D01*
X183890287Y-86221697D01*
X183662201Y-86152508D01*
X183484437Y-86135000D01*
X182715563Y-86135000D01*
X182537799Y-86152508D01*
X182309713Y-86221697D01*
X182099508Y-86334054D01*
X181915261Y-86485261D01*
X181764054Y-86669508D01*
X181651697Y-86879713D01*
X181582508Y-87107799D01*
X181559146Y-87345000D01*
X181582508Y-87582201D01*
X181651697Y-87810287D01*
X181764054Y-88020492D01*
X181915261Y-88204739D01*
X182099508Y-88355946D01*
X182309713Y-88468303D01*
X182537799Y-88537492D01*
X182715563Y-88555000D01*
X183484437Y-88555000D01*
X183662201Y-88537492D01*
X183890287Y-88468303D01*
X184100492Y-88355946D01*
X184284739Y-88204739D01*
X184326036Y-88154419D01*
X184313115Y-104950842D01*
X184201898Y-104904774D01*
X184001939Y-104865000D01*
X183798061Y-104865000D01*
X183598102Y-104904774D01*
X183524354Y-104935321D01*
X183530000Y-104906939D01*
X183530000Y-104703061D01*
X183490226Y-104503102D01*
X183412205Y-104314744D01*
X183298937Y-104145226D01*
X183154774Y-104001063D01*
X182985256Y-103887795D01*
X182796898Y-103809774D01*
X182596939Y-103770000D01*
X182393061Y-103770000D01*
X182193102Y-103809774D01*
X182004744Y-103887795D01*
X181835226Y-104001063D01*
X181691063Y-104145226D01*
X181577795Y-104314744D01*
X181499774Y-104503102D01*
X181460000Y-104703061D01*
X181460000Y-104906939D01*
X181499774Y-105106898D01*
X181577795Y-105295256D01*
X181691063Y-105464774D01*
X181835226Y-105608937D01*
X182004744Y-105722205D01*
X182193102Y-105800226D01*
X182393061Y-105840000D01*
X182596939Y-105840000D01*
X182796898Y-105800226D01*
X182870646Y-105769679D01*
X182865000Y-105798061D01*
X182865000Y-106001939D01*
X182904774Y-106201898D01*
X182982795Y-106390256D01*
X183096063Y-106559774D01*
X183240226Y-106703937D01*
X183409744Y-106817205D01*
X183598102Y-106895226D01*
X183798061Y-106935000D01*
X184001939Y-106935000D01*
X184201898Y-106895226D01*
X184311655Y-106849763D01*
X184300026Y-121967461D01*
X184233286Y-122648126D01*
X184045057Y-123271570D01*
X183739323Y-123846573D01*
X183327721Y-124351248D01*
X182825933Y-124766362D01*
X182253077Y-125076104D01*
X181630961Y-125268682D01*
X180952417Y-125340000D01*
X129002279Y-125340000D01*
X128321874Y-125273286D01*
X127698430Y-125085057D01*
X127123427Y-124779323D01*
X126618752Y-124367721D01*
X126203638Y-123865933D01*
X125893896Y-123293077D01*
X125701318Y-122670961D01*
X125630000Y-121992417D01*
X125630000Y-121829872D01*
X126765000Y-121829872D01*
X126765000Y-122270128D01*
X126850890Y-122701925D01*
X127019369Y-123108669D01*
X127263962Y-123474729D01*
X127575271Y-123786038D01*
X127941331Y-124030631D01*
X128348075Y-124199110D01*
X128779872Y-124285000D01*
X129220128Y-124285000D01*
X129651925Y-124199110D01*
X130058669Y-124030631D01*
X130424729Y-123786038D01*
X130736038Y-123474729D01*
X130980631Y-123108669D01*
X131149110Y-122701925D01*
X131235000Y-122270128D01*
X131235000Y-121829872D01*
X131149110Y-121398075D01*
X130980631Y-120991331D01*
X130736038Y-120625271D01*
X130424729Y-120313962D01*
X130058669Y-120069369D01*
X129794630Y-119960000D01*
X137881928Y-119960000D01*
X137881928Y-120860000D01*
X137898031Y-121023500D01*
X137945722Y-121180716D01*
X138023169Y-121325608D01*
X138127394Y-121452606D01*
X138254392Y-121556831D01*
X138399284Y-121634278D01*
X138556500Y-121681969D01*
X138720000Y-121698072D01*
X139120000Y-121698072D01*
X139283500Y-121681969D01*
X139440716Y-121634278D01*
X139585608Y-121556831D01*
X139611894Y-121535259D01*
X139772008Y-121620841D01*
X139967106Y-121680024D01*
X140170000Y-121700007D01*
X140372895Y-121680024D01*
X140567993Y-121620841D01*
X140747797Y-121524734D01*
X140795001Y-121485995D01*
X140842204Y-121524734D01*
X141022008Y-121620841D01*
X141217106Y-121680024D01*
X141420000Y-121700007D01*
X141622895Y-121680024D01*
X141817993Y-121620841D01*
X141997797Y-121524734D01*
X142037938Y-121491791D01*
X142121840Y-121555255D01*
X142307028Y-121644994D01*
X142383877Y-121654666D01*
X142543000Y-121526998D01*
X142543000Y-120537000D01*
X142797000Y-120537000D01*
X142797000Y-121526998D01*
X142956123Y-121654666D01*
X143032972Y-121644994D01*
X143218160Y-121555255D01*
X143382283Y-121431112D01*
X143519033Y-121277336D01*
X143623155Y-121099836D01*
X143690648Y-120905433D01*
X143718918Y-120701599D01*
X143566806Y-120550000D01*
X153461928Y-120550000D01*
X153461928Y-121450000D01*
X153478031Y-121613500D01*
X153525722Y-121770716D01*
X153603169Y-121915608D01*
X153707394Y-122042606D01*
X153834392Y-122146831D01*
X153979284Y-122224278D01*
X154136500Y-122271969D01*
X154300000Y-122288072D01*
X154700000Y-122288072D01*
X154863500Y-122271969D01*
X155020716Y-122224278D01*
X155165608Y-122146831D01*
X155191894Y-122125259D01*
X155352008Y-122210841D01*
X155547106Y-122270024D01*
X155750000Y-122290007D01*
X155952895Y-122270024D01*
X156147993Y-122210841D01*
X156327797Y-122114734D01*
X156375001Y-122075995D01*
X156422204Y-122114734D01*
X156602008Y-122210841D01*
X156797106Y-122270024D01*
X157000000Y-122290007D01*
X157202895Y-122270024D01*
X157397993Y-122210841D01*
X157577797Y-122114734D01*
X157617938Y-122081791D01*
X157701840Y-122145255D01*
X157887028Y-122234994D01*
X157963877Y-122244666D01*
X158123000Y-122116998D01*
X158123000Y-121127000D01*
X158377000Y-121127000D01*
X158377000Y-122116998D01*
X158536123Y-122244666D01*
X158612972Y-122234994D01*
X158798160Y-122145255D01*
X158962283Y-122021112D01*
X159099033Y-121867336D01*
X159203155Y-121689836D01*
X159270648Y-121495433D01*
X159298021Y-121298061D01*
X169465000Y-121298061D01*
X169465000Y-121501939D01*
X169504774Y-121701898D01*
X169582795Y-121890256D01*
X169696063Y-122059774D01*
X169840226Y-122203937D01*
X170009744Y-122317205D01*
X170198102Y-122395226D01*
X170398061Y-122435000D01*
X170601939Y-122435000D01*
X170801898Y-122395226D01*
X170990256Y-122317205D01*
X171159774Y-122203937D01*
X171303937Y-122059774D01*
X171417205Y-121890256D01*
X171495226Y-121701898D01*
X171535000Y-121501939D01*
X171535000Y-121298061D01*
X172165000Y-121298061D01*
X172165000Y-121501939D01*
X172204774Y-121701898D01*
X172282795Y-121890256D01*
X172396063Y-122059774D01*
X172540226Y-122203937D01*
X172709744Y-122317205D01*
X172898102Y-122395226D01*
X173098061Y-122435000D01*
X173301939Y-122435000D01*
X173501898Y-122395226D01*
X173690256Y-122317205D01*
X173859774Y-122203937D01*
X173983839Y-122079872D01*
X178765000Y-122079872D01*
X178765000Y-122520128D01*
X178850890Y-122951925D01*
X179019369Y-123358669D01*
X179263962Y-123724729D01*
X179575271Y-124036038D01*
X179941331Y-124280631D01*
X180348075Y-124449110D01*
X180779872Y-124535000D01*
X181220128Y-124535000D01*
X181651925Y-124449110D01*
X182058669Y-124280631D01*
X182424729Y-124036038D01*
X182736038Y-123724729D01*
X182980631Y-123358669D01*
X183149110Y-122951925D01*
X183235000Y-122520128D01*
X183235000Y-122079872D01*
X183149110Y-121648075D01*
X182980631Y-121241331D01*
X182736038Y-120875271D01*
X182424729Y-120563962D01*
X182058669Y-120319369D01*
X181651925Y-120150890D01*
X181220128Y-120065000D01*
X180779872Y-120065000D01*
X180348075Y-120150890D01*
X179941331Y-120319369D01*
X179575271Y-120563962D01*
X179263962Y-120875271D01*
X179019369Y-121241331D01*
X178850890Y-121648075D01*
X178765000Y-122079872D01*
X173983839Y-122079872D01*
X174003937Y-122059774D01*
X174117205Y-121890256D01*
X174195226Y-121701898D01*
X174235000Y-121501939D01*
X174235000Y-121298061D01*
X174195226Y-121098102D01*
X174117205Y-120909744D01*
X174003937Y-120740226D01*
X173859774Y-120596063D01*
X173690256Y-120482795D01*
X173501898Y-120404774D01*
X173301939Y-120365000D01*
X173098061Y-120365000D01*
X172898102Y-120404774D01*
X172709744Y-120482795D01*
X172540226Y-120596063D01*
X172396063Y-120740226D01*
X172282795Y-120909744D01*
X172204774Y-121098102D01*
X172165000Y-121298061D01*
X171535000Y-121298061D01*
X171495226Y-121098102D01*
X171417205Y-120909744D01*
X171303937Y-120740226D01*
X171159774Y-120596063D01*
X170990256Y-120482795D01*
X170801898Y-120404774D01*
X170601939Y-120365000D01*
X170398061Y-120365000D01*
X170198102Y-120404774D01*
X170009744Y-120482795D01*
X169840226Y-120596063D01*
X169696063Y-120740226D01*
X169582795Y-120909744D01*
X169504774Y-121098102D01*
X169465000Y-121298061D01*
X159298021Y-121298061D01*
X159298918Y-121291599D01*
X159133762Y-121127000D01*
X158377000Y-121127000D01*
X158123000Y-121127000D01*
X158103000Y-121127000D01*
X158103000Y-120873000D01*
X158123000Y-120873000D01*
X158123000Y-119883002D01*
X158377000Y-119883002D01*
X158377000Y-120873000D01*
X159133762Y-120873000D01*
X159298918Y-120708401D01*
X159270648Y-120504567D01*
X159203155Y-120310164D01*
X159099033Y-120132664D01*
X158962283Y-119978888D01*
X158798160Y-119854745D01*
X158612972Y-119765006D01*
X158536123Y-119755334D01*
X158377000Y-119883002D01*
X158123000Y-119883002D01*
X157963877Y-119755334D01*
X157887028Y-119765006D01*
X157701840Y-119854745D01*
X157617938Y-119918209D01*
X157577797Y-119885266D01*
X157397992Y-119789159D01*
X157202894Y-119729976D01*
X157000000Y-119709993D01*
X156797105Y-119729976D01*
X156602007Y-119789159D01*
X156422203Y-119885266D01*
X156375000Y-119924004D01*
X156327797Y-119885266D01*
X156147992Y-119789159D01*
X155952894Y-119729976D01*
X155750000Y-119709993D01*
X155547105Y-119729976D01*
X155352007Y-119789159D01*
X155191894Y-119874741D01*
X155165608Y-119853169D01*
X155020716Y-119775722D01*
X154863500Y-119728031D01*
X154700000Y-119711928D01*
X154300000Y-119711928D01*
X154136500Y-119728031D01*
X153979284Y-119775722D01*
X153834392Y-119853169D01*
X153707394Y-119957394D01*
X153603169Y-120084392D01*
X153525722Y-120229284D01*
X153478031Y-120386500D01*
X153461928Y-120550000D01*
X143566806Y-120550000D01*
X143553762Y-120537000D01*
X142797000Y-120537000D01*
X142543000Y-120537000D01*
X142523000Y-120537000D01*
X142523000Y-120283000D01*
X142543000Y-120283000D01*
X142543000Y-119293002D01*
X142797000Y-119293002D01*
X142797000Y-120283000D01*
X143553762Y-120283000D01*
X143718918Y-120118401D01*
X143690648Y-119914567D01*
X143623155Y-119720164D01*
X143519033Y-119542664D01*
X143382283Y-119388888D01*
X143218160Y-119264745D01*
X143032972Y-119175006D01*
X142956123Y-119165334D01*
X142797000Y-119293002D01*
X142543000Y-119293002D01*
X142383877Y-119165334D01*
X142307028Y-119175006D01*
X142121840Y-119264745D01*
X142037938Y-119328209D01*
X141997797Y-119295266D01*
X141817992Y-119199159D01*
X141622894Y-119139976D01*
X141420000Y-119119993D01*
X141217105Y-119139976D01*
X141022007Y-119199159D01*
X140842203Y-119295266D01*
X140795000Y-119334004D01*
X140747797Y-119295266D01*
X140567992Y-119199159D01*
X140372894Y-119139976D01*
X140170000Y-119119993D01*
X139967105Y-119139976D01*
X139772007Y-119199159D01*
X139611894Y-119284741D01*
X139585608Y-119263169D01*
X139440716Y-119185722D01*
X139283500Y-119138031D01*
X139120000Y-119121928D01*
X138720000Y-119121928D01*
X138556500Y-119138031D01*
X138399284Y-119185722D01*
X138254392Y-119263169D01*
X138127394Y-119367394D01*
X138023169Y-119494392D01*
X137945722Y-119639284D01*
X137898031Y-119796500D01*
X137881928Y-119960000D01*
X129794630Y-119960000D01*
X129651925Y-119900890D01*
X129220128Y-119815000D01*
X128779872Y-119815000D01*
X128348075Y-119900890D01*
X127941331Y-120069369D01*
X127575271Y-120313962D01*
X127263962Y-120625271D01*
X127019369Y-120991331D01*
X126850890Y-121398075D01*
X126765000Y-121829872D01*
X125630000Y-121829872D01*
X125630000Y-117878061D01*
X169665000Y-117878061D01*
X169665000Y-118081939D01*
X169704774Y-118281898D01*
X169782795Y-118470256D01*
X169896063Y-118639774D01*
X170040226Y-118783937D01*
X170209744Y-118897205D01*
X170398102Y-118975226D01*
X170598061Y-119015000D01*
X170801939Y-119015000D01*
X171001898Y-118975226D01*
X171190256Y-118897205D01*
X171359774Y-118783937D01*
X171503937Y-118639774D01*
X171617205Y-118470256D01*
X171695226Y-118281898D01*
X171735000Y-118081939D01*
X171735000Y-117878061D01*
X172065000Y-117878061D01*
X172065000Y-118081939D01*
X172104774Y-118281898D01*
X172182795Y-118470256D01*
X172296063Y-118639774D01*
X172440226Y-118783937D01*
X172609744Y-118897205D01*
X172798102Y-118975226D01*
X172998061Y-119015000D01*
X173201939Y-119015000D01*
X173401898Y-118975226D01*
X173590256Y-118897205D01*
X173759774Y-118783937D01*
X173903937Y-118639774D01*
X174017205Y-118470256D01*
X174095226Y-118281898D01*
X174135000Y-118081939D01*
X174135000Y-117878061D01*
X174095226Y-117678102D01*
X174017205Y-117489744D01*
X173903937Y-117320226D01*
X173759774Y-117176063D01*
X173590256Y-117062795D01*
X173401898Y-116984774D01*
X173201939Y-116945000D01*
X172998061Y-116945000D01*
X172798102Y-116984774D01*
X172609744Y-117062795D01*
X172440226Y-117176063D01*
X172296063Y-117320226D01*
X172182795Y-117489744D01*
X172104774Y-117678102D01*
X172065000Y-117878061D01*
X171735000Y-117878061D01*
X171695226Y-117678102D01*
X171617205Y-117489744D01*
X171503937Y-117320226D01*
X171359774Y-117176063D01*
X171190256Y-117062795D01*
X171001898Y-116984774D01*
X170801939Y-116945000D01*
X170598061Y-116945000D01*
X170398102Y-116984774D01*
X170209744Y-117062795D01*
X170040226Y-117176063D01*
X169896063Y-117320226D01*
X169782795Y-117489744D01*
X169704774Y-117678102D01*
X169665000Y-117878061D01*
X125630000Y-117878061D01*
X125630000Y-115438061D01*
X162205000Y-115438061D01*
X162205000Y-115641939D01*
X162244774Y-115841898D01*
X162322795Y-116030256D01*
X162436063Y-116199774D01*
X162580226Y-116343937D01*
X162749744Y-116457205D01*
X162938102Y-116535226D01*
X163138061Y-116575000D01*
X163341939Y-116575000D01*
X163541898Y-116535226D01*
X163730256Y-116457205D01*
X163899774Y-116343937D01*
X164043937Y-116199774D01*
X164157205Y-116030256D01*
X164235226Y-115841898D01*
X164275000Y-115641939D01*
X164275000Y-115438061D01*
X164241963Y-115271972D01*
X164298102Y-115295226D01*
X164498061Y-115335000D01*
X164701939Y-115335000D01*
X164901898Y-115295226D01*
X165090256Y-115217205D01*
X165259774Y-115103937D01*
X165403937Y-114959774D01*
X165517205Y-114790256D01*
X165595226Y-114601898D01*
X165635000Y-114401939D01*
X165635000Y-114198061D01*
X165595226Y-113998102D01*
X165541361Y-113868061D01*
X169865000Y-113868061D01*
X169865000Y-114071939D01*
X169904774Y-114271898D01*
X169982795Y-114460256D01*
X170096063Y-114629774D01*
X170201289Y-114735000D01*
X170096063Y-114840226D01*
X169982795Y-115009744D01*
X169904774Y-115198102D01*
X169865000Y-115398061D01*
X169865000Y-115601939D01*
X169904774Y-115801898D01*
X169982795Y-115990256D01*
X170096063Y-116159774D01*
X170240226Y-116303937D01*
X170409744Y-116417205D01*
X170598102Y-116495226D01*
X170798061Y-116535000D01*
X171001939Y-116535000D01*
X171201898Y-116495226D01*
X171390256Y-116417205D01*
X171559774Y-116303937D01*
X171703937Y-116159774D01*
X171817205Y-115990256D01*
X171895226Y-115801898D01*
X171935000Y-115601939D01*
X171935000Y-115398061D01*
X171895226Y-115198102D01*
X171817205Y-115009744D01*
X171703937Y-114840226D01*
X171598711Y-114735000D01*
X171703937Y-114629774D01*
X171817205Y-114460256D01*
X171895226Y-114271898D01*
X171935000Y-114071939D01*
X171935000Y-113868061D01*
X171933011Y-113858061D01*
X173385000Y-113858061D01*
X173385000Y-114061939D01*
X173424774Y-114261898D01*
X173502795Y-114450256D01*
X173616063Y-114619774D01*
X173716289Y-114720000D01*
X173686063Y-114750226D01*
X173572795Y-114919744D01*
X173494774Y-115108102D01*
X173455000Y-115308061D01*
X173455000Y-115511939D01*
X173494774Y-115711898D01*
X173572795Y-115900256D01*
X173686063Y-116069774D01*
X173830226Y-116213937D01*
X173999744Y-116327205D01*
X174188102Y-116405226D01*
X174388061Y-116445000D01*
X174591939Y-116445000D01*
X174791898Y-116405226D01*
X174980256Y-116327205D01*
X175149774Y-116213937D01*
X175293937Y-116069774D01*
X175407205Y-115900256D01*
X175485226Y-115711898D01*
X175525000Y-115511939D01*
X175525000Y-115308061D01*
X175485226Y-115108102D01*
X175407205Y-114919744D01*
X175293937Y-114750226D01*
X175193711Y-114650000D01*
X175223937Y-114619774D01*
X175337205Y-114450256D01*
X175415226Y-114261898D01*
X175455000Y-114061939D01*
X175455000Y-113858061D01*
X175415226Y-113658102D01*
X175337205Y-113469744D01*
X175223937Y-113300226D01*
X175079774Y-113156063D01*
X174910256Y-113042795D01*
X174721898Y-112964774D01*
X174521939Y-112925000D01*
X174318061Y-112925000D01*
X174118102Y-112964774D01*
X173929744Y-113042795D01*
X173760226Y-113156063D01*
X173616063Y-113300226D01*
X173502795Y-113469744D01*
X173424774Y-113658102D01*
X173385000Y-113858061D01*
X171933011Y-113858061D01*
X171895226Y-113668102D01*
X171817205Y-113479744D01*
X171703937Y-113310226D01*
X171559774Y-113166063D01*
X171390256Y-113052795D01*
X171201898Y-112974774D01*
X171001939Y-112935000D01*
X170798061Y-112935000D01*
X170598102Y-112974774D01*
X170409744Y-113052795D01*
X170240226Y-113166063D01*
X170096063Y-113310226D01*
X169982795Y-113479744D01*
X169904774Y-113668102D01*
X169865000Y-113868061D01*
X165541361Y-113868061D01*
X165517205Y-113809744D01*
X165403937Y-113640226D01*
X165259774Y-113496063D01*
X165090256Y-113382795D01*
X164901898Y-113304774D01*
X164701939Y-113265000D01*
X164498061Y-113265000D01*
X164298102Y-113304774D01*
X164109744Y-113382795D01*
X163940226Y-113496063D01*
X163796063Y-113640226D01*
X163682795Y-113809744D01*
X163604774Y-113998102D01*
X163565000Y-114198061D01*
X163565000Y-114401939D01*
X163598037Y-114568028D01*
X163541898Y-114544774D01*
X163341939Y-114505000D01*
X163138061Y-114505000D01*
X162938102Y-114544774D01*
X162749744Y-114622795D01*
X162580226Y-114736063D01*
X162436063Y-114880226D01*
X162322795Y-115049744D01*
X162244774Y-115238102D01*
X162205000Y-115438061D01*
X125630000Y-115438061D01*
X125630000Y-113626123D01*
X128855334Y-113626123D01*
X128865006Y-113702972D01*
X128954745Y-113888160D01*
X129078888Y-114052283D01*
X129232664Y-114189033D01*
X129410164Y-114293155D01*
X129604567Y-114360648D01*
X129808401Y-114388918D01*
X129973000Y-114223762D01*
X129973000Y-113467000D01*
X130227000Y-113467000D01*
X130227000Y-114223762D01*
X130391599Y-114388918D01*
X130595433Y-114360648D01*
X130789836Y-114293155D01*
X130967336Y-114189033D01*
X131121112Y-114052283D01*
X131245255Y-113888160D01*
X131334994Y-113702972D01*
X131344666Y-113626123D01*
X131216998Y-113467000D01*
X130227000Y-113467000D01*
X129973000Y-113467000D01*
X128983002Y-113467000D01*
X128855334Y-113626123D01*
X125630000Y-113626123D01*
X125630000Y-113378061D01*
X147935000Y-113378061D01*
X147935000Y-113581939D01*
X147974774Y-113781898D01*
X148052795Y-113970256D01*
X148166063Y-114139774D01*
X148310226Y-114283937D01*
X148479744Y-114397205D01*
X148668102Y-114475226D01*
X148868061Y-114515000D01*
X149071939Y-114515000D01*
X149271898Y-114475226D01*
X149460256Y-114397205D01*
X149629774Y-114283937D01*
X149773937Y-114139774D01*
X149887205Y-113970256D01*
X149965226Y-113781898D01*
X150005000Y-113581939D01*
X150005000Y-113378061D01*
X149981131Y-113258061D01*
X154895000Y-113258061D01*
X154895000Y-113461939D01*
X154934774Y-113661898D01*
X155012795Y-113850256D01*
X155126063Y-114019774D01*
X155270226Y-114163937D01*
X155439744Y-114277205D01*
X155628102Y-114355226D01*
X155828061Y-114395000D01*
X156031939Y-114395000D01*
X156231898Y-114355226D01*
X156420256Y-114277205D01*
X156589774Y-114163937D01*
X156733937Y-114019774D01*
X156772430Y-113962166D01*
X156828102Y-113985226D01*
X157028061Y-114025000D01*
X157231939Y-114025000D01*
X157431898Y-113985226D01*
X157620256Y-113907205D01*
X157789774Y-113793937D01*
X157933937Y-113649774D01*
X158047205Y-113480256D01*
X158125226Y-113291898D01*
X158165000Y-113091939D01*
X158165000Y-112888061D01*
X158125226Y-112688102D01*
X158047205Y-112499744D01*
X157933937Y-112330226D01*
X157789774Y-112186063D01*
X157620256Y-112072795D01*
X157431898Y-111994774D01*
X157231939Y-111955000D01*
X157028061Y-111955000D01*
X156828102Y-111994774D01*
X156639744Y-112072795D01*
X156470226Y-112186063D01*
X156326063Y-112330226D01*
X156287570Y-112387834D01*
X156231898Y-112364774D01*
X156031939Y-112325000D01*
X155828061Y-112325000D01*
X155628102Y-112364774D01*
X155439744Y-112442795D01*
X155270226Y-112556063D01*
X155126063Y-112700226D01*
X155012795Y-112869744D01*
X154934774Y-113058102D01*
X154895000Y-113258061D01*
X149981131Y-113258061D01*
X149965226Y-113178102D01*
X149887205Y-112989744D01*
X149773937Y-112820226D01*
X149629774Y-112676063D01*
X149460256Y-112562795D01*
X149271898Y-112484774D01*
X149071939Y-112445000D01*
X148868061Y-112445000D01*
X148668102Y-112484774D01*
X148479744Y-112562795D01*
X148310226Y-112676063D01*
X148166063Y-112820226D01*
X148052795Y-112989744D01*
X147974774Y-113178102D01*
X147935000Y-113378061D01*
X125630000Y-113378061D01*
X125630000Y-110840000D01*
X128809993Y-110840000D01*
X128829976Y-111042895D01*
X128889159Y-111237993D01*
X128985266Y-111417797D01*
X129024004Y-111465000D01*
X128985266Y-111512203D01*
X128889159Y-111692007D01*
X128829976Y-111887105D01*
X128809993Y-112090000D01*
X128829976Y-112292895D01*
X128889159Y-112487993D01*
X128985266Y-112667797D01*
X129018209Y-112707938D01*
X128954745Y-112791840D01*
X128865006Y-112977028D01*
X128855334Y-113053877D01*
X128983002Y-113213000D01*
X129973000Y-113213000D01*
X129973000Y-113193000D01*
X130227000Y-113193000D01*
X130227000Y-113213000D01*
X131216998Y-113213000D01*
X131344666Y-113053877D01*
X131334994Y-112977028D01*
X131245255Y-112791840D01*
X131181791Y-112707938D01*
X131214734Y-112667797D01*
X131310841Y-112487993D01*
X131370024Y-112292895D01*
X131390007Y-112090000D01*
X131370024Y-111887105D01*
X131310841Y-111692007D01*
X131214734Y-111512203D01*
X131175996Y-111465000D01*
X131214734Y-111417797D01*
X131310841Y-111237993D01*
X131370024Y-111042895D01*
X131390007Y-110840000D01*
X131370024Y-110637105D01*
X131310841Y-110442007D01*
X131225259Y-110281894D01*
X131246831Y-110255608D01*
X131324278Y-110110716D01*
X131371969Y-109953500D01*
X131388072Y-109790000D01*
X131388072Y-109390000D01*
X131371969Y-109226500D01*
X131324278Y-109069284D01*
X131246831Y-108924392D01*
X131241636Y-108918061D01*
X144445000Y-108918061D01*
X144445000Y-109121939D01*
X144484774Y-109321898D01*
X144562795Y-109510256D01*
X144676063Y-109679774D01*
X144820226Y-109823937D01*
X144989744Y-109937205D01*
X145178102Y-110015226D01*
X145378061Y-110055000D01*
X145581939Y-110055000D01*
X145616823Y-110048061D01*
X149845000Y-110048061D01*
X149845000Y-110251939D01*
X149884774Y-110451898D01*
X149962795Y-110640256D01*
X150076063Y-110809774D01*
X150220226Y-110953937D01*
X150389744Y-111067205D01*
X150578102Y-111145226D01*
X150778061Y-111185000D01*
X150981939Y-111185000D01*
X151181898Y-111145226D01*
X151370256Y-111067205D01*
X151539774Y-110953937D01*
X151683937Y-110809774D01*
X151797205Y-110640256D01*
X151875226Y-110451898D01*
X151915000Y-110251939D01*
X151915000Y-110048061D01*
X151875226Y-109848102D01*
X151797205Y-109659744D01*
X151683937Y-109490226D01*
X151539774Y-109346063D01*
X151370256Y-109232795D01*
X151181898Y-109154774D01*
X150981939Y-109115000D01*
X150778061Y-109115000D01*
X150578102Y-109154774D01*
X150389744Y-109232795D01*
X150220226Y-109346063D01*
X150076063Y-109490226D01*
X149962795Y-109659744D01*
X149884774Y-109848102D01*
X149845000Y-110048061D01*
X145616823Y-110048061D01*
X145781898Y-110015226D01*
X145970256Y-109937205D01*
X146139774Y-109823937D01*
X146283937Y-109679774D01*
X146397205Y-109510256D01*
X146475226Y-109321898D01*
X146515000Y-109121939D01*
X146515000Y-108918061D01*
X146475226Y-108718102D01*
X146397205Y-108529744D01*
X146283937Y-108360226D01*
X146139774Y-108216063D01*
X145970256Y-108102795D01*
X145781898Y-108024774D01*
X145581939Y-107985000D01*
X145378061Y-107985000D01*
X145178102Y-108024774D01*
X144989744Y-108102795D01*
X144820226Y-108216063D01*
X144676063Y-108360226D01*
X144562795Y-108529744D01*
X144484774Y-108718102D01*
X144445000Y-108918061D01*
X131241636Y-108918061D01*
X131142606Y-108797394D01*
X131015608Y-108693169D01*
X130870716Y-108615722D01*
X130713500Y-108568031D01*
X130550000Y-108551928D01*
X129650000Y-108551928D01*
X129486500Y-108568031D01*
X129329284Y-108615722D01*
X129184392Y-108693169D01*
X129057394Y-108797394D01*
X128953169Y-108924392D01*
X128875722Y-109069284D01*
X128828031Y-109226500D01*
X128811928Y-109390000D01*
X128811928Y-109790000D01*
X128828031Y-109953500D01*
X128875722Y-110110716D01*
X128953169Y-110255608D01*
X128974741Y-110281894D01*
X128889159Y-110442007D01*
X128829976Y-110637105D01*
X128809993Y-110840000D01*
X125630000Y-110840000D01*
X125630000Y-106598061D01*
X146055000Y-106598061D01*
X146055000Y-106801939D01*
X146094774Y-107001898D01*
X146172795Y-107190256D01*
X146286063Y-107359774D01*
X146430226Y-107503937D01*
X146599744Y-107617205D01*
X146788102Y-107695226D01*
X146988061Y-107735000D01*
X147191939Y-107735000D01*
X147391898Y-107695226D01*
X147580256Y-107617205D01*
X147749774Y-107503937D01*
X147893937Y-107359774D01*
X148007205Y-107190256D01*
X148085226Y-107001898D01*
X148125000Y-106801939D01*
X148125000Y-106598061D01*
X148103120Y-106488061D01*
X149305000Y-106488061D01*
X149305000Y-106691939D01*
X149344774Y-106891898D01*
X149422795Y-107080256D01*
X149536063Y-107249774D01*
X149680226Y-107393937D01*
X149849744Y-107507205D01*
X150038102Y-107585226D01*
X150238061Y-107625000D01*
X150441939Y-107625000D01*
X150641898Y-107585226D01*
X150830256Y-107507205D01*
X150999774Y-107393937D01*
X151143937Y-107249774D01*
X151257205Y-107080256D01*
X151335226Y-106891898D01*
X151375000Y-106691939D01*
X151375000Y-106488061D01*
X151335226Y-106288102D01*
X151257205Y-106099744D01*
X151143937Y-105930226D01*
X150999774Y-105786063D01*
X150830256Y-105672795D01*
X150641898Y-105594774D01*
X150441939Y-105555000D01*
X150238061Y-105555000D01*
X150038102Y-105594774D01*
X149849744Y-105672795D01*
X149680226Y-105786063D01*
X149536063Y-105930226D01*
X149422795Y-106099744D01*
X149344774Y-106288102D01*
X149305000Y-106488061D01*
X148103120Y-106488061D01*
X148085226Y-106398102D01*
X148007205Y-106209744D01*
X147893937Y-106040226D01*
X147749774Y-105896063D01*
X147580256Y-105782795D01*
X147391898Y-105704774D01*
X147191939Y-105665000D01*
X146988061Y-105665000D01*
X146788102Y-105704774D01*
X146599744Y-105782795D01*
X146430226Y-105896063D01*
X146286063Y-106040226D01*
X146172795Y-106209744D01*
X146094774Y-106398102D01*
X146055000Y-106598061D01*
X125630000Y-106598061D01*
X125630000Y-105138061D01*
X143275000Y-105138061D01*
X143275000Y-105341939D01*
X143314774Y-105541898D01*
X143392795Y-105730256D01*
X143506063Y-105899774D01*
X143650226Y-106043937D01*
X143819744Y-106157205D01*
X144008102Y-106235226D01*
X144208061Y-106275000D01*
X144411939Y-106275000D01*
X144611898Y-106235226D01*
X144800256Y-106157205D01*
X144969774Y-106043937D01*
X145113937Y-105899774D01*
X145227205Y-105730256D01*
X145305226Y-105541898D01*
X145345000Y-105341939D01*
X145345000Y-105138061D01*
X145305226Y-104938102D01*
X145247219Y-104798061D01*
X167985000Y-104798061D01*
X167985000Y-105001939D01*
X168024774Y-105201898D01*
X168102795Y-105390256D01*
X168216063Y-105559774D01*
X168360226Y-105703937D01*
X168529744Y-105817205D01*
X168718102Y-105895226D01*
X168918061Y-105935000D01*
X169121939Y-105935000D01*
X169321898Y-105895226D01*
X169510256Y-105817205D01*
X169679774Y-105703937D01*
X169823937Y-105559774D01*
X169937205Y-105390256D01*
X170015226Y-105201898D01*
X170055000Y-105001939D01*
X170055000Y-104798061D01*
X170015226Y-104598102D01*
X169937205Y-104409744D01*
X169823937Y-104240226D01*
X169679774Y-104096063D01*
X169510256Y-103982795D01*
X169321898Y-103904774D01*
X169121939Y-103865000D01*
X168918061Y-103865000D01*
X168718102Y-103904774D01*
X168529744Y-103982795D01*
X168360226Y-104096063D01*
X168216063Y-104240226D01*
X168102795Y-104409744D01*
X168024774Y-104598102D01*
X167985000Y-104798061D01*
X145247219Y-104798061D01*
X145227205Y-104749744D01*
X145113937Y-104580226D01*
X144969774Y-104436063D01*
X144800256Y-104322795D01*
X144611898Y-104244774D01*
X144411939Y-104205000D01*
X144208061Y-104205000D01*
X144008102Y-104244774D01*
X143819744Y-104322795D01*
X143650226Y-104436063D01*
X143506063Y-104580226D01*
X143392795Y-104749744D01*
X143314774Y-104938102D01*
X143275000Y-105138061D01*
X125630000Y-105138061D01*
X125630000Y-102156123D01*
X128755334Y-102156123D01*
X128765006Y-102232972D01*
X128854745Y-102418160D01*
X128978888Y-102582283D01*
X129132664Y-102719033D01*
X129310164Y-102823155D01*
X129504567Y-102890648D01*
X129708401Y-102918918D01*
X129873000Y-102753762D01*
X129873000Y-101997000D01*
X130127000Y-101997000D01*
X130127000Y-102753762D01*
X130291599Y-102918918D01*
X130495433Y-102890648D01*
X130689836Y-102823155D01*
X130867336Y-102719033D01*
X131021112Y-102582283D01*
X131145255Y-102418160D01*
X131234994Y-102232972D01*
X131244666Y-102156123D01*
X131116998Y-101997000D01*
X130127000Y-101997000D01*
X129873000Y-101997000D01*
X128883002Y-101997000D01*
X128755334Y-102156123D01*
X125630000Y-102156123D01*
X125630000Y-99370000D01*
X128709993Y-99370000D01*
X128729976Y-99572895D01*
X128789159Y-99767993D01*
X128885266Y-99947797D01*
X128924004Y-99995000D01*
X128885266Y-100042203D01*
X128789159Y-100222007D01*
X128729976Y-100417105D01*
X128709993Y-100620000D01*
X128729976Y-100822895D01*
X128789159Y-101017993D01*
X128885266Y-101197797D01*
X128918209Y-101237938D01*
X128854745Y-101321840D01*
X128765006Y-101507028D01*
X128755334Y-101583877D01*
X128883002Y-101743000D01*
X129873000Y-101743000D01*
X129873000Y-101723000D01*
X130127000Y-101723000D01*
X130127000Y-101743000D01*
X131116998Y-101743000D01*
X131244666Y-101583877D01*
X131242676Y-101568061D01*
X144865000Y-101568061D01*
X144865000Y-101771939D01*
X144904774Y-101971898D01*
X144982795Y-102160256D01*
X145096063Y-102329774D01*
X145240226Y-102473937D01*
X145409744Y-102587205D01*
X145598102Y-102665226D01*
X145798061Y-102705000D01*
X146001939Y-102705000D01*
X146201898Y-102665226D01*
X146364047Y-102598061D01*
X147465000Y-102598061D01*
X147465000Y-102801939D01*
X147504774Y-103001898D01*
X147582795Y-103190256D01*
X147696063Y-103359774D01*
X147840226Y-103503937D01*
X148009744Y-103617205D01*
X148198102Y-103695226D01*
X148398061Y-103735000D01*
X148601939Y-103735000D01*
X148801898Y-103695226D01*
X148990256Y-103617205D01*
X149159774Y-103503937D01*
X149303937Y-103359774D01*
X149417205Y-103190256D01*
X149495226Y-103001898D01*
X149535000Y-102801939D01*
X149535000Y-102598061D01*
X149495226Y-102398102D01*
X149417205Y-102209744D01*
X149303937Y-102040226D01*
X149159774Y-101896063D01*
X148990256Y-101782795D01*
X148801898Y-101704774D01*
X148601939Y-101665000D01*
X148398061Y-101665000D01*
X148198102Y-101704774D01*
X148009744Y-101782795D01*
X147840226Y-101896063D01*
X147696063Y-102040226D01*
X147582795Y-102209744D01*
X147504774Y-102398102D01*
X147465000Y-102598061D01*
X146364047Y-102598061D01*
X146390256Y-102587205D01*
X146559774Y-102473937D01*
X146703937Y-102329774D01*
X146817205Y-102160256D01*
X146895226Y-101971898D01*
X146935000Y-101771939D01*
X146935000Y-101568061D01*
X146895226Y-101368102D01*
X146837219Y-101228061D01*
X158475000Y-101228061D01*
X158475000Y-101431939D01*
X158514774Y-101631898D01*
X158592795Y-101820256D01*
X158706063Y-101989774D01*
X158850226Y-102133937D01*
X159019744Y-102247205D01*
X159208102Y-102325226D01*
X159408061Y-102365000D01*
X159611939Y-102365000D01*
X159811898Y-102325226D01*
X160000256Y-102247205D01*
X160169774Y-102133937D01*
X160313937Y-101989774D01*
X160395262Y-101868061D01*
X167125000Y-101868061D01*
X167125000Y-102071939D01*
X167164774Y-102271898D01*
X167242795Y-102460256D01*
X167356063Y-102629774D01*
X167500226Y-102773937D01*
X167669744Y-102887205D01*
X167858102Y-102965226D01*
X168058061Y-103005000D01*
X168261939Y-103005000D01*
X168461898Y-102965226D01*
X168650256Y-102887205D01*
X168819774Y-102773937D01*
X168963937Y-102629774D01*
X169018535Y-102548061D01*
X169665000Y-102548061D01*
X169665000Y-102751939D01*
X169704774Y-102951898D01*
X169782795Y-103140256D01*
X169896063Y-103309774D01*
X170040226Y-103453937D01*
X170209744Y-103567205D01*
X170398102Y-103645226D01*
X170598061Y-103685000D01*
X170801939Y-103685000D01*
X171001898Y-103645226D01*
X171190256Y-103567205D01*
X171359774Y-103453937D01*
X171503937Y-103309774D01*
X171617205Y-103140256D01*
X171695226Y-102951898D01*
X171735000Y-102751939D01*
X171735000Y-102548061D01*
X171695226Y-102348102D01*
X171617205Y-102159744D01*
X171503937Y-101990226D01*
X171359774Y-101846063D01*
X171190256Y-101732795D01*
X171001898Y-101654774D01*
X170801939Y-101615000D01*
X170598061Y-101615000D01*
X170398102Y-101654774D01*
X170209744Y-101732795D01*
X170040226Y-101846063D01*
X169896063Y-101990226D01*
X169782795Y-102159744D01*
X169704774Y-102348102D01*
X169665000Y-102548061D01*
X169018535Y-102548061D01*
X169077205Y-102460256D01*
X169155226Y-102271898D01*
X169195000Y-102071939D01*
X169195000Y-101868061D01*
X169155226Y-101668102D01*
X169077205Y-101479744D01*
X168963937Y-101310226D01*
X168819774Y-101166063D01*
X168650256Y-101052795D01*
X168461898Y-100974774D01*
X168261939Y-100935000D01*
X168058061Y-100935000D01*
X167858102Y-100974774D01*
X167669744Y-101052795D01*
X167500226Y-101166063D01*
X167356063Y-101310226D01*
X167242795Y-101479744D01*
X167164774Y-101668102D01*
X167125000Y-101868061D01*
X160395262Y-101868061D01*
X160427205Y-101820256D01*
X160505226Y-101631898D01*
X160545000Y-101431939D01*
X160545000Y-101228061D01*
X160505226Y-101028102D01*
X160427205Y-100839744D01*
X160313937Y-100670226D01*
X160169774Y-100526063D01*
X160000256Y-100412795D01*
X159811898Y-100334774D01*
X159611939Y-100295000D01*
X159408061Y-100295000D01*
X159208102Y-100334774D01*
X159019744Y-100412795D01*
X158850226Y-100526063D01*
X158706063Y-100670226D01*
X158592795Y-100839744D01*
X158514774Y-101028102D01*
X158475000Y-101228061D01*
X146837219Y-101228061D01*
X146817205Y-101179744D01*
X146703937Y-101010226D01*
X146559774Y-100866063D01*
X146390256Y-100752795D01*
X146201898Y-100674774D01*
X146001939Y-100635000D01*
X145798061Y-100635000D01*
X145598102Y-100674774D01*
X145409744Y-100752795D01*
X145240226Y-100866063D01*
X145096063Y-101010226D01*
X144982795Y-101179744D01*
X144904774Y-101368102D01*
X144865000Y-101568061D01*
X131242676Y-101568061D01*
X131234994Y-101507028D01*
X131145255Y-101321840D01*
X131081791Y-101237938D01*
X131114734Y-101197797D01*
X131210841Y-101017993D01*
X131270024Y-100822895D01*
X131290007Y-100620000D01*
X131270024Y-100417105D01*
X131210841Y-100222007D01*
X131114734Y-100042203D01*
X131075996Y-99995000D01*
X131114734Y-99947797D01*
X131210841Y-99767993D01*
X131270024Y-99572895D01*
X131290007Y-99370000D01*
X131270024Y-99167105D01*
X131210841Y-98972007D01*
X131125259Y-98811894D01*
X131146831Y-98785608D01*
X131224278Y-98640716D01*
X131271969Y-98483500D01*
X131288072Y-98320000D01*
X131288072Y-97920000D01*
X131279017Y-97828061D01*
X137335000Y-97828061D01*
X137335000Y-98031939D01*
X137374774Y-98231898D01*
X137452795Y-98420256D01*
X137566063Y-98589774D01*
X137710226Y-98733937D01*
X137879744Y-98847205D01*
X138068102Y-98925226D01*
X138268061Y-98965000D01*
X138471939Y-98965000D01*
X138671898Y-98925226D01*
X138860256Y-98847205D01*
X139029774Y-98733937D01*
X139145650Y-98618061D01*
X148565000Y-98618061D01*
X148565000Y-98821939D01*
X148604774Y-99021898D01*
X148682795Y-99210256D01*
X148796063Y-99379774D01*
X148940226Y-99523937D01*
X149109744Y-99637205D01*
X149298102Y-99715226D01*
X149498061Y-99755000D01*
X149701939Y-99755000D01*
X149901898Y-99715226D01*
X150090256Y-99637205D01*
X150259774Y-99523937D01*
X150403937Y-99379774D01*
X150517205Y-99210256D01*
X150595226Y-99021898D01*
X150635000Y-98821939D01*
X150635000Y-98618061D01*
X150595226Y-98418102D01*
X150517205Y-98229744D01*
X150403937Y-98060226D01*
X150259774Y-97916063D01*
X150090256Y-97802795D01*
X149901898Y-97724774D01*
X149701939Y-97685000D01*
X149498061Y-97685000D01*
X149298102Y-97724774D01*
X149109744Y-97802795D01*
X148940226Y-97916063D01*
X148796063Y-98060226D01*
X148682795Y-98229744D01*
X148604774Y-98418102D01*
X148565000Y-98618061D01*
X139145650Y-98618061D01*
X139173937Y-98589774D01*
X139287205Y-98420256D01*
X139365226Y-98231898D01*
X139405000Y-98031939D01*
X139405000Y-97828061D01*
X139365226Y-97628102D01*
X139287205Y-97439744D01*
X139173937Y-97270226D01*
X139029774Y-97126063D01*
X138860256Y-97012795D01*
X138671898Y-96934774D01*
X138471939Y-96895000D01*
X138268061Y-96895000D01*
X138068102Y-96934774D01*
X137879744Y-97012795D01*
X137710226Y-97126063D01*
X137566063Y-97270226D01*
X137452795Y-97439744D01*
X137374774Y-97628102D01*
X137335000Y-97828061D01*
X131279017Y-97828061D01*
X131271969Y-97756500D01*
X131224278Y-97599284D01*
X131146831Y-97454392D01*
X131042606Y-97327394D01*
X130915608Y-97223169D01*
X130770716Y-97145722D01*
X130613500Y-97098031D01*
X130450000Y-97081928D01*
X129550000Y-97081928D01*
X129386500Y-97098031D01*
X129229284Y-97145722D01*
X129084392Y-97223169D01*
X128957394Y-97327394D01*
X128853169Y-97454392D01*
X128775722Y-97599284D01*
X128728031Y-97756500D01*
X128711928Y-97920000D01*
X128711928Y-98320000D01*
X128728031Y-98483500D01*
X128775722Y-98640716D01*
X128853169Y-98785608D01*
X128874741Y-98811894D01*
X128789159Y-98972007D01*
X128729976Y-99167105D01*
X128709993Y-99370000D01*
X125630000Y-99370000D01*
X125630000Y-96548061D01*
X146345000Y-96548061D01*
X146345000Y-96751939D01*
X146384774Y-96951898D01*
X146462795Y-97140256D01*
X146576063Y-97309774D01*
X146720226Y-97453937D01*
X146889744Y-97567205D01*
X147078102Y-97645226D01*
X147278061Y-97685000D01*
X147481939Y-97685000D01*
X147681898Y-97645226D01*
X147870256Y-97567205D01*
X148039774Y-97453937D01*
X148183937Y-97309774D01*
X148297205Y-97140256D01*
X148356104Y-96998061D01*
X152665000Y-96998061D01*
X152665000Y-97201939D01*
X152704774Y-97401898D01*
X152782795Y-97590256D01*
X152896063Y-97759774D01*
X153040226Y-97903937D01*
X153209744Y-98017205D01*
X153398102Y-98095226D01*
X153598061Y-98135000D01*
X153801939Y-98135000D01*
X154001898Y-98095226D01*
X154190256Y-98017205D01*
X154288481Y-97951573D01*
X154182795Y-98109744D01*
X154104774Y-98298102D01*
X154065000Y-98498061D01*
X154065000Y-98701939D01*
X154104774Y-98901898D01*
X154182795Y-99090256D01*
X154296063Y-99259774D01*
X154440226Y-99403937D01*
X154609744Y-99517205D01*
X154798102Y-99595226D01*
X154998061Y-99635000D01*
X155201939Y-99635000D01*
X155265000Y-99622456D01*
X155265000Y-99701939D01*
X155304774Y-99901898D01*
X155382795Y-100090256D01*
X155496063Y-100259774D01*
X155640226Y-100403937D01*
X155809744Y-100517205D01*
X155998102Y-100595226D01*
X156198061Y-100635000D01*
X156401939Y-100635000D01*
X156601898Y-100595226D01*
X156790256Y-100517205D01*
X156959774Y-100403937D01*
X157103937Y-100259774D01*
X157217205Y-100090256D01*
X157295226Y-99901898D01*
X157335000Y-99701939D01*
X157335000Y-99498061D01*
X157295226Y-99298102D01*
X157217205Y-99109744D01*
X157103937Y-98940226D01*
X157061772Y-98898061D01*
X157785000Y-98898061D01*
X157785000Y-99101939D01*
X157824774Y-99301898D01*
X157902795Y-99490256D01*
X158016063Y-99659774D01*
X158160226Y-99803937D01*
X158329744Y-99917205D01*
X158518102Y-99995226D01*
X158718061Y-100035000D01*
X158921939Y-100035000D01*
X159121898Y-99995226D01*
X159310256Y-99917205D01*
X159479774Y-99803937D01*
X159623937Y-99659774D01*
X159737205Y-99490256D01*
X159815226Y-99301898D01*
X159855000Y-99101939D01*
X159855000Y-98898061D01*
X159815226Y-98698102D01*
X159737205Y-98509744D01*
X159623937Y-98340226D01*
X159479774Y-98196063D01*
X159310256Y-98082795D01*
X159121898Y-98004774D01*
X158921939Y-97965000D01*
X158718061Y-97965000D01*
X158518102Y-98004774D01*
X158329744Y-98082795D01*
X158160226Y-98196063D01*
X158016063Y-98340226D01*
X157902795Y-98509744D01*
X157824774Y-98698102D01*
X157785000Y-98898061D01*
X157061772Y-98898061D01*
X156959774Y-98796063D01*
X156790256Y-98682795D01*
X156601898Y-98604774D01*
X156401939Y-98565000D01*
X156198061Y-98565000D01*
X156135000Y-98577544D01*
X156135000Y-98498061D01*
X156095226Y-98298102D01*
X156017205Y-98109744D01*
X155903937Y-97940226D01*
X155759774Y-97796063D01*
X155672968Y-97738061D01*
X159575000Y-97738061D01*
X159575000Y-97941939D01*
X159614774Y-98141898D01*
X159692795Y-98330256D01*
X159806063Y-98499774D01*
X159950226Y-98643937D01*
X160119744Y-98757205D01*
X160308102Y-98835226D01*
X160508061Y-98875000D01*
X160711939Y-98875000D01*
X160911898Y-98835226D01*
X161100256Y-98757205D01*
X161269774Y-98643937D01*
X161413937Y-98499774D01*
X161527205Y-98330256D01*
X161605226Y-98141898D01*
X161645000Y-97941939D01*
X161645000Y-97738061D01*
X161605226Y-97538102D01*
X161527205Y-97349744D01*
X161413937Y-97180226D01*
X161269774Y-97036063D01*
X161100256Y-96922795D01*
X160911898Y-96844774D01*
X160711939Y-96805000D01*
X160508061Y-96805000D01*
X160308102Y-96844774D01*
X160119744Y-96922795D01*
X159950226Y-97036063D01*
X159806063Y-97180226D01*
X159692795Y-97349744D01*
X159614774Y-97538102D01*
X159575000Y-97738061D01*
X155672968Y-97738061D01*
X155590256Y-97682795D01*
X155401898Y-97604774D01*
X155201939Y-97565000D01*
X154998061Y-97565000D01*
X154798102Y-97604774D01*
X154609744Y-97682795D01*
X154511519Y-97748427D01*
X154617205Y-97590256D01*
X154695226Y-97401898D01*
X154735000Y-97201939D01*
X154735000Y-96998061D01*
X154695226Y-96798102D01*
X154617205Y-96609744D01*
X154503937Y-96440226D01*
X154359774Y-96296063D01*
X154190256Y-96182795D01*
X154062799Y-96130000D01*
X178021928Y-96130000D01*
X178021928Y-98530000D01*
X178034188Y-98654482D01*
X178070498Y-98774180D01*
X178129463Y-98884494D01*
X178208815Y-98981185D01*
X178305506Y-99060537D01*
X178415820Y-99119502D01*
X178535518Y-99155812D01*
X178660000Y-99168072D01*
X181060000Y-99168072D01*
X181184482Y-99155812D01*
X181304180Y-99119502D01*
X181414494Y-99060537D01*
X181511185Y-98981185D01*
X181590537Y-98884494D01*
X181649502Y-98774180D01*
X181685812Y-98654482D01*
X181698072Y-98530000D01*
X181698072Y-96130000D01*
X181685812Y-96005518D01*
X181649502Y-95885820D01*
X181590537Y-95775506D01*
X181511185Y-95678815D01*
X181414494Y-95599463D01*
X181304180Y-95540498D01*
X181184482Y-95504188D01*
X181060000Y-95491928D01*
X180653097Y-95491928D01*
X180838486Y-95392836D01*
X180958374Y-95107980D01*
X179860000Y-94009605D01*
X178761626Y-95107980D01*
X178881514Y-95392836D01*
X179080912Y-95491928D01*
X178660000Y-95491928D01*
X178535518Y-95504188D01*
X178415820Y-95540498D01*
X178305506Y-95599463D01*
X178208815Y-95678815D01*
X178129463Y-95775506D01*
X178070498Y-95885820D01*
X178034188Y-96005518D01*
X178021928Y-96130000D01*
X154062799Y-96130000D01*
X154001898Y-96104774D01*
X153801939Y-96065000D01*
X153598061Y-96065000D01*
X153398102Y-96104774D01*
X153209744Y-96182795D01*
X153040226Y-96296063D01*
X152896063Y-96440226D01*
X152782795Y-96609744D01*
X152704774Y-96798102D01*
X152665000Y-96998061D01*
X148356104Y-96998061D01*
X148375226Y-96951898D01*
X148415000Y-96751939D01*
X148415000Y-96548061D01*
X148375226Y-96348102D01*
X148297205Y-96159744D01*
X148245102Y-96081766D01*
X148280256Y-96067205D01*
X148449774Y-95953937D01*
X148593937Y-95809774D01*
X148707205Y-95640256D01*
X148785226Y-95451898D01*
X148825000Y-95251939D01*
X148825000Y-95048061D01*
X148785226Y-94848102D01*
X148707205Y-94659744D01*
X148593937Y-94490226D01*
X148449774Y-94346063D01*
X148280256Y-94232795D01*
X148172260Y-94188061D01*
X154135000Y-94188061D01*
X154135000Y-94391939D01*
X154174774Y-94591898D01*
X154252795Y-94780256D01*
X154366063Y-94949774D01*
X154510226Y-95093937D01*
X154679744Y-95207205D01*
X154868102Y-95285226D01*
X155068061Y-95325000D01*
X155271939Y-95325000D01*
X155471898Y-95285226D01*
X155660256Y-95207205D01*
X155829774Y-95093937D01*
X155973937Y-94949774D01*
X156087205Y-94780256D01*
X156165226Y-94591898D01*
X156205000Y-94391939D01*
X156205000Y-94188061D01*
X156165226Y-93988102D01*
X156122389Y-93884684D01*
X178016933Y-93884684D01*
X178063015Y-94243198D01*
X178178154Y-94585833D01*
X178297164Y-94808486D01*
X178582020Y-94928374D01*
X179680395Y-93830000D01*
X180039605Y-93830000D01*
X181137980Y-94928374D01*
X181422836Y-94808486D01*
X181583699Y-94484790D01*
X181678322Y-94135931D01*
X181703067Y-93775316D01*
X181656985Y-93416802D01*
X181541846Y-93074167D01*
X181422836Y-92851514D01*
X181137980Y-92731626D01*
X180039605Y-93830000D01*
X179680395Y-93830000D01*
X178582020Y-92731626D01*
X178297164Y-92851514D01*
X178136301Y-93175210D01*
X178041678Y-93524069D01*
X178016933Y-93884684D01*
X156122389Y-93884684D01*
X156087205Y-93799744D01*
X155973937Y-93630226D01*
X155829774Y-93486063D01*
X155660256Y-93372795D01*
X155471898Y-93294774D01*
X155271939Y-93255000D01*
X155068061Y-93255000D01*
X154868102Y-93294774D01*
X154679744Y-93372795D01*
X154510226Y-93486063D01*
X154366063Y-93630226D01*
X154252795Y-93799744D01*
X154174774Y-93988102D01*
X154135000Y-94188061D01*
X148172260Y-94188061D01*
X148091898Y-94154774D01*
X147891939Y-94115000D01*
X147688061Y-94115000D01*
X147488102Y-94154774D01*
X147299744Y-94232795D01*
X147130226Y-94346063D01*
X146986063Y-94490226D01*
X146872795Y-94659744D01*
X146794774Y-94848102D01*
X146755000Y-95048061D01*
X146755000Y-95251939D01*
X146794774Y-95451898D01*
X146872795Y-95640256D01*
X146924898Y-95718234D01*
X146889744Y-95732795D01*
X146720226Y-95846063D01*
X146576063Y-95990226D01*
X146462795Y-96159744D01*
X146384774Y-96348102D01*
X146345000Y-96548061D01*
X125630000Y-96548061D01*
X125630000Y-87610000D01*
X138173000Y-87610000D01*
X138173000Y-96200000D01*
X138175440Y-96224776D01*
X138182667Y-96248601D01*
X138194403Y-96270557D01*
X138210197Y-96289803D01*
X138229443Y-96305597D01*
X138251399Y-96317333D01*
X138275224Y-96324560D01*
X138300000Y-96327000D01*
X142230000Y-96327000D01*
X142254776Y-96324560D01*
X142278601Y-96317333D01*
X142300557Y-96305597D01*
X142319803Y-96289803D01*
X142335597Y-96270557D01*
X142347333Y-96248601D01*
X142354560Y-96224776D01*
X142357000Y-96200000D01*
X142357000Y-95810000D01*
X142356997Y-95809106D01*
X142347898Y-94517000D01*
X144430000Y-94517000D01*
X144454776Y-94514560D01*
X144478601Y-94507333D01*
X144500557Y-94495597D01*
X144519803Y-94479803D01*
X144535597Y-94460557D01*
X144547333Y-94438601D01*
X144554560Y-94414776D01*
X144557000Y-94390000D01*
X144557000Y-93617000D01*
X146590000Y-93617000D01*
X146614776Y-93614560D01*
X146638601Y-93607333D01*
X146660557Y-93595597D01*
X146679803Y-93579803D01*
X146695597Y-93560557D01*
X146707333Y-93538601D01*
X146714560Y-93514776D01*
X146717000Y-93490000D01*
X146717000Y-92552020D01*
X178761626Y-92552020D01*
X179860000Y-93650395D01*
X180958374Y-92552020D01*
X180838486Y-92267164D01*
X180514790Y-92106301D01*
X180165931Y-92011678D01*
X179805316Y-91986933D01*
X179446802Y-92033015D01*
X179104167Y-92148154D01*
X178881514Y-92267164D01*
X178761626Y-92552020D01*
X146717000Y-92552020D01*
X146717000Y-91920000D01*
X146714560Y-91895224D01*
X146707333Y-91871399D01*
X146695597Y-91849443D01*
X146679803Y-91830197D01*
X146660557Y-91814403D01*
X146638601Y-91802667D01*
X146614776Y-91795440D01*
X146590000Y-91793000D01*
X144759483Y-91793000D01*
X144697564Y-91718697D01*
X144687124Y-91707596D01*
X143987124Y-91047596D01*
X143967422Y-91032375D01*
X143945130Y-91021289D01*
X143921104Y-91014766D01*
X143918566Y-91014545D01*
X143965226Y-90901898D01*
X144005000Y-90701939D01*
X144005000Y-90498061D01*
X145865000Y-90498061D01*
X145865000Y-90701939D01*
X145904774Y-90901898D01*
X145982795Y-91090256D01*
X146096063Y-91259774D01*
X146240226Y-91403937D01*
X146409744Y-91517205D01*
X146598102Y-91595226D01*
X146798061Y-91635000D01*
X147001939Y-91635000D01*
X147201898Y-91595226D01*
X147390256Y-91517205D01*
X147559774Y-91403937D01*
X147703937Y-91259774D01*
X147817205Y-91090256D01*
X147852498Y-91005052D01*
X147901898Y-90995226D01*
X148090256Y-90917205D01*
X148259774Y-90803937D01*
X148403937Y-90659774D01*
X148517205Y-90490256D01*
X148555393Y-90398061D01*
X148775000Y-90398061D01*
X148775000Y-90601939D01*
X148814774Y-90801898D01*
X148892795Y-90990256D01*
X149006063Y-91159774D01*
X149150226Y-91303937D01*
X149319744Y-91417205D01*
X149508102Y-91495226D01*
X149708061Y-91535000D01*
X149911939Y-91535000D01*
X150111898Y-91495226D01*
X150300256Y-91417205D01*
X150469774Y-91303937D01*
X150613937Y-91159774D01*
X150721989Y-90998061D01*
X154565000Y-90998061D01*
X154565000Y-91201939D01*
X154604774Y-91401898D01*
X154682795Y-91590256D01*
X154796063Y-91759774D01*
X154940226Y-91903937D01*
X155109744Y-92017205D01*
X155298102Y-92095226D01*
X155498061Y-92135000D01*
X155701939Y-92135000D01*
X155901898Y-92095226D01*
X156090256Y-92017205D01*
X156259774Y-91903937D01*
X156403937Y-91759774D01*
X156517205Y-91590256D01*
X156595226Y-91401898D01*
X156635000Y-91201939D01*
X156635000Y-90998061D01*
X156595226Y-90798102D01*
X156517205Y-90609744D01*
X156403937Y-90440226D01*
X156259774Y-90296063D01*
X156090256Y-90182795D01*
X155901898Y-90104774D01*
X155701939Y-90065000D01*
X155498061Y-90065000D01*
X155298102Y-90104774D01*
X155109744Y-90182795D01*
X154940226Y-90296063D01*
X154796063Y-90440226D01*
X154682795Y-90609744D01*
X154604774Y-90798102D01*
X154565000Y-90998061D01*
X150721989Y-90998061D01*
X150727205Y-90990256D01*
X150805226Y-90801898D01*
X150845000Y-90601939D01*
X150845000Y-90398061D01*
X150805226Y-90198102D01*
X150727205Y-90009744D01*
X150613937Y-89840226D01*
X150469774Y-89696063D01*
X150300256Y-89582795D01*
X150111898Y-89504774D01*
X149911939Y-89465000D01*
X149708061Y-89465000D01*
X149508102Y-89504774D01*
X149319744Y-89582795D01*
X149150226Y-89696063D01*
X149006063Y-89840226D01*
X148892795Y-90009744D01*
X148814774Y-90198102D01*
X148775000Y-90398061D01*
X148555393Y-90398061D01*
X148595226Y-90301898D01*
X148635000Y-90101939D01*
X148635000Y-89898061D01*
X148595226Y-89698102D01*
X148517205Y-89509744D01*
X148403937Y-89340226D01*
X148259774Y-89196063D01*
X148090256Y-89082795D01*
X147901898Y-89004774D01*
X147701939Y-88965000D01*
X147498061Y-88965000D01*
X147298102Y-89004774D01*
X147109744Y-89082795D01*
X146940226Y-89196063D01*
X146796063Y-89340226D01*
X146682795Y-89509744D01*
X146647502Y-89594948D01*
X146598102Y-89604774D01*
X146409744Y-89682795D01*
X146240226Y-89796063D01*
X146096063Y-89940226D01*
X145982795Y-90109744D01*
X145904774Y-90298102D01*
X145865000Y-90498061D01*
X144005000Y-90498061D01*
X143965226Y-90298102D01*
X143887205Y-90109744D01*
X143773937Y-89940226D01*
X143629774Y-89796063D01*
X143460256Y-89682795D01*
X143271898Y-89604774D01*
X143071939Y-89565000D01*
X142868061Y-89565000D01*
X142668102Y-89604774D01*
X142537000Y-89659079D01*
X142537000Y-88508061D01*
X155175000Y-88508061D01*
X155175000Y-88711939D01*
X155214774Y-88911898D01*
X155292795Y-89100256D01*
X155406063Y-89269774D01*
X155550226Y-89413937D01*
X155719744Y-89527205D01*
X155908102Y-89605226D01*
X156108061Y-89645000D01*
X156311939Y-89645000D01*
X156511898Y-89605226D01*
X156700256Y-89527205D01*
X156869774Y-89413937D01*
X157013937Y-89269774D01*
X157127205Y-89100256D01*
X157205226Y-88911898D01*
X157245000Y-88711939D01*
X157245000Y-88508061D01*
X157205226Y-88308102D01*
X157127205Y-88119744D01*
X157013937Y-87950226D01*
X156869774Y-87806063D01*
X156700256Y-87692795D01*
X156511898Y-87614774D01*
X156311939Y-87575000D01*
X156108061Y-87575000D01*
X155908102Y-87614774D01*
X155719744Y-87692795D01*
X155550226Y-87806063D01*
X155406063Y-87950226D01*
X155292795Y-88119744D01*
X155214774Y-88308102D01*
X155175000Y-88508061D01*
X142537000Y-88508061D01*
X142537000Y-87610000D01*
X142534560Y-87585224D01*
X142527333Y-87561399D01*
X142515597Y-87539443D01*
X142499803Y-87520197D01*
X142480557Y-87504403D01*
X142458601Y-87492667D01*
X142434776Y-87485440D01*
X142410000Y-87483000D01*
X138300000Y-87483000D01*
X138275224Y-87485440D01*
X138251399Y-87492667D01*
X138229443Y-87504403D01*
X138210197Y-87520197D01*
X138194403Y-87539443D01*
X138182667Y-87561399D01*
X138175440Y-87585224D01*
X138173000Y-87610000D01*
X125630000Y-87610000D01*
X125630000Y-85536123D01*
X128755334Y-85536123D01*
X128765006Y-85612972D01*
X128854745Y-85798160D01*
X128978888Y-85962283D01*
X129132664Y-86099033D01*
X129310164Y-86203155D01*
X129504567Y-86270648D01*
X129708401Y-86298918D01*
X129873000Y-86133762D01*
X129873000Y-85377000D01*
X130127000Y-85377000D01*
X130127000Y-86133762D01*
X130291599Y-86298918D01*
X130495433Y-86270648D01*
X130689836Y-86203155D01*
X130826374Y-86123061D01*
X144490000Y-86123061D01*
X144490000Y-86326939D01*
X144529774Y-86526898D01*
X144607795Y-86715256D01*
X144721063Y-86884774D01*
X144865226Y-87028937D01*
X145034744Y-87142205D01*
X145223102Y-87220226D01*
X145423061Y-87260000D01*
X145626939Y-87260000D01*
X145826898Y-87220226D01*
X146015256Y-87142205D01*
X146184774Y-87028937D01*
X146328937Y-86884774D01*
X146442205Y-86715256D01*
X146520226Y-86526898D01*
X146560000Y-86326939D01*
X146560000Y-86238061D01*
X151325000Y-86238061D01*
X151325000Y-86441939D01*
X151364774Y-86641898D01*
X151442795Y-86830256D01*
X151556063Y-86999774D01*
X151700226Y-87143937D01*
X151869744Y-87257205D01*
X152058102Y-87335226D01*
X152258061Y-87375000D01*
X152461939Y-87375000D01*
X152661898Y-87335226D01*
X152850256Y-87257205D01*
X152943352Y-87195000D01*
X177658420Y-87195000D01*
X177684678Y-87461607D01*
X177762445Y-87717968D01*
X177888730Y-87954231D01*
X178058682Y-88161318D01*
X178265769Y-88331270D01*
X178502032Y-88457555D01*
X178758393Y-88535322D01*
X178958191Y-88555000D01*
X179641809Y-88555000D01*
X179841607Y-88535322D01*
X180097968Y-88457555D01*
X180334231Y-88331270D01*
X180541318Y-88161318D01*
X180711270Y-87954231D01*
X180837555Y-87717968D01*
X180915322Y-87461607D01*
X180941580Y-87195000D01*
X180915322Y-86928393D01*
X180892282Y-86852442D01*
X181009774Y-86773937D01*
X181153937Y-86629774D01*
X181267205Y-86460256D01*
X181345226Y-86271898D01*
X181385000Y-86071939D01*
X181385000Y-85868061D01*
X181345226Y-85668102D01*
X181267205Y-85479744D01*
X181153937Y-85310226D01*
X181009774Y-85166063D01*
X180840256Y-85052795D01*
X180651898Y-84974774D01*
X180451939Y-84935000D01*
X180248061Y-84935000D01*
X180048102Y-84974774D01*
X179859744Y-85052795D01*
X179690226Y-85166063D01*
X179546063Y-85310226D01*
X179432795Y-85479744D01*
X179354774Y-85668102D01*
X179321576Y-85835000D01*
X178958191Y-85835000D01*
X178758393Y-85854678D01*
X178502032Y-85932445D01*
X178265769Y-86058730D01*
X178058682Y-86228682D01*
X177888730Y-86435769D01*
X177762445Y-86672032D01*
X177684678Y-86928393D01*
X177658420Y-87195000D01*
X152943352Y-87195000D01*
X153019774Y-87143937D01*
X153163937Y-86999774D01*
X153277205Y-86830256D01*
X153355226Y-86641898D01*
X153395000Y-86441939D01*
X153395000Y-86238061D01*
X153355226Y-86038102D01*
X153277205Y-85849744D01*
X153182536Y-85708061D01*
X153935000Y-85708061D01*
X153935000Y-85911939D01*
X153974774Y-86111898D01*
X154052795Y-86300256D01*
X154166063Y-86469774D01*
X154310226Y-86613937D01*
X154479744Y-86727205D01*
X154668102Y-86805226D01*
X154868061Y-86845000D01*
X155071939Y-86845000D01*
X155271898Y-86805226D01*
X155460256Y-86727205D01*
X155629774Y-86613937D01*
X155773937Y-86469774D01*
X155887205Y-86300256D01*
X155965226Y-86111898D01*
X156005000Y-85911939D01*
X156005000Y-85728061D01*
X158945000Y-85728061D01*
X158945000Y-85931939D01*
X158984774Y-86131898D01*
X159062795Y-86320256D01*
X159176063Y-86489774D01*
X159320226Y-86633937D01*
X159489744Y-86747205D01*
X159678102Y-86825226D01*
X159878061Y-86865000D01*
X160081939Y-86865000D01*
X160281898Y-86825226D01*
X160470256Y-86747205D01*
X160639774Y-86633937D01*
X160783937Y-86489774D01*
X160897205Y-86320256D01*
X160975226Y-86131898D01*
X161015000Y-85931939D01*
X161015000Y-85728061D01*
X160975226Y-85528102D01*
X160897205Y-85339744D01*
X160783937Y-85170226D01*
X160639774Y-85026063D01*
X160470256Y-84912795D01*
X160281898Y-84834774D01*
X160081939Y-84795000D01*
X159878061Y-84795000D01*
X159678102Y-84834774D01*
X159489744Y-84912795D01*
X159320226Y-85026063D01*
X159176063Y-85170226D01*
X159062795Y-85339744D01*
X158984774Y-85528102D01*
X158945000Y-85728061D01*
X156005000Y-85728061D01*
X156005000Y-85708061D01*
X155965226Y-85508102D01*
X155887205Y-85319744D01*
X155773937Y-85150226D01*
X155629774Y-85006063D01*
X155460256Y-84892795D01*
X155271898Y-84814774D01*
X155071939Y-84775000D01*
X154868061Y-84775000D01*
X154668102Y-84814774D01*
X154479744Y-84892795D01*
X154310226Y-85006063D01*
X154166063Y-85150226D01*
X154052795Y-85319744D01*
X153974774Y-85508102D01*
X153935000Y-85708061D01*
X153182536Y-85708061D01*
X153163937Y-85680226D01*
X153019774Y-85536063D01*
X152850256Y-85422795D01*
X152661898Y-85344774D01*
X152461939Y-85305000D01*
X152258061Y-85305000D01*
X152058102Y-85344774D01*
X151869744Y-85422795D01*
X151700226Y-85536063D01*
X151556063Y-85680226D01*
X151442795Y-85849744D01*
X151364774Y-86038102D01*
X151325000Y-86238061D01*
X146560000Y-86238061D01*
X146560000Y-86123061D01*
X146520226Y-85923102D01*
X146442205Y-85734744D01*
X146328937Y-85565226D01*
X146184774Y-85421063D01*
X146015256Y-85307795D01*
X145826898Y-85229774D01*
X145626939Y-85190000D01*
X145423061Y-85190000D01*
X145223102Y-85229774D01*
X145034744Y-85307795D01*
X144865226Y-85421063D01*
X144721063Y-85565226D01*
X144607795Y-85734744D01*
X144529774Y-85923102D01*
X144490000Y-86123061D01*
X130826374Y-86123061D01*
X130867336Y-86099033D01*
X131021112Y-85962283D01*
X131145255Y-85798160D01*
X131234994Y-85612972D01*
X131244666Y-85536123D01*
X131116998Y-85377000D01*
X130127000Y-85377000D01*
X129873000Y-85377000D01*
X128883002Y-85377000D01*
X128755334Y-85536123D01*
X125630000Y-85536123D01*
X125630000Y-82750000D01*
X128709993Y-82750000D01*
X128729976Y-82952895D01*
X128789159Y-83147993D01*
X128885266Y-83327797D01*
X128924004Y-83375000D01*
X128885266Y-83422203D01*
X128789159Y-83602007D01*
X128729976Y-83797105D01*
X128709993Y-84000000D01*
X128729976Y-84202895D01*
X128789159Y-84397993D01*
X128885266Y-84577797D01*
X128918209Y-84617938D01*
X128854745Y-84701840D01*
X128765006Y-84887028D01*
X128755334Y-84963877D01*
X128883002Y-85123000D01*
X129873000Y-85123000D01*
X129873000Y-85103000D01*
X130127000Y-85103000D01*
X130127000Y-85123000D01*
X131116998Y-85123000D01*
X131244666Y-84963877D01*
X131234994Y-84887028D01*
X131145255Y-84701840D01*
X131081791Y-84617938D01*
X131114734Y-84577797D01*
X131210841Y-84397993D01*
X131270024Y-84202895D01*
X131290007Y-84000000D01*
X131270024Y-83797105D01*
X131210841Y-83602007D01*
X131114734Y-83422203D01*
X131075996Y-83375000D01*
X131114734Y-83327797D01*
X131210841Y-83147993D01*
X131270024Y-82952895D01*
X131290007Y-82750000D01*
X131270024Y-82547105D01*
X131210841Y-82352007D01*
X131125259Y-82191894D01*
X131146831Y-82165608D01*
X131224278Y-82020716D01*
X131234183Y-81988061D01*
X153485000Y-81988061D01*
X153485000Y-82191939D01*
X153524774Y-82391898D01*
X153602795Y-82580256D01*
X153716063Y-82749774D01*
X153860226Y-82893937D01*
X154029744Y-83007205D01*
X154218102Y-83085226D01*
X154418061Y-83125000D01*
X154621939Y-83125000D01*
X154821898Y-83085226D01*
X155010256Y-83007205D01*
X155179774Y-82893937D01*
X155323937Y-82749774D01*
X155437205Y-82580256D01*
X155515226Y-82391898D01*
X155555000Y-82191939D01*
X155555000Y-81988061D01*
X155515226Y-81788102D01*
X155437205Y-81599744D01*
X155323937Y-81430226D01*
X155179774Y-81286063D01*
X155010256Y-81172795D01*
X154821898Y-81094774D01*
X154621939Y-81055000D01*
X154418061Y-81055000D01*
X154218102Y-81094774D01*
X154029744Y-81172795D01*
X153860226Y-81286063D01*
X153716063Y-81430226D01*
X153602795Y-81599744D01*
X153524774Y-81788102D01*
X153485000Y-81988061D01*
X131234183Y-81988061D01*
X131271969Y-81863500D01*
X131288072Y-81700000D01*
X131288072Y-81300000D01*
X131271969Y-81136500D01*
X131224278Y-80979284D01*
X131146831Y-80834392D01*
X131042606Y-80707394D01*
X130915608Y-80603169D01*
X130770716Y-80525722D01*
X130613500Y-80478031D01*
X130450000Y-80461928D01*
X129550000Y-80461928D01*
X129386500Y-80478031D01*
X129229284Y-80525722D01*
X129084392Y-80603169D01*
X128957394Y-80707394D01*
X128853169Y-80834392D01*
X128775722Y-80979284D01*
X128728031Y-81136500D01*
X128711928Y-81300000D01*
X128711928Y-81700000D01*
X128728031Y-81863500D01*
X128775722Y-82020716D01*
X128853169Y-82165608D01*
X128874741Y-82191894D01*
X128789159Y-82352007D01*
X128729976Y-82547105D01*
X128709993Y-82750000D01*
X125630000Y-82750000D01*
X125630000Y-79745000D01*
X177658420Y-79745000D01*
X177684678Y-80011607D01*
X177762445Y-80267968D01*
X177888730Y-80504231D01*
X178058682Y-80711318D01*
X178265769Y-80881270D01*
X178502032Y-81007555D01*
X178758393Y-81085322D01*
X178958191Y-81105000D01*
X179321576Y-81105000D01*
X179354774Y-81271898D01*
X179432795Y-81460256D01*
X179546063Y-81629774D01*
X179690226Y-81773937D01*
X179859744Y-81887205D01*
X180048102Y-81965226D01*
X180248061Y-82005000D01*
X180451939Y-82005000D01*
X180651898Y-81965226D01*
X180840256Y-81887205D01*
X181009774Y-81773937D01*
X181153937Y-81629774D01*
X181267205Y-81460256D01*
X181345226Y-81271898D01*
X181385000Y-81071939D01*
X181385000Y-80868061D01*
X181345226Y-80668102D01*
X181267205Y-80479744D01*
X181153937Y-80310226D01*
X181009774Y-80166063D01*
X180892282Y-80087558D01*
X180915322Y-80011607D01*
X180941580Y-79745000D01*
X180915322Y-79478393D01*
X180837555Y-79222032D01*
X180711270Y-78985769D01*
X180541318Y-78778682D01*
X180334231Y-78608730D01*
X180097968Y-78482445D01*
X179841607Y-78404678D01*
X179641809Y-78385000D01*
X178958191Y-78385000D01*
X178758393Y-78404678D01*
X178502032Y-78482445D01*
X178265769Y-78608730D01*
X178058682Y-78778682D01*
X177888730Y-78985769D01*
X177762445Y-79222032D01*
X177684678Y-79478393D01*
X177658420Y-79745000D01*
X125630000Y-79745000D01*
X125630000Y-77478061D01*
X146295000Y-77478061D01*
X146295000Y-77681939D01*
X146334774Y-77881898D01*
X146412795Y-78070256D01*
X146526063Y-78239774D01*
X146670226Y-78383937D01*
X146839744Y-78497205D01*
X147028102Y-78575226D01*
X147228061Y-78615000D01*
X147431939Y-78615000D01*
X147631898Y-78575226D01*
X147820256Y-78497205D01*
X147989774Y-78383937D01*
X148133937Y-78239774D01*
X148247205Y-78070256D01*
X148325226Y-77881898D01*
X148349037Y-77762190D01*
X148422795Y-77940256D01*
X148536063Y-78109774D01*
X148680226Y-78253937D01*
X148849744Y-78367205D01*
X149038102Y-78445226D01*
X149238061Y-78485000D01*
X149441939Y-78485000D01*
X149641898Y-78445226D01*
X149830256Y-78367205D01*
X149999774Y-78253937D01*
X150143937Y-78109774D01*
X150257205Y-77940256D01*
X150335226Y-77751898D01*
X150375000Y-77551939D01*
X150375000Y-77348061D01*
X150335226Y-77148102D01*
X150257205Y-76959744D01*
X150143937Y-76790226D01*
X149999774Y-76646063D01*
X149830256Y-76532795D01*
X149641898Y-76454774D01*
X149441939Y-76415000D01*
X149238061Y-76415000D01*
X149038102Y-76454774D01*
X148849744Y-76532795D01*
X148680226Y-76646063D01*
X148536063Y-76790226D01*
X148422795Y-76959744D01*
X148344774Y-77148102D01*
X148320963Y-77267810D01*
X148247205Y-77089744D01*
X148133937Y-76920226D01*
X147989774Y-76776063D01*
X147820256Y-76662795D01*
X147631898Y-76584774D01*
X147431939Y-76545000D01*
X147228061Y-76545000D01*
X147028102Y-76584774D01*
X146839744Y-76662795D01*
X146670226Y-76776063D01*
X146526063Y-76920226D01*
X146412795Y-77089744D01*
X146334774Y-77278102D01*
X146295000Y-77478061D01*
X125630000Y-77478061D01*
X125630000Y-76373061D01*
X152480000Y-76373061D01*
X152480000Y-76576939D01*
X152519774Y-76776898D01*
X152597795Y-76965256D01*
X152711063Y-77134774D01*
X152855226Y-77278937D01*
X153024744Y-77392205D01*
X153213102Y-77470226D01*
X153413061Y-77510000D01*
X153616939Y-77510000D01*
X153816898Y-77470226D01*
X154005256Y-77392205D01*
X154174774Y-77278937D01*
X154318937Y-77134774D01*
X154432205Y-76965256D01*
X154510226Y-76776898D01*
X154550000Y-76576939D01*
X154550000Y-76373061D01*
X154510226Y-76173102D01*
X154432205Y-75984744D01*
X154318937Y-75815226D01*
X154174774Y-75671063D01*
X154005256Y-75557795D01*
X153816898Y-75479774D01*
X153616939Y-75440000D01*
X153413061Y-75440000D01*
X153213102Y-75479774D01*
X153024744Y-75557795D01*
X152855226Y-75671063D01*
X152711063Y-75815226D01*
X152597795Y-75984744D01*
X152519774Y-76173102D01*
X152480000Y-76373061D01*
X125630000Y-76373061D01*
X125630000Y-74858061D01*
X134225000Y-74858061D01*
X134225000Y-75061939D01*
X134264774Y-75261898D01*
X134342795Y-75450256D01*
X134456063Y-75619774D01*
X134600226Y-75763937D01*
X134769744Y-75877205D01*
X134958102Y-75955226D01*
X135158061Y-75995000D01*
X135361939Y-75995000D01*
X135561898Y-75955226D01*
X135750256Y-75877205D01*
X135919774Y-75763937D01*
X136063937Y-75619774D01*
X136177205Y-75450256D01*
X136255226Y-75261898D01*
X136295000Y-75061939D01*
X136295000Y-74858061D01*
X136285055Y-74808061D01*
X141455000Y-74808061D01*
X141455000Y-75011939D01*
X141494774Y-75211898D01*
X141572795Y-75400256D01*
X141686063Y-75569774D01*
X141830226Y-75713937D01*
X141999744Y-75827205D01*
X142188102Y-75905226D01*
X142388061Y-75945000D01*
X142591939Y-75945000D01*
X142791898Y-75905226D01*
X142980256Y-75827205D01*
X143149774Y-75713937D01*
X143293937Y-75569774D01*
X143407205Y-75400256D01*
X143485226Y-75211898D01*
X143525000Y-75011939D01*
X143525000Y-74808061D01*
X143485226Y-74608102D01*
X143407205Y-74419744D01*
X143293937Y-74250226D01*
X143149774Y-74106063D01*
X142980256Y-73992795D01*
X142791898Y-73914774D01*
X142591939Y-73875000D01*
X142388061Y-73875000D01*
X142188102Y-73914774D01*
X141999744Y-73992795D01*
X141830226Y-74106063D01*
X141686063Y-74250226D01*
X141572795Y-74419744D01*
X141494774Y-74608102D01*
X141455000Y-74808061D01*
X136285055Y-74808061D01*
X136255226Y-74658102D01*
X136177205Y-74469744D01*
X136063937Y-74300226D01*
X135919774Y-74156063D01*
X135750256Y-74042795D01*
X135561898Y-73964774D01*
X135361939Y-73925000D01*
X135158061Y-73925000D01*
X134958102Y-73964774D01*
X134769744Y-74042795D01*
X134600226Y-74156063D01*
X134456063Y-74300226D01*
X134342795Y-74469744D01*
X134264774Y-74658102D01*
X134225000Y-74858061D01*
X125630000Y-74858061D01*
X125630000Y-70032278D01*
X125654748Y-69779872D01*
X126765000Y-69779872D01*
X126765000Y-70220128D01*
X126850890Y-70651925D01*
X127019369Y-71058669D01*
X127263962Y-71424729D01*
X127575271Y-71736038D01*
X127941331Y-71980631D01*
X128348075Y-72149110D01*
X128779872Y-72235000D01*
X129220128Y-72235000D01*
X129651925Y-72149110D01*
X130058669Y-71980631D01*
X130424729Y-71736038D01*
X130736038Y-71424729D01*
X130804947Y-71321599D01*
X135791082Y-71321599D01*
X135819352Y-71525433D01*
X135886845Y-71719836D01*
X135990967Y-71897336D01*
X136127717Y-72051112D01*
X136291840Y-72175255D01*
X136477028Y-72264994D01*
X136553877Y-72274666D01*
X136713000Y-72146998D01*
X136713000Y-71157000D01*
X135956238Y-71157000D01*
X135791082Y-71321599D01*
X130804947Y-71321599D01*
X130980631Y-71058669D01*
X131113290Y-70738401D01*
X135791082Y-70738401D01*
X135956238Y-70903000D01*
X136713000Y-70903000D01*
X136713000Y-69913002D01*
X136967000Y-69913002D01*
X136967000Y-70903000D01*
X136987000Y-70903000D01*
X136987000Y-71157000D01*
X136967000Y-71157000D01*
X136967000Y-72146998D01*
X137126123Y-72274666D01*
X137202972Y-72264994D01*
X137388160Y-72175255D01*
X137472062Y-72111791D01*
X137512203Y-72144734D01*
X137692007Y-72240841D01*
X137887105Y-72300024D01*
X138090000Y-72320007D01*
X138292894Y-72300024D01*
X138487992Y-72240841D01*
X138667797Y-72144734D01*
X138715000Y-72105996D01*
X138762203Y-72144734D01*
X138942007Y-72240841D01*
X139137105Y-72300024D01*
X139340000Y-72320007D01*
X139542894Y-72300024D01*
X139737992Y-72240841D01*
X139898106Y-72155259D01*
X139924392Y-72176831D01*
X140069284Y-72254278D01*
X140226500Y-72301969D01*
X140390000Y-72318072D01*
X140790000Y-72318072D01*
X140953500Y-72301969D01*
X141110716Y-72254278D01*
X141255608Y-72176831D01*
X141382606Y-72072606D01*
X141486831Y-71945608D01*
X141564278Y-71800716D01*
X141611969Y-71643500D01*
X141628072Y-71480000D01*
X141628072Y-71258061D01*
X153675000Y-71258061D01*
X153675000Y-71461939D01*
X153714774Y-71661898D01*
X153792795Y-71850256D01*
X153906063Y-72019774D01*
X154050226Y-72163937D01*
X154219744Y-72277205D01*
X154408102Y-72355226D01*
X154608061Y-72395000D01*
X154811939Y-72395000D01*
X155011898Y-72355226D01*
X155200256Y-72277205D01*
X155369774Y-72163937D01*
X155513937Y-72019774D01*
X155627205Y-71850256D01*
X155705226Y-71661898D01*
X155745000Y-71461939D01*
X155745000Y-71258061D01*
X155705226Y-71058102D01*
X155627205Y-70869744D01*
X155513937Y-70700226D01*
X155369774Y-70556063D01*
X155200256Y-70442795D01*
X155011898Y-70364774D01*
X154811939Y-70325000D01*
X154608061Y-70325000D01*
X154408102Y-70364774D01*
X154219744Y-70442795D01*
X154050226Y-70556063D01*
X153906063Y-70700226D01*
X153792795Y-70869744D01*
X153714774Y-71058102D01*
X153675000Y-71258061D01*
X141628072Y-71258061D01*
X141628072Y-70580000D01*
X141611969Y-70416500D01*
X141564278Y-70259284D01*
X141486831Y-70114392D01*
X141382606Y-69987394D01*
X141255608Y-69883169D01*
X141110716Y-69805722D01*
X140953500Y-69758031D01*
X140790000Y-69741928D01*
X140390000Y-69741928D01*
X140226500Y-69758031D01*
X140069284Y-69805722D01*
X139924392Y-69883169D01*
X139898106Y-69904741D01*
X139737993Y-69819159D01*
X139542895Y-69759976D01*
X139340000Y-69739993D01*
X139137106Y-69759976D01*
X138942008Y-69819159D01*
X138762204Y-69915266D01*
X138715001Y-69954005D01*
X138667797Y-69915266D01*
X138487993Y-69819159D01*
X138292895Y-69759976D01*
X138090000Y-69739993D01*
X137887106Y-69759976D01*
X137692008Y-69819159D01*
X137512204Y-69915266D01*
X137472063Y-69948209D01*
X137388160Y-69884745D01*
X137202972Y-69795006D01*
X137126123Y-69785334D01*
X136967000Y-69913002D01*
X136713000Y-69913002D01*
X136553877Y-69785334D01*
X136477028Y-69795006D01*
X136291840Y-69884745D01*
X136127717Y-70008888D01*
X135990967Y-70162664D01*
X135886845Y-70340164D01*
X135819352Y-70534567D01*
X135791082Y-70738401D01*
X131113290Y-70738401D01*
X131149110Y-70651925D01*
X131235000Y-70220128D01*
X131235000Y-69779872D01*
X131149110Y-69348075D01*
X131043512Y-69093137D01*
X149005000Y-69093137D01*
X149005000Y-69306863D01*
X149046696Y-69516483D01*
X149128485Y-69713940D01*
X149247225Y-69891647D01*
X149398353Y-70042775D01*
X149576060Y-70161515D01*
X149773517Y-70243304D01*
X149983137Y-70285000D01*
X150196863Y-70285000D01*
X150406483Y-70243304D01*
X150603940Y-70161515D01*
X150781647Y-70042775D01*
X150932775Y-69891647D01*
X151051515Y-69713940D01*
X151133304Y-69516483D01*
X151175000Y-69306863D01*
X151175000Y-69093137D01*
X152005000Y-69093137D01*
X152005000Y-69306863D01*
X152046696Y-69516483D01*
X152128485Y-69713940D01*
X152247225Y-69891647D01*
X152398353Y-70042775D01*
X152576060Y-70161515D01*
X152773517Y-70243304D01*
X152983137Y-70285000D01*
X153196863Y-70285000D01*
X153406483Y-70243304D01*
X153603940Y-70161515D01*
X153781647Y-70042775D01*
X153932775Y-69891647D01*
X154047551Y-69719872D01*
X178865000Y-69719872D01*
X178865000Y-70160128D01*
X178950890Y-70591925D01*
X179119369Y-70998669D01*
X179363962Y-71364729D01*
X179675271Y-71676038D01*
X180041331Y-71920631D01*
X180448075Y-72089110D01*
X180879872Y-72175000D01*
X181320128Y-72175000D01*
X181751925Y-72089110D01*
X182158669Y-71920631D01*
X182524729Y-71676038D01*
X182836038Y-71364729D01*
X183080631Y-70998669D01*
X183249110Y-70591925D01*
X183335000Y-70160128D01*
X183335000Y-69719872D01*
X183249110Y-69288075D01*
X183080631Y-68881331D01*
X182836038Y-68515271D01*
X182524729Y-68203962D01*
X182158669Y-67959369D01*
X181751925Y-67790890D01*
X181320128Y-67705000D01*
X180879872Y-67705000D01*
X180448075Y-67790890D01*
X180041331Y-67959369D01*
X179675271Y-68203962D01*
X179363962Y-68515271D01*
X179119369Y-68881331D01*
X178950890Y-69288075D01*
X178865000Y-69719872D01*
X154047551Y-69719872D01*
X154051515Y-69713940D01*
X154133304Y-69516483D01*
X154175000Y-69306863D01*
X154175000Y-69093137D01*
X154133304Y-68883517D01*
X154051515Y-68686060D01*
X153932775Y-68508353D01*
X153781647Y-68357225D01*
X153603940Y-68238485D01*
X153406483Y-68156696D01*
X153196863Y-68115000D01*
X152983137Y-68115000D01*
X152773517Y-68156696D01*
X152576060Y-68238485D01*
X152398353Y-68357225D01*
X152247225Y-68508353D01*
X152128485Y-68686060D01*
X152046696Y-68883517D01*
X152005000Y-69093137D01*
X151175000Y-69093137D01*
X151133304Y-68883517D01*
X151051515Y-68686060D01*
X150932775Y-68508353D01*
X150781647Y-68357225D01*
X150603940Y-68238485D01*
X150406483Y-68156696D01*
X150196863Y-68115000D01*
X149983137Y-68115000D01*
X149773517Y-68156696D01*
X149576060Y-68238485D01*
X149398353Y-68357225D01*
X149247225Y-68508353D01*
X149128485Y-68686060D01*
X149046696Y-68883517D01*
X149005000Y-69093137D01*
X131043512Y-69093137D01*
X130980631Y-68941331D01*
X130736038Y-68575271D01*
X130424729Y-68263962D01*
X130058669Y-68019369D01*
X129651925Y-67850890D01*
X129220128Y-67765000D01*
X128779872Y-67765000D01*
X128348075Y-67850890D01*
X127941331Y-68019369D01*
X127575271Y-68263962D01*
X127263962Y-68575271D01*
X127019369Y-68941331D01*
X126850890Y-69348075D01*
X126765000Y-69779872D01*
X125654748Y-69779872D01*
X125696714Y-69351874D01*
X125884943Y-68728428D01*
X126190681Y-68153421D01*
X126602279Y-67648753D01*
X127104067Y-67233638D01*
X127676924Y-66923895D01*
X128299039Y-66731318D01*
X128977584Y-66660000D01*
X167380473Y-66660000D01*
X167355000Y-66788061D01*
%TA.AperFunction,Conductor*%
D19*
G36*
X167355000Y-66788061D02*
G01*
X167355000Y-66991939D01*
X167394774Y-67191898D01*
X167472795Y-67380256D01*
X167586063Y-67549774D01*
X167730226Y-67693937D01*
X167899744Y-67807205D01*
X168088102Y-67885226D01*
X168288061Y-67925000D01*
X168491939Y-67925000D01*
X168691898Y-67885226D01*
X168880256Y-67807205D01*
X169049774Y-67693937D01*
X169193937Y-67549774D01*
X169307205Y-67380256D01*
X169385226Y-67191898D01*
X169425000Y-66991939D01*
X169425000Y-66788061D01*
X169399527Y-66660000D01*
X180967722Y-66660000D01*
X181648126Y-66726714D01*
X182271572Y-66914943D01*
X182846579Y-67220681D01*
X183351247Y-67632279D01*
X183766362Y-68134067D01*
X184076105Y-68706924D01*
X184268682Y-69329039D01*
X184339995Y-70007535D01*
X184333236Y-78794355D01*
X184284739Y-78735261D01*
X184100492Y-78584054D01*
X183890287Y-78471697D01*
X183662201Y-78402508D01*
X183484437Y-78385000D01*
X182715563Y-78385000D01*
X182537799Y-78402508D01*
X182309713Y-78471697D01*
X182099508Y-78584054D01*
X181915261Y-78735261D01*
X181764054Y-78919508D01*
X181651697Y-79129713D01*
X181582508Y-79357799D01*
X181559146Y-79595000D01*
X181582508Y-79832201D01*
X181651697Y-80060287D01*
X181764054Y-80270492D01*
X181915261Y-80454739D01*
X182099508Y-80605946D01*
X182309713Y-80718303D01*
X182537799Y-80787492D01*
X182715563Y-80805000D01*
X183484437Y-80805000D01*
X183662201Y-80787492D01*
X183890287Y-80718303D01*
X184100492Y-80605946D01*
X184284739Y-80454739D01*
X184332003Y-80397148D01*
X184327280Y-86537097D01*
X184284739Y-86485261D01*
X184100492Y-86334054D01*
X183890287Y-86221697D01*
X183662201Y-86152508D01*
X183484437Y-86135000D01*
X182715563Y-86135000D01*
X182537799Y-86152508D01*
X182309713Y-86221697D01*
X182099508Y-86334054D01*
X181915261Y-86485261D01*
X181764054Y-86669508D01*
X181651697Y-86879713D01*
X181582508Y-87107799D01*
X181559146Y-87345000D01*
X181582508Y-87582201D01*
X181651697Y-87810287D01*
X181764054Y-88020492D01*
X181915261Y-88204739D01*
X182099508Y-88355946D01*
X182309713Y-88468303D01*
X182537799Y-88537492D01*
X182715563Y-88555000D01*
X183484437Y-88555000D01*
X183662201Y-88537492D01*
X183890287Y-88468303D01*
X184100492Y-88355946D01*
X184284739Y-88204739D01*
X184326036Y-88154419D01*
X184313115Y-104950842D01*
X184201898Y-104904774D01*
X184001939Y-104865000D01*
X183798061Y-104865000D01*
X183598102Y-104904774D01*
X183524354Y-104935321D01*
X183530000Y-104906939D01*
X183530000Y-104703061D01*
X183490226Y-104503102D01*
X183412205Y-104314744D01*
X183298937Y-104145226D01*
X183154774Y-104001063D01*
X182985256Y-103887795D01*
X182796898Y-103809774D01*
X182596939Y-103770000D01*
X182393061Y-103770000D01*
X182193102Y-103809774D01*
X182004744Y-103887795D01*
X181835226Y-104001063D01*
X181691063Y-104145226D01*
X181577795Y-104314744D01*
X181499774Y-104503102D01*
X181460000Y-104703061D01*
X181460000Y-104906939D01*
X181499774Y-105106898D01*
X181577795Y-105295256D01*
X181691063Y-105464774D01*
X181835226Y-105608937D01*
X182004744Y-105722205D01*
X182193102Y-105800226D01*
X182393061Y-105840000D01*
X182596939Y-105840000D01*
X182796898Y-105800226D01*
X182870646Y-105769679D01*
X182865000Y-105798061D01*
X182865000Y-106001939D01*
X182904774Y-106201898D01*
X182982795Y-106390256D01*
X183096063Y-106559774D01*
X183240226Y-106703937D01*
X183409744Y-106817205D01*
X183598102Y-106895226D01*
X183798061Y-106935000D01*
X184001939Y-106935000D01*
X184201898Y-106895226D01*
X184311655Y-106849763D01*
X184300026Y-121967461D01*
X184233286Y-122648126D01*
X184045057Y-123271570D01*
X183739323Y-123846573D01*
X183327721Y-124351248D01*
X182825933Y-124766362D01*
X182253077Y-125076104D01*
X181630961Y-125268682D01*
X180952417Y-125340000D01*
X129002279Y-125340000D01*
X128321874Y-125273286D01*
X127698430Y-125085057D01*
X127123427Y-124779323D01*
X126618752Y-124367721D01*
X126203638Y-123865933D01*
X125893896Y-123293077D01*
X125701318Y-122670961D01*
X125630000Y-121992417D01*
X125630000Y-121829872D01*
X126765000Y-121829872D01*
X126765000Y-122270128D01*
X126850890Y-122701925D01*
X127019369Y-123108669D01*
X127263962Y-123474729D01*
X127575271Y-123786038D01*
X127941331Y-124030631D01*
X128348075Y-124199110D01*
X128779872Y-124285000D01*
X129220128Y-124285000D01*
X129651925Y-124199110D01*
X130058669Y-124030631D01*
X130424729Y-123786038D01*
X130736038Y-123474729D01*
X130980631Y-123108669D01*
X131149110Y-122701925D01*
X131235000Y-122270128D01*
X131235000Y-121829872D01*
X131149110Y-121398075D01*
X130980631Y-120991331D01*
X130736038Y-120625271D01*
X130424729Y-120313962D01*
X130058669Y-120069369D01*
X129794630Y-119960000D01*
X137881928Y-119960000D01*
X137881928Y-120860000D01*
X137898031Y-121023500D01*
X137945722Y-121180716D01*
X138023169Y-121325608D01*
X138127394Y-121452606D01*
X138254392Y-121556831D01*
X138399284Y-121634278D01*
X138556500Y-121681969D01*
X138720000Y-121698072D01*
X139120000Y-121698072D01*
X139283500Y-121681969D01*
X139440716Y-121634278D01*
X139585608Y-121556831D01*
X139611894Y-121535259D01*
X139772008Y-121620841D01*
X139967106Y-121680024D01*
X140170000Y-121700007D01*
X140372895Y-121680024D01*
X140567993Y-121620841D01*
X140747797Y-121524734D01*
X140795001Y-121485995D01*
X140842204Y-121524734D01*
X141022008Y-121620841D01*
X141217106Y-121680024D01*
X141420000Y-121700007D01*
X141622895Y-121680024D01*
X141817993Y-121620841D01*
X141997797Y-121524734D01*
X142037938Y-121491791D01*
X142121840Y-121555255D01*
X142307028Y-121644994D01*
X142383877Y-121654666D01*
X142543000Y-121526998D01*
X142543000Y-120537000D01*
X142797000Y-120537000D01*
X142797000Y-121526998D01*
X142956123Y-121654666D01*
X143032972Y-121644994D01*
X143218160Y-121555255D01*
X143382283Y-121431112D01*
X143519033Y-121277336D01*
X143623155Y-121099836D01*
X143690648Y-120905433D01*
X143718918Y-120701599D01*
X143566806Y-120550000D01*
X153461928Y-120550000D01*
X153461928Y-121450000D01*
X153478031Y-121613500D01*
X153525722Y-121770716D01*
X153603169Y-121915608D01*
X153707394Y-122042606D01*
X153834392Y-122146831D01*
X153979284Y-122224278D01*
X154136500Y-122271969D01*
X154300000Y-122288072D01*
X154700000Y-122288072D01*
X154863500Y-122271969D01*
X155020716Y-122224278D01*
X155165608Y-122146831D01*
X155191894Y-122125259D01*
X155352008Y-122210841D01*
X155547106Y-122270024D01*
X155750000Y-122290007D01*
X155952895Y-122270024D01*
X156147993Y-122210841D01*
X156327797Y-122114734D01*
X156375001Y-122075995D01*
X156422204Y-122114734D01*
X156602008Y-122210841D01*
X156797106Y-122270024D01*
X157000000Y-122290007D01*
X157202895Y-122270024D01*
X157397993Y-122210841D01*
X157577797Y-122114734D01*
X157617938Y-122081791D01*
X157701840Y-122145255D01*
X157887028Y-122234994D01*
X157963877Y-122244666D01*
X158123000Y-122116998D01*
X158123000Y-121127000D01*
X158377000Y-121127000D01*
X158377000Y-122116998D01*
X158536123Y-122244666D01*
X158612972Y-122234994D01*
X158798160Y-122145255D01*
X158962283Y-122021112D01*
X159099033Y-121867336D01*
X159203155Y-121689836D01*
X159270648Y-121495433D01*
X159298021Y-121298061D01*
X169465000Y-121298061D01*
X169465000Y-121501939D01*
X169504774Y-121701898D01*
X169582795Y-121890256D01*
X169696063Y-122059774D01*
X169840226Y-122203937D01*
X170009744Y-122317205D01*
X170198102Y-122395226D01*
X170398061Y-122435000D01*
X170601939Y-122435000D01*
X170801898Y-122395226D01*
X170990256Y-122317205D01*
X171159774Y-122203937D01*
X171303937Y-122059774D01*
X171417205Y-121890256D01*
X171495226Y-121701898D01*
X171535000Y-121501939D01*
X171535000Y-121298061D01*
X172165000Y-121298061D01*
X172165000Y-121501939D01*
X172204774Y-121701898D01*
X172282795Y-121890256D01*
X172396063Y-122059774D01*
X172540226Y-122203937D01*
X172709744Y-122317205D01*
X172898102Y-122395226D01*
X173098061Y-122435000D01*
X173301939Y-122435000D01*
X173501898Y-122395226D01*
X173690256Y-122317205D01*
X173859774Y-122203937D01*
X173983839Y-122079872D01*
X178765000Y-122079872D01*
X178765000Y-122520128D01*
X178850890Y-122951925D01*
X179019369Y-123358669D01*
X179263962Y-123724729D01*
X179575271Y-124036038D01*
X179941331Y-124280631D01*
X180348075Y-124449110D01*
X180779872Y-124535000D01*
X181220128Y-124535000D01*
X181651925Y-124449110D01*
X182058669Y-124280631D01*
X182424729Y-124036038D01*
X182736038Y-123724729D01*
X182980631Y-123358669D01*
X183149110Y-122951925D01*
X183235000Y-122520128D01*
X183235000Y-122079872D01*
X183149110Y-121648075D01*
X182980631Y-121241331D01*
X182736038Y-120875271D01*
X182424729Y-120563962D01*
X182058669Y-120319369D01*
X181651925Y-120150890D01*
X181220128Y-120065000D01*
X180779872Y-120065000D01*
X180348075Y-120150890D01*
X179941331Y-120319369D01*
X179575271Y-120563962D01*
X179263962Y-120875271D01*
X179019369Y-121241331D01*
X178850890Y-121648075D01*
X178765000Y-122079872D01*
X173983839Y-122079872D01*
X174003937Y-122059774D01*
X174117205Y-121890256D01*
X174195226Y-121701898D01*
X174235000Y-121501939D01*
X174235000Y-121298061D01*
X174195226Y-121098102D01*
X174117205Y-120909744D01*
X174003937Y-120740226D01*
X173859774Y-120596063D01*
X173690256Y-120482795D01*
X173501898Y-120404774D01*
X173301939Y-120365000D01*
X173098061Y-120365000D01*
X172898102Y-120404774D01*
X172709744Y-120482795D01*
X172540226Y-120596063D01*
X172396063Y-120740226D01*
X172282795Y-120909744D01*
X172204774Y-121098102D01*
X172165000Y-121298061D01*
X171535000Y-121298061D01*
X171495226Y-121098102D01*
X171417205Y-120909744D01*
X171303937Y-120740226D01*
X171159774Y-120596063D01*
X170990256Y-120482795D01*
X170801898Y-120404774D01*
X170601939Y-120365000D01*
X170398061Y-120365000D01*
X170198102Y-120404774D01*
X170009744Y-120482795D01*
X169840226Y-120596063D01*
X169696063Y-120740226D01*
X169582795Y-120909744D01*
X169504774Y-121098102D01*
X169465000Y-121298061D01*
X159298021Y-121298061D01*
X159298918Y-121291599D01*
X159133762Y-121127000D01*
X158377000Y-121127000D01*
X158123000Y-121127000D01*
X158103000Y-121127000D01*
X158103000Y-120873000D01*
X158123000Y-120873000D01*
X158123000Y-119883002D01*
X158377000Y-119883002D01*
X158377000Y-120873000D01*
X159133762Y-120873000D01*
X159298918Y-120708401D01*
X159270648Y-120504567D01*
X159203155Y-120310164D01*
X159099033Y-120132664D01*
X158962283Y-119978888D01*
X158798160Y-119854745D01*
X158612972Y-119765006D01*
X158536123Y-119755334D01*
X158377000Y-119883002D01*
X158123000Y-119883002D01*
X157963877Y-119755334D01*
X157887028Y-119765006D01*
X157701840Y-119854745D01*
X157617938Y-119918209D01*
X157577797Y-119885266D01*
X157397992Y-119789159D01*
X157202894Y-119729976D01*
X157000000Y-119709993D01*
X156797105Y-119729976D01*
X156602007Y-119789159D01*
X156422203Y-119885266D01*
X156375000Y-119924004D01*
X156327797Y-119885266D01*
X156147992Y-119789159D01*
X155952894Y-119729976D01*
X155750000Y-119709993D01*
X155547105Y-119729976D01*
X155352007Y-119789159D01*
X155191894Y-119874741D01*
X155165608Y-119853169D01*
X155020716Y-119775722D01*
X154863500Y-119728031D01*
X154700000Y-119711928D01*
X154300000Y-119711928D01*
X154136500Y-119728031D01*
X153979284Y-119775722D01*
X153834392Y-119853169D01*
X153707394Y-119957394D01*
X153603169Y-120084392D01*
X153525722Y-120229284D01*
X153478031Y-120386500D01*
X153461928Y-120550000D01*
X143566806Y-120550000D01*
X143553762Y-120537000D01*
X142797000Y-120537000D01*
X142543000Y-120537000D01*
X142523000Y-120537000D01*
X142523000Y-120283000D01*
X142543000Y-120283000D01*
X142543000Y-119293002D01*
X142797000Y-119293002D01*
X142797000Y-120283000D01*
X143553762Y-120283000D01*
X143718918Y-120118401D01*
X143690648Y-119914567D01*
X143623155Y-119720164D01*
X143519033Y-119542664D01*
X143382283Y-119388888D01*
X143218160Y-119264745D01*
X143032972Y-119175006D01*
X142956123Y-119165334D01*
X142797000Y-119293002D01*
X142543000Y-119293002D01*
X142383877Y-119165334D01*
X142307028Y-119175006D01*
X142121840Y-119264745D01*
X142037938Y-119328209D01*
X141997797Y-119295266D01*
X141817992Y-119199159D01*
X141622894Y-119139976D01*
X141420000Y-119119993D01*
X141217105Y-119139976D01*
X141022007Y-119199159D01*
X140842203Y-119295266D01*
X140795000Y-119334004D01*
X140747797Y-119295266D01*
X140567992Y-119199159D01*
X140372894Y-119139976D01*
X140170000Y-119119993D01*
X139967105Y-119139976D01*
X139772007Y-119199159D01*
X139611894Y-119284741D01*
X139585608Y-119263169D01*
X139440716Y-119185722D01*
X139283500Y-119138031D01*
X139120000Y-119121928D01*
X138720000Y-119121928D01*
X138556500Y-119138031D01*
X138399284Y-119185722D01*
X138254392Y-119263169D01*
X138127394Y-119367394D01*
X138023169Y-119494392D01*
X137945722Y-119639284D01*
X137898031Y-119796500D01*
X137881928Y-119960000D01*
X129794630Y-119960000D01*
X129651925Y-119900890D01*
X129220128Y-119815000D01*
X128779872Y-119815000D01*
X128348075Y-119900890D01*
X127941331Y-120069369D01*
X127575271Y-120313962D01*
X127263962Y-120625271D01*
X127019369Y-120991331D01*
X126850890Y-121398075D01*
X126765000Y-121829872D01*
X125630000Y-121829872D01*
X125630000Y-117878061D01*
X169665000Y-117878061D01*
X169665000Y-118081939D01*
X169704774Y-118281898D01*
X169782795Y-118470256D01*
X169896063Y-118639774D01*
X170040226Y-118783937D01*
X170209744Y-118897205D01*
X170398102Y-118975226D01*
X170598061Y-119015000D01*
X170801939Y-119015000D01*
X171001898Y-118975226D01*
X171190256Y-118897205D01*
X171359774Y-118783937D01*
X171503937Y-118639774D01*
X171617205Y-118470256D01*
X171695226Y-118281898D01*
X171735000Y-118081939D01*
X171735000Y-117878061D01*
X172065000Y-117878061D01*
X172065000Y-118081939D01*
X172104774Y-118281898D01*
X172182795Y-118470256D01*
X172296063Y-118639774D01*
X172440226Y-118783937D01*
X172609744Y-118897205D01*
X172798102Y-118975226D01*
X172998061Y-119015000D01*
X173201939Y-119015000D01*
X173401898Y-118975226D01*
X173590256Y-118897205D01*
X173759774Y-118783937D01*
X173903937Y-118639774D01*
X174017205Y-118470256D01*
X174095226Y-118281898D01*
X174135000Y-118081939D01*
X174135000Y-117878061D01*
X174095226Y-117678102D01*
X174017205Y-117489744D01*
X173903937Y-117320226D01*
X173759774Y-117176063D01*
X173590256Y-117062795D01*
X173401898Y-116984774D01*
X173201939Y-116945000D01*
X172998061Y-116945000D01*
X172798102Y-116984774D01*
X172609744Y-117062795D01*
X172440226Y-117176063D01*
X172296063Y-117320226D01*
X172182795Y-117489744D01*
X172104774Y-117678102D01*
X172065000Y-117878061D01*
X171735000Y-117878061D01*
X171695226Y-117678102D01*
X171617205Y-117489744D01*
X171503937Y-117320226D01*
X171359774Y-117176063D01*
X171190256Y-117062795D01*
X171001898Y-116984774D01*
X170801939Y-116945000D01*
X170598061Y-116945000D01*
X170398102Y-116984774D01*
X170209744Y-117062795D01*
X170040226Y-117176063D01*
X169896063Y-117320226D01*
X169782795Y-117489744D01*
X169704774Y-117678102D01*
X169665000Y-117878061D01*
X125630000Y-117878061D01*
X125630000Y-115438061D01*
X162205000Y-115438061D01*
X162205000Y-115641939D01*
X162244774Y-115841898D01*
X162322795Y-116030256D01*
X162436063Y-116199774D01*
X162580226Y-116343937D01*
X162749744Y-116457205D01*
X162938102Y-116535226D01*
X163138061Y-116575000D01*
X163341939Y-116575000D01*
X163541898Y-116535226D01*
X163730256Y-116457205D01*
X163899774Y-116343937D01*
X164043937Y-116199774D01*
X164157205Y-116030256D01*
X164235226Y-115841898D01*
X164275000Y-115641939D01*
X164275000Y-115438061D01*
X164241963Y-115271972D01*
X164298102Y-115295226D01*
X164498061Y-115335000D01*
X164701939Y-115335000D01*
X164901898Y-115295226D01*
X165090256Y-115217205D01*
X165259774Y-115103937D01*
X165403937Y-114959774D01*
X165517205Y-114790256D01*
X165595226Y-114601898D01*
X165635000Y-114401939D01*
X165635000Y-114198061D01*
X165595226Y-113998102D01*
X165541361Y-113868061D01*
X169865000Y-113868061D01*
X169865000Y-114071939D01*
X169904774Y-114271898D01*
X169982795Y-114460256D01*
X170096063Y-114629774D01*
X170201289Y-114735000D01*
X170096063Y-114840226D01*
X169982795Y-115009744D01*
X169904774Y-115198102D01*
X169865000Y-115398061D01*
X169865000Y-115601939D01*
X169904774Y-115801898D01*
X169982795Y-115990256D01*
X170096063Y-116159774D01*
X170240226Y-116303937D01*
X170409744Y-116417205D01*
X170598102Y-116495226D01*
X170798061Y-116535000D01*
X171001939Y-116535000D01*
X171201898Y-116495226D01*
X171390256Y-116417205D01*
X171559774Y-116303937D01*
X171703937Y-116159774D01*
X171817205Y-115990256D01*
X171895226Y-115801898D01*
X171935000Y-115601939D01*
X171935000Y-115398061D01*
X171895226Y-115198102D01*
X171817205Y-115009744D01*
X171703937Y-114840226D01*
X171598711Y-114735000D01*
X171703937Y-114629774D01*
X171817205Y-114460256D01*
X171895226Y-114271898D01*
X171935000Y-114071939D01*
X171935000Y-113868061D01*
X171933011Y-113858061D01*
X173385000Y-113858061D01*
X173385000Y-114061939D01*
X173424774Y-114261898D01*
X173502795Y-114450256D01*
X173616063Y-114619774D01*
X173716289Y-114720000D01*
X173686063Y-114750226D01*
X173572795Y-114919744D01*
X173494774Y-115108102D01*
X173455000Y-115308061D01*
X173455000Y-115511939D01*
X173494774Y-115711898D01*
X173572795Y-115900256D01*
X173686063Y-116069774D01*
X173830226Y-116213937D01*
X173999744Y-116327205D01*
X174188102Y-116405226D01*
X174388061Y-116445000D01*
X174591939Y-116445000D01*
X174791898Y-116405226D01*
X174980256Y-116327205D01*
X175149774Y-116213937D01*
X175293937Y-116069774D01*
X175407205Y-115900256D01*
X175485226Y-115711898D01*
X175525000Y-115511939D01*
X175525000Y-115308061D01*
X175485226Y-115108102D01*
X175407205Y-114919744D01*
X175293937Y-114750226D01*
X175193711Y-114650000D01*
X175223937Y-114619774D01*
X175337205Y-114450256D01*
X175415226Y-114261898D01*
X175455000Y-114061939D01*
X175455000Y-113858061D01*
X175415226Y-113658102D01*
X175337205Y-113469744D01*
X175223937Y-113300226D01*
X175079774Y-113156063D01*
X174910256Y-113042795D01*
X174721898Y-112964774D01*
X174521939Y-112925000D01*
X174318061Y-112925000D01*
X174118102Y-112964774D01*
X173929744Y-113042795D01*
X173760226Y-113156063D01*
X173616063Y-113300226D01*
X173502795Y-113469744D01*
X173424774Y-113658102D01*
X173385000Y-113858061D01*
X171933011Y-113858061D01*
X171895226Y-113668102D01*
X171817205Y-113479744D01*
X171703937Y-113310226D01*
X171559774Y-113166063D01*
X171390256Y-113052795D01*
X171201898Y-112974774D01*
X171001939Y-112935000D01*
X170798061Y-112935000D01*
X170598102Y-112974774D01*
X170409744Y-113052795D01*
X170240226Y-113166063D01*
X170096063Y-113310226D01*
X169982795Y-113479744D01*
X169904774Y-113668102D01*
X169865000Y-113868061D01*
X165541361Y-113868061D01*
X165517205Y-113809744D01*
X165403937Y-113640226D01*
X165259774Y-113496063D01*
X165090256Y-113382795D01*
X164901898Y-113304774D01*
X164701939Y-113265000D01*
X164498061Y-113265000D01*
X164298102Y-113304774D01*
X164109744Y-113382795D01*
X163940226Y-113496063D01*
X163796063Y-113640226D01*
X163682795Y-113809744D01*
X163604774Y-113998102D01*
X163565000Y-114198061D01*
X163565000Y-114401939D01*
X163598037Y-114568028D01*
X163541898Y-114544774D01*
X163341939Y-114505000D01*
X163138061Y-114505000D01*
X162938102Y-114544774D01*
X162749744Y-114622795D01*
X162580226Y-114736063D01*
X162436063Y-114880226D01*
X162322795Y-115049744D01*
X162244774Y-115238102D01*
X162205000Y-115438061D01*
X125630000Y-115438061D01*
X125630000Y-113626123D01*
X128855334Y-113626123D01*
X128865006Y-113702972D01*
X128954745Y-113888160D01*
X129078888Y-114052283D01*
X129232664Y-114189033D01*
X129410164Y-114293155D01*
X129604567Y-114360648D01*
X129808401Y-114388918D01*
X129973000Y-114223762D01*
X129973000Y-113467000D01*
X130227000Y-113467000D01*
X130227000Y-114223762D01*
X130391599Y-114388918D01*
X130595433Y-114360648D01*
X130789836Y-114293155D01*
X130967336Y-114189033D01*
X131121112Y-114052283D01*
X131245255Y-113888160D01*
X131334994Y-113702972D01*
X131344666Y-113626123D01*
X131216998Y-113467000D01*
X130227000Y-113467000D01*
X129973000Y-113467000D01*
X128983002Y-113467000D01*
X128855334Y-113626123D01*
X125630000Y-113626123D01*
X125630000Y-113378061D01*
X147935000Y-113378061D01*
X147935000Y-113581939D01*
X147974774Y-113781898D01*
X148052795Y-113970256D01*
X148166063Y-114139774D01*
X148310226Y-114283937D01*
X148479744Y-114397205D01*
X148668102Y-114475226D01*
X148868061Y-114515000D01*
X149071939Y-114515000D01*
X149271898Y-114475226D01*
X149460256Y-114397205D01*
X149629774Y-114283937D01*
X149773937Y-114139774D01*
X149887205Y-113970256D01*
X149965226Y-113781898D01*
X150005000Y-113581939D01*
X150005000Y-113378061D01*
X149981131Y-113258061D01*
X154895000Y-113258061D01*
X154895000Y-113461939D01*
X154934774Y-113661898D01*
X155012795Y-113850256D01*
X155126063Y-114019774D01*
X155270226Y-114163937D01*
X155439744Y-114277205D01*
X155628102Y-114355226D01*
X155828061Y-114395000D01*
X156031939Y-114395000D01*
X156231898Y-114355226D01*
X156420256Y-114277205D01*
X156589774Y-114163937D01*
X156733937Y-114019774D01*
X156772430Y-113962166D01*
X156828102Y-113985226D01*
X157028061Y-114025000D01*
X157231939Y-114025000D01*
X157431898Y-113985226D01*
X157620256Y-113907205D01*
X157789774Y-113793937D01*
X157933937Y-113649774D01*
X158047205Y-113480256D01*
X158125226Y-113291898D01*
X158165000Y-113091939D01*
X158165000Y-112888061D01*
X158125226Y-112688102D01*
X158047205Y-112499744D01*
X157933937Y-112330226D01*
X157789774Y-112186063D01*
X157620256Y-112072795D01*
X157431898Y-111994774D01*
X157231939Y-111955000D01*
X157028061Y-111955000D01*
X156828102Y-111994774D01*
X156639744Y-112072795D01*
X156470226Y-112186063D01*
X156326063Y-112330226D01*
X156287570Y-112387834D01*
X156231898Y-112364774D01*
X156031939Y-112325000D01*
X155828061Y-112325000D01*
X155628102Y-112364774D01*
X155439744Y-112442795D01*
X155270226Y-112556063D01*
X155126063Y-112700226D01*
X155012795Y-112869744D01*
X154934774Y-113058102D01*
X154895000Y-113258061D01*
X149981131Y-113258061D01*
X149965226Y-113178102D01*
X149887205Y-112989744D01*
X149773937Y-112820226D01*
X149629774Y-112676063D01*
X149460256Y-112562795D01*
X149271898Y-112484774D01*
X149071939Y-112445000D01*
X148868061Y-112445000D01*
X148668102Y-112484774D01*
X148479744Y-112562795D01*
X148310226Y-112676063D01*
X148166063Y-112820226D01*
X148052795Y-112989744D01*
X147974774Y-113178102D01*
X147935000Y-113378061D01*
X125630000Y-113378061D01*
X125630000Y-110840000D01*
X128809993Y-110840000D01*
X128829976Y-111042895D01*
X128889159Y-111237993D01*
X128985266Y-111417797D01*
X129024004Y-111465000D01*
X128985266Y-111512203D01*
X128889159Y-111692007D01*
X128829976Y-111887105D01*
X128809993Y-112090000D01*
X128829976Y-112292895D01*
X128889159Y-112487993D01*
X128985266Y-112667797D01*
X129018209Y-112707938D01*
X128954745Y-112791840D01*
X128865006Y-112977028D01*
X128855334Y-113053877D01*
X128983002Y-113213000D01*
X129973000Y-113213000D01*
X129973000Y-113193000D01*
X130227000Y-113193000D01*
X130227000Y-113213000D01*
X131216998Y-113213000D01*
X131344666Y-113053877D01*
X131334994Y-112977028D01*
X131245255Y-112791840D01*
X131181791Y-112707938D01*
X131214734Y-112667797D01*
X131310841Y-112487993D01*
X131370024Y-112292895D01*
X131390007Y-112090000D01*
X131370024Y-111887105D01*
X131310841Y-111692007D01*
X131214734Y-111512203D01*
X131175996Y-111465000D01*
X131214734Y-111417797D01*
X131310841Y-111237993D01*
X131370024Y-111042895D01*
X131390007Y-110840000D01*
X131370024Y-110637105D01*
X131310841Y-110442007D01*
X131225259Y-110281894D01*
X131246831Y-110255608D01*
X131324278Y-110110716D01*
X131371969Y-109953500D01*
X131388072Y-109790000D01*
X131388072Y-109390000D01*
X131371969Y-109226500D01*
X131324278Y-109069284D01*
X131246831Y-108924392D01*
X131241636Y-108918061D01*
X144445000Y-108918061D01*
X144445000Y-109121939D01*
X144484774Y-109321898D01*
X144562795Y-109510256D01*
X144676063Y-109679774D01*
X144820226Y-109823937D01*
X144989744Y-109937205D01*
X145178102Y-110015226D01*
X145378061Y-110055000D01*
X145581939Y-110055000D01*
X145616823Y-110048061D01*
X149845000Y-110048061D01*
X149845000Y-110251939D01*
X149884774Y-110451898D01*
X149962795Y-110640256D01*
X150076063Y-110809774D01*
X150220226Y-110953937D01*
X150389744Y-111067205D01*
X150578102Y-111145226D01*
X150778061Y-111185000D01*
X150981939Y-111185000D01*
X151181898Y-111145226D01*
X151370256Y-111067205D01*
X151539774Y-110953937D01*
X151683937Y-110809774D01*
X151797205Y-110640256D01*
X151875226Y-110451898D01*
X151915000Y-110251939D01*
X151915000Y-110048061D01*
X151875226Y-109848102D01*
X151797205Y-109659744D01*
X151683937Y-109490226D01*
X151539774Y-109346063D01*
X151370256Y-109232795D01*
X151181898Y-109154774D01*
X150981939Y-109115000D01*
X150778061Y-109115000D01*
X150578102Y-109154774D01*
X150389744Y-109232795D01*
X150220226Y-109346063D01*
X150076063Y-109490226D01*
X149962795Y-109659744D01*
X149884774Y-109848102D01*
X149845000Y-110048061D01*
X145616823Y-110048061D01*
X145781898Y-110015226D01*
X145970256Y-109937205D01*
X146139774Y-109823937D01*
X146283937Y-109679774D01*
X146397205Y-109510256D01*
X146475226Y-109321898D01*
X146515000Y-109121939D01*
X146515000Y-108918061D01*
X146475226Y-108718102D01*
X146397205Y-108529744D01*
X146283937Y-108360226D01*
X146139774Y-108216063D01*
X145970256Y-108102795D01*
X145781898Y-108024774D01*
X145581939Y-107985000D01*
X145378061Y-107985000D01*
X145178102Y-108024774D01*
X144989744Y-108102795D01*
X144820226Y-108216063D01*
X144676063Y-108360226D01*
X144562795Y-108529744D01*
X144484774Y-108718102D01*
X144445000Y-108918061D01*
X131241636Y-108918061D01*
X131142606Y-108797394D01*
X131015608Y-108693169D01*
X130870716Y-108615722D01*
X130713500Y-108568031D01*
X130550000Y-108551928D01*
X129650000Y-108551928D01*
X129486500Y-108568031D01*
X129329284Y-108615722D01*
X129184392Y-108693169D01*
X129057394Y-108797394D01*
X128953169Y-108924392D01*
X128875722Y-109069284D01*
X128828031Y-109226500D01*
X128811928Y-109390000D01*
X128811928Y-109790000D01*
X128828031Y-109953500D01*
X128875722Y-110110716D01*
X128953169Y-110255608D01*
X128974741Y-110281894D01*
X128889159Y-110442007D01*
X128829976Y-110637105D01*
X128809993Y-110840000D01*
X125630000Y-110840000D01*
X125630000Y-106598061D01*
X146055000Y-106598061D01*
X146055000Y-106801939D01*
X146094774Y-107001898D01*
X146172795Y-107190256D01*
X146286063Y-107359774D01*
X146430226Y-107503937D01*
X146599744Y-107617205D01*
X146788102Y-107695226D01*
X146988061Y-107735000D01*
X147191939Y-107735000D01*
X147391898Y-107695226D01*
X147580256Y-107617205D01*
X147749774Y-107503937D01*
X147893937Y-107359774D01*
X148007205Y-107190256D01*
X148085226Y-107001898D01*
X148125000Y-106801939D01*
X148125000Y-106598061D01*
X148103120Y-106488061D01*
X149305000Y-106488061D01*
X149305000Y-106691939D01*
X149344774Y-106891898D01*
X149422795Y-107080256D01*
X149536063Y-107249774D01*
X149680226Y-107393937D01*
X149849744Y-107507205D01*
X150038102Y-107585226D01*
X150238061Y-107625000D01*
X150441939Y-107625000D01*
X150641898Y-107585226D01*
X150830256Y-107507205D01*
X150999774Y-107393937D01*
X151143937Y-107249774D01*
X151257205Y-107080256D01*
X151335226Y-106891898D01*
X151375000Y-106691939D01*
X151375000Y-106488061D01*
X151335226Y-106288102D01*
X151257205Y-106099744D01*
X151143937Y-105930226D01*
X150999774Y-105786063D01*
X150830256Y-105672795D01*
X150641898Y-105594774D01*
X150441939Y-105555000D01*
X150238061Y-105555000D01*
X150038102Y-105594774D01*
X149849744Y-105672795D01*
X149680226Y-105786063D01*
X149536063Y-105930226D01*
X149422795Y-106099744D01*
X149344774Y-106288102D01*
X149305000Y-106488061D01*
X148103120Y-106488061D01*
X148085226Y-106398102D01*
X148007205Y-106209744D01*
X147893937Y-106040226D01*
X147749774Y-105896063D01*
X147580256Y-105782795D01*
X147391898Y-105704774D01*
X147191939Y-105665000D01*
X146988061Y-105665000D01*
X146788102Y-105704774D01*
X146599744Y-105782795D01*
X146430226Y-105896063D01*
X146286063Y-106040226D01*
X146172795Y-106209744D01*
X146094774Y-106398102D01*
X146055000Y-106598061D01*
X125630000Y-106598061D01*
X125630000Y-105138061D01*
X143275000Y-105138061D01*
X143275000Y-105341939D01*
X143314774Y-105541898D01*
X143392795Y-105730256D01*
X143506063Y-105899774D01*
X143650226Y-106043937D01*
X143819744Y-106157205D01*
X144008102Y-106235226D01*
X144208061Y-106275000D01*
X144411939Y-106275000D01*
X144611898Y-106235226D01*
X144800256Y-106157205D01*
X144969774Y-106043937D01*
X145113937Y-105899774D01*
X145227205Y-105730256D01*
X145305226Y-105541898D01*
X145345000Y-105341939D01*
X145345000Y-105138061D01*
X145305226Y-104938102D01*
X145247219Y-104798061D01*
X167985000Y-104798061D01*
X167985000Y-105001939D01*
X168024774Y-105201898D01*
X168102795Y-105390256D01*
X168216063Y-105559774D01*
X168360226Y-105703937D01*
X168529744Y-105817205D01*
X168718102Y-105895226D01*
X168918061Y-105935000D01*
X169121939Y-105935000D01*
X169321898Y-105895226D01*
X169510256Y-105817205D01*
X169679774Y-105703937D01*
X169823937Y-105559774D01*
X169937205Y-105390256D01*
X170015226Y-105201898D01*
X170055000Y-105001939D01*
X170055000Y-104798061D01*
X170015226Y-104598102D01*
X169937205Y-104409744D01*
X169823937Y-104240226D01*
X169679774Y-104096063D01*
X169510256Y-103982795D01*
X169321898Y-103904774D01*
X169121939Y-103865000D01*
X168918061Y-103865000D01*
X168718102Y-103904774D01*
X168529744Y-103982795D01*
X168360226Y-104096063D01*
X168216063Y-104240226D01*
X168102795Y-104409744D01*
X168024774Y-104598102D01*
X167985000Y-104798061D01*
X145247219Y-104798061D01*
X145227205Y-104749744D01*
X145113937Y-104580226D01*
X144969774Y-104436063D01*
X144800256Y-104322795D01*
X144611898Y-104244774D01*
X144411939Y-104205000D01*
X144208061Y-104205000D01*
X144008102Y-104244774D01*
X143819744Y-104322795D01*
X143650226Y-104436063D01*
X143506063Y-104580226D01*
X143392795Y-104749744D01*
X143314774Y-104938102D01*
X143275000Y-105138061D01*
X125630000Y-105138061D01*
X125630000Y-102156123D01*
X128755334Y-102156123D01*
X128765006Y-102232972D01*
X128854745Y-102418160D01*
X128978888Y-102582283D01*
X129132664Y-102719033D01*
X129310164Y-102823155D01*
X129504567Y-102890648D01*
X129708401Y-102918918D01*
X129873000Y-102753762D01*
X129873000Y-101997000D01*
X130127000Y-101997000D01*
X130127000Y-102753762D01*
X130291599Y-102918918D01*
X130495433Y-102890648D01*
X130689836Y-102823155D01*
X130867336Y-102719033D01*
X131021112Y-102582283D01*
X131145255Y-102418160D01*
X131234994Y-102232972D01*
X131244666Y-102156123D01*
X131116998Y-101997000D01*
X130127000Y-101997000D01*
X129873000Y-101997000D01*
X128883002Y-101997000D01*
X128755334Y-102156123D01*
X125630000Y-102156123D01*
X125630000Y-99370000D01*
X128709993Y-99370000D01*
X128729976Y-99572895D01*
X128789159Y-99767993D01*
X128885266Y-99947797D01*
X128924004Y-99995000D01*
X128885266Y-100042203D01*
X128789159Y-100222007D01*
X128729976Y-100417105D01*
X128709993Y-100620000D01*
X128729976Y-100822895D01*
X128789159Y-101017993D01*
X128885266Y-101197797D01*
X128918209Y-101237938D01*
X128854745Y-101321840D01*
X128765006Y-101507028D01*
X128755334Y-101583877D01*
X128883002Y-101743000D01*
X129873000Y-101743000D01*
X129873000Y-101723000D01*
X130127000Y-101723000D01*
X130127000Y-101743000D01*
X131116998Y-101743000D01*
X131244666Y-101583877D01*
X131242676Y-101568061D01*
X144865000Y-101568061D01*
X144865000Y-101771939D01*
X144904774Y-101971898D01*
X144982795Y-102160256D01*
X145096063Y-102329774D01*
X145240226Y-102473937D01*
X145409744Y-102587205D01*
X145598102Y-102665226D01*
X145798061Y-102705000D01*
X146001939Y-102705000D01*
X146201898Y-102665226D01*
X146364047Y-102598061D01*
X147465000Y-102598061D01*
X147465000Y-102801939D01*
X147504774Y-103001898D01*
X147582795Y-103190256D01*
X147696063Y-103359774D01*
X147840226Y-103503937D01*
X148009744Y-103617205D01*
X148198102Y-103695226D01*
X148398061Y-103735000D01*
X148601939Y-103735000D01*
X148801898Y-103695226D01*
X148990256Y-103617205D01*
X149159774Y-103503937D01*
X149303937Y-103359774D01*
X149417205Y-103190256D01*
X149495226Y-103001898D01*
X149535000Y-102801939D01*
X149535000Y-102598061D01*
X149495226Y-102398102D01*
X149417205Y-102209744D01*
X149303937Y-102040226D01*
X149159774Y-101896063D01*
X148990256Y-101782795D01*
X148801898Y-101704774D01*
X148601939Y-101665000D01*
X148398061Y-101665000D01*
X148198102Y-101704774D01*
X148009744Y-101782795D01*
X147840226Y-101896063D01*
X147696063Y-102040226D01*
X147582795Y-102209744D01*
X147504774Y-102398102D01*
X147465000Y-102598061D01*
X146364047Y-102598061D01*
X146390256Y-102587205D01*
X146559774Y-102473937D01*
X146703937Y-102329774D01*
X146817205Y-102160256D01*
X146895226Y-101971898D01*
X146935000Y-101771939D01*
X146935000Y-101568061D01*
X146895226Y-101368102D01*
X146837219Y-101228061D01*
X158475000Y-101228061D01*
X158475000Y-101431939D01*
X158514774Y-101631898D01*
X158592795Y-101820256D01*
X158706063Y-101989774D01*
X158850226Y-102133937D01*
X159019744Y-102247205D01*
X159208102Y-102325226D01*
X159408061Y-102365000D01*
X159611939Y-102365000D01*
X159811898Y-102325226D01*
X160000256Y-102247205D01*
X160169774Y-102133937D01*
X160313937Y-101989774D01*
X160395262Y-101868061D01*
X167125000Y-101868061D01*
X167125000Y-102071939D01*
X167164774Y-102271898D01*
X167242795Y-102460256D01*
X167356063Y-102629774D01*
X167500226Y-102773937D01*
X167669744Y-102887205D01*
X167858102Y-102965226D01*
X168058061Y-103005000D01*
X168261939Y-103005000D01*
X168461898Y-102965226D01*
X168650256Y-102887205D01*
X168819774Y-102773937D01*
X168963937Y-102629774D01*
X169018535Y-102548061D01*
X169665000Y-102548061D01*
X169665000Y-102751939D01*
X169704774Y-102951898D01*
X169782795Y-103140256D01*
X169896063Y-103309774D01*
X170040226Y-103453937D01*
X170209744Y-103567205D01*
X170398102Y-103645226D01*
X170598061Y-103685000D01*
X170801939Y-103685000D01*
X171001898Y-103645226D01*
X171190256Y-103567205D01*
X171359774Y-103453937D01*
X171503937Y-103309774D01*
X171617205Y-103140256D01*
X171695226Y-102951898D01*
X171735000Y-102751939D01*
X171735000Y-102548061D01*
X171695226Y-102348102D01*
X171617205Y-102159744D01*
X171503937Y-101990226D01*
X171359774Y-101846063D01*
X171190256Y-101732795D01*
X171001898Y-101654774D01*
X170801939Y-101615000D01*
X170598061Y-101615000D01*
X170398102Y-101654774D01*
X170209744Y-101732795D01*
X170040226Y-101846063D01*
X169896063Y-101990226D01*
X169782795Y-102159744D01*
X169704774Y-102348102D01*
X169665000Y-102548061D01*
X169018535Y-102548061D01*
X169077205Y-102460256D01*
X169155226Y-102271898D01*
X169195000Y-102071939D01*
X169195000Y-101868061D01*
X169155226Y-101668102D01*
X169077205Y-101479744D01*
X168963937Y-101310226D01*
X168819774Y-101166063D01*
X168650256Y-101052795D01*
X168461898Y-100974774D01*
X168261939Y-100935000D01*
X168058061Y-100935000D01*
X167858102Y-100974774D01*
X167669744Y-101052795D01*
X167500226Y-101166063D01*
X167356063Y-101310226D01*
X167242795Y-101479744D01*
X167164774Y-101668102D01*
X167125000Y-101868061D01*
X160395262Y-101868061D01*
X160427205Y-101820256D01*
X160505226Y-101631898D01*
X160545000Y-101431939D01*
X160545000Y-101228061D01*
X160505226Y-101028102D01*
X160427205Y-100839744D01*
X160313937Y-100670226D01*
X160169774Y-100526063D01*
X160000256Y-100412795D01*
X159811898Y-100334774D01*
X159611939Y-100295000D01*
X159408061Y-100295000D01*
X159208102Y-100334774D01*
X159019744Y-100412795D01*
X158850226Y-100526063D01*
X158706063Y-100670226D01*
X158592795Y-100839744D01*
X158514774Y-101028102D01*
X158475000Y-101228061D01*
X146837219Y-101228061D01*
X146817205Y-101179744D01*
X146703937Y-101010226D01*
X146559774Y-100866063D01*
X146390256Y-100752795D01*
X146201898Y-100674774D01*
X146001939Y-100635000D01*
X145798061Y-100635000D01*
X145598102Y-100674774D01*
X145409744Y-100752795D01*
X145240226Y-100866063D01*
X145096063Y-101010226D01*
X144982795Y-101179744D01*
X144904774Y-101368102D01*
X144865000Y-101568061D01*
X131242676Y-101568061D01*
X131234994Y-101507028D01*
X131145255Y-101321840D01*
X131081791Y-101237938D01*
X131114734Y-101197797D01*
X131210841Y-101017993D01*
X131270024Y-100822895D01*
X131290007Y-100620000D01*
X131270024Y-100417105D01*
X131210841Y-100222007D01*
X131114734Y-100042203D01*
X131075996Y-99995000D01*
X131114734Y-99947797D01*
X131210841Y-99767993D01*
X131270024Y-99572895D01*
X131290007Y-99370000D01*
X131270024Y-99167105D01*
X131210841Y-98972007D01*
X131125259Y-98811894D01*
X131146831Y-98785608D01*
X131224278Y-98640716D01*
X131271969Y-98483500D01*
X131288072Y-98320000D01*
X131288072Y-97920000D01*
X131279017Y-97828061D01*
X137335000Y-97828061D01*
X137335000Y-98031939D01*
X137374774Y-98231898D01*
X137452795Y-98420256D01*
X137566063Y-98589774D01*
X137710226Y-98733937D01*
X137879744Y-98847205D01*
X138068102Y-98925226D01*
X138268061Y-98965000D01*
X138471939Y-98965000D01*
X138671898Y-98925226D01*
X138860256Y-98847205D01*
X139029774Y-98733937D01*
X139145650Y-98618061D01*
X148565000Y-98618061D01*
X148565000Y-98821939D01*
X148604774Y-99021898D01*
X148682795Y-99210256D01*
X148796063Y-99379774D01*
X148940226Y-99523937D01*
X149109744Y-99637205D01*
X149298102Y-99715226D01*
X149498061Y-99755000D01*
X149701939Y-99755000D01*
X149901898Y-99715226D01*
X150090256Y-99637205D01*
X150259774Y-99523937D01*
X150403937Y-99379774D01*
X150517205Y-99210256D01*
X150595226Y-99021898D01*
X150635000Y-98821939D01*
X150635000Y-98618061D01*
X150595226Y-98418102D01*
X150517205Y-98229744D01*
X150403937Y-98060226D01*
X150259774Y-97916063D01*
X150090256Y-97802795D01*
X149901898Y-97724774D01*
X149701939Y-97685000D01*
X149498061Y-97685000D01*
X149298102Y-97724774D01*
X149109744Y-97802795D01*
X148940226Y-97916063D01*
X148796063Y-98060226D01*
X148682795Y-98229744D01*
X148604774Y-98418102D01*
X148565000Y-98618061D01*
X139145650Y-98618061D01*
X139173937Y-98589774D01*
X139287205Y-98420256D01*
X139365226Y-98231898D01*
X139405000Y-98031939D01*
X139405000Y-97828061D01*
X139365226Y-97628102D01*
X139287205Y-97439744D01*
X139173937Y-97270226D01*
X139029774Y-97126063D01*
X138860256Y-97012795D01*
X138671898Y-96934774D01*
X138471939Y-96895000D01*
X138268061Y-96895000D01*
X138068102Y-96934774D01*
X137879744Y-97012795D01*
X137710226Y-97126063D01*
X137566063Y-97270226D01*
X137452795Y-97439744D01*
X137374774Y-97628102D01*
X137335000Y-97828061D01*
X131279017Y-97828061D01*
X131271969Y-97756500D01*
X131224278Y-97599284D01*
X131146831Y-97454392D01*
X131042606Y-97327394D01*
X130915608Y-97223169D01*
X130770716Y-97145722D01*
X130613500Y-97098031D01*
X130450000Y-97081928D01*
X129550000Y-97081928D01*
X129386500Y-97098031D01*
X129229284Y-97145722D01*
X129084392Y-97223169D01*
X128957394Y-97327394D01*
X128853169Y-97454392D01*
X128775722Y-97599284D01*
X128728031Y-97756500D01*
X128711928Y-97920000D01*
X128711928Y-98320000D01*
X128728031Y-98483500D01*
X128775722Y-98640716D01*
X128853169Y-98785608D01*
X128874741Y-98811894D01*
X128789159Y-98972007D01*
X128729976Y-99167105D01*
X128709993Y-99370000D01*
X125630000Y-99370000D01*
X125630000Y-96548061D01*
X146345000Y-96548061D01*
X146345000Y-96751939D01*
X146384774Y-96951898D01*
X146462795Y-97140256D01*
X146576063Y-97309774D01*
X146720226Y-97453937D01*
X146889744Y-97567205D01*
X147078102Y-97645226D01*
X147278061Y-97685000D01*
X147481939Y-97685000D01*
X147681898Y-97645226D01*
X147870256Y-97567205D01*
X148039774Y-97453937D01*
X148183937Y-97309774D01*
X148297205Y-97140256D01*
X148356104Y-96998061D01*
X152665000Y-96998061D01*
X152665000Y-97201939D01*
X152704774Y-97401898D01*
X152782795Y-97590256D01*
X152896063Y-97759774D01*
X153040226Y-97903937D01*
X153209744Y-98017205D01*
X153398102Y-98095226D01*
X153598061Y-98135000D01*
X153801939Y-98135000D01*
X154001898Y-98095226D01*
X154190256Y-98017205D01*
X154288481Y-97951573D01*
X154182795Y-98109744D01*
X154104774Y-98298102D01*
X154065000Y-98498061D01*
X154065000Y-98701939D01*
X154104774Y-98901898D01*
X154182795Y-99090256D01*
X154296063Y-99259774D01*
X154440226Y-99403937D01*
X154609744Y-99517205D01*
X154798102Y-99595226D01*
X154998061Y-99635000D01*
X155201939Y-99635000D01*
X155265000Y-99622456D01*
X155265000Y-99701939D01*
X155304774Y-99901898D01*
X155382795Y-100090256D01*
X155496063Y-100259774D01*
X155640226Y-100403937D01*
X155809744Y-100517205D01*
X155998102Y-100595226D01*
X156198061Y-100635000D01*
X156401939Y-100635000D01*
X156601898Y-100595226D01*
X156790256Y-100517205D01*
X156959774Y-100403937D01*
X157103937Y-100259774D01*
X157217205Y-100090256D01*
X157295226Y-99901898D01*
X157335000Y-99701939D01*
X157335000Y-99498061D01*
X157295226Y-99298102D01*
X157217205Y-99109744D01*
X157103937Y-98940226D01*
X157061772Y-98898061D01*
X157785000Y-98898061D01*
X157785000Y-99101939D01*
X157824774Y-99301898D01*
X157902795Y-99490256D01*
X158016063Y-99659774D01*
X158160226Y-99803937D01*
X158329744Y-99917205D01*
X158518102Y-99995226D01*
X158718061Y-100035000D01*
X158921939Y-100035000D01*
X159121898Y-99995226D01*
X159310256Y-99917205D01*
X159479774Y-99803937D01*
X159623937Y-99659774D01*
X159737205Y-99490256D01*
X159815226Y-99301898D01*
X159855000Y-99101939D01*
X159855000Y-98898061D01*
X159815226Y-98698102D01*
X159737205Y-98509744D01*
X159623937Y-98340226D01*
X159479774Y-98196063D01*
X159310256Y-98082795D01*
X159121898Y-98004774D01*
X158921939Y-97965000D01*
X158718061Y-97965000D01*
X158518102Y-98004774D01*
X158329744Y-98082795D01*
X158160226Y-98196063D01*
X158016063Y-98340226D01*
X157902795Y-98509744D01*
X157824774Y-98698102D01*
X157785000Y-98898061D01*
X157061772Y-98898061D01*
X156959774Y-98796063D01*
X156790256Y-98682795D01*
X156601898Y-98604774D01*
X156401939Y-98565000D01*
X156198061Y-98565000D01*
X156135000Y-98577544D01*
X156135000Y-98498061D01*
X156095226Y-98298102D01*
X156017205Y-98109744D01*
X155903937Y-97940226D01*
X155759774Y-97796063D01*
X155672968Y-97738061D01*
X159575000Y-97738061D01*
X159575000Y-97941939D01*
X159614774Y-98141898D01*
X159692795Y-98330256D01*
X159806063Y-98499774D01*
X159950226Y-98643937D01*
X160119744Y-98757205D01*
X160308102Y-98835226D01*
X160508061Y-98875000D01*
X160711939Y-98875000D01*
X160911898Y-98835226D01*
X161100256Y-98757205D01*
X161269774Y-98643937D01*
X161413937Y-98499774D01*
X161527205Y-98330256D01*
X161605226Y-98141898D01*
X161645000Y-97941939D01*
X161645000Y-97738061D01*
X161605226Y-97538102D01*
X161527205Y-97349744D01*
X161413937Y-97180226D01*
X161269774Y-97036063D01*
X161100256Y-96922795D01*
X160911898Y-96844774D01*
X160711939Y-96805000D01*
X160508061Y-96805000D01*
X160308102Y-96844774D01*
X160119744Y-96922795D01*
X159950226Y-97036063D01*
X159806063Y-97180226D01*
X159692795Y-97349744D01*
X159614774Y-97538102D01*
X159575000Y-97738061D01*
X155672968Y-97738061D01*
X155590256Y-97682795D01*
X155401898Y-97604774D01*
X155201939Y-97565000D01*
X154998061Y-97565000D01*
X154798102Y-97604774D01*
X154609744Y-97682795D01*
X154511519Y-97748427D01*
X154617205Y-97590256D01*
X154695226Y-97401898D01*
X154735000Y-97201939D01*
X154735000Y-96998061D01*
X154695226Y-96798102D01*
X154617205Y-96609744D01*
X154503937Y-96440226D01*
X154359774Y-96296063D01*
X154190256Y-96182795D01*
X154062799Y-96130000D01*
X178021928Y-96130000D01*
X178021928Y-98530000D01*
X178034188Y-98654482D01*
X178070498Y-98774180D01*
X178129463Y-98884494D01*
X178208815Y-98981185D01*
X178305506Y-99060537D01*
X178415820Y-99119502D01*
X178535518Y-99155812D01*
X178660000Y-99168072D01*
X181060000Y-99168072D01*
X181184482Y-99155812D01*
X181304180Y-99119502D01*
X181414494Y-99060537D01*
X181511185Y-98981185D01*
X181590537Y-98884494D01*
X181649502Y-98774180D01*
X181685812Y-98654482D01*
X181698072Y-98530000D01*
X181698072Y-96130000D01*
X181685812Y-96005518D01*
X181649502Y-95885820D01*
X181590537Y-95775506D01*
X181511185Y-95678815D01*
X181414494Y-95599463D01*
X181304180Y-95540498D01*
X181184482Y-95504188D01*
X181060000Y-95491928D01*
X180653097Y-95491928D01*
X180838486Y-95392836D01*
X180958374Y-95107980D01*
X179860000Y-94009605D01*
X178761626Y-95107980D01*
X178881514Y-95392836D01*
X179080912Y-95491928D01*
X178660000Y-95491928D01*
X178535518Y-95504188D01*
X178415820Y-95540498D01*
X178305506Y-95599463D01*
X178208815Y-95678815D01*
X178129463Y-95775506D01*
X178070498Y-95885820D01*
X178034188Y-96005518D01*
X178021928Y-96130000D01*
X154062799Y-96130000D01*
X154001898Y-96104774D01*
X153801939Y-96065000D01*
X153598061Y-96065000D01*
X153398102Y-96104774D01*
X153209744Y-96182795D01*
X153040226Y-96296063D01*
X152896063Y-96440226D01*
X152782795Y-96609744D01*
X152704774Y-96798102D01*
X152665000Y-96998061D01*
X148356104Y-96998061D01*
X148375226Y-96951898D01*
X148415000Y-96751939D01*
X148415000Y-96548061D01*
X148375226Y-96348102D01*
X148297205Y-96159744D01*
X148245102Y-96081766D01*
X148280256Y-96067205D01*
X148449774Y-95953937D01*
X148593937Y-95809774D01*
X148707205Y-95640256D01*
X148785226Y-95451898D01*
X148825000Y-95251939D01*
X148825000Y-95048061D01*
X148785226Y-94848102D01*
X148707205Y-94659744D01*
X148593937Y-94490226D01*
X148449774Y-94346063D01*
X148280256Y-94232795D01*
X148172260Y-94188061D01*
X154135000Y-94188061D01*
X154135000Y-94391939D01*
X154174774Y-94591898D01*
X154252795Y-94780256D01*
X154366063Y-94949774D01*
X154510226Y-95093937D01*
X154679744Y-95207205D01*
X154868102Y-95285226D01*
X155068061Y-95325000D01*
X155271939Y-95325000D01*
X155471898Y-95285226D01*
X155660256Y-95207205D01*
X155829774Y-95093937D01*
X155973937Y-94949774D01*
X156087205Y-94780256D01*
X156165226Y-94591898D01*
X156205000Y-94391939D01*
X156205000Y-94188061D01*
X156165226Y-93988102D01*
X156122389Y-93884684D01*
X178016933Y-93884684D01*
X178063015Y-94243198D01*
X178178154Y-94585833D01*
X178297164Y-94808486D01*
X178582020Y-94928374D01*
X179680395Y-93830000D01*
X180039605Y-93830000D01*
X181137980Y-94928374D01*
X181422836Y-94808486D01*
X181583699Y-94484790D01*
X181678322Y-94135931D01*
X181703067Y-93775316D01*
X181656985Y-93416802D01*
X181541846Y-93074167D01*
X181422836Y-92851514D01*
X181137980Y-92731626D01*
X180039605Y-93830000D01*
X179680395Y-93830000D01*
X178582020Y-92731626D01*
X178297164Y-92851514D01*
X178136301Y-93175210D01*
X178041678Y-93524069D01*
X178016933Y-93884684D01*
X156122389Y-93884684D01*
X156087205Y-93799744D01*
X155973937Y-93630226D01*
X155829774Y-93486063D01*
X155660256Y-93372795D01*
X155471898Y-93294774D01*
X155271939Y-93255000D01*
X155068061Y-93255000D01*
X154868102Y-93294774D01*
X154679744Y-93372795D01*
X154510226Y-93486063D01*
X154366063Y-93630226D01*
X154252795Y-93799744D01*
X154174774Y-93988102D01*
X154135000Y-94188061D01*
X148172260Y-94188061D01*
X148091898Y-94154774D01*
X147891939Y-94115000D01*
X147688061Y-94115000D01*
X147488102Y-94154774D01*
X147299744Y-94232795D01*
X147130226Y-94346063D01*
X146986063Y-94490226D01*
X146872795Y-94659744D01*
X146794774Y-94848102D01*
X146755000Y-95048061D01*
X146755000Y-95251939D01*
X146794774Y-95451898D01*
X146872795Y-95640256D01*
X146924898Y-95718234D01*
X146889744Y-95732795D01*
X146720226Y-95846063D01*
X146576063Y-95990226D01*
X146462795Y-96159744D01*
X146384774Y-96348102D01*
X146345000Y-96548061D01*
X125630000Y-96548061D01*
X125630000Y-87610000D01*
X138173000Y-87610000D01*
X138173000Y-96200000D01*
X138175440Y-96224776D01*
X138182667Y-96248601D01*
X138194403Y-96270557D01*
X138210197Y-96289803D01*
X138229443Y-96305597D01*
X138251399Y-96317333D01*
X138275224Y-96324560D01*
X138300000Y-96327000D01*
X142230000Y-96327000D01*
X142254776Y-96324560D01*
X142278601Y-96317333D01*
X142300557Y-96305597D01*
X142319803Y-96289803D01*
X142335597Y-96270557D01*
X142347333Y-96248601D01*
X142354560Y-96224776D01*
X142357000Y-96200000D01*
X142357000Y-95810000D01*
X142356997Y-95809106D01*
X142347898Y-94517000D01*
X144430000Y-94517000D01*
X144454776Y-94514560D01*
X144478601Y-94507333D01*
X144500557Y-94495597D01*
X144519803Y-94479803D01*
X144535597Y-94460557D01*
X144547333Y-94438601D01*
X144554560Y-94414776D01*
X144557000Y-94390000D01*
X144557000Y-93617000D01*
X146590000Y-93617000D01*
X146614776Y-93614560D01*
X146638601Y-93607333D01*
X146660557Y-93595597D01*
X146679803Y-93579803D01*
X146695597Y-93560557D01*
X146707333Y-93538601D01*
X146714560Y-93514776D01*
X146717000Y-93490000D01*
X146717000Y-92552020D01*
X178761626Y-92552020D01*
X179860000Y-93650395D01*
X180958374Y-92552020D01*
X180838486Y-92267164D01*
X180514790Y-92106301D01*
X180165931Y-92011678D01*
X179805316Y-91986933D01*
X179446802Y-92033015D01*
X179104167Y-92148154D01*
X178881514Y-92267164D01*
X178761626Y-92552020D01*
X146717000Y-92552020D01*
X146717000Y-91920000D01*
X146714560Y-91895224D01*
X146707333Y-91871399D01*
X146695597Y-91849443D01*
X146679803Y-91830197D01*
X146660557Y-91814403D01*
X146638601Y-91802667D01*
X146614776Y-91795440D01*
X146590000Y-91793000D01*
X144759483Y-91793000D01*
X144697564Y-91718697D01*
X144687124Y-91707596D01*
X143987124Y-91047596D01*
X143967422Y-91032375D01*
X143945130Y-91021289D01*
X143921104Y-91014766D01*
X143918566Y-91014545D01*
X143965226Y-90901898D01*
X144005000Y-90701939D01*
X144005000Y-90498061D01*
X145865000Y-90498061D01*
X145865000Y-90701939D01*
X145904774Y-90901898D01*
X145982795Y-91090256D01*
X146096063Y-91259774D01*
X146240226Y-91403937D01*
X146409744Y-91517205D01*
X146598102Y-91595226D01*
X146798061Y-91635000D01*
X147001939Y-91635000D01*
X147201898Y-91595226D01*
X147390256Y-91517205D01*
X147559774Y-91403937D01*
X147703937Y-91259774D01*
X147817205Y-91090256D01*
X147852498Y-91005052D01*
X147901898Y-90995226D01*
X148090256Y-90917205D01*
X148259774Y-90803937D01*
X148403937Y-90659774D01*
X148517205Y-90490256D01*
X148555393Y-90398061D01*
X148775000Y-90398061D01*
X148775000Y-90601939D01*
X148814774Y-90801898D01*
X148892795Y-90990256D01*
X149006063Y-91159774D01*
X149150226Y-91303937D01*
X149319744Y-91417205D01*
X149508102Y-91495226D01*
X149708061Y-91535000D01*
X149911939Y-91535000D01*
X150111898Y-91495226D01*
X150300256Y-91417205D01*
X150469774Y-91303937D01*
X150613937Y-91159774D01*
X150721989Y-90998061D01*
X154565000Y-90998061D01*
X154565000Y-91201939D01*
X154604774Y-91401898D01*
X154682795Y-91590256D01*
X154796063Y-91759774D01*
X154940226Y-91903937D01*
X155109744Y-92017205D01*
X155298102Y-92095226D01*
X155498061Y-92135000D01*
X155701939Y-92135000D01*
X155901898Y-92095226D01*
X156090256Y-92017205D01*
X156259774Y-91903937D01*
X156403937Y-91759774D01*
X156517205Y-91590256D01*
X156595226Y-91401898D01*
X156635000Y-91201939D01*
X156635000Y-90998061D01*
X156595226Y-90798102D01*
X156517205Y-90609744D01*
X156403937Y-90440226D01*
X156259774Y-90296063D01*
X156090256Y-90182795D01*
X155901898Y-90104774D01*
X155701939Y-90065000D01*
X155498061Y-90065000D01*
X155298102Y-90104774D01*
X155109744Y-90182795D01*
X154940226Y-90296063D01*
X154796063Y-90440226D01*
X154682795Y-90609744D01*
X154604774Y-90798102D01*
X154565000Y-90998061D01*
X150721989Y-90998061D01*
X150727205Y-90990256D01*
X150805226Y-90801898D01*
X150845000Y-90601939D01*
X150845000Y-90398061D01*
X150805226Y-90198102D01*
X150727205Y-90009744D01*
X150613937Y-89840226D01*
X150469774Y-89696063D01*
X150300256Y-89582795D01*
X150111898Y-89504774D01*
X149911939Y-89465000D01*
X149708061Y-89465000D01*
X149508102Y-89504774D01*
X149319744Y-89582795D01*
X149150226Y-89696063D01*
X149006063Y-89840226D01*
X148892795Y-90009744D01*
X148814774Y-90198102D01*
X148775000Y-90398061D01*
X148555393Y-90398061D01*
X148595226Y-90301898D01*
X148635000Y-90101939D01*
X148635000Y-89898061D01*
X148595226Y-89698102D01*
X148517205Y-89509744D01*
X148403937Y-89340226D01*
X148259774Y-89196063D01*
X148090256Y-89082795D01*
X147901898Y-89004774D01*
X147701939Y-88965000D01*
X147498061Y-88965000D01*
X147298102Y-89004774D01*
X147109744Y-89082795D01*
X146940226Y-89196063D01*
X146796063Y-89340226D01*
X146682795Y-89509744D01*
X146647502Y-89594948D01*
X146598102Y-89604774D01*
X146409744Y-89682795D01*
X146240226Y-89796063D01*
X146096063Y-89940226D01*
X145982795Y-90109744D01*
X145904774Y-90298102D01*
X145865000Y-90498061D01*
X144005000Y-90498061D01*
X143965226Y-90298102D01*
X143887205Y-90109744D01*
X143773937Y-89940226D01*
X143629774Y-89796063D01*
X143460256Y-89682795D01*
X143271898Y-89604774D01*
X143071939Y-89565000D01*
X142868061Y-89565000D01*
X142668102Y-89604774D01*
X142537000Y-89659079D01*
X142537000Y-88508061D01*
X155175000Y-88508061D01*
X155175000Y-88711939D01*
X155214774Y-88911898D01*
X155292795Y-89100256D01*
X155406063Y-89269774D01*
X155550226Y-89413937D01*
X155719744Y-89527205D01*
X155908102Y-89605226D01*
X156108061Y-89645000D01*
X156311939Y-89645000D01*
X156511898Y-89605226D01*
X156700256Y-89527205D01*
X156869774Y-89413937D01*
X157013937Y-89269774D01*
X157127205Y-89100256D01*
X157205226Y-88911898D01*
X157245000Y-88711939D01*
X157245000Y-88508061D01*
X157205226Y-88308102D01*
X157127205Y-88119744D01*
X157013937Y-87950226D01*
X156869774Y-87806063D01*
X156700256Y-87692795D01*
X156511898Y-87614774D01*
X156311939Y-87575000D01*
X156108061Y-87575000D01*
X155908102Y-87614774D01*
X155719744Y-87692795D01*
X155550226Y-87806063D01*
X155406063Y-87950226D01*
X155292795Y-88119744D01*
X155214774Y-88308102D01*
X155175000Y-88508061D01*
X142537000Y-88508061D01*
X142537000Y-87610000D01*
X142534560Y-87585224D01*
X142527333Y-87561399D01*
X142515597Y-87539443D01*
X142499803Y-87520197D01*
X142480557Y-87504403D01*
X142458601Y-87492667D01*
X142434776Y-87485440D01*
X142410000Y-87483000D01*
X138300000Y-87483000D01*
X138275224Y-87485440D01*
X138251399Y-87492667D01*
X138229443Y-87504403D01*
X138210197Y-87520197D01*
X138194403Y-87539443D01*
X138182667Y-87561399D01*
X138175440Y-87585224D01*
X138173000Y-87610000D01*
X125630000Y-87610000D01*
X125630000Y-85536123D01*
X128755334Y-85536123D01*
X128765006Y-85612972D01*
X128854745Y-85798160D01*
X128978888Y-85962283D01*
X129132664Y-86099033D01*
X129310164Y-86203155D01*
X129504567Y-86270648D01*
X129708401Y-86298918D01*
X129873000Y-86133762D01*
X129873000Y-85377000D01*
X130127000Y-85377000D01*
X130127000Y-86133762D01*
X130291599Y-86298918D01*
X130495433Y-86270648D01*
X130689836Y-86203155D01*
X130826374Y-86123061D01*
X144490000Y-86123061D01*
X144490000Y-86326939D01*
X144529774Y-86526898D01*
X144607795Y-86715256D01*
X144721063Y-86884774D01*
X144865226Y-87028937D01*
X145034744Y-87142205D01*
X145223102Y-87220226D01*
X145423061Y-87260000D01*
X145626939Y-87260000D01*
X145826898Y-87220226D01*
X146015256Y-87142205D01*
X146184774Y-87028937D01*
X146328937Y-86884774D01*
X146442205Y-86715256D01*
X146520226Y-86526898D01*
X146560000Y-86326939D01*
X146560000Y-86238061D01*
X151325000Y-86238061D01*
X151325000Y-86441939D01*
X151364774Y-86641898D01*
X151442795Y-86830256D01*
X151556063Y-86999774D01*
X151700226Y-87143937D01*
X151869744Y-87257205D01*
X152058102Y-87335226D01*
X152258061Y-87375000D01*
X152461939Y-87375000D01*
X152661898Y-87335226D01*
X152850256Y-87257205D01*
X152943352Y-87195000D01*
X177658420Y-87195000D01*
X177684678Y-87461607D01*
X177762445Y-87717968D01*
X177888730Y-87954231D01*
X178058682Y-88161318D01*
X178265769Y-88331270D01*
X178502032Y-88457555D01*
X178758393Y-88535322D01*
X178958191Y-88555000D01*
X179641809Y-88555000D01*
X179841607Y-88535322D01*
X180097968Y-88457555D01*
X180334231Y-88331270D01*
X180541318Y-88161318D01*
X180711270Y-87954231D01*
X180837555Y-87717968D01*
X180915322Y-87461607D01*
X180941580Y-87195000D01*
X180915322Y-86928393D01*
X180892282Y-86852442D01*
X181009774Y-86773937D01*
X181153937Y-86629774D01*
X181267205Y-86460256D01*
X181345226Y-86271898D01*
X181385000Y-86071939D01*
X181385000Y-85868061D01*
X181345226Y-85668102D01*
X181267205Y-85479744D01*
X181153937Y-85310226D01*
X181009774Y-85166063D01*
X180840256Y-85052795D01*
X180651898Y-84974774D01*
X180451939Y-84935000D01*
X180248061Y-84935000D01*
X180048102Y-84974774D01*
X179859744Y-85052795D01*
X179690226Y-85166063D01*
X179546063Y-85310226D01*
X179432795Y-85479744D01*
X179354774Y-85668102D01*
X179321576Y-85835000D01*
X178958191Y-85835000D01*
X178758393Y-85854678D01*
X178502032Y-85932445D01*
X178265769Y-86058730D01*
X178058682Y-86228682D01*
X177888730Y-86435769D01*
X177762445Y-86672032D01*
X177684678Y-86928393D01*
X177658420Y-87195000D01*
X152943352Y-87195000D01*
X153019774Y-87143937D01*
X153163937Y-86999774D01*
X153277205Y-86830256D01*
X153355226Y-86641898D01*
X153395000Y-86441939D01*
X153395000Y-86238061D01*
X153355226Y-86038102D01*
X153277205Y-85849744D01*
X153182536Y-85708061D01*
X153935000Y-85708061D01*
X153935000Y-85911939D01*
X153974774Y-86111898D01*
X154052795Y-86300256D01*
X154166063Y-86469774D01*
X154310226Y-86613937D01*
X154479744Y-86727205D01*
X154668102Y-86805226D01*
X154868061Y-86845000D01*
X155071939Y-86845000D01*
X155271898Y-86805226D01*
X155460256Y-86727205D01*
X155629774Y-86613937D01*
X155773937Y-86469774D01*
X155887205Y-86300256D01*
X155965226Y-86111898D01*
X156005000Y-85911939D01*
X156005000Y-85728061D01*
X158945000Y-85728061D01*
X158945000Y-85931939D01*
X158984774Y-86131898D01*
X159062795Y-86320256D01*
X159176063Y-86489774D01*
X159320226Y-86633937D01*
X159489744Y-86747205D01*
X159678102Y-86825226D01*
X159878061Y-86865000D01*
X160081939Y-86865000D01*
X160281898Y-86825226D01*
X160470256Y-86747205D01*
X160639774Y-86633937D01*
X160783937Y-86489774D01*
X160897205Y-86320256D01*
X160975226Y-86131898D01*
X161015000Y-85931939D01*
X161015000Y-85728061D01*
X160975226Y-85528102D01*
X160897205Y-85339744D01*
X160783937Y-85170226D01*
X160639774Y-85026063D01*
X160470256Y-84912795D01*
X160281898Y-84834774D01*
X160081939Y-84795000D01*
X159878061Y-84795000D01*
X159678102Y-84834774D01*
X159489744Y-84912795D01*
X159320226Y-85026063D01*
X159176063Y-85170226D01*
X159062795Y-85339744D01*
X158984774Y-85528102D01*
X158945000Y-85728061D01*
X156005000Y-85728061D01*
X156005000Y-85708061D01*
X155965226Y-85508102D01*
X155887205Y-85319744D01*
X155773937Y-85150226D01*
X155629774Y-85006063D01*
X155460256Y-84892795D01*
X155271898Y-84814774D01*
X155071939Y-84775000D01*
X154868061Y-84775000D01*
X154668102Y-84814774D01*
X154479744Y-84892795D01*
X154310226Y-85006063D01*
X154166063Y-85150226D01*
X154052795Y-85319744D01*
X153974774Y-85508102D01*
X153935000Y-85708061D01*
X153182536Y-85708061D01*
X153163937Y-85680226D01*
X153019774Y-85536063D01*
X152850256Y-85422795D01*
X152661898Y-85344774D01*
X152461939Y-85305000D01*
X152258061Y-85305000D01*
X152058102Y-85344774D01*
X151869744Y-85422795D01*
X151700226Y-85536063D01*
X151556063Y-85680226D01*
X151442795Y-85849744D01*
X151364774Y-86038102D01*
X151325000Y-86238061D01*
X146560000Y-86238061D01*
X146560000Y-86123061D01*
X146520226Y-85923102D01*
X146442205Y-85734744D01*
X146328937Y-85565226D01*
X146184774Y-85421063D01*
X146015256Y-85307795D01*
X145826898Y-85229774D01*
X145626939Y-85190000D01*
X145423061Y-85190000D01*
X145223102Y-85229774D01*
X145034744Y-85307795D01*
X144865226Y-85421063D01*
X144721063Y-85565226D01*
X144607795Y-85734744D01*
X144529774Y-85923102D01*
X144490000Y-86123061D01*
X130826374Y-86123061D01*
X130867336Y-86099033D01*
X131021112Y-85962283D01*
X131145255Y-85798160D01*
X131234994Y-85612972D01*
X131244666Y-85536123D01*
X131116998Y-85377000D01*
X130127000Y-85377000D01*
X129873000Y-85377000D01*
X128883002Y-85377000D01*
X128755334Y-85536123D01*
X125630000Y-85536123D01*
X125630000Y-82750000D01*
X128709993Y-82750000D01*
X128729976Y-82952895D01*
X128789159Y-83147993D01*
X128885266Y-83327797D01*
X128924004Y-83375000D01*
X128885266Y-83422203D01*
X128789159Y-83602007D01*
X128729976Y-83797105D01*
X128709993Y-84000000D01*
X128729976Y-84202895D01*
X128789159Y-84397993D01*
X128885266Y-84577797D01*
X128918209Y-84617938D01*
X128854745Y-84701840D01*
X128765006Y-84887028D01*
X128755334Y-84963877D01*
X128883002Y-85123000D01*
X129873000Y-85123000D01*
X129873000Y-85103000D01*
X130127000Y-85103000D01*
X130127000Y-85123000D01*
X131116998Y-85123000D01*
X131244666Y-84963877D01*
X131234994Y-84887028D01*
X131145255Y-84701840D01*
X131081791Y-84617938D01*
X131114734Y-84577797D01*
X131210841Y-84397993D01*
X131270024Y-84202895D01*
X131290007Y-84000000D01*
X131270024Y-83797105D01*
X131210841Y-83602007D01*
X131114734Y-83422203D01*
X131075996Y-83375000D01*
X131114734Y-83327797D01*
X131210841Y-83147993D01*
X131270024Y-82952895D01*
X131290007Y-82750000D01*
X131270024Y-82547105D01*
X131210841Y-82352007D01*
X131125259Y-82191894D01*
X131146831Y-82165608D01*
X131224278Y-82020716D01*
X131234183Y-81988061D01*
X153485000Y-81988061D01*
X153485000Y-82191939D01*
X153524774Y-82391898D01*
X153602795Y-82580256D01*
X153716063Y-82749774D01*
X153860226Y-82893937D01*
X154029744Y-83007205D01*
X154218102Y-83085226D01*
X154418061Y-83125000D01*
X154621939Y-83125000D01*
X154821898Y-83085226D01*
X155010256Y-83007205D01*
X155179774Y-82893937D01*
X155323937Y-82749774D01*
X155437205Y-82580256D01*
X155515226Y-82391898D01*
X155555000Y-82191939D01*
X155555000Y-81988061D01*
X155515226Y-81788102D01*
X155437205Y-81599744D01*
X155323937Y-81430226D01*
X155179774Y-81286063D01*
X155010256Y-81172795D01*
X154821898Y-81094774D01*
X154621939Y-81055000D01*
X154418061Y-81055000D01*
X154218102Y-81094774D01*
X154029744Y-81172795D01*
X153860226Y-81286063D01*
X153716063Y-81430226D01*
X153602795Y-81599744D01*
X153524774Y-81788102D01*
X153485000Y-81988061D01*
X131234183Y-81988061D01*
X131271969Y-81863500D01*
X131288072Y-81700000D01*
X131288072Y-81300000D01*
X131271969Y-81136500D01*
X131224278Y-80979284D01*
X131146831Y-80834392D01*
X131042606Y-80707394D01*
X130915608Y-80603169D01*
X130770716Y-80525722D01*
X130613500Y-80478031D01*
X130450000Y-80461928D01*
X129550000Y-80461928D01*
X129386500Y-80478031D01*
X129229284Y-80525722D01*
X129084392Y-80603169D01*
X128957394Y-80707394D01*
X128853169Y-80834392D01*
X128775722Y-80979284D01*
X128728031Y-81136500D01*
X128711928Y-81300000D01*
X128711928Y-81700000D01*
X128728031Y-81863500D01*
X128775722Y-82020716D01*
X128853169Y-82165608D01*
X128874741Y-82191894D01*
X128789159Y-82352007D01*
X128729976Y-82547105D01*
X128709993Y-82750000D01*
X125630000Y-82750000D01*
X125630000Y-79745000D01*
X177658420Y-79745000D01*
X177684678Y-80011607D01*
X177762445Y-80267968D01*
X177888730Y-80504231D01*
X178058682Y-80711318D01*
X178265769Y-80881270D01*
X178502032Y-81007555D01*
X178758393Y-81085322D01*
X178958191Y-81105000D01*
X179321576Y-81105000D01*
X179354774Y-81271898D01*
X179432795Y-81460256D01*
X179546063Y-81629774D01*
X179690226Y-81773937D01*
X179859744Y-81887205D01*
X180048102Y-81965226D01*
X180248061Y-82005000D01*
X180451939Y-82005000D01*
X180651898Y-81965226D01*
X180840256Y-81887205D01*
X181009774Y-81773937D01*
X181153937Y-81629774D01*
X181267205Y-81460256D01*
X181345226Y-81271898D01*
X181385000Y-81071939D01*
X181385000Y-80868061D01*
X181345226Y-80668102D01*
X181267205Y-80479744D01*
X181153937Y-80310226D01*
X181009774Y-80166063D01*
X180892282Y-80087558D01*
X180915322Y-80011607D01*
X180941580Y-79745000D01*
X180915322Y-79478393D01*
X180837555Y-79222032D01*
X180711270Y-78985769D01*
X180541318Y-78778682D01*
X180334231Y-78608730D01*
X180097968Y-78482445D01*
X179841607Y-78404678D01*
X179641809Y-78385000D01*
X178958191Y-78385000D01*
X178758393Y-78404678D01*
X178502032Y-78482445D01*
X178265769Y-78608730D01*
X178058682Y-78778682D01*
X177888730Y-78985769D01*
X177762445Y-79222032D01*
X177684678Y-79478393D01*
X177658420Y-79745000D01*
X125630000Y-79745000D01*
X125630000Y-77478061D01*
X146295000Y-77478061D01*
X146295000Y-77681939D01*
X146334774Y-77881898D01*
X146412795Y-78070256D01*
X146526063Y-78239774D01*
X146670226Y-78383937D01*
X146839744Y-78497205D01*
X147028102Y-78575226D01*
X147228061Y-78615000D01*
X147431939Y-78615000D01*
X147631898Y-78575226D01*
X147820256Y-78497205D01*
X147989774Y-78383937D01*
X148133937Y-78239774D01*
X148247205Y-78070256D01*
X148325226Y-77881898D01*
X148349037Y-77762190D01*
X148422795Y-77940256D01*
X148536063Y-78109774D01*
X148680226Y-78253937D01*
X148849744Y-78367205D01*
X149038102Y-78445226D01*
X149238061Y-78485000D01*
X149441939Y-78485000D01*
X149641898Y-78445226D01*
X149830256Y-78367205D01*
X149999774Y-78253937D01*
X150143937Y-78109774D01*
X150257205Y-77940256D01*
X150335226Y-77751898D01*
X150375000Y-77551939D01*
X150375000Y-77348061D01*
X150335226Y-77148102D01*
X150257205Y-76959744D01*
X150143937Y-76790226D01*
X149999774Y-76646063D01*
X149830256Y-76532795D01*
X149641898Y-76454774D01*
X149441939Y-76415000D01*
X149238061Y-76415000D01*
X149038102Y-76454774D01*
X148849744Y-76532795D01*
X148680226Y-76646063D01*
X148536063Y-76790226D01*
X148422795Y-76959744D01*
X148344774Y-77148102D01*
X148320963Y-77267810D01*
X148247205Y-77089744D01*
X148133937Y-76920226D01*
X147989774Y-76776063D01*
X147820256Y-76662795D01*
X147631898Y-76584774D01*
X147431939Y-76545000D01*
X147228061Y-76545000D01*
X147028102Y-76584774D01*
X146839744Y-76662795D01*
X146670226Y-76776063D01*
X146526063Y-76920226D01*
X146412795Y-77089744D01*
X146334774Y-77278102D01*
X146295000Y-77478061D01*
X125630000Y-77478061D01*
X125630000Y-76373061D01*
X152480000Y-76373061D01*
X152480000Y-76576939D01*
X152519774Y-76776898D01*
X152597795Y-76965256D01*
X152711063Y-77134774D01*
X152855226Y-77278937D01*
X153024744Y-77392205D01*
X153213102Y-77470226D01*
X153413061Y-77510000D01*
X153616939Y-77510000D01*
X153816898Y-77470226D01*
X154005256Y-77392205D01*
X154174774Y-77278937D01*
X154318937Y-77134774D01*
X154432205Y-76965256D01*
X154510226Y-76776898D01*
X154550000Y-76576939D01*
X154550000Y-76373061D01*
X154510226Y-76173102D01*
X154432205Y-75984744D01*
X154318937Y-75815226D01*
X154174774Y-75671063D01*
X154005256Y-75557795D01*
X153816898Y-75479774D01*
X153616939Y-75440000D01*
X153413061Y-75440000D01*
X153213102Y-75479774D01*
X153024744Y-75557795D01*
X152855226Y-75671063D01*
X152711063Y-75815226D01*
X152597795Y-75984744D01*
X152519774Y-76173102D01*
X152480000Y-76373061D01*
X125630000Y-76373061D01*
X125630000Y-74858061D01*
X134225000Y-74858061D01*
X134225000Y-75061939D01*
X134264774Y-75261898D01*
X134342795Y-75450256D01*
X134456063Y-75619774D01*
X134600226Y-75763937D01*
X134769744Y-75877205D01*
X134958102Y-75955226D01*
X135158061Y-75995000D01*
X135361939Y-75995000D01*
X135561898Y-75955226D01*
X135750256Y-75877205D01*
X135919774Y-75763937D01*
X136063937Y-75619774D01*
X136177205Y-75450256D01*
X136255226Y-75261898D01*
X136295000Y-75061939D01*
X136295000Y-74858061D01*
X136285055Y-74808061D01*
X141455000Y-74808061D01*
X141455000Y-75011939D01*
X141494774Y-75211898D01*
X141572795Y-75400256D01*
X141686063Y-75569774D01*
X141830226Y-75713937D01*
X141999744Y-75827205D01*
X142188102Y-75905226D01*
X142388061Y-75945000D01*
X142591939Y-75945000D01*
X142791898Y-75905226D01*
X142980256Y-75827205D01*
X143149774Y-75713937D01*
X143293937Y-75569774D01*
X143407205Y-75400256D01*
X143485226Y-75211898D01*
X143525000Y-75011939D01*
X143525000Y-74808061D01*
X143485226Y-74608102D01*
X143407205Y-74419744D01*
X143293937Y-74250226D01*
X143149774Y-74106063D01*
X142980256Y-73992795D01*
X142791898Y-73914774D01*
X142591939Y-73875000D01*
X142388061Y-73875000D01*
X142188102Y-73914774D01*
X141999744Y-73992795D01*
X141830226Y-74106063D01*
X141686063Y-74250226D01*
X141572795Y-74419744D01*
X141494774Y-74608102D01*
X141455000Y-74808061D01*
X136285055Y-74808061D01*
X136255226Y-74658102D01*
X136177205Y-74469744D01*
X136063937Y-74300226D01*
X135919774Y-74156063D01*
X135750256Y-74042795D01*
X135561898Y-73964774D01*
X135361939Y-73925000D01*
X135158061Y-73925000D01*
X134958102Y-73964774D01*
X134769744Y-74042795D01*
X134600226Y-74156063D01*
X134456063Y-74300226D01*
X134342795Y-74469744D01*
X134264774Y-74658102D01*
X134225000Y-74858061D01*
X125630000Y-74858061D01*
X125630000Y-70032278D01*
X125654748Y-69779872D01*
X126765000Y-69779872D01*
X126765000Y-70220128D01*
X126850890Y-70651925D01*
X127019369Y-71058669D01*
X127263962Y-71424729D01*
X127575271Y-71736038D01*
X127941331Y-71980631D01*
X128348075Y-72149110D01*
X128779872Y-72235000D01*
X129220128Y-72235000D01*
X129651925Y-72149110D01*
X130058669Y-71980631D01*
X130424729Y-71736038D01*
X130736038Y-71424729D01*
X130804947Y-71321599D01*
X135791082Y-71321599D01*
X135819352Y-71525433D01*
X135886845Y-71719836D01*
X135990967Y-71897336D01*
X136127717Y-72051112D01*
X136291840Y-72175255D01*
X136477028Y-72264994D01*
X136553877Y-72274666D01*
X136713000Y-72146998D01*
X136713000Y-71157000D01*
X135956238Y-71157000D01*
X135791082Y-71321599D01*
X130804947Y-71321599D01*
X130980631Y-71058669D01*
X131113290Y-70738401D01*
X135791082Y-70738401D01*
X135956238Y-70903000D01*
X136713000Y-70903000D01*
X136713000Y-69913002D01*
X136967000Y-69913002D01*
X136967000Y-70903000D01*
X136987000Y-70903000D01*
X136987000Y-71157000D01*
X136967000Y-71157000D01*
X136967000Y-72146998D01*
X137126123Y-72274666D01*
X137202972Y-72264994D01*
X137388160Y-72175255D01*
X137472062Y-72111791D01*
X137512203Y-72144734D01*
X137692007Y-72240841D01*
X137887105Y-72300024D01*
X138090000Y-72320007D01*
X138292894Y-72300024D01*
X138487992Y-72240841D01*
X138667797Y-72144734D01*
X138715000Y-72105996D01*
X138762203Y-72144734D01*
X138942007Y-72240841D01*
X139137105Y-72300024D01*
X139340000Y-72320007D01*
X139542894Y-72300024D01*
X139737992Y-72240841D01*
X139898106Y-72155259D01*
X139924392Y-72176831D01*
X140069284Y-72254278D01*
X140226500Y-72301969D01*
X140390000Y-72318072D01*
X140790000Y-72318072D01*
X140953500Y-72301969D01*
X141110716Y-72254278D01*
X141255608Y-72176831D01*
X141382606Y-72072606D01*
X141486831Y-71945608D01*
X141564278Y-71800716D01*
X141611969Y-71643500D01*
X141628072Y-71480000D01*
X141628072Y-71258061D01*
X153675000Y-71258061D01*
X153675000Y-71461939D01*
X153714774Y-71661898D01*
X153792795Y-71850256D01*
X153906063Y-72019774D01*
X154050226Y-72163937D01*
X154219744Y-72277205D01*
X154408102Y-72355226D01*
X154608061Y-72395000D01*
X154811939Y-72395000D01*
X155011898Y-72355226D01*
X155200256Y-72277205D01*
X155369774Y-72163937D01*
X155513937Y-72019774D01*
X155627205Y-71850256D01*
X155705226Y-71661898D01*
X155745000Y-71461939D01*
X155745000Y-71258061D01*
X155705226Y-71058102D01*
X155627205Y-70869744D01*
X155513937Y-70700226D01*
X155369774Y-70556063D01*
X155200256Y-70442795D01*
X155011898Y-70364774D01*
X154811939Y-70325000D01*
X154608061Y-70325000D01*
X154408102Y-70364774D01*
X154219744Y-70442795D01*
X154050226Y-70556063D01*
X153906063Y-70700226D01*
X153792795Y-70869744D01*
X153714774Y-71058102D01*
X153675000Y-71258061D01*
X141628072Y-71258061D01*
X141628072Y-70580000D01*
X141611969Y-70416500D01*
X141564278Y-70259284D01*
X141486831Y-70114392D01*
X141382606Y-69987394D01*
X141255608Y-69883169D01*
X141110716Y-69805722D01*
X140953500Y-69758031D01*
X140790000Y-69741928D01*
X140390000Y-69741928D01*
X140226500Y-69758031D01*
X140069284Y-69805722D01*
X139924392Y-69883169D01*
X139898106Y-69904741D01*
X139737993Y-69819159D01*
X139542895Y-69759976D01*
X139340000Y-69739993D01*
X139137106Y-69759976D01*
X138942008Y-69819159D01*
X138762204Y-69915266D01*
X138715001Y-69954005D01*
X138667797Y-69915266D01*
X138487993Y-69819159D01*
X138292895Y-69759976D01*
X138090000Y-69739993D01*
X137887106Y-69759976D01*
X137692008Y-69819159D01*
X137512204Y-69915266D01*
X137472063Y-69948209D01*
X137388160Y-69884745D01*
X137202972Y-69795006D01*
X137126123Y-69785334D01*
X136967000Y-69913002D01*
X136713000Y-69913002D01*
X136553877Y-69785334D01*
X136477028Y-69795006D01*
X136291840Y-69884745D01*
X136127717Y-70008888D01*
X135990967Y-70162664D01*
X135886845Y-70340164D01*
X135819352Y-70534567D01*
X135791082Y-70738401D01*
X131113290Y-70738401D01*
X131149110Y-70651925D01*
X131235000Y-70220128D01*
X131235000Y-69779872D01*
X131149110Y-69348075D01*
X131043512Y-69093137D01*
X149005000Y-69093137D01*
X149005000Y-69306863D01*
X149046696Y-69516483D01*
X149128485Y-69713940D01*
X149247225Y-69891647D01*
X149398353Y-70042775D01*
X149576060Y-70161515D01*
X149773517Y-70243304D01*
X149983137Y-70285000D01*
X150196863Y-70285000D01*
X150406483Y-70243304D01*
X150603940Y-70161515D01*
X150781647Y-70042775D01*
X150932775Y-69891647D01*
X151051515Y-69713940D01*
X151133304Y-69516483D01*
X151175000Y-69306863D01*
X151175000Y-69093137D01*
X152005000Y-69093137D01*
X152005000Y-69306863D01*
X152046696Y-69516483D01*
X152128485Y-69713940D01*
X152247225Y-69891647D01*
X152398353Y-70042775D01*
X152576060Y-70161515D01*
X152773517Y-70243304D01*
X152983137Y-70285000D01*
X153196863Y-70285000D01*
X153406483Y-70243304D01*
X153603940Y-70161515D01*
X153781647Y-70042775D01*
X153932775Y-69891647D01*
X154047551Y-69719872D01*
X178865000Y-69719872D01*
X178865000Y-70160128D01*
X178950890Y-70591925D01*
X179119369Y-70998669D01*
X179363962Y-71364729D01*
X179675271Y-71676038D01*
X180041331Y-71920631D01*
X180448075Y-72089110D01*
X180879872Y-72175000D01*
X181320128Y-72175000D01*
X181751925Y-72089110D01*
X182158669Y-71920631D01*
X182524729Y-71676038D01*
X182836038Y-71364729D01*
X183080631Y-70998669D01*
X183249110Y-70591925D01*
X183335000Y-70160128D01*
X183335000Y-69719872D01*
X183249110Y-69288075D01*
X183080631Y-68881331D01*
X182836038Y-68515271D01*
X182524729Y-68203962D01*
X182158669Y-67959369D01*
X181751925Y-67790890D01*
X181320128Y-67705000D01*
X180879872Y-67705000D01*
X180448075Y-67790890D01*
X180041331Y-67959369D01*
X179675271Y-68203962D01*
X179363962Y-68515271D01*
X179119369Y-68881331D01*
X178950890Y-69288075D01*
X178865000Y-69719872D01*
X154047551Y-69719872D01*
X154051515Y-69713940D01*
X154133304Y-69516483D01*
X154175000Y-69306863D01*
X154175000Y-69093137D01*
X154133304Y-68883517D01*
X154051515Y-68686060D01*
X153932775Y-68508353D01*
X153781647Y-68357225D01*
X153603940Y-68238485D01*
X153406483Y-68156696D01*
X153196863Y-68115000D01*
X152983137Y-68115000D01*
X152773517Y-68156696D01*
X152576060Y-68238485D01*
X152398353Y-68357225D01*
X152247225Y-68508353D01*
X152128485Y-68686060D01*
X152046696Y-68883517D01*
X152005000Y-69093137D01*
X151175000Y-69093137D01*
X151133304Y-68883517D01*
X151051515Y-68686060D01*
X150932775Y-68508353D01*
X150781647Y-68357225D01*
X150603940Y-68238485D01*
X150406483Y-68156696D01*
X150196863Y-68115000D01*
X149983137Y-68115000D01*
X149773517Y-68156696D01*
X149576060Y-68238485D01*
X149398353Y-68357225D01*
X149247225Y-68508353D01*
X149128485Y-68686060D01*
X149046696Y-68883517D01*
X149005000Y-69093137D01*
X131043512Y-69093137D01*
X130980631Y-68941331D01*
X130736038Y-68575271D01*
X130424729Y-68263962D01*
X130058669Y-68019369D01*
X129651925Y-67850890D01*
X129220128Y-67765000D01*
X128779872Y-67765000D01*
X128348075Y-67850890D01*
X127941331Y-68019369D01*
X127575271Y-68263962D01*
X127263962Y-68575271D01*
X127019369Y-68941331D01*
X126850890Y-69348075D01*
X126765000Y-69779872D01*
X125654748Y-69779872D01*
X125696714Y-69351874D01*
X125884943Y-68728428D01*
X126190681Y-68153421D01*
X126602279Y-67648753D01*
X127104067Y-67233638D01*
X127676924Y-66923895D01*
X128299039Y-66731318D01*
X128977584Y-66660000D01*
X167380473Y-66660000D01*
X167355000Y-66788061D01*
G37*
%TD.AperFunction*%
%TD*%
D18*
%TO.N,GND*%
X142073000Y-90079505D02*
X142052795Y-90109744D01*
X141974774Y-90298102D01*
X141935000Y-90498061D01*
X141935000Y-90701939D01*
X141974774Y-90901898D01*
X142052795Y-91090256D01*
X142073000Y-91120495D01*
X142073000Y-91370000D01*
X142075440Y-91394776D01*
X142082667Y-91418601D01*
X142094403Y-91440557D01*
X142110197Y-91459803D01*
X142129443Y-91475597D01*
X142151399Y-91487333D01*
X142175224Y-91494560D01*
X142200000Y-91497000D01*
X142449505Y-91497000D01*
X142479744Y-91517205D01*
X142668102Y-91595226D01*
X142868061Y-91635000D01*
X143071939Y-91635000D01*
X143271898Y-91595226D01*
X143460256Y-91517205D01*
X143490495Y-91497000D01*
X143717394Y-91497000D01*
X144680197Y-92459803D01*
X144699443Y-92475597D01*
X144721399Y-92487333D01*
X144745224Y-92494560D01*
X144771485Y-92496991D01*
X146353000Y-92478494D01*
X146353000Y-93263000D01*
X144210000Y-93263000D01*
X144185224Y-93265440D01*
X144161399Y-93272667D01*
X144139443Y-93284403D01*
X144120197Y-93300197D01*
X144104403Y-93319443D01*
X144092667Y-93341399D01*
X144085440Y-93365224D01*
X144083000Y-93390000D01*
X144083000Y-93873000D01*
X141800000Y-93873000D01*
X141775224Y-93875440D01*
X141751399Y-93882667D01*
X141729443Y-93894403D01*
X141710197Y-93910197D01*
X141694403Y-93929443D01*
X141682667Y-93951399D01*
X141675440Y-93975224D01*
X141673000Y-94000000D01*
X141673000Y-95883000D01*
X138627000Y-95883000D01*
X138627000Y-88057000D01*
X142073000Y-88057000D01*
X142073000Y-90079505D01*
%TA.AperFunction,Conductor*%
D19*
G36*
X142073000Y-90079505D02*
G01*
X142052795Y-90109744D01*
X141974774Y-90298102D01*
X141935000Y-90498061D01*
X141935000Y-90701939D01*
X141974774Y-90901898D01*
X142052795Y-91090256D01*
X142073000Y-91120495D01*
X142073000Y-91370000D01*
X142075440Y-91394776D01*
X142082667Y-91418601D01*
X142094403Y-91440557D01*
X142110197Y-91459803D01*
X142129443Y-91475597D01*
X142151399Y-91487333D01*
X142175224Y-91494560D01*
X142200000Y-91497000D01*
X142449505Y-91497000D01*
X142479744Y-91517205D01*
X142668102Y-91595226D01*
X142868061Y-91635000D01*
X143071939Y-91635000D01*
X143271898Y-91595226D01*
X143460256Y-91517205D01*
X143490495Y-91497000D01*
X143717394Y-91497000D01*
X144680197Y-92459803D01*
X144699443Y-92475597D01*
X144721399Y-92487333D01*
X144745224Y-92494560D01*
X144771485Y-92496991D01*
X146353000Y-92478494D01*
X146353000Y-93263000D01*
X144210000Y-93263000D01*
X144185224Y-93265440D01*
X144161399Y-93272667D01*
X144139443Y-93284403D01*
X144120197Y-93300197D01*
X144104403Y-93319443D01*
X144092667Y-93341399D01*
X144085440Y-93365224D01*
X144083000Y-93390000D01*
X144083000Y-93873000D01*
X141800000Y-93873000D01*
X141775224Y-93875440D01*
X141751399Y-93882667D01*
X141729443Y-93894403D01*
X141710197Y-93910197D01*
X141694403Y-93929443D01*
X141682667Y-93951399D01*
X141675440Y-93975224D01*
X141673000Y-94000000D01*
X141673000Y-95883000D01*
X138627000Y-95883000D01*
X138627000Y-88057000D01*
X142073000Y-88057000D01*
X142073000Y-90079505D01*
G37*
%TD.AperFunction*%
%TD*%
M02*
