%TF.GenerationSoftware,KiCad,Pcbnew,(5.1.8)-1*%
%TF.CreationDate,2021-01-21T22:43:38-05:00*%
%TF.ProjectId,Sensor Project,53656e73-6f72-4205-9072-6f6a6563742e,rev?*%
%TF.SameCoordinates,Original*%
%TF.FileFunction,Copper,L1,Top*%
%TF.FilePolarity,Positive*%
%FSLAX46Y46*%
G04 Gerber Fmt 4.6, Leading zero omitted, Abs format (unit mm)*
G04 Created by KiCad (PCBNEW (5.1.8)-1) date 2021-01-21 22:43:38*
%MOMM*%
%LPD*%
G01*
G04 APERTURE LIST*
%TA.AperFunction,SMDPad,CuDef*%
%ADD10R,0.800000X0.550000*%
%TD*%
%TA.AperFunction,ComponentPad*%
%ADD11O,1.800000X1.150000*%
%TD*%
%TA.AperFunction,ComponentPad*%
%ADD12O,2.000000X1.450000*%
%TD*%
%TA.AperFunction,SMDPad,CuDef*%
%ADD13R,1.300000X0.450000*%
%TD*%
%TA.AperFunction,SMDPad,CuDef*%
%ADD14R,0.700000X1.500000*%
%TD*%
%TA.AperFunction,SMDPad,CuDef*%
%ADD15R,1.000000X0.800000*%
%TD*%
%TA.AperFunction,ComponentPad*%
%ADD16C,2.400000*%
%TD*%
%TA.AperFunction,ComponentPad*%
%ADD17R,2.400000X2.400000*%
%TD*%
%TA.AperFunction,SMDPad,CuDef*%
%ADD18R,0.900000X1.200000*%
%TD*%
%TA.AperFunction,ComponentPad*%
%ADD19O,0.800000X1.300000*%
%TD*%
%TA.AperFunction,ComponentPad*%
%ADD20O,1.300000X0.800000*%
%TD*%
%TA.AperFunction,SMDPad,CuDef*%
%ADD21R,0.740000X2.400000*%
%TD*%
%TA.AperFunction,SMDPad,CuDef*%
%ADD22R,2.500000X1.900000*%
%TD*%
%TA.AperFunction,SMDPad,CuDef*%
%ADD23R,0.800000X0.900000*%
%TD*%
%TA.AperFunction,SMDPad,CuDef*%
%ADD24R,0.650000X1.060000*%
%TD*%
%TA.AperFunction,SMDPad,CuDef*%
%ADD25R,0.750000X0.500000*%
%TD*%
%TA.AperFunction,SMDPad,CuDef*%
%ADD26R,3.450000X4.350000*%
%TD*%
%TA.AperFunction,SMDPad,CuDef*%
%ADD27R,0.350000X0.500000*%
%TD*%
%TA.AperFunction,SMDPad,CuDef*%
%ADD28R,0.250000X0.475000*%
%TD*%
%TA.AperFunction,SMDPad,CuDef*%
%ADD29R,0.475000X0.250000*%
%TD*%
%TA.AperFunction,SMDPad,CuDef*%
%ADD30R,1.060000X0.650000*%
%TD*%
%TA.AperFunction,SMDPad,CuDef*%
%ADD31R,1.200000X1.400000*%
%TD*%
%TA.AperFunction,ViaPad*%
%ADD32C,0.800000*%
%TD*%
%TA.AperFunction,Conductor*%
%ADD33C,1.000000*%
%TD*%
%TA.AperFunction,Conductor*%
%ADD34C,0.750000*%
%TD*%
%TA.AperFunction,Conductor*%
%ADD35C,0.300000*%
%TD*%
%TA.AperFunction,Conductor*%
%ADD36C,0.500000*%
%TD*%
%TA.AperFunction,Conductor*%
%ADD37C,0.250000*%
%TD*%
%TA.AperFunction,Conductor*%
%ADD38C,0.261112*%
%TD*%
%TA.AperFunction,Conductor*%
%ADD39C,0.261100*%
%TD*%
G04 APERTURE END LIST*
D10*
%TO.P,D5,3*%
%TO.N,Net-(D5-Pad3)*%
X149340000Y-79200000D03*
%TO.P,D5,4*%
%TO.N,+3V3*%
X149340000Y-78300000D03*
%TO.P,D5,1*%
%TO.N,Net-(D5-Pad1)*%
X150940000Y-78300000D03*
%TO.P,D5,2*%
%TO.N,Net-(D5-Pad2)*%
X150940000Y-79200000D03*
%TD*%
%TO.P,C16,2*%
%TO.N,GND*%
%TA.AperFunction,SMDPad,CuDef*%
G36*
G01*
X140000000Y-94330000D02*
X140000000Y-94670000D01*
G75*
G02*
X139860000Y-94810000I-140000J0D01*
G01*
X139580000Y-94810000D01*
G75*
G02*
X139440000Y-94670000I0J140000D01*
G01*
X139440000Y-94330000D01*
G75*
G02*
X139580000Y-94190000I140000J0D01*
G01*
X139860000Y-94190000D01*
G75*
G02*
X140000000Y-94330000I0J-140000D01*
G01*
G37*
%TD.AperFunction*%
%TO.P,C16,1*%
%TO.N,Net-(C16-Pad1)*%
%TA.AperFunction,SMDPad,CuDef*%
G36*
G01*
X140960000Y-94330000D02*
X140960000Y-94670000D01*
G75*
G02*
X140820000Y-94810000I-140000J0D01*
G01*
X140540000Y-94810000D01*
G75*
G02*
X140400000Y-94670000I0J140000D01*
G01*
X140400000Y-94330000D01*
G75*
G02*
X140540000Y-94190000I140000J0D01*
G01*
X140820000Y-94190000D01*
G75*
G02*
X140960000Y-94330000I0J-140000D01*
G01*
G37*
%TD.AperFunction*%
%TD*%
%TO.P,C15,2*%
%TO.N,GND*%
%TA.AperFunction,SMDPad,CuDef*%
G36*
G01*
X140500000Y-89050000D02*
X140500000Y-88710000D01*
G75*
G02*
X140640000Y-88570000I140000J0D01*
G01*
X140920000Y-88570000D01*
G75*
G02*
X141060000Y-88710000I0J-140000D01*
G01*
X141060000Y-89050000D01*
G75*
G02*
X140920000Y-89190000I-140000J0D01*
G01*
X140640000Y-89190000D01*
G75*
G02*
X140500000Y-89050000I0J140000D01*
G01*
G37*
%TD.AperFunction*%
%TO.P,C15,1*%
%TO.N,HSE_IN*%
%TA.AperFunction,SMDPad,CuDef*%
G36*
G01*
X139540000Y-89050000D02*
X139540000Y-88710000D01*
G75*
G02*
X139680000Y-88570000I140000J0D01*
G01*
X139960000Y-88570000D01*
G75*
G02*
X140100000Y-88710000I0J-140000D01*
G01*
X140100000Y-89050000D01*
G75*
G02*
X139960000Y-89190000I-140000J0D01*
G01*
X139680000Y-89190000D01*
G75*
G02*
X139540000Y-89050000I0J140000D01*
G01*
G37*
%TD.AperFunction*%
%TD*%
D11*
%TO.P,J1,6*%
%TO.N,Net-(J1-Pad6)*%
X183100000Y-79595000D03*
X183100000Y-87345000D03*
D12*
X179300000Y-79745000D03*
X179300000Y-87195000D03*
D13*
%TO.P,J1,5*%
%TO.N,GND*%
X179250000Y-82170000D03*
%TO.P,J1,4*%
%TO.N,Net-(J1-Pad4)*%
X179250000Y-82820000D03*
%TO.P,J1,3*%
%TO.N,USB_CONN_D+*%
X179250000Y-83470000D03*
%TO.P,J1,2*%
%TO.N,USB_CONN_D-*%
X179250000Y-84120000D03*
%TO.P,J1,1*%
%TO.N,+5V*%
X179250000Y-84770000D03*
%TD*%
D14*
%TO.P,SW1,1*%
%TO.N,+3V3*%
X153840000Y-70960000D03*
%TO.P,SW1,2*%
%TO.N,Net-(D4-Pad2)*%
X150840000Y-70960000D03*
%TO.P,SW1,3*%
%TO.N,GND*%
X149340000Y-70960000D03*
D15*
%TO.P,SW1,*%
%TO.N,*%
X155240000Y-68100000D03*
X147940000Y-68100000D03*
X147940000Y-70310000D03*
X155240000Y-70310000D03*
%TD*%
%TO.P,FB1,2*%
%TO.N,Net-(F1-Pad1)*%
%TA.AperFunction,SMDPad,CuDef*%
G36*
G01*
X173255000Y-98048750D02*
X173255000Y-98811250D01*
G75*
G02*
X173036250Y-99030000I-218750J0D01*
G01*
X172598750Y-99030000D01*
G75*
G02*
X172380000Y-98811250I0J218750D01*
G01*
X172380000Y-98048750D01*
G75*
G02*
X172598750Y-97830000I218750J0D01*
G01*
X173036250Y-97830000D01*
G75*
G02*
X173255000Y-98048750I0J-218750D01*
G01*
G37*
%TD.AperFunction*%
%TO.P,FB1,1*%
%TO.N,Net-(C1-Pad1)*%
%TA.AperFunction,SMDPad,CuDef*%
G36*
G01*
X175380000Y-98048750D02*
X175380000Y-98811250D01*
G75*
G02*
X175161250Y-99030000I-218750J0D01*
G01*
X174723750Y-99030000D01*
G75*
G02*
X174505000Y-98811250I0J218750D01*
G01*
X174505000Y-98048750D01*
G75*
G02*
X174723750Y-97830000I218750J0D01*
G01*
X175161250Y-97830000D01*
G75*
G02*
X175380000Y-98048750I0J-218750D01*
G01*
G37*
%TD.AperFunction*%
%TD*%
D16*
%TO.P,J2,2*%
%TO.N,GND*%
X179860000Y-93830000D03*
D17*
%TO.P,J2,1*%
%TO.N,VCC*%
X179860000Y-97330000D03*
%TD*%
%TO.P,U2,1*%
%TO.N,+3V3*%
%TA.AperFunction,SMDPad,CuDef*%
G36*
G01*
X144910000Y-90715000D02*
X144910000Y-90565000D01*
G75*
G02*
X144985000Y-90490000I75000J0D01*
G01*
X146385000Y-90490000D01*
G75*
G02*
X146460000Y-90565000I0J-75000D01*
G01*
X146460000Y-90715000D01*
G75*
G02*
X146385000Y-90790000I-75000J0D01*
G01*
X144985000Y-90790000D01*
G75*
G02*
X144910000Y-90715000I0J75000D01*
G01*
G37*
%TD.AperFunction*%
%TO.P,U2,2*%
%TO.N,Net-(U2-Pad2)*%
%TA.AperFunction,SMDPad,CuDef*%
G36*
G01*
X144910000Y-91215000D02*
X144910000Y-91065000D01*
G75*
G02*
X144985000Y-90990000I75000J0D01*
G01*
X146385000Y-90990000D01*
G75*
G02*
X146460000Y-91065000I0J-75000D01*
G01*
X146460000Y-91215000D01*
G75*
G02*
X146385000Y-91290000I-75000J0D01*
G01*
X144985000Y-91290000D01*
G75*
G02*
X144910000Y-91215000I0J75000D01*
G01*
G37*
%TD.AperFunction*%
%TO.P,U2,3*%
%TO.N,Net-(U2-Pad3)*%
%TA.AperFunction,SMDPad,CuDef*%
G36*
G01*
X144910000Y-91715000D02*
X144910000Y-91565000D01*
G75*
G02*
X144985000Y-91490000I75000J0D01*
G01*
X146385000Y-91490000D01*
G75*
G02*
X146460000Y-91565000I0J-75000D01*
G01*
X146460000Y-91715000D01*
G75*
G02*
X146385000Y-91790000I-75000J0D01*
G01*
X144985000Y-91790000D01*
G75*
G02*
X144910000Y-91715000I0J75000D01*
G01*
G37*
%TD.AperFunction*%
%TO.P,U2,4*%
%TO.N,Net-(U2-Pad4)*%
%TA.AperFunction,SMDPad,CuDef*%
G36*
G01*
X144910000Y-92215000D02*
X144910000Y-92065000D01*
G75*
G02*
X144985000Y-91990000I75000J0D01*
G01*
X146385000Y-91990000D01*
G75*
G02*
X146460000Y-92065000I0J-75000D01*
G01*
X146460000Y-92215000D01*
G75*
G02*
X146385000Y-92290000I-75000J0D01*
G01*
X144985000Y-92290000D01*
G75*
G02*
X144910000Y-92215000I0J75000D01*
G01*
G37*
%TD.AperFunction*%
%TO.P,U2,5*%
%TO.N,HSE_IN*%
%TA.AperFunction,SMDPad,CuDef*%
G36*
G01*
X144910000Y-92715000D02*
X144910000Y-92565000D01*
G75*
G02*
X144985000Y-92490000I75000J0D01*
G01*
X146385000Y-92490000D01*
G75*
G02*
X146460000Y-92565000I0J-75000D01*
G01*
X146460000Y-92715000D01*
G75*
G02*
X146385000Y-92790000I-75000J0D01*
G01*
X144985000Y-92790000D01*
G75*
G02*
X144910000Y-92715000I0J75000D01*
G01*
G37*
%TD.AperFunction*%
%TO.P,U2,6*%
%TO.N,HSE_OUT*%
%TA.AperFunction,SMDPad,CuDef*%
G36*
G01*
X144910000Y-93215000D02*
X144910000Y-93065000D01*
G75*
G02*
X144985000Y-92990000I75000J0D01*
G01*
X146385000Y-92990000D01*
G75*
G02*
X146460000Y-93065000I0J-75000D01*
G01*
X146460000Y-93215000D01*
G75*
G02*
X146385000Y-93290000I-75000J0D01*
G01*
X144985000Y-93290000D01*
G75*
G02*
X144910000Y-93215000I0J75000D01*
G01*
G37*
%TD.AperFunction*%
%TO.P,U2,7*%
%TO.N,NRST*%
%TA.AperFunction,SMDPad,CuDef*%
G36*
G01*
X144910000Y-93715000D02*
X144910000Y-93565000D01*
G75*
G02*
X144985000Y-93490000I75000J0D01*
G01*
X146385000Y-93490000D01*
G75*
G02*
X146460000Y-93565000I0J-75000D01*
G01*
X146460000Y-93715000D01*
G75*
G02*
X146385000Y-93790000I-75000J0D01*
G01*
X144985000Y-93790000D01*
G75*
G02*
X144910000Y-93715000I0J75000D01*
G01*
G37*
%TD.AperFunction*%
%TO.P,U2,8*%
%TO.N,Net-(U2-Pad8)*%
%TA.AperFunction,SMDPad,CuDef*%
G36*
G01*
X144910000Y-94215000D02*
X144910000Y-94065000D01*
G75*
G02*
X144985000Y-93990000I75000J0D01*
G01*
X146385000Y-93990000D01*
G75*
G02*
X146460000Y-94065000I0J-75000D01*
G01*
X146460000Y-94215000D01*
G75*
G02*
X146385000Y-94290000I-75000J0D01*
G01*
X144985000Y-94290000D01*
G75*
G02*
X144910000Y-94215000I0J75000D01*
G01*
G37*
%TD.AperFunction*%
%TO.P,U2,9*%
%TO.N,Net-(U2-Pad9)*%
%TA.AperFunction,SMDPad,CuDef*%
G36*
G01*
X144910000Y-94715000D02*
X144910000Y-94565000D01*
G75*
G02*
X144985000Y-94490000I75000J0D01*
G01*
X146385000Y-94490000D01*
G75*
G02*
X146460000Y-94565000I0J-75000D01*
G01*
X146460000Y-94715000D01*
G75*
G02*
X146385000Y-94790000I-75000J0D01*
G01*
X144985000Y-94790000D01*
G75*
G02*
X144910000Y-94715000I0J75000D01*
G01*
G37*
%TD.AperFunction*%
%TO.P,U2,10*%
%TO.N,INT_ACC*%
%TA.AperFunction,SMDPad,CuDef*%
G36*
G01*
X144910000Y-95215000D02*
X144910000Y-95065000D01*
G75*
G02*
X144985000Y-94990000I75000J0D01*
G01*
X146385000Y-94990000D01*
G75*
G02*
X146460000Y-95065000I0J-75000D01*
G01*
X146460000Y-95215000D01*
G75*
G02*
X146385000Y-95290000I-75000J0D01*
G01*
X144985000Y-95290000D01*
G75*
G02*
X144910000Y-95215000I0J75000D01*
G01*
G37*
%TD.AperFunction*%
%TO.P,U2,11*%
%TO.N,INT_GYR*%
%TA.AperFunction,SMDPad,CuDef*%
G36*
G01*
X144910000Y-95715000D02*
X144910000Y-95565000D01*
G75*
G02*
X144985000Y-95490000I75000J0D01*
G01*
X146385000Y-95490000D01*
G75*
G02*
X146460000Y-95565000I0J-75000D01*
G01*
X146460000Y-95715000D01*
G75*
G02*
X146385000Y-95790000I-75000J0D01*
G01*
X144985000Y-95790000D01*
G75*
G02*
X144910000Y-95715000I0J75000D01*
G01*
G37*
%TD.AperFunction*%
%TO.P,U2,12*%
%TO.N,GND*%
%TA.AperFunction,SMDPad,CuDef*%
G36*
G01*
X144910000Y-96215000D02*
X144910000Y-96065000D01*
G75*
G02*
X144985000Y-95990000I75000J0D01*
G01*
X146385000Y-95990000D01*
G75*
G02*
X146460000Y-96065000I0J-75000D01*
G01*
X146460000Y-96215000D01*
G75*
G02*
X146385000Y-96290000I-75000J0D01*
G01*
X144985000Y-96290000D01*
G75*
G02*
X144910000Y-96215000I0J75000D01*
G01*
G37*
%TD.AperFunction*%
%TO.P,U2,13*%
%TO.N,+3.3VA*%
%TA.AperFunction,SMDPad,CuDef*%
G36*
G01*
X144910000Y-96715000D02*
X144910000Y-96565000D01*
G75*
G02*
X144985000Y-96490000I75000J0D01*
G01*
X146385000Y-96490000D01*
G75*
G02*
X146460000Y-96565000I0J-75000D01*
G01*
X146460000Y-96715000D01*
G75*
G02*
X146385000Y-96790000I-75000J0D01*
G01*
X144985000Y-96790000D01*
G75*
G02*
X144910000Y-96715000I0J75000D01*
G01*
G37*
%TD.AperFunction*%
%TO.P,U2,14*%
%TO.N,ADC1_IN0*%
%TA.AperFunction,SMDPad,CuDef*%
G36*
G01*
X144910000Y-97215000D02*
X144910000Y-97065000D01*
G75*
G02*
X144985000Y-96990000I75000J0D01*
G01*
X146385000Y-96990000D01*
G75*
G02*
X146460000Y-97065000I0J-75000D01*
G01*
X146460000Y-97215000D01*
G75*
G02*
X146385000Y-97290000I-75000J0D01*
G01*
X144985000Y-97290000D01*
G75*
G02*
X144910000Y-97215000I0J75000D01*
G01*
G37*
%TD.AperFunction*%
%TO.P,U2,15*%
%TO.N,ADC1_IN1*%
%TA.AperFunction,SMDPad,CuDef*%
G36*
G01*
X144910000Y-97715000D02*
X144910000Y-97565000D01*
G75*
G02*
X144985000Y-97490000I75000J0D01*
G01*
X146385000Y-97490000D01*
G75*
G02*
X146460000Y-97565000I0J-75000D01*
G01*
X146460000Y-97715000D01*
G75*
G02*
X146385000Y-97790000I-75000J0D01*
G01*
X144985000Y-97790000D01*
G75*
G02*
X144910000Y-97715000I0J75000D01*
G01*
G37*
%TD.AperFunction*%
%TO.P,U2,16*%
%TO.N,ADC1_IN2*%
%TA.AperFunction,SMDPad,CuDef*%
G36*
G01*
X144910000Y-98215000D02*
X144910000Y-98065000D01*
G75*
G02*
X144985000Y-97990000I75000J0D01*
G01*
X146385000Y-97990000D01*
G75*
G02*
X146460000Y-98065000I0J-75000D01*
G01*
X146460000Y-98215000D01*
G75*
G02*
X146385000Y-98290000I-75000J0D01*
G01*
X144985000Y-98290000D01*
G75*
G02*
X144910000Y-98215000I0J75000D01*
G01*
G37*
%TD.AperFunction*%
%TO.P,U2,17*%
%TO.N,ADC1_IN3*%
%TA.AperFunction,SMDPad,CuDef*%
G36*
G01*
X147460000Y-100765000D02*
X147460000Y-99365000D01*
G75*
G02*
X147535000Y-99290000I75000J0D01*
G01*
X147685000Y-99290000D01*
G75*
G02*
X147760000Y-99365000I0J-75000D01*
G01*
X147760000Y-100765000D01*
G75*
G02*
X147685000Y-100840000I-75000J0D01*
G01*
X147535000Y-100840000D01*
G75*
G02*
X147460000Y-100765000I0J75000D01*
G01*
G37*
%TD.AperFunction*%
%TO.P,U2,18*%
%TO.N,GND*%
%TA.AperFunction,SMDPad,CuDef*%
G36*
G01*
X147960000Y-100765000D02*
X147960000Y-99365000D01*
G75*
G02*
X148035000Y-99290000I75000J0D01*
G01*
X148185000Y-99290000D01*
G75*
G02*
X148260000Y-99365000I0J-75000D01*
G01*
X148260000Y-100765000D01*
G75*
G02*
X148185000Y-100840000I-75000J0D01*
G01*
X148035000Y-100840000D01*
G75*
G02*
X147960000Y-100765000I0J75000D01*
G01*
G37*
%TD.AperFunction*%
%TO.P,U2,19*%
%TO.N,+3V3*%
%TA.AperFunction,SMDPad,CuDef*%
G36*
G01*
X148460000Y-100765000D02*
X148460000Y-99365000D01*
G75*
G02*
X148535000Y-99290000I75000J0D01*
G01*
X148685000Y-99290000D01*
G75*
G02*
X148760000Y-99365000I0J-75000D01*
G01*
X148760000Y-100765000D01*
G75*
G02*
X148685000Y-100840000I-75000J0D01*
G01*
X148535000Y-100840000D01*
G75*
G02*
X148460000Y-100765000I0J75000D01*
G01*
G37*
%TD.AperFunction*%
%TO.P,U2,20*%
%TO.N,SPI1_!CS_ACC*%
%TA.AperFunction,SMDPad,CuDef*%
G36*
G01*
X148960000Y-100765000D02*
X148960000Y-99365000D01*
G75*
G02*
X149035000Y-99290000I75000J0D01*
G01*
X149185000Y-99290000D01*
G75*
G02*
X149260000Y-99365000I0J-75000D01*
G01*
X149260000Y-100765000D01*
G75*
G02*
X149185000Y-100840000I-75000J0D01*
G01*
X149035000Y-100840000D01*
G75*
G02*
X148960000Y-100765000I0J75000D01*
G01*
G37*
%TD.AperFunction*%
%TO.P,U2,21*%
%TO.N,SPI1_SCK*%
%TA.AperFunction,SMDPad,CuDef*%
G36*
G01*
X149460000Y-100765000D02*
X149460000Y-99365000D01*
G75*
G02*
X149535000Y-99290000I75000J0D01*
G01*
X149685000Y-99290000D01*
G75*
G02*
X149760000Y-99365000I0J-75000D01*
G01*
X149760000Y-100765000D01*
G75*
G02*
X149685000Y-100840000I-75000J0D01*
G01*
X149535000Y-100840000D01*
G75*
G02*
X149460000Y-100765000I0J75000D01*
G01*
G37*
%TD.AperFunction*%
%TO.P,U2,22*%
%TO.N,SPI1_MISO*%
%TA.AperFunction,SMDPad,CuDef*%
G36*
G01*
X149960000Y-100765000D02*
X149960000Y-99365000D01*
G75*
G02*
X150035000Y-99290000I75000J0D01*
G01*
X150185000Y-99290000D01*
G75*
G02*
X150260000Y-99365000I0J-75000D01*
G01*
X150260000Y-100765000D01*
G75*
G02*
X150185000Y-100840000I-75000J0D01*
G01*
X150035000Y-100840000D01*
G75*
G02*
X149960000Y-100765000I0J75000D01*
G01*
G37*
%TD.AperFunction*%
%TO.P,U2,23*%
%TO.N,SPI1_MOSI*%
%TA.AperFunction,SMDPad,CuDef*%
G36*
G01*
X150460000Y-100765000D02*
X150460000Y-99365000D01*
G75*
G02*
X150535000Y-99290000I75000J0D01*
G01*
X150685000Y-99290000D01*
G75*
G02*
X150760000Y-99365000I0J-75000D01*
G01*
X150760000Y-100765000D01*
G75*
G02*
X150685000Y-100840000I-75000J0D01*
G01*
X150535000Y-100840000D01*
G75*
G02*
X150460000Y-100765000I0J75000D01*
G01*
G37*
%TD.AperFunction*%
%TO.P,U2,24*%
%TO.N,SPI1_!CS_GYR*%
%TA.AperFunction,SMDPad,CuDef*%
G36*
G01*
X150960000Y-100765000D02*
X150960000Y-99365000D01*
G75*
G02*
X151035000Y-99290000I75000J0D01*
G01*
X151185000Y-99290000D01*
G75*
G02*
X151260000Y-99365000I0J-75000D01*
G01*
X151260000Y-100765000D01*
G75*
G02*
X151185000Y-100840000I-75000J0D01*
G01*
X151035000Y-100840000D01*
G75*
G02*
X150960000Y-100765000I0J75000D01*
G01*
G37*
%TD.AperFunction*%
%TO.P,U2,25*%
%TO.N,Net-(U2-Pad25)*%
%TA.AperFunction,SMDPad,CuDef*%
G36*
G01*
X151460000Y-100765000D02*
X151460000Y-99365000D01*
G75*
G02*
X151535000Y-99290000I75000J0D01*
G01*
X151685000Y-99290000D01*
G75*
G02*
X151760000Y-99365000I0J-75000D01*
G01*
X151760000Y-100765000D01*
G75*
G02*
X151685000Y-100840000I-75000J0D01*
G01*
X151535000Y-100840000D01*
G75*
G02*
X151460000Y-100765000I0J75000D01*
G01*
G37*
%TD.AperFunction*%
%TO.P,U2,26*%
%TO.N,TIM3_CH3*%
%TA.AperFunction,SMDPad,CuDef*%
G36*
G01*
X151960000Y-100765000D02*
X151960000Y-99365000D01*
G75*
G02*
X152035000Y-99290000I75000J0D01*
G01*
X152185000Y-99290000D01*
G75*
G02*
X152260000Y-99365000I0J-75000D01*
G01*
X152260000Y-100765000D01*
G75*
G02*
X152185000Y-100840000I-75000J0D01*
G01*
X152035000Y-100840000D01*
G75*
G02*
X151960000Y-100765000I0J75000D01*
G01*
G37*
%TD.AperFunction*%
%TO.P,U2,27*%
%TO.N,TIM3_CH4*%
%TA.AperFunction,SMDPad,CuDef*%
G36*
G01*
X152460000Y-100765000D02*
X152460000Y-99365000D01*
G75*
G02*
X152535000Y-99290000I75000J0D01*
G01*
X152685000Y-99290000D01*
G75*
G02*
X152760000Y-99365000I0J-75000D01*
G01*
X152760000Y-100765000D01*
G75*
G02*
X152685000Y-100840000I-75000J0D01*
G01*
X152535000Y-100840000D01*
G75*
G02*
X152460000Y-100765000I0J75000D01*
G01*
G37*
%TD.AperFunction*%
%TO.P,U2,28*%
%TO.N,BOOT1*%
%TA.AperFunction,SMDPad,CuDef*%
G36*
G01*
X152960000Y-100765000D02*
X152960000Y-99365000D01*
G75*
G02*
X153035000Y-99290000I75000J0D01*
G01*
X153185000Y-99290000D01*
G75*
G02*
X153260000Y-99365000I0J-75000D01*
G01*
X153260000Y-100765000D01*
G75*
G02*
X153185000Y-100840000I-75000J0D01*
G01*
X153035000Y-100840000D01*
G75*
G02*
X152960000Y-100765000I0J75000D01*
G01*
G37*
%TD.AperFunction*%
%TO.P,U2,29*%
%TO.N,TIM2_CH3*%
%TA.AperFunction,SMDPad,CuDef*%
G36*
G01*
X153460000Y-100765000D02*
X153460000Y-99365000D01*
G75*
G02*
X153535000Y-99290000I75000J0D01*
G01*
X153685000Y-99290000D01*
G75*
G02*
X153760000Y-99365000I0J-75000D01*
G01*
X153760000Y-100765000D01*
G75*
G02*
X153685000Y-100840000I-75000J0D01*
G01*
X153535000Y-100840000D01*
G75*
G02*
X153460000Y-100765000I0J75000D01*
G01*
G37*
%TD.AperFunction*%
%TO.P,U2,30*%
%TO.N,TIM2_CH4*%
%TA.AperFunction,SMDPad,CuDef*%
G36*
G01*
X153960000Y-100765000D02*
X153960000Y-99365000D01*
G75*
G02*
X154035000Y-99290000I75000J0D01*
G01*
X154185000Y-99290000D01*
G75*
G02*
X154260000Y-99365000I0J-75000D01*
G01*
X154260000Y-100765000D01*
G75*
G02*
X154185000Y-100840000I-75000J0D01*
G01*
X154035000Y-100840000D01*
G75*
G02*
X153960000Y-100765000I0J75000D01*
G01*
G37*
%TD.AperFunction*%
%TO.P,U2,31*%
%TO.N,Net-(C6-Pad1)*%
%TA.AperFunction,SMDPad,CuDef*%
G36*
G01*
X154460000Y-100765000D02*
X154460000Y-99365000D01*
G75*
G02*
X154535000Y-99290000I75000J0D01*
G01*
X154685000Y-99290000D01*
G75*
G02*
X154760000Y-99365000I0J-75000D01*
G01*
X154760000Y-100765000D01*
G75*
G02*
X154685000Y-100840000I-75000J0D01*
G01*
X154535000Y-100840000D01*
G75*
G02*
X154460000Y-100765000I0J75000D01*
G01*
G37*
%TD.AperFunction*%
%TO.P,U2,32*%
%TO.N,+3V3*%
%TA.AperFunction,SMDPad,CuDef*%
G36*
G01*
X154960000Y-100765000D02*
X154960000Y-99365000D01*
G75*
G02*
X155035000Y-99290000I75000J0D01*
G01*
X155185000Y-99290000D01*
G75*
G02*
X155260000Y-99365000I0J-75000D01*
G01*
X155260000Y-100765000D01*
G75*
G02*
X155185000Y-100840000I-75000J0D01*
G01*
X155035000Y-100840000D01*
G75*
G02*
X154960000Y-100765000I0J75000D01*
G01*
G37*
%TD.AperFunction*%
%TO.P,U2,33*%
%TO.N,SPI2_!CS*%
%TA.AperFunction,SMDPad,CuDef*%
G36*
G01*
X156260000Y-98215000D02*
X156260000Y-98065000D01*
G75*
G02*
X156335000Y-97990000I75000J0D01*
G01*
X157735000Y-97990000D01*
G75*
G02*
X157810000Y-98065000I0J-75000D01*
G01*
X157810000Y-98215000D01*
G75*
G02*
X157735000Y-98290000I-75000J0D01*
G01*
X156335000Y-98290000D01*
G75*
G02*
X156260000Y-98215000I0J75000D01*
G01*
G37*
%TD.AperFunction*%
%TO.P,U2,34*%
%TO.N,SPI2_SCK*%
%TA.AperFunction,SMDPad,CuDef*%
G36*
G01*
X156260000Y-97715000D02*
X156260000Y-97565000D01*
G75*
G02*
X156335000Y-97490000I75000J0D01*
G01*
X157735000Y-97490000D01*
G75*
G02*
X157810000Y-97565000I0J-75000D01*
G01*
X157810000Y-97715000D01*
G75*
G02*
X157735000Y-97790000I-75000J0D01*
G01*
X156335000Y-97790000D01*
G75*
G02*
X156260000Y-97715000I0J75000D01*
G01*
G37*
%TD.AperFunction*%
%TO.P,U2,35*%
%TO.N,SPI2_MISO*%
%TA.AperFunction,SMDPad,CuDef*%
G36*
G01*
X156260000Y-97215000D02*
X156260000Y-97065000D01*
G75*
G02*
X156335000Y-96990000I75000J0D01*
G01*
X157735000Y-96990000D01*
G75*
G02*
X157810000Y-97065000I0J-75000D01*
G01*
X157810000Y-97215000D01*
G75*
G02*
X157735000Y-97290000I-75000J0D01*
G01*
X156335000Y-97290000D01*
G75*
G02*
X156260000Y-97215000I0J75000D01*
G01*
G37*
%TD.AperFunction*%
%TO.P,U2,36*%
%TO.N,SPI2_MOSI*%
%TA.AperFunction,SMDPad,CuDef*%
G36*
G01*
X156260000Y-96715000D02*
X156260000Y-96565000D01*
G75*
G02*
X156335000Y-96490000I75000J0D01*
G01*
X157735000Y-96490000D01*
G75*
G02*
X157810000Y-96565000I0J-75000D01*
G01*
X157810000Y-96715000D01*
G75*
G02*
X157735000Y-96790000I-75000J0D01*
G01*
X156335000Y-96790000D01*
G75*
G02*
X156260000Y-96715000I0J75000D01*
G01*
G37*
%TD.AperFunction*%
%TO.P,U2,37*%
%TO.N,FLASH_!HOLD*%
%TA.AperFunction,SMDPad,CuDef*%
G36*
G01*
X156260000Y-96215000D02*
X156260000Y-96065000D01*
G75*
G02*
X156335000Y-95990000I75000J0D01*
G01*
X157735000Y-95990000D01*
G75*
G02*
X157810000Y-96065000I0J-75000D01*
G01*
X157810000Y-96215000D01*
G75*
G02*
X157735000Y-96290000I-75000J0D01*
G01*
X156335000Y-96290000D01*
G75*
G02*
X156260000Y-96215000I0J75000D01*
G01*
G37*
%TD.AperFunction*%
%TO.P,U2,38*%
%TO.N,FLASH_!WP*%
%TA.AperFunction,SMDPad,CuDef*%
G36*
G01*
X156260000Y-95715000D02*
X156260000Y-95565000D01*
G75*
G02*
X156335000Y-95490000I75000J0D01*
G01*
X157735000Y-95490000D01*
G75*
G02*
X157810000Y-95565000I0J-75000D01*
G01*
X157810000Y-95715000D01*
G75*
G02*
X157735000Y-95790000I-75000J0D01*
G01*
X156335000Y-95790000D01*
G75*
G02*
X156260000Y-95715000I0J75000D01*
G01*
G37*
%TD.AperFunction*%
%TO.P,U2,39*%
%TO.N,Net-(U2-Pad39)*%
%TA.AperFunction,SMDPad,CuDef*%
G36*
G01*
X156260000Y-95215000D02*
X156260000Y-95065000D01*
G75*
G02*
X156335000Y-94990000I75000J0D01*
G01*
X157735000Y-94990000D01*
G75*
G02*
X157810000Y-95065000I0J-75000D01*
G01*
X157810000Y-95215000D01*
G75*
G02*
X157735000Y-95290000I-75000J0D01*
G01*
X156335000Y-95290000D01*
G75*
G02*
X156260000Y-95215000I0J75000D01*
G01*
G37*
%TD.AperFunction*%
%TO.P,U2,40*%
%TO.N,Net-(U2-Pad40)*%
%TA.AperFunction,SMDPad,CuDef*%
G36*
G01*
X156260000Y-94715000D02*
X156260000Y-94565000D01*
G75*
G02*
X156335000Y-94490000I75000J0D01*
G01*
X157735000Y-94490000D01*
G75*
G02*
X157810000Y-94565000I0J-75000D01*
G01*
X157810000Y-94715000D01*
G75*
G02*
X157735000Y-94790000I-75000J0D01*
G01*
X156335000Y-94790000D01*
G75*
G02*
X156260000Y-94715000I0J75000D01*
G01*
G37*
%TD.AperFunction*%
%TO.P,U2,41*%
%TO.N,Net-(U2-Pad41)*%
%TA.AperFunction,SMDPad,CuDef*%
G36*
G01*
X156260000Y-94215000D02*
X156260000Y-94065000D01*
G75*
G02*
X156335000Y-93990000I75000J0D01*
G01*
X157735000Y-93990000D01*
G75*
G02*
X157810000Y-94065000I0J-75000D01*
G01*
X157810000Y-94215000D01*
G75*
G02*
X157735000Y-94290000I-75000J0D01*
G01*
X156335000Y-94290000D01*
G75*
G02*
X156260000Y-94215000I0J75000D01*
G01*
G37*
%TD.AperFunction*%
%TO.P,U2,42*%
%TO.N,USART1_TX*%
%TA.AperFunction,SMDPad,CuDef*%
G36*
G01*
X156260000Y-93715000D02*
X156260000Y-93565000D01*
G75*
G02*
X156335000Y-93490000I75000J0D01*
G01*
X157735000Y-93490000D01*
G75*
G02*
X157810000Y-93565000I0J-75000D01*
G01*
X157810000Y-93715000D01*
G75*
G02*
X157735000Y-93790000I-75000J0D01*
G01*
X156335000Y-93790000D01*
G75*
G02*
X156260000Y-93715000I0J75000D01*
G01*
G37*
%TD.AperFunction*%
%TO.P,U2,43*%
%TO.N,USART1_RX*%
%TA.AperFunction,SMDPad,CuDef*%
G36*
G01*
X156260000Y-93215000D02*
X156260000Y-93065000D01*
G75*
G02*
X156335000Y-92990000I75000J0D01*
G01*
X157735000Y-92990000D01*
G75*
G02*
X157810000Y-93065000I0J-75000D01*
G01*
X157810000Y-93215000D01*
G75*
G02*
X157735000Y-93290000I-75000J0D01*
G01*
X156335000Y-93290000D01*
G75*
G02*
X156260000Y-93215000I0J75000D01*
G01*
G37*
%TD.AperFunction*%
%TO.P,U2,44*%
%TO.N,USB_D-*%
%TA.AperFunction,SMDPad,CuDef*%
G36*
G01*
X156260000Y-92715000D02*
X156260000Y-92565000D01*
G75*
G02*
X156335000Y-92490000I75000J0D01*
G01*
X157735000Y-92490000D01*
G75*
G02*
X157810000Y-92565000I0J-75000D01*
G01*
X157810000Y-92715000D01*
G75*
G02*
X157735000Y-92790000I-75000J0D01*
G01*
X156335000Y-92790000D01*
G75*
G02*
X156260000Y-92715000I0J75000D01*
G01*
G37*
%TD.AperFunction*%
%TO.P,U2,45*%
%TO.N,USB_D+*%
%TA.AperFunction,SMDPad,CuDef*%
G36*
G01*
X156260000Y-92215000D02*
X156260000Y-92065000D01*
G75*
G02*
X156335000Y-91990000I75000J0D01*
G01*
X157735000Y-91990000D01*
G75*
G02*
X157810000Y-92065000I0J-75000D01*
G01*
X157810000Y-92215000D01*
G75*
G02*
X157735000Y-92290000I-75000J0D01*
G01*
X156335000Y-92290000D01*
G75*
G02*
X156260000Y-92215000I0J75000D01*
G01*
G37*
%TD.AperFunction*%
%TO.P,U2,46*%
%TO.N,SWDIO*%
%TA.AperFunction,SMDPad,CuDef*%
G36*
G01*
X156260000Y-91715000D02*
X156260000Y-91565000D01*
G75*
G02*
X156335000Y-91490000I75000J0D01*
G01*
X157735000Y-91490000D01*
G75*
G02*
X157810000Y-91565000I0J-75000D01*
G01*
X157810000Y-91715000D01*
G75*
G02*
X157735000Y-91790000I-75000J0D01*
G01*
X156335000Y-91790000D01*
G75*
G02*
X156260000Y-91715000I0J75000D01*
G01*
G37*
%TD.AperFunction*%
%TO.P,U2,47*%
%TO.N,Net-(C8-Pad1)*%
%TA.AperFunction,SMDPad,CuDef*%
G36*
G01*
X156260000Y-91215000D02*
X156260000Y-91065000D01*
G75*
G02*
X156335000Y-90990000I75000J0D01*
G01*
X157735000Y-90990000D01*
G75*
G02*
X157810000Y-91065000I0J-75000D01*
G01*
X157810000Y-91215000D01*
G75*
G02*
X157735000Y-91290000I-75000J0D01*
G01*
X156335000Y-91290000D01*
G75*
G02*
X156260000Y-91215000I0J75000D01*
G01*
G37*
%TD.AperFunction*%
%TO.P,U2,48*%
%TO.N,+3V3*%
%TA.AperFunction,SMDPad,CuDef*%
G36*
G01*
X156260000Y-90715000D02*
X156260000Y-90565000D01*
G75*
G02*
X156335000Y-90490000I75000J0D01*
G01*
X157735000Y-90490000D01*
G75*
G02*
X157810000Y-90565000I0J-75000D01*
G01*
X157810000Y-90715000D01*
G75*
G02*
X157735000Y-90790000I-75000J0D01*
G01*
X156335000Y-90790000D01*
G75*
G02*
X156260000Y-90715000I0J75000D01*
G01*
G37*
%TD.AperFunction*%
%TO.P,U2,49*%
%TO.N,SWCLK*%
%TA.AperFunction,SMDPad,CuDef*%
G36*
G01*
X154960000Y-89415000D02*
X154960000Y-88015000D01*
G75*
G02*
X155035000Y-87940000I75000J0D01*
G01*
X155185000Y-87940000D01*
G75*
G02*
X155260000Y-88015000I0J-75000D01*
G01*
X155260000Y-89415000D01*
G75*
G02*
X155185000Y-89490000I-75000J0D01*
G01*
X155035000Y-89490000D01*
G75*
G02*
X154960000Y-89415000I0J75000D01*
G01*
G37*
%TD.AperFunction*%
%TO.P,U2,50*%
%TO.N,SPI3_!CS*%
%TA.AperFunction,SMDPad,CuDef*%
G36*
G01*
X154460000Y-89415000D02*
X154460000Y-88015000D01*
G75*
G02*
X154535000Y-87940000I75000J0D01*
G01*
X154685000Y-87940000D01*
G75*
G02*
X154760000Y-88015000I0J-75000D01*
G01*
X154760000Y-89415000D01*
G75*
G02*
X154685000Y-89490000I-75000J0D01*
G01*
X154535000Y-89490000D01*
G75*
G02*
X154460000Y-89415000I0J75000D01*
G01*
G37*
%TD.AperFunction*%
%TO.P,U2,51*%
%TO.N,SPI3_SCK*%
%TA.AperFunction,SMDPad,CuDef*%
G36*
G01*
X153960000Y-89415000D02*
X153960000Y-88015000D01*
G75*
G02*
X154035000Y-87940000I75000J0D01*
G01*
X154185000Y-87940000D01*
G75*
G02*
X154260000Y-88015000I0J-75000D01*
G01*
X154260000Y-89415000D01*
G75*
G02*
X154185000Y-89490000I-75000J0D01*
G01*
X154035000Y-89490000D01*
G75*
G02*
X153960000Y-89415000I0J75000D01*
G01*
G37*
%TD.AperFunction*%
%TO.P,U2,52*%
%TO.N,SPI3_MISO*%
%TA.AperFunction,SMDPad,CuDef*%
G36*
G01*
X153460000Y-89415000D02*
X153460000Y-88015000D01*
G75*
G02*
X153535000Y-87940000I75000J0D01*
G01*
X153685000Y-87940000D01*
G75*
G02*
X153760000Y-88015000I0J-75000D01*
G01*
X153760000Y-89415000D01*
G75*
G02*
X153685000Y-89490000I-75000J0D01*
G01*
X153535000Y-89490000D01*
G75*
G02*
X153460000Y-89415000I0J75000D01*
G01*
G37*
%TD.AperFunction*%
%TO.P,U2,53*%
%TO.N,SPI3_MOSI*%
%TA.AperFunction,SMDPad,CuDef*%
G36*
G01*
X152960000Y-89415000D02*
X152960000Y-88015000D01*
G75*
G02*
X153035000Y-87940000I75000J0D01*
G01*
X153185000Y-87940000D01*
G75*
G02*
X153260000Y-88015000I0J-75000D01*
G01*
X153260000Y-89415000D01*
G75*
G02*
X153185000Y-89490000I-75000J0D01*
G01*
X153035000Y-89490000D01*
G75*
G02*
X152960000Y-89415000I0J75000D01*
G01*
G37*
%TD.AperFunction*%
%TO.P,U2,54*%
%TO.N,Net-(U2-Pad54)*%
%TA.AperFunction,SMDPad,CuDef*%
G36*
G01*
X152460000Y-89415000D02*
X152460000Y-88015000D01*
G75*
G02*
X152535000Y-87940000I75000J0D01*
G01*
X152685000Y-87940000D01*
G75*
G02*
X152760000Y-88015000I0J-75000D01*
G01*
X152760000Y-89415000D01*
G75*
G02*
X152685000Y-89490000I-75000J0D01*
G01*
X152535000Y-89490000D01*
G75*
G02*
X152460000Y-89415000I0J75000D01*
G01*
G37*
%TD.AperFunction*%
%TO.P,U2,55*%
%TO.N,SWO*%
%TA.AperFunction,SMDPad,CuDef*%
G36*
G01*
X151960000Y-89415000D02*
X151960000Y-88015000D01*
G75*
G02*
X152035000Y-87940000I75000J0D01*
G01*
X152185000Y-87940000D01*
G75*
G02*
X152260000Y-88015000I0J-75000D01*
G01*
X152260000Y-89415000D01*
G75*
G02*
X152185000Y-89490000I-75000J0D01*
G01*
X152035000Y-89490000D01*
G75*
G02*
X151960000Y-89415000I0J75000D01*
G01*
G37*
%TD.AperFunction*%
%TO.P,U2,56*%
%TO.N,TIM3_CH1*%
%TA.AperFunction,SMDPad,CuDef*%
G36*
G01*
X151460000Y-89415000D02*
X151460000Y-88015000D01*
G75*
G02*
X151535000Y-87940000I75000J0D01*
G01*
X151685000Y-87940000D01*
G75*
G02*
X151760000Y-88015000I0J-75000D01*
G01*
X151760000Y-89415000D01*
G75*
G02*
X151685000Y-89490000I-75000J0D01*
G01*
X151535000Y-89490000D01*
G75*
G02*
X151460000Y-89415000I0J75000D01*
G01*
G37*
%TD.AperFunction*%
%TO.P,U2,57*%
%TO.N,TIM3_CH2*%
%TA.AperFunction,SMDPad,CuDef*%
G36*
G01*
X150960000Y-89415000D02*
X150960000Y-88015000D01*
G75*
G02*
X151035000Y-87940000I75000J0D01*
G01*
X151185000Y-87940000D01*
G75*
G02*
X151260000Y-88015000I0J-75000D01*
G01*
X151260000Y-89415000D01*
G75*
G02*
X151185000Y-89490000I-75000J0D01*
G01*
X151035000Y-89490000D01*
G75*
G02*
X150960000Y-89415000I0J75000D01*
G01*
G37*
%TD.AperFunction*%
%TO.P,U2,58*%
%TO.N,TIM4_CH1*%
%TA.AperFunction,SMDPad,CuDef*%
G36*
G01*
X150460000Y-89415000D02*
X150460000Y-88015000D01*
G75*
G02*
X150535000Y-87940000I75000J0D01*
G01*
X150685000Y-87940000D01*
G75*
G02*
X150760000Y-88015000I0J-75000D01*
G01*
X150760000Y-89415000D01*
G75*
G02*
X150685000Y-89490000I-75000J0D01*
G01*
X150535000Y-89490000D01*
G75*
G02*
X150460000Y-89415000I0J75000D01*
G01*
G37*
%TD.AperFunction*%
%TO.P,U2,59*%
%TO.N,Net-(U2-Pad59)*%
%TA.AperFunction,SMDPad,CuDef*%
G36*
G01*
X149960000Y-89415000D02*
X149960000Y-88015000D01*
G75*
G02*
X150035000Y-87940000I75000J0D01*
G01*
X150185000Y-87940000D01*
G75*
G02*
X150260000Y-88015000I0J-75000D01*
G01*
X150260000Y-89415000D01*
G75*
G02*
X150185000Y-89490000I-75000J0D01*
G01*
X150035000Y-89490000D01*
G75*
G02*
X149960000Y-89415000I0J75000D01*
G01*
G37*
%TD.AperFunction*%
%TO.P,U2,60*%
%TO.N,BOOT0*%
%TA.AperFunction,SMDPad,CuDef*%
G36*
G01*
X149460000Y-89415000D02*
X149460000Y-88015000D01*
G75*
G02*
X149535000Y-87940000I75000J0D01*
G01*
X149685000Y-87940000D01*
G75*
G02*
X149760000Y-88015000I0J-75000D01*
G01*
X149760000Y-89415000D01*
G75*
G02*
X149685000Y-89490000I-75000J0D01*
G01*
X149535000Y-89490000D01*
G75*
G02*
X149460000Y-89415000I0J75000D01*
G01*
G37*
%TD.AperFunction*%
%TO.P,U2,61*%
%TO.N,I2C1_SCL*%
%TA.AperFunction,SMDPad,CuDef*%
G36*
G01*
X148960000Y-89415000D02*
X148960000Y-88015000D01*
G75*
G02*
X149035000Y-87940000I75000J0D01*
G01*
X149185000Y-87940000D01*
G75*
G02*
X149260000Y-88015000I0J-75000D01*
G01*
X149260000Y-89415000D01*
G75*
G02*
X149185000Y-89490000I-75000J0D01*
G01*
X149035000Y-89490000D01*
G75*
G02*
X148960000Y-89415000I0J75000D01*
G01*
G37*
%TD.AperFunction*%
%TO.P,U2,62*%
%TO.N,I2C1_SDA*%
%TA.AperFunction,SMDPad,CuDef*%
G36*
G01*
X148460000Y-89415000D02*
X148460000Y-88015000D01*
G75*
G02*
X148535000Y-87940000I75000J0D01*
G01*
X148685000Y-87940000D01*
G75*
G02*
X148760000Y-88015000I0J-75000D01*
G01*
X148760000Y-89415000D01*
G75*
G02*
X148685000Y-89490000I-75000J0D01*
G01*
X148535000Y-89490000D01*
G75*
G02*
X148460000Y-89415000I0J75000D01*
G01*
G37*
%TD.AperFunction*%
%TO.P,U2,63*%
%TO.N,GND*%
%TA.AperFunction,SMDPad,CuDef*%
G36*
G01*
X147960000Y-89415000D02*
X147960000Y-88015000D01*
G75*
G02*
X148035000Y-87940000I75000J0D01*
G01*
X148185000Y-87940000D01*
G75*
G02*
X148260000Y-88015000I0J-75000D01*
G01*
X148260000Y-89415000D01*
G75*
G02*
X148185000Y-89490000I-75000J0D01*
G01*
X148035000Y-89490000D01*
G75*
G02*
X147960000Y-89415000I0J75000D01*
G01*
G37*
%TD.AperFunction*%
%TO.P,U2,64*%
%TO.N,+3V3*%
%TA.AperFunction,SMDPad,CuDef*%
G36*
G01*
X147460000Y-89415000D02*
X147460000Y-88015000D01*
G75*
G02*
X147535000Y-87940000I75000J0D01*
G01*
X147685000Y-87940000D01*
G75*
G02*
X147760000Y-88015000I0J-75000D01*
G01*
X147760000Y-89415000D01*
G75*
G02*
X147685000Y-89490000I-75000J0D01*
G01*
X147535000Y-89490000D01*
G75*
G02*
X147460000Y-89415000I0J75000D01*
G01*
G37*
%TD.AperFunction*%
%TD*%
D18*
%TO.P,D1,2*%
%TO.N,+5V*%
X173650000Y-91080000D03*
%TO.P,D1,1*%
%TO.N,Net-(D1-Pad1)*%
X170350000Y-91080000D03*
%TD*%
D19*
%TO.P,J4,4*%
%TO.N,GND*%
X136840000Y-71030000D03*
%TO.P,J4,3*%
%TO.N,Net-(J4-Pad3)*%
X138090000Y-71030000D03*
%TO.P,J4,2*%
%TO.N,Net-(J4-Pad2)*%
X139340000Y-71030000D03*
%TO.P,J4,1*%
%TO.N,+3V3*%
%TA.AperFunction,ComponentPad*%
G36*
G01*
X140990000Y-70580000D02*
X140990000Y-71480000D01*
G75*
G02*
X140790000Y-71680000I-200000J0D01*
G01*
X140390000Y-71680000D01*
G75*
G02*
X140190000Y-71480000I0J200000D01*
G01*
X140190000Y-70580000D01*
G75*
G02*
X140390000Y-70380000I200000J0D01*
G01*
X140790000Y-70380000D01*
G75*
G02*
X140990000Y-70580000I0J-200000D01*
G01*
G37*
%TD.AperFunction*%
%TD*%
%TO.P,J3,4*%
%TO.N,GND*%
X158250000Y-121000000D03*
%TO.P,J3,3*%
%TO.N,Net-(J3-Pad3)*%
X157000000Y-121000000D03*
%TO.P,J3,2*%
%TO.N,Net-(J3-Pad2)*%
X155750000Y-121000000D03*
%TO.P,J3,1*%
%TO.N,+3V3*%
%TA.AperFunction,ComponentPad*%
G36*
G01*
X154100000Y-121450000D02*
X154100000Y-120550000D01*
G75*
G02*
X154300000Y-120350000I200000J0D01*
G01*
X154700000Y-120350000D01*
G75*
G02*
X154900000Y-120550000I0J-200000D01*
G01*
X154900000Y-121450000D01*
G75*
G02*
X154700000Y-121650000I-200000J0D01*
G01*
X154300000Y-121650000D01*
G75*
G02*
X154100000Y-121450000I0J200000D01*
G01*
G37*
%TD.AperFunction*%
%TD*%
%TO.P,J7,4*%
%TO.N,GND*%
X142670000Y-120410000D03*
%TO.P,J7,3*%
%TO.N,Net-(J7-Pad3)*%
X141420000Y-120410000D03*
%TO.P,J7,2*%
%TO.N,Net-(J7-Pad2)*%
X140170000Y-120410000D03*
%TO.P,J7,1*%
%TO.N,+3V3*%
%TA.AperFunction,ComponentPad*%
G36*
G01*
X138520000Y-120860000D02*
X138520000Y-119960000D01*
G75*
G02*
X138720000Y-119760000I200000J0D01*
G01*
X139120000Y-119760000D01*
G75*
G02*
X139320000Y-119960000I0J-200000D01*
G01*
X139320000Y-120860000D01*
G75*
G02*
X139120000Y-121060000I-200000J0D01*
G01*
X138720000Y-121060000D01*
G75*
G02*
X138520000Y-120860000I0J200000D01*
G01*
G37*
%TD.AperFunction*%
%TD*%
D20*
%TO.P,J6,4*%
%TO.N,GND*%
X130100000Y-113340000D03*
%TO.P,J6,3*%
%TO.N,Net-(J6-Pad3)*%
X130100000Y-112090000D03*
%TO.P,J6,2*%
%TO.N,Net-(J6-Pad2)*%
X130100000Y-110840000D03*
%TO.P,J6,1*%
%TO.N,+3V3*%
%TA.AperFunction,ComponentPad*%
G36*
G01*
X129650000Y-109190000D02*
X130550000Y-109190000D01*
G75*
G02*
X130750000Y-109390000I0J-200000D01*
G01*
X130750000Y-109790000D01*
G75*
G02*
X130550000Y-109990000I-200000J0D01*
G01*
X129650000Y-109990000D01*
G75*
G02*
X129450000Y-109790000I0J200000D01*
G01*
X129450000Y-109390000D01*
G75*
G02*
X129650000Y-109190000I200000J0D01*
G01*
G37*
%TD.AperFunction*%
%TD*%
%TO.P,J8,4*%
%TO.N,GND*%
X130000000Y-85250000D03*
%TO.P,J8,3*%
%TO.N,Net-(J8-Pad3)*%
X130000000Y-84000000D03*
%TO.P,J8,2*%
%TO.N,Net-(J8-Pad2)*%
X130000000Y-82750000D03*
%TO.P,J8,1*%
%TO.N,+3V3*%
%TA.AperFunction,ComponentPad*%
G36*
G01*
X129550000Y-81100000D02*
X130450000Y-81100000D01*
G75*
G02*
X130650000Y-81300000I0J-200000D01*
G01*
X130650000Y-81700000D01*
G75*
G02*
X130450000Y-81900000I-200000J0D01*
G01*
X129550000Y-81900000D01*
G75*
G02*
X129350000Y-81700000I0J200000D01*
G01*
X129350000Y-81300000D01*
G75*
G02*
X129550000Y-81100000I200000J0D01*
G01*
G37*
%TD.AperFunction*%
%TD*%
%TO.P,J9,4*%
%TO.N,GND*%
X130000000Y-101870000D03*
%TO.P,J9,3*%
%TO.N,Net-(J9-Pad3)*%
X130000000Y-100620000D03*
%TO.P,J9,2*%
%TO.N,Net-(J9-Pad2)*%
X130000000Y-99370000D03*
%TO.P,J9,1*%
%TO.N,+3V3*%
%TA.AperFunction,ComponentPad*%
G36*
G01*
X129550000Y-97720000D02*
X130450000Y-97720000D01*
G75*
G02*
X130650000Y-97920000I0J-200000D01*
G01*
X130650000Y-98320000D01*
G75*
G02*
X130450000Y-98520000I-200000J0D01*
G01*
X129550000Y-98520000D01*
G75*
G02*
X129350000Y-98320000I0J200000D01*
G01*
X129350000Y-97920000D01*
G75*
G02*
X129550000Y-97720000I200000J0D01*
G01*
G37*
%TD.AperFunction*%
%TD*%
%TO.P,C1,1*%
%TO.N,Net-(C1-Pad1)*%
%TA.AperFunction,SMDPad,CuDef*%
G36*
G01*
X176550000Y-100649999D02*
X176550000Y-101950001D01*
G75*
G02*
X176300001Y-102200000I-249999J0D01*
G01*
X175649999Y-102200000D01*
G75*
G02*
X175400000Y-101950001I0J249999D01*
G01*
X175400000Y-100649999D01*
G75*
G02*
X175649999Y-100400000I249999J0D01*
G01*
X176300001Y-100400000D01*
G75*
G02*
X176550000Y-100649999I0J-249999D01*
G01*
G37*
%TD.AperFunction*%
%TO.P,C1,2*%
%TO.N,GND*%
%TA.AperFunction,SMDPad,CuDef*%
G36*
G01*
X173600000Y-100649999D02*
X173600000Y-101950001D01*
G75*
G02*
X173350001Y-102200000I-249999J0D01*
G01*
X172699999Y-102200000D01*
G75*
G02*
X172450000Y-101950001I0J249999D01*
G01*
X172450000Y-100649999D01*
G75*
G02*
X172699999Y-100400000I249999J0D01*
G01*
X173350001Y-100400000D01*
G75*
G02*
X173600000Y-100649999I0J-249999D01*
G01*
G37*
%TD.AperFunction*%
%TD*%
%TO.P,C2,2*%
%TO.N,Net-(C2-Pad2)*%
%TA.AperFunction,SMDPad,CuDef*%
G36*
G01*
X174950000Y-105005000D02*
X175450000Y-105005000D01*
G75*
G02*
X175675000Y-105230000I0J-225000D01*
G01*
X175675000Y-105680000D01*
G75*
G02*
X175450000Y-105905000I-225000J0D01*
G01*
X174950000Y-105905000D01*
G75*
G02*
X174725000Y-105680000I0J225000D01*
G01*
X174725000Y-105230000D01*
G75*
G02*
X174950000Y-105005000I225000J0D01*
G01*
G37*
%TD.AperFunction*%
%TO.P,C2,1*%
%TO.N,Net-(C2-Pad1)*%
%TA.AperFunction,SMDPad,CuDef*%
G36*
G01*
X174950000Y-103455000D02*
X175450000Y-103455000D01*
G75*
G02*
X175675000Y-103680000I0J-225000D01*
G01*
X175675000Y-104130000D01*
G75*
G02*
X175450000Y-104355000I-225000J0D01*
G01*
X174950000Y-104355000D01*
G75*
G02*
X174725000Y-104130000I0J225000D01*
G01*
X174725000Y-103680000D01*
G75*
G02*
X174950000Y-103455000I225000J0D01*
G01*
G37*
%TD.AperFunction*%
%TD*%
%TO.P,C3,2*%
%TO.N,GND*%
%TA.AperFunction,SMDPad,CuDef*%
G36*
G01*
X174250000Y-122030001D02*
X174250000Y-120729999D01*
G75*
G02*
X174499999Y-120480000I249999J0D01*
G01*
X175150001Y-120480000D01*
G75*
G02*
X175400000Y-120729999I0J-249999D01*
G01*
X175400000Y-122030001D01*
G75*
G02*
X175150001Y-122280000I-249999J0D01*
G01*
X174499999Y-122280000D01*
G75*
G02*
X174250000Y-122030001I0J249999D01*
G01*
G37*
%TD.AperFunction*%
%TO.P,C3,1*%
%TO.N,+3V3*%
%TA.AperFunction,SMDPad,CuDef*%
G36*
G01*
X171300000Y-122030001D02*
X171300000Y-120729999D01*
G75*
G02*
X171549999Y-120480000I249999J0D01*
G01*
X172200001Y-120480000D01*
G75*
G02*
X172450000Y-120729999I0J-249999D01*
G01*
X172450000Y-122030001D01*
G75*
G02*
X172200001Y-122280000I-249999J0D01*
G01*
X171549999Y-122280000D01*
G75*
G02*
X171300000Y-122030001I0J249999D01*
G01*
G37*
%TD.AperFunction*%
%TD*%
%TO.P,C4,1*%
%TO.N,+3V3*%
%TA.AperFunction,SMDPad,CuDef*%
G36*
G01*
X171350000Y-118630001D02*
X171350000Y-117329999D01*
G75*
G02*
X171599999Y-117080000I249999J0D01*
G01*
X172250001Y-117080000D01*
G75*
G02*
X172500000Y-117329999I0J-249999D01*
G01*
X172500000Y-118630001D01*
G75*
G02*
X172250001Y-118880000I-249999J0D01*
G01*
X171599999Y-118880000D01*
G75*
G02*
X171350000Y-118630001I0J249999D01*
G01*
G37*
%TD.AperFunction*%
%TO.P,C4,2*%
%TO.N,GND*%
%TA.AperFunction,SMDPad,CuDef*%
G36*
G01*
X174300000Y-118630001D02*
X174300000Y-117329999D01*
G75*
G02*
X174549999Y-117080000I249999J0D01*
G01*
X175200001Y-117080000D01*
G75*
G02*
X175450000Y-117329999I0J-249999D01*
G01*
X175450000Y-118630001D01*
G75*
G02*
X175200001Y-118880000I-249999J0D01*
G01*
X174549999Y-118880000D01*
G75*
G02*
X174300000Y-118630001I0J249999D01*
G01*
G37*
%TD.AperFunction*%
%TD*%
%TO.P,C5,1*%
%TO.N,+3V3*%
%TA.AperFunction,SMDPad,CuDef*%
G36*
G01*
X145975000Y-86820000D02*
X145975000Y-87320000D01*
G75*
G02*
X145750000Y-87545000I-225000J0D01*
G01*
X145300000Y-87545000D01*
G75*
G02*
X145075000Y-87320000I0J225000D01*
G01*
X145075000Y-86820000D01*
G75*
G02*
X145300000Y-86595000I225000J0D01*
G01*
X145750000Y-86595000D01*
G75*
G02*
X145975000Y-86820000I0J-225000D01*
G01*
G37*
%TD.AperFunction*%
%TO.P,C5,2*%
%TO.N,GND*%
%TA.AperFunction,SMDPad,CuDef*%
G36*
G01*
X144425000Y-86820000D02*
X144425000Y-87320000D01*
G75*
G02*
X144200000Y-87545000I-225000J0D01*
G01*
X143750000Y-87545000D01*
G75*
G02*
X143525000Y-87320000I0J225000D01*
G01*
X143525000Y-86820000D01*
G75*
G02*
X143750000Y-86595000I225000J0D01*
G01*
X144200000Y-86595000D01*
G75*
G02*
X144425000Y-86820000I0J-225000D01*
G01*
G37*
%TD.AperFunction*%
%TD*%
%TO.P,C6,1*%
%TO.N,Net-(C6-Pad1)*%
%TA.AperFunction,SMDPad,CuDef*%
G36*
G01*
X155475000Y-102200000D02*
X155475000Y-101700000D01*
G75*
G02*
X155700000Y-101475000I225000J0D01*
G01*
X156150000Y-101475000D01*
G75*
G02*
X156375000Y-101700000I0J-225000D01*
G01*
X156375000Y-102200000D01*
G75*
G02*
X156150000Y-102425000I-225000J0D01*
G01*
X155700000Y-102425000D01*
G75*
G02*
X155475000Y-102200000I0J225000D01*
G01*
G37*
%TD.AperFunction*%
%TO.P,C6,2*%
%TO.N,GND*%
%TA.AperFunction,SMDPad,CuDef*%
G36*
G01*
X157025000Y-102200000D02*
X157025000Y-101700000D01*
G75*
G02*
X157250000Y-101475000I225000J0D01*
G01*
X157700000Y-101475000D01*
G75*
G02*
X157925000Y-101700000I0J-225000D01*
G01*
X157925000Y-102200000D01*
G75*
G02*
X157700000Y-102425000I-225000J0D01*
G01*
X157250000Y-102425000D01*
G75*
G02*
X157025000Y-102200000I0J225000D01*
G01*
G37*
%TD.AperFunction*%
%TD*%
%TO.P,C7,1*%
%TO.N,+3V3*%
%TA.AperFunction,SMDPad,CuDef*%
G36*
G01*
X143870000Y-90880000D02*
X143530000Y-90880000D01*
G75*
G02*
X143390000Y-90740000I0J140000D01*
G01*
X143390000Y-90460000D01*
G75*
G02*
X143530000Y-90320000I140000J0D01*
G01*
X143870000Y-90320000D01*
G75*
G02*
X144010000Y-90460000I0J-140000D01*
G01*
X144010000Y-90740000D01*
G75*
G02*
X143870000Y-90880000I-140000J0D01*
G01*
G37*
%TD.AperFunction*%
%TO.P,C7,2*%
%TO.N,GND*%
%TA.AperFunction,SMDPad,CuDef*%
G36*
G01*
X143870000Y-89920000D02*
X143530000Y-89920000D01*
G75*
G02*
X143390000Y-89780000I0J140000D01*
G01*
X143390000Y-89500000D01*
G75*
G02*
X143530000Y-89360000I140000J0D01*
G01*
X143870000Y-89360000D01*
G75*
G02*
X144010000Y-89500000I0J-140000D01*
G01*
X144010000Y-89780000D01*
G75*
G02*
X143870000Y-89920000I-140000J0D01*
G01*
G37*
%TD.AperFunction*%
%TD*%
%TO.P,C8,2*%
%TO.N,GND*%
%TA.AperFunction,SMDPad,CuDef*%
G36*
G01*
X159170000Y-88815000D02*
X158670000Y-88815000D01*
G75*
G02*
X158445000Y-88590000I0J225000D01*
G01*
X158445000Y-88140000D01*
G75*
G02*
X158670000Y-87915000I225000J0D01*
G01*
X159170000Y-87915000D01*
G75*
G02*
X159395000Y-88140000I0J-225000D01*
G01*
X159395000Y-88590000D01*
G75*
G02*
X159170000Y-88815000I-225000J0D01*
G01*
G37*
%TD.AperFunction*%
%TO.P,C8,1*%
%TO.N,Net-(C8-Pad1)*%
%TA.AperFunction,SMDPad,CuDef*%
G36*
G01*
X159170000Y-90365000D02*
X158670000Y-90365000D01*
G75*
G02*
X158445000Y-90140000I0J225000D01*
G01*
X158445000Y-89690000D01*
G75*
G02*
X158670000Y-89465000I225000J0D01*
G01*
X159170000Y-89465000D01*
G75*
G02*
X159395000Y-89690000I0J-225000D01*
G01*
X159395000Y-90140000D01*
G75*
G02*
X159170000Y-90365000I-225000J0D01*
G01*
G37*
%TD.AperFunction*%
%TD*%
%TO.P,C9,1*%
%TO.N,+3V3*%
%TA.AperFunction,SMDPad,CuDef*%
G36*
G01*
X148730000Y-101700000D02*
X148730000Y-102040000D01*
G75*
G02*
X148590000Y-102180000I-140000J0D01*
G01*
X148310000Y-102180000D01*
G75*
G02*
X148170000Y-102040000I0J140000D01*
G01*
X148170000Y-101700000D01*
G75*
G02*
X148310000Y-101560000I140000J0D01*
G01*
X148590000Y-101560000D01*
G75*
G02*
X148730000Y-101700000I0J-140000D01*
G01*
G37*
%TD.AperFunction*%
%TO.P,C9,2*%
%TO.N,GND*%
%TA.AperFunction,SMDPad,CuDef*%
G36*
G01*
X147770000Y-101700000D02*
X147770000Y-102040000D01*
G75*
G02*
X147630000Y-102180000I-140000J0D01*
G01*
X147350000Y-102180000D01*
G75*
G02*
X147210000Y-102040000I0J140000D01*
G01*
X147210000Y-101700000D01*
G75*
G02*
X147350000Y-101560000I140000J0D01*
G01*
X147630000Y-101560000D01*
G75*
G02*
X147770000Y-101700000I0J-140000D01*
G01*
G37*
%TD.AperFunction*%
%TD*%
%TO.P,C10,2*%
%TO.N,GND*%
%TA.AperFunction,SMDPad,CuDef*%
G36*
G01*
X157030000Y-100460000D02*
X157030000Y-100120000D01*
G75*
G02*
X157170000Y-99980000I140000J0D01*
G01*
X157450000Y-99980000D01*
G75*
G02*
X157590000Y-100120000I0J-140000D01*
G01*
X157590000Y-100460000D01*
G75*
G02*
X157450000Y-100600000I-140000J0D01*
G01*
X157170000Y-100600000D01*
G75*
G02*
X157030000Y-100460000I0J140000D01*
G01*
G37*
%TD.AperFunction*%
%TO.P,C10,1*%
%TO.N,+3V3*%
%TA.AperFunction,SMDPad,CuDef*%
G36*
G01*
X156070000Y-100460000D02*
X156070000Y-100120000D01*
G75*
G02*
X156210000Y-99980000I140000J0D01*
G01*
X156490000Y-99980000D01*
G75*
G02*
X156630000Y-100120000I0J-140000D01*
G01*
X156630000Y-100460000D01*
G75*
G02*
X156490000Y-100600000I-140000J0D01*
G01*
X156210000Y-100600000D01*
G75*
G02*
X156070000Y-100460000I0J140000D01*
G01*
G37*
%TD.AperFunction*%
%TD*%
%TO.P,C11,2*%
%TO.N,GND*%
%TA.AperFunction,SMDPad,CuDef*%
G36*
G01*
X147520000Y-87220000D02*
X147520000Y-86880000D01*
G75*
G02*
X147660000Y-86740000I140000J0D01*
G01*
X147940000Y-86740000D01*
G75*
G02*
X148080000Y-86880000I0J-140000D01*
G01*
X148080000Y-87220000D01*
G75*
G02*
X147940000Y-87360000I-140000J0D01*
G01*
X147660000Y-87360000D01*
G75*
G02*
X147520000Y-87220000I0J140000D01*
G01*
G37*
%TD.AperFunction*%
%TO.P,C11,1*%
%TO.N,+3V3*%
%TA.AperFunction,SMDPad,CuDef*%
G36*
G01*
X146560000Y-87220000D02*
X146560000Y-86880000D01*
G75*
G02*
X146700000Y-86740000I140000J0D01*
G01*
X146980000Y-86740000D01*
G75*
G02*
X147120000Y-86880000I0J-140000D01*
G01*
X147120000Y-87220000D01*
G75*
G02*
X146980000Y-87360000I-140000J0D01*
G01*
X146700000Y-87360000D01*
G75*
G02*
X146560000Y-87220000I0J140000D01*
G01*
G37*
%TD.AperFunction*%
%TD*%
%TO.P,C12,1*%
%TO.N,+3V3*%
%TA.AperFunction,SMDPad,CuDef*%
G36*
G01*
X157570000Y-89900000D02*
X157230000Y-89900000D01*
G75*
G02*
X157090000Y-89760000I0J140000D01*
G01*
X157090000Y-89480000D01*
G75*
G02*
X157230000Y-89340000I140000J0D01*
G01*
X157570000Y-89340000D01*
G75*
G02*
X157710000Y-89480000I0J-140000D01*
G01*
X157710000Y-89760000D01*
G75*
G02*
X157570000Y-89900000I-140000J0D01*
G01*
G37*
%TD.AperFunction*%
%TO.P,C12,2*%
%TO.N,GND*%
%TA.AperFunction,SMDPad,CuDef*%
G36*
G01*
X157570000Y-88940000D02*
X157230000Y-88940000D01*
G75*
G02*
X157090000Y-88800000I0J140000D01*
G01*
X157090000Y-88520000D01*
G75*
G02*
X157230000Y-88380000I140000J0D01*
G01*
X157570000Y-88380000D01*
G75*
G02*
X157710000Y-88520000I0J-140000D01*
G01*
X157710000Y-88800000D01*
G75*
G02*
X157570000Y-88940000I-140000J0D01*
G01*
G37*
%TD.AperFunction*%
%TD*%
%TO.P,C13,2*%
%TO.N,GND*%
%TA.AperFunction,SMDPad,CuDef*%
G36*
G01*
X143260000Y-95870000D02*
X142920000Y-95870000D01*
G75*
G02*
X142780000Y-95730000I0J140000D01*
G01*
X142780000Y-95450000D01*
G75*
G02*
X142920000Y-95310000I140000J0D01*
G01*
X143260000Y-95310000D01*
G75*
G02*
X143400000Y-95450000I0J-140000D01*
G01*
X143400000Y-95730000D01*
G75*
G02*
X143260000Y-95870000I-140000J0D01*
G01*
G37*
%TD.AperFunction*%
%TO.P,C13,1*%
%TO.N,+3.3VA*%
%TA.AperFunction,SMDPad,CuDef*%
G36*
G01*
X143260000Y-96830000D02*
X142920000Y-96830000D01*
G75*
G02*
X142780000Y-96690000I0J140000D01*
G01*
X142780000Y-96410000D01*
G75*
G02*
X142920000Y-96270000I140000J0D01*
G01*
X143260000Y-96270000D01*
G75*
G02*
X143400000Y-96410000I0J-140000D01*
G01*
X143400000Y-96690000D01*
G75*
G02*
X143260000Y-96830000I-140000J0D01*
G01*
G37*
%TD.AperFunction*%
%TD*%
%TO.P,C14,1*%
%TO.N,+3.3VA*%
%TA.AperFunction,SMDPad,CuDef*%
G36*
G01*
X144290000Y-96850000D02*
X143950000Y-96850000D01*
G75*
G02*
X143810000Y-96710000I0J140000D01*
G01*
X143810000Y-96430000D01*
G75*
G02*
X143950000Y-96290000I140000J0D01*
G01*
X144290000Y-96290000D01*
G75*
G02*
X144430000Y-96430000I0J-140000D01*
G01*
X144430000Y-96710000D01*
G75*
G02*
X144290000Y-96850000I-140000J0D01*
G01*
G37*
%TD.AperFunction*%
%TO.P,C14,2*%
%TO.N,GND*%
%TA.AperFunction,SMDPad,CuDef*%
G36*
G01*
X144290000Y-95890000D02*
X143950000Y-95890000D01*
G75*
G02*
X143810000Y-95750000I0J140000D01*
G01*
X143810000Y-95470000D01*
G75*
G02*
X143950000Y-95330000I140000J0D01*
G01*
X144290000Y-95330000D01*
G75*
G02*
X144430000Y-95470000I0J-140000D01*
G01*
X144430000Y-95750000D01*
G75*
G02*
X144290000Y-95890000I-140000J0D01*
G01*
G37*
%TD.AperFunction*%
%TD*%
%TO.P,C17,1*%
%TO.N,+3V3*%
%TA.AperFunction,SMDPad,CuDef*%
G36*
G01*
X147160000Y-78030000D02*
X147500000Y-78030000D01*
G75*
G02*
X147640000Y-78170000I0J-140000D01*
G01*
X147640000Y-78450000D01*
G75*
G02*
X147500000Y-78590000I-140000J0D01*
G01*
X147160000Y-78590000D01*
G75*
G02*
X147020000Y-78450000I0J140000D01*
G01*
X147020000Y-78170000D01*
G75*
G02*
X147160000Y-78030000I140000J0D01*
G01*
G37*
%TD.AperFunction*%
%TO.P,C17,2*%
%TO.N,GND*%
%TA.AperFunction,SMDPad,CuDef*%
G36*
G01*
X147160000Y-78990000D02*
X147500000Y-78990000D01*
G75*
G02*
X147640000Y-79130000I0J-140000D01*
G01*
X147640000Y-79410000D01*
G75*
G02*
X147500000Y-79550000I-140000J0D01*
G01*
X147160000Y-79550000D01*
G75*
G02*
X147020000Y-79410000I0J140000D01*
G01*
X147020000Y-79130000D01*
G75*
G02*
X147160000Y-78990000I140000J0D01*
G01*
G37*
%TD.AperFunction*%
%TD*%
%TO.P,C18,2*%
%TO.N,GND*%
%TA.AperFunction,SMDPad,CuDef*%
G36*
G01*
X160100000Y-103880000D02*
X160440000Y-103880000D01*
G75*
G02*
X160580000Y-104020000I0J-140000D01*
G01*
X160580000Y-104300000D01*
G75*
G02*
X160440000Y-104440000I-140000J0D01*
G01*
X160100000Y-104440000D01*
G75*
G02*
X159960000Y-104300000I0J140000D01*
G01*
X159960000Y-104020000D01*
G75*
G02*
X160100000Y-103880000I140000J0D01*
G01*
G37*
%TD.AperFunction*%
%TO.P,C18,1*%
%TO.N,+3V3*%
%TA.AperFunction,SMDPad,CuDef*%
G36*
G01*
X160100000Y-102920000D02*
X160440000Y-102920000D01*
G75*
G02*
X160580000Y-103060000I0J-140000D01*
G01*
X160580000Y-103340000D01*
G75*
G02*
X160440000Y-103480000I-140000J0D01*
G01*
X160100000Y-103480000D01*
G75*
G02*
X159960000Y-103340000I0J140000D01*
G01*
X159960000Y-103060000D01*
G75*
G02*
X160100000Y-102920000I140000J0D01*
G01*
G37*
%TD.AperFunction*%
%TD*%
%TO.P,C19,1*%
%TO.N,+3V3*%
%TA.AperFunction,SMDPad,CuDef*%
G36*
G01*
X157740000Y-83260000D02*
X158080000Y-83260000D01*
G75*
G02*
X158220000Y-83400000I0J-140000D01*
G01*
X158220000Y-83680000D01*
G75*
G02*
X158080000Y-83820000I-140000J0D01*
G01*
X157740000Y-83820000D01*
G75*
G02*
X157600000Y-83680000I0J140000D01*
G01*
X157600000Y-83400000D01*
G75*
G02*
X157740000Y-83260000I140000J0D01*
G01*
G37*
%TD.AperFunction*%
%TO.P,C19,2*%
%TO.N,GND*%
%TA.AperFunction,SMDPad,CuDef*%
G36*
G01*
X157740000Y-84220000D02*
X158080000Y-84220000D01*
G75*
G02*
X158220000Y-84360000I0J-140000D01*
G01*
X158220000Y-84640000D01*
G75*
G02*
X158080000Y-84780000I-140000J0D01*
G01*
X157740000Y-84780000D01*
G75*
G02*
X157600000Y-84640000I0J140000D01*
G01*
X157600000Y-84360000D01*
G75*
G02*
X157740000Y-84220000I140000J0D01*
G01*
G37*
%TD.AperFunction*%
%TD*%
%TO.P,C20,2*%
%TO.N,GND*%
%TA.AperFunction,SMDPad,CuDef*%
G36*
G01*
X156010000Y-82250000D02*
X156010000Y-81910000D01*
G75*
G02*
X156150000Y-81770000I140000J0D01*
G01*
X156430000Y-81770000D01*
G75*
G02*
X156570000Y-81910000I0J-140000D01*
G01*
X156570000Y-82250000D01*
G75*
G02*
X156430000Y-82390000I-140000J0D01*
G01*
X156150000Y-82390000D01*
G75*
G02*
X156010000Y-82250000I0J140000D01*
G01*
G37*
%TD.AperFunction*%
%TO.P,C20,1*%
%TO.N,+3V3*%
%TA.AperFunction,SMDPad,CuDef*%
G36*
G01*
X155050000Y-82250000D02*
X155050000Y-81910000D01*
G75*
G02*
X155190000Y-81770000I140000J0D01*
G01*
X155470000Y-81770000D01*
G75*
G02*
X155610000Y-81910000I0J-140000D01*
G01*
X155610000Y-82250000D01*
G75*
G02*
X155470000Y-82390000I-140000J0D01*
G01*
X155190000Y-82390000D01*
G75*
G02*
X155050000Y-82250000I0J140000D01*
G01*
G37*
%TD.AperFunction*%
%TD*%
%TO.P,C21,1*%
%TO.N,+3V3*%
%TA.AperFunction,SMDPad,CuDef*%
G36*
G01*
X147360000Y-107430000D02*
X147360000Y-107770000D01*
G75*
G02*
X147220000Y-107910000I-140000J0D01*
G01*
X146940000Y-107910000D01*
G75*
G02*
X146800000Y-107770000I0J140000D01*
G01*
X146800000Y-107430000D01*
G75*
G02*
X146940000Y-107290000I140000J0D01*
G01*
X147220000Y-107290000D01*
G75*
G02*
X147360000Y-107430000I0J-140000D01*
G01*
G37*
%TD.AperFunction*%
%TO.P,C21,2*%
%TO.N,GND*%
%TA.AperFunction,SMDPad,CuDef*%
G36*
G01*
X146400000Y-107430000D02*
X146400000Y-107770000D01*
G75*
G02*
X146260000Y-107910000I-140000J0D01*
G01*
X145980000Y-107910000D01*
G75*
G02*
X145840000Y-107770000I0J140000D01*
G01*
X145840000Y-107430000D01*
G75*
G02*
X145980000Y-107290000I140000J0D01*
G01*
X146260000Y-107290000D01*
G75*
G02*
X146400000Y-107430000I0J-140000D01*
G01*
G37*
%TD.AperFunction*%
%TD*%
%TO.P,C22,2*%
%TO.N,GND*%
%TA.AperFunction,SMDPad,CuDef*%
G36*
G01*
X148290000Y-112540000D02*
X148290000Y-112880000D01*
G75*
G02*
X148150000Y-113020000I-140000J0D01*
G01*
X147870000Y-113020000D01*
G75*
G02*
X147730000Y-112880000I0J140000D01*
G01*
X147730000Y-112540000D01*
G75*
G02*
X147870000Y-112400000I140000J0D01*
G01*
X148150000Y-112400000D01*
G75*
G02*
X148290000Y-112540000I0J-140000D01*
G01*
G37*
%TD.AperFunction*%
%TO.P,C22,1*%
%TO.N,+3V3*%
%TA.AperFunction,SMDPad,CuDef*%
G36*
G01*
X149250000Y-112540000D02*
X149250000Y-112880000D01*
G75*
G02*
X149110000Y-113020000I-140000J0D01*
G01*
X148830000Y-113020000D01*
G75*
G02*
X148690000Y-112880000I0J140000D01*
G01*
X148690000Y-112540000D01*
G75*
G02*
X148830000Y-112400000I140000J0D01*
G01*
X149110000Y-112400000D01*
G75*
G02*
X149250000Y-112540000I0J-140000D01*
G01*
G37*
%TD.AperFunction*%
%TD*%
%TO.P,C23,2*%
%TO.N,GND*%
%TA.AperFunction,SMDPad,CuDef*%
G36*
G01*
X160540000Y-72840000D02*
X160200000Y-72840000D01*
G75*
G02*
X160060000Y-72700000I0J140000D01*
G01*
X160060000Y-72420000D01*
G75*
G02*
X160200000Y-72280000I140000J0D01*
G01*
X160540000Y-72280000D01*
G75*
G02*
X160680000Y-72420000I0J-140000D01*
G01*
X160680000Y-72700000D01*
G75*
G02*
X160540000Y-72840000I-140000J0D01*
G01*
G37*
%TD.AperFunction*%
%TO.P,C23,1*%
%TO.N,NRST*%
%TA.AperFunction,SMDPad,CuDef*%
G36*
G01*
X160540000Y-73800000D02*
X160200000Y-73800000D01*
G75*
G02*
X160060000Y-73660000I0J140000D01*
G01*
X160060000Y-73380000D01*
G75*
G02*
X160200000Y-73240000I140000J0D01*
G01*
X160540000Y-73240000D01*
G75*
G02*
X160680000Y-73380000I0J-140000D01*
G01*
X160680000Y-73660000D01*
G75*
G02*
X160540000Y-73800000I-140000J0D01*
G01*
G37*
%TD.AperFunction*%
%TD*%
D18*
%TO.P,D2,1*%
%TO.N,Net-(C2-Pad1)*%
X171700000Y-108490000D03*
%TO.P,D2,2*%
%TO.N,GND*%
X175000000Y-108490000D03*
%TD*%
%TO.P,D3,2*%
%TO.N,+3V3*%
%TA.AperFunction,SMDPad,CuDef*%
G36*
G01*
X163093750Y-114040000D02*
X163606250Y-114040000D01*
G75*
G02*
X163825000Y-114258750I0J-218750D01*
G01*
X163825000Y-114696250D01*
G75*
G02*
X163606250Y-114915000I-218750J0D01*
G01*
X163093750Y-114915000D01*
G75*
G02*
X162875000Y-114696250I0J218750D01*
G01*
X162875000Y-114258750D01*
G75*
G02*
X163093750Y-114040000I218750J0D01*
G01*
G37*
%TD.AperFunction*%
%TO.P,D3,1*%
%TO.N,Net-(D3-Pad1)*%
%TA.AperFunction,SMDPad,CuDef*%
G36*
G01*
X163093750Y-112465000D02*
X163606250Y-112465000D01*
G75*
G02*
X163825000Y-112683750I0J-218750D01*
G01*
X163825000Y-113121250D01*
G75*
G02*
X163606250Y-113340000I-218750J0D01*
G01*
X163093750Y-113340000D01*
G75*
G02*
X162875000Y-113121250I0J218750D01*
G01*
X162875000Y-112683750D01*
G75*
G02*
X163093750Y-112465000I218750J0D01*
G01*
G37*
%TD.AperFunction*%
%TD*%
%TO.P,D4,1*%
%TO.N,Net-(D4-Pad1)*%
%TA.AperFunction,SMDPad,CuDef*%
G36*
G01*
X152875000Y-73013750D02*
X152875000Y-73526250D01*
G75*
G02*
X152656250Y-73745000I-218750J0D01*
G01*
X152218750Y-73745000D01*
G75*
G02*
X152000000Y-73526250I0J218750D01*
G01*
X152000000Y-73013750D01*
G75*
G02*
X152218750Y-72795000I218750J0D01*
G01*
X152656250Y-72795000D01*
G75*
G02*
X152875000Y-73013750I0J-218750D01*
G01*
G37*
%TD.AperFunction*%
%TO.P,D4,2*%
%TO.N,Net-(D4-Pad2)*%
%TA.AperFunction,SMDPad,CuDef*%
G36*
G01*
X151300000Y-73013750D02*
X151300000Y-73526250D01*
G75*
G02*
X151081250Y-73745000I-218750J0D01*
G01*
X150643750Y-73745000D01*
G75*
G02*
X150425000Y-73526250I0J218750D01*
G01*
X150425000Y-73013750D01*
G75*
G02*
X150643750Y-72795000I218750J0D01*
G01*
X151081250Y-72795000D01*
G75*
G02*
X151300000Y-73013750I0J-218750D01*
G01*
G37*
%TD.AperFunction*%
%TD*%
%TO.P,F1,1*%
%TO.N,Net-(F1-Pad1)*%
%TA.AperFunction,SMDPad,CuDef*%
G36*
G01*
X170925000Y-97025000D02*
X169675000Y-97025000D01*
G75*
G02*
X169425000Y-96775000I0J250000D01*
G01*
X169425000Y-96025000D01*
G75*
G02*
X169675000Y-95775000I250000J0D01*
G01*
X170925000Y-95775000D01*
G75*
G02*
X171175000Y-96025000I0J-250000D01*
G01*
X171175000Y-96775000D01*
G75*
G02*
X170925000Y-97025000I-250000J0D01*
G01*
G37*
%TD.AperFunction*%
%TO.P,F1,2*%
%TO.N,Net-(D1-Pad1)*%
%TA.AperFunction,SMDPad,CuDef*%
G36*
G01*
X170925000Y-94225000D02*
X169675000Y-94225000D01*
G75*
G02*
X169425000Y-93975000I0J250000D01*
G01*
X169425000Y-93225000D01*
G75*
G02*
X169675000Y-92975000I250000J0D01*
G01*
X170925000Y-92975000D01*
G75*
G02*
X171175000Y-93225000I0J-250000D01*
G01*
X171175000Y-93975000D01*
G75*
G02*
X170925000Y-94225000I-250000J0D01*
G01*
G37*
%TD.AperFunction*%
%TD*%
%TO.P,FB2,1*%
%TO.N,+3.3VA*%
%TA.AperFunction,SMDPad,CuDef*%
G36*
G01*
X141940000Y-97648750D02*
X141940000Y-98411250D01*
G75*
G02*
X141721250Y-98630000I-218750J0D01*
G01*
X141283750Y-98630000D01*
G75*
G02*
X141065000Y-98411250I0J218750D01*
G01*
X141065000Y-97648750D01*
G75*
G02*
X141283750Y-97430000I218750J0D01*
G01*
X141721250Y-97430000D01*
G75*
G02*
X141940000Y-97648750I0J-218750D01*
G01*
G37*
%TD.AperFunction*%
%TO.P,FB2,2*%
%TO.N,+3V3*%
%TA.AperFunction,SMDPad,CuDef*%
G36*
G01*
X139815000Y-97648750D02*
X139815000Y-98411250D01*
G75*
G02*
X139596250Y-98630000I-218750J0D01*
G01*
X139158750Y-98630000D01*
G75*
G02*
X138940000Y-98411250I0J218750D01*
G01*
X138940000Y-97648750D01*
G75*
G02*
X139158750Y-97430000I218750J0D01*
G01*
X139596250Y-97430000D01*
G75*
G02*
X139815000Y-97648750I0J-218750D01*
G01*
G37*
%TD.AperFunction*%
%TD*%
D21*
%TO.P,J5,1*%
%TO.N,+3V3*%
X168390000Y-68490000D03*
%TO.P,J5,2*%
%TO.N,Net-(J5-Pad2)*%
X168390000Y-72390000D03*
%TO.P,J5,3*%
%TO.N,GND*%
X167120000Y-68490000D03*
%TO.P,J5,4*%
%TO.N,Net-(J5-Pad4)*%
X167120000Y-72390000D03*
%TO.P,J5,5*%
%TO.N,GND*%
X165850000Y-68490000D03*
%TO.P,J5,6*%
%TO.N,Net-(J5-Pad6)*%
X165850000Y-72390000D03*
%TO.P,J5,7*%
%TO.N,Net-(J5-Pad7)*%
X164580000Y-68490000D03*
%TO.P,J5,8*%
%TO.N,Net-(J5-Pad8)*%
X164580000Y-72390000D03*
%TO.P,J5,9*%
%TO.N,GND*%
X163310000Y-68490000D03*
%TO.P,J5,10*%
%TO.N,Net-(J5-Pad10)*%
X163310000Y-72390000D03*
%TD*%
D22*
%TO.P,L1,1*%
%TO.N,Net-(C2-Pad1)*%
X172760000Y-111060000D03*
%TO.P,L1,2*%
%TO.N,+3V3*%
X172760000Y-115160000D03*
%TD*%
D23*
%TO.P,Q1,1*%
%TO.N,GND*%
X175250000Y-93300000D03*
%TO.P,Q1,2*%
%TO.N,Net-(D1-Pad1)*%
X173350000Y-93300000D03*
%TO.P,Q1,3*%
%TO.N,VCC*%
X174300000Y-95300000D03*
%TD*%
%TO.P,R1,1*%
%TO.N,Net-(C1-Pad1)*%
%TA.AperFunction,SMDPad,CuDef*%
G36*
G01*
X177325000Y-101715000D02*
X177325000Y-101165000D01*
G75*
G02*
X177525000Y-100965000I200000J0D01*
G01*
X177925000Y-100965000D01*
G75*
G02*
X178125000Y-101165000I0J-200000D01*
G01*
X178125000Y-101715000D01*
G75*
G02*
X177925000Y-101915000I-200000J0D01*
G01*
X177525000Y-101915000D01*
G75*
G02*
X177325000Y-101715000I0J200000D01*
G01*
G37*
%TD.AperFunction*%
%TO.P,R1,2*%
%TO.N,Net-(R1-Pad2)*%
%TA.AperFunction,SMDPad,CuDef*%
G36*
G01*
X178975000Y-101715000D02*
X178975000Y-101165000D01*
G75*
G02*
X179175000Y-100965000I200000J0D01*
G01*
X179575000Y-100965000D01*
G75*
G02*
X179775000Y-101165000I0J-200000D01*
G01*
X179775000Y-101715000D01*
G75*
G02*
X179575000Y-101915000I-200000J0D01*
G01*
X179175000Y-101915000D01*
G75*
G02*
X178975000Y-101715000I0J200000D01*
G01*
G37*
%TD.AperFunction*%
%TD*%
%TO.P,R2,2*%
%TO.N,GND*%
%TA.AperFunction,SMDPad,CuDef*%
G36*
G01*
X180875000Y-102695000D02*
X181425000Y-102695000D01*
G75*
G02*
X181625000Y-102895000I0J-200000D01*
G01*
X181625000Y-103295000D01*
G75*
G02*
X181425000Y-103495000I-200000J0D01*
G01*
X180875000Y-103495000D01*
G75*
G02*
X180675000Y-103295000I0J200000D01*
G01*
X180675000Y-102895000D01*
G75*
G02*
X180875000Y-102695000I200000J0D01*
G01*
G37*
%TD.AperFunction*%
%TO.P,R2,1*%
%TO.N,Net-(R1-Pad2)*%
%TA.AperFunction,SMDPad,CuDef*%
G36*
G01*
X180875000Y-101045000D02*
X181425000Y-101045000D01*
G75*
G02*
X181625000Y-101245000I0J-200000D01*
G01*
X181625000Y-101645000D01*
G75*
G02*
X181425000Y-101845000I-200000J0D01*
G01*
X180875000Y-101845000D01*
G75*
G02*
X180675000Y-101645000I0J200000D01*
G01*
X180675000Y-101245000D01*
G75*
G02*
X180875000Y-101045000I200000J0D01*
G01*
G37*
%TD.AperFunction*%
%TD*%
%TO.P,R3,2*%
%TO.N,Net-(R3-Pad2)*%
%TA.AperFunction,SMDPad,CuDef*%
G36*
G01*
X181245000Y-105615000D02*
X181245000Y-106165000D01*
G75*
G02*
X181045000Y-106365000I-200000J0D01*
G01*
X180645000Y-106365000D01*
G75*
G02*
X180445000Y-106165000I0J200000D01*
G01*
X180445000Y-105615000D01*
G75*
G02*
X180645000Y-105415000I200000J0D01*
G01*
X181045000Y-105415000D01*
G75*
G02*
X181245000Y-105615000I0J-200000D01*
G01*
G37*
%TD.AperFunction*%
%TO.P,R3,1*%
%TO.N,+3V3*%
%TA.AperFunction,SMDPad,CuDef*%
G36*
G01*
X182895000Y-105615000D02*
X182895000Y-106165000D01*
G75*
G02*
X182695000Y-106365000I-200000J0D01*
G01*
X182295000Y-106365000D01*
G75*
G02*
X182095000Y-106165000I0J200000D01*
G01*
X182095000Y-105615000D01*
G75*
G02*
X182295000Y-105415000I200000J0D01*
G01*
X182695000Y-105415000D01*
G75*
G02*
X182895000Y-105615000I0J-200000D01*
G01*
G37*
%TD.AperFunction*%
%TD*%
%TO.P,R4,1*%
%TO.N,Net-(R3-Pad2)*%
%TA.AperFunction,SMDPad,CuDef*%
G36*
G01*
X180455000Y-107875000D02*
X180455000Y-107325000D01*
G75*
G02*
X180655000Y-107125000I200000J0D01*
G01*
X181055000Y-107125000D01*
G75*
G02*
X181255000Y-107325000I0J-200000D01*
G01*
X181255000Y-107875000D01*
G75*
G02*
X181055000Y-108075000I-200000J0D01*
G01*
X180655000Y-108075000D01*
G75*
G02*
X180455000Y-107875000I0J200000D01*
G01*
G37*
%TD.AperFunction*%
%TO.P,R4,2*%
%TO.N,Net-(R4-Pad2)*%
%TA.AperFunction,SMDPad,CuDef*%
G36*
G01*
X182105000Y-107875000D02*
X182105000Y-107325000D01*
G75*
G02*
X182305000Y-107125000I200000J0D01*
G01*
X182705000Y-107125000D01*
G75*
G02*
X182905000Y-107325000I0J-200000D01*
G01*
X182905000Y-107875000D01*
G75*
G02*
X182705000Y-108075000I-200000J0D01*
G01*
X182305000Y-108075000D01*
G75*
G02*
X182105000Y-107875000I0J200000D01*
G01*
G37*
%TD.AperFunction*%
%TD*%
%TO.P,R5,2*%
%TO.N,GND*%
%TA.AperFunction,SMDPad,CuDef*%
G36*
G01*
X181255000Y-108875000D02*
X181255000Y-109425000D01*
G75*
G02*
X181055000Y-109625000I-200000J0D01*
G01*
X180655000Y-109625000D01*
G75*
G02*
X180455000Y-109425000I0J200000D01*
G01*
X180455000Y-108875000D01*
G75*
G02*
X180655000Y-108675000I200000J0D01*
G01*
X181055000Y-108675000D01*
G75*
G02*
X181255000Y-108875000I0J-200000D01*
G01*
G37*
%TD.AperFunction*%
%TO.P,R5,1*%
%TO.N,Net-(R4-Pad2)*%
%TA.AperFunction,SMDPad,CuDef*%
G36*
G01*
X182905000Y-108875000D02*
X182905000Y-109425000D01*
G75*
G02*
X182705000Y-109625000I-200000J0D01*
G01*
X182305000Y-109625000D01*
G75*
G02*
X182105000Y-109425000I0J200000D01*
G01*
X182105000Y-108875000D01*
G75*
G02*
X182305000Y-108675000I200000J0D01*
G01*
X182705000Y-108675000D01*
G75*
G02*
X182905000Y-108875000I0J-200000D01*
G01*
G37*
%TD.AperFunction*%
%TD*%
%TO.P,R6,1*%
%TO.N,Net-(D3-Pad1)*%
%TA.AperFunction,SMDPad,CuDef*%
G36*
G01*
X161505000Y-112455000D02*
X162055000Y-112455000D01*
G75*
G02*
X162255000Y-112655000I0J-200000D01*
G01*
X162255000Y-113055000D01*
G75*
G02*
X162055000Y-113255000I-200000J0D01*
G01*
X161505000Y-113255000D01*
G75*
G02*
X161305000Y-113055000I0J200000D01*
G01*
X161305000Y-112655000D01*
G75*
G02*
X161505000Y-112455000I200000J0D01*
G01*
G37*
%TD.AperFunction*%
%TO.P,R6,2*%
%TO.N,GND*%
%TA.AperFunction,SMDPad,CuDef*%
G36*
G01*
X161505000Y-114105000D02*
X162055000Y-114105000D01*
G75*
G02*
X162255000Y-114305000I0J-200000D01*
G01*
X162255000Y-114705000D01*
G75*
G02*
X162055000Y-114905000I-200000J0D01*
G01*
X161505000Y-114905000D01*
G75*
G02*
X161305000Y-114705000I0J200000D01*
G01*
X161305000Y-114305000D01*
G75*
G02*
X161505000Y-114105000I200000J0D01*
G01*
G37*
%TD.AperFunction*%
%TD*%
%TO.P,R7,1*%
%TO.N,+3V3*%
%TA.AperFunction,SMDPad,CuDef*%
G36*
G01*
X142110000Y-74725000D02*
X142110000Y-75095000D01*
G75*
G02*
X141975000Y-75230000I-135000J0D01*
G01*
X141705000Y-75230000D01*
G75*
G02*
X141570000Y-75095000I0J135000D01*
G01*
X141570000Y-74725000D01*
G75*
G02*
X141705000Y-74590000I135000J0D01*
G01*
X141975000Y-74590000D01*
G75*
G02*
X142110000Y-74725000I0J-135000D01*
G01*
G37*
%TD.AperFunction*%
%TO.P,R7,2*%
%TO.N,I2C1_SCL*%
%TA.AperFunction,SMDPad,CuDef*%
G36*
G01*
X141090000Y-74725000D02*
X141090000Y-75095000D01*
G75*
G02*
X140955000Y-75230000I-135000J0D01*
G01*
X140685000Y-75230000D01*
G75*
G02*
X140550000Y-75095000I0J135000D01*
G01*
X140550000Y-74725000D01*
G75*
G02*
X140685000Y-74590000I135000J0D01*
G01*
X140955000Y-74590000D01*
G75*
G02*
X141090000Y-74725000I0J-135000D01*
G01*
G37*
%TD.AperFunction*%
%TD*%
%TO.P,R8,1*%
%TO.N,HSE_OUT*%
%TA.AperFunction,SMDPad,CuDef*%
G36*
G01*
X143910000Y-92765000D02*
X143910000Y-93135000D01*
G75*
G02*
X143775000Y-93270000I-135000J0D01*
G01*
X143505000Y-93270000D01*
G75*
G02*
X143370000Y-93135000I0J135000D01*
G01*
X143370000Y-92765000D01*
G75*
G02*
X143505000Y-92630000I135000J0D01*
G01*
X143775000Y-92630000D01*
G75*
G02*
X143910000Y-92765000I0J-135000D01*
G01*
G37*
%TD.AperFunction*%
%TO.P,R8,2*%
%TO.N,Net-(C16-Pad1)*%
%TA.AperFunction,SMDPad,CuDef*%
G36*
G01*
X142890000Y-92765000D02*
X142890000Y-93135000D01*
G75*
G02*
X142755000Y-93270000I-135000J0D01*
G01*
X142485000Y-93270000D01*
G75*
G02*
X142350000Y-93135000I0J135000D01*
G01*
X142350000Y-92765000D01*
G75*
G02*
X142485000Y-92630000I135000J0D01*
G01*
X142755000Y-92630000D01*
G75*
G02*
X142890000Y-92765000I0J-135000D01*
G01*
G37*
%TD.AperFunction*%
%TD*%
%TO.P,R9,2*%
%TO.N,I2C1_SDA*%
%TA.AperFunction,SMDPad,CuDef*%
G36*
G01*
X136690000Y-75145000D02*
X136690000Y-74775000D01*
G75*
G02*
X136825000Y-74640000I135000J0D01*
G01*
X137095000Y-74640000D01*
G75*
G02*
X137230000Y-74775000I0J-135000D01*
G01*
X137230000Y-75145000D01*
G75*
G02*
X137095000Y-75280000I-135000J0D01*
G01*
X136825000Y-75280000D01*
G75*
G02*
X136690000Y-75145000I0J135000D01*
G01*
G37*
%TD.AperFunction*%
%TO.P,R9,1*%
%TO.N,+3V3*%
%TA.AperFunction,SMDPad,CuDef*%
G36*
G01*
X135670000Y-75145000D02*
X135670000Y-74775000D01*
G75*
G02*
X135805000Y-74640000I135000J0D01*
G01*
X136075000Y-74640000D01*
G75*
G02*
X136210000Y-74775000I0J-135000D01*
G01*
X136210000Y-75145000D01*
G75*
G02*
X136075000Y-75280000I-135000J0D01*
G01*
X135805000Y-75280000D01*
G75*
G02*
X135670000Y-75145000I0J135000D01*
G01*
G37*
%TD.AperFunction*%
%TD*%
%TO.P,R10,2*%
%TO.N,Net-(D4-Pad2)*%
%TA.AperFunction,SMDPad,CuDef*%
G36*
G01*
X149200000Y-73465000D02*
X149200000Y-73095000D01*
G75*
G02*
X149335000Y-72960000I135000J0D01*
G01*
X149605000Y-72960000D01*
G75*
G02*
X149740000Y-73095000I0J-135000D01*
G01*
X149740000Y-73465000D01*
G75*
G02*
X149605000Y-73600000I-135000J0D01*
G01*
X149335000Y-73600000D01*
G75*
G02*
X149200000Y-73465000I0J135000D01*
G01*
G37*
%TD.AperFunction*%
%TO.P,R10,1*%
%TO.N,BOOT0*%
%TA.AperFunction,SMDPad,CuDef*%
G36*
G01*
X148180000Y-73465000D02*
X148180000Y-73095000D01*
G75*
G02*
X148315000Y-72960000I135000J0D01*
G01*
X148585000Y-72960000D01*
G75*
G02*
X148720000Y-73095000I0J-135000D01*
G01*
X148720000Y-73465000D01*
G75*
G02*
X148585000Y-73600000I-135000J0D01*
G01*
X148315000Y-73600000D01*
G75*
G02*
X148180000Y-73465000I0J135000D01*
G01*
G37*
%TD.AperFunction*%
%TD*%
%TO.P,R11,2*%
%TO.N,TIM3_CH1*%
%TA.AperFunction,SMDPad,CuDef*%
G36*
G01*
X152285000Y-81270000D02*
X152655000Y-81270000D01*
G75*
G02*
X152790000Y-81405000I0J-135000D01*
G01*
X152790000Y-81675000D01*
G75*
G02*
X152655000Y-81810000I-135000J0D01*
G01*
X152285000Y-81810000D01*
G75*
G02*
X152150000Y-81675000I0J135000D01*
G01*
X152150000Y-81405000D01*
G75*
G02*
X152285000Y-81270000I135000J0D01*
G01*
G37*
%TD.AperFunction*%
%TO.P,R11,1*%
%TO.N,Net-(D5-Pad1)*%
%TA.AperFunction,SMDPad,CuDef*%
G36*
G01*
X152285000Y-80250000D02*
X152655000Y-80250000D01*
G75*
G02*
X152790000Y-80385000I0J-135000D01*
G01*
X152790000Y-80655000D01*
G75*
G02*
X152655000Y-80790000I-135000J0D01*
G01*
X152285000Y-80790000D01*
G75*
G02*
X152150000Y-80655000I0J135000D01*
G01*
X152150000Y-80385000D01*
G75*
G02*
X152285000Y-80250000I135000J0D01*
G01*
G37*
%TD.AperFunction*%
%TD*%
%TO.P,R12,2*%
%TO.N,TIM3_CH2*%
%TA.AperFunction,SMDPad,CuDef*%
G36*
G01*
X150925000Y-81360000D02*
X151295000Y-81360000D01*
G75*
G02*
X151430000Y-81495000I0J-135000D01*
G01*
X151430000Y-81765000D01*
G75*
G02*
X151295000Y-81900000I-135000J0D01*
G01*
X150925000Y-81900000D01*
G75*
G02*
X150790000Y-81765000I0J135000D01*
G01*
X150790000Y-81495000D01*
G75*
G02*
X150925000Y-81360000I135000J0D01*
G01*
G37*
%TD.AperFunction*%
%TO.P,R12,1*%
%TO.N,Net-(D5-Pad2)*%
%TA.AperFunction,SMDPad,CuDef*%
G36*
G01*
X150925000Y-80340000D02*
X151295000Y-80340000D01*
G75*
G02*
X151430000Y-80475000I0J-135000D01*
G01*
X151430000Y-80745000D01*
G75*
G02*
X151295000Y-80880000I-135000J0D01*
G01*
X150925000Y-80880000D01*
G75*
G02*
X150790000Y-80745000I0J135000D01*
G01*
X150790000Y-80475000D01*
G75*
G02*
X150925000Y-80340000I135000J0D01*
G01*
G37*
%TD.AperFunction*%
%TD*%
%TO.P,R13,2*%
%TO.N,TIM4_CH1*%
%TA.AperFunction,SMDPad,CuDef*%
G36*
G01*
X149165000Y-81250000D02*
X149535000Y-81250000D01*
G75*
G02*
X149670000Y-81385000I0J-135000D01*
G01*
X149670000Y-81655000D01*
G75*
G02*
X149535000Y-81790000I-135000J0D01*
G01*
X149165000Y-81790000D01*
G75*
G02*
X149030000Y-81655000I0J135000D01*
G01*
X149030000Y-81385000D01*
G75*
G02*
X149165000Y-81250000I135000J0D01*
G01*
G37*
%TD.AperFunction*%
%TO.P,R13,1*%
%TO.N,Net-(D5-Pad3)*%
%TA.AperFunction,SMDPad,CuDef*%
G36*
G01*
X149165000Y-80230000D02*
X149535000Y-80230000D01*
G75*
G02*
X149670000Y-80365000I0J-135000D01*
G01*
X149670000Y-80635000D01*
G75*
G02*
X149535000Y-80770000I-135000J0D01*
G01*
X149165000Y-80770000D01*
G75*
G02*
X149030000Y-80635000I0J135000D01*
G01*
X149030000Y-80365000D01*
G75*
G02*
X149165000Y-80230000I135000J0D01*
G01*
G37*
%TD.AperFunction*%
%TD*%
%TO.P,R14,1*%
%TO.N,Net-(D4-Pad1)*%
%TA.AperFunction,SMDPad,CuDef*%
G36*
G01*
X153825000Y-73545000D02*
X153825000Y-72995000D01*
G75*
G02*
X154025000Y-72795000I200000J0D01*
G01*
X154425000Y-72795000D01*
G75*
G02*
X154625000Y-72995000I0J-200000D01*
G01*
X154625000Y-73545000D01*
G75*
G02*
X154425000Y-73745000I-200000J0D01*
G01*
X154025000Y-73745000D01*
G75*
G02*
X153825000Y-73545000I0J200000D01*
G01*
G37*
%TD.AperFunction*%
%TO.P,R14,2*%
%TO.N,GND*%
%TA.AperFunction,SMDPad,CuDef*%
G36*
G01*
X155475000Y-73545000D02*
X155475000Y-72995000D01*
G75*
G02*
X155675000Y-72795000I200000J0D01*
G01*
X156075000Y-72795000D01*
G75*
G02*
X156275000Y-72995000I0J-200000D01*
G01*
X156275000Y-73545000D01*
G75*
G02*
X156075000Y-73745000I-200000J0D01*
G01*
X155675000Y-73745000D01*
G75*
G02*
X155475000Y-73545000I0J200000D01*
G01*
G37*
%TD.AperFunction*%
%TD*%
%TO.P,R15,1*%
%TO.N,BOOT1*%
%TA.AperFunction,SMDPad,CuDef*%
G36*
G01*
X153145000Y-102470000D02*
X153515000Y-102470000D01*
G75*
G02*
X153650000Y-102605000I0J-135000D01*
G01*
X153650000Y-102875000D01*
G75*
G02*
X153515000Y-103010000I-135000J0D01*
G01*
X153145000Y-103010000D01*
G75*
G02*
X153010000Y-102875000I0J135000D01*
G01*
X153010000Y-102605000D01*
G75*
G02*
X153145000Y-102470000I135000J0D01*
G01*
G37*
%TD.AperFunction*%
%TO.P,R15,2*%
%TO.N,GND*%
%TA.AperFunction,SMDPad,CuDef*%
G36*
G01*
X153145000Y-103490000D02*
X153515000Y-103490000D01*
G75*
G02*
X153650000Y-103625000I0J-135000D01*
G01*
X153650000Y-103895000D01*
G75*
G02*
X153515000Y-104030000I-135000J0D01*
G01*
X153145000Y-104030000D01*
G75*
G02*
X153010000Y-103895000I0J135000D01*
G01*
X153010000Y-103625000D01*
G75*
G02*
X153145000Y-103490000I135000J0D01*
G01*
G37*
%TD.AperFunction*%
%TD*%
%TO.P,R16,2*%
%TO.N,FLASH_!WP*%
%TA.AperFunction,SMDPad,CuDef*%
G36*
G01*
X170885000Y-101110000D02*
X170515000Y-101110000D01*
G75*
G02*
X170380000Y-100975000I0J135000D01*
G01*
X170380000Y-100705000D01*
G75*
G02*
X170515000Y-100570000I135000J0D01*
G01*
X170885000Y-100570000D01*
G75*
G02*
X171020000Y-100705000I0J-135000D01*
G01*
X171020000Y-100975000D01*
G75*
G02*
X170885000Y-101110000I-135000J0D01*
G01*
G37*
%TD.AperFunction*%
%TO.P,R16,1*%
%TO.N,+3V3*%
%TA.AperFunction,SMDPad,CuDef*%
G36*
G01*
X170885000Y-102130000D02*
X170515000Y-102130000D01*
G75*
G02*
X170380000Y-101995000I0J135000D01*
G01*
X170380000Y-101725000D01*
G75*
G02*
X170515000Y-101590000I135000J0D01*
G01*
X170885000Y-101590000D01*
G75*
G02*
X171020000Y-101725000I0J-135000D01*
G01*
X171020000Y-101995000D01*
G75*
G02*
X170885000Y-102130000I-135000J0D01*
G01*
G37*
%TD.AperFunction*%
%TD*%
%TO.P,R17,1*%
%TO.N,+3V3*%
%TA.AperFunction,SMDPad,CuDef*%
G36*
G01*
X159240000Y-102165000D02*
X159240000Y-101795000D01*
G75*
G02*
X159375000Y-101660000I135000J0D01*
G01*
X159645000Y-101660000D01*
G75*
G02*
X159780000Y-101795000I0J-135000D01*
G01*
X159780000Y-102165000D01*
G75*
G02*
X159645000Y-102300000I-135000J0D01*
G01*
X159375000Y-102300000D01*
G75*
G02*
X159240000Y-102165000I0J135000D01*
G01*
G37*
%TD.AperFunction*%
%TO.P,R17,2*%
%TO.N,FLASH_!HOLD*%
%TA.AperFunction,SMDPad,CuDef*%
G36*
G01*
X160260000Y-102165000D02*
X160260000Y-101795000D01*
G75*
G02*
X160395000Y-101660000I135000J0D01*
G01*
X160665000Y-101660000D01*
G75*
G02*
X160800000Y-101795000I0J-135000D01*
G01*
X160800000Y-102165000D01*
G75*
G02*
X160665000Y-102300000I-135000J0D01*
G01*
X160395000Y-102300000D01*
G75*
G02*
X160260000Y-102165000I0J135000D01*
G01*
G37*
%TD.AperFunction*%
%TD*%
%TO.P,R18,1*%
%TO.N,Net-(J3-Pad2)*%
%TA.AperFunction,SMDPad,CuDef*%
G36*
G01*
X156055000Y-118730000D02*
X155685000Y-118730000D01*
G75*
G02*
X155550000Y-118595000I0J135000D01*
G01*
X155550000Y-118325000D01*
G75*
G02*
X155685000Y-118190000I135000J0D01*
G01*
X156055000Y-118190000D01*
G75*
G02*
X156190000Y-118325000I0J-135000D01*
G01*
X156190000Y-118595000D01*
G75*
G02*
X156055000Y-118730000I-135000J0D01*
G01*
G37*
%TD.AperFunction*%
%TO.P,R18,2*%
%TO.N,USART1_TX*%
%TA.AperFunction,SMDPad,CuDef*%
G36*
G01*
X156055000Y-117710000D02*
X155685000Y-117710000D01*
G75*
G02*
X155550000Y-117575000I0J135000D01*
G01*
X155550000Y-117305000D01*
G75*
G02*
X155685000Y-117170000I135000J0D01*
G01*
X156055000Y-117170000D01*
G75*
G02*
X156190000Y-117305000I0J-135000D01*
G01*
X156190000Y-117575000D01*
G75*
G02*
X156055000Y-117710000I-135000J0D01*
G01*
G37*
%TD.AperFunction*%
%TD*%
%TO.P,R19,2*%
%TO.N,USART1_RX*%
%TA.AperFunction,SMDPad,CuDef*%
G36*
G01*
X157235000Y-117690000D02*
X156865000Y-117690000D01*
G75*
G02*
X156730000Y-117555000I0J135000D01*
G01*
X156730000Y-117285000D01*
G75*
G02*
X156865000Y-117150000I135000J0D01*
G01*
X157235000Y-117150000D01*
G75*
G02*
X157370000Y-117285000I0J-135000D01*
G01*
X157370000Y-117555000D01*
G75*
G02*
X157235000Y-117690000I-135000J0D01*
G01*
G37*
%TD.AperFunction*%
%TO.P,R19,1*%
%TO.N,Net-(J3-Pad3)*%
%TA.AperFunction,SMDPad,CuDef*%
G36*
G01*
X157235000Y-118710000D02*
X156865000Y-118710000D01*
G75*
G02*
X156730000Y-118575000I0J135000D01*
G01*
X156730000Y-118305000D01*
G75*
G02*
X156865000Y-118170000I135000J0D01*
G01*
X157235000Y-118170000D01*
G75*
G02*
X157370000Y-118305000I0J-135000D01*
G01*
X157370000Y-118575000D01*
G75*
G02*
X157235000Y-118710000I-135000J0D01*
G01*
G37*
%TD.AperFunction*%
%TD*%
%TO.P,R20,1*%
%TO.N,Net-(J4-Pad2)*%
%TA.AperFunction,SMDPad,CuDef*%
G36*
G01*
X139355000Y-73660000D02*
X139725000Y-73660000D01*
G75*
G02*
X139860000Y-73795000I0J-135000D01*
G01*
X139860000Y-74065000D01*
G75*
G02*
X139725000Y-74200000I-135000J0D01*
G01*
X139355000Y-74200000D01*
G75*
G02*
X139220000Y-74065000I0J135000D01*
G01*
X139220000Y-73795000D01*
G75*
G02*
X139355000Y-73660000I135000J0D01*
G01*
G37*
%TD.AperFunction*%
%TO.P,R20,2*%
%TO.N,I2C1_SCL*%
%TA.AperFunction,SMDPad,CuDef*%
G36*
G01*
X139355000Y-74680000D02*
X139725000Y-74680000D01*
G75*
G02*
X139860000Y-74815000I0J-135000D01*
G01*
X139860000Y-75085000D01*
G75*
G02*
X139725000Y-75220000I-135000J0D01*
G01*
X139355000Y-75220000D01*
G75*
G02*
X139220000Y-75085000I0J135000D01*
G01*
X139220000Y-74815000D01*
G75*
G02*
X139355000Y-74680000I135000J0D01*
G01*
G37*
%TD.AperFunction*%
%TD*%
%TO.P,R21,1*%
%TO.N,Net-(J4-Pad3)*%
%TA.AperFunction,SMDPad,CuDef*%
G36*
G01*
X137905000Y-73660000D02*
X138275000Y-73660000D01*
G75*
G02*
X138410000Y-73795000I0J-135000D01*
G01*
X138410000Y-74065000D01*
G75*
G02*
X138275000Y-74200000I-135000J0D01*
G01*
X137905000Y-74200000D01*
G75*
G02*
X137770000Y-74065000I0J135000D01*
G01*
X137770000Y-73795000D01*
G75*
G02*
X137905000Y-73660000I135000J0D01*
G01*
G37*
%TD.AperFunction*%
%TO.P,R21,2*%
%TO.N,I2C1_SDA*%
%TA.AperFunction,SMDPad,CuDef*%
G36*
G01*
X137905000Y-74680000D02*
X138275000Y-74680000D01*
G75*
G02*
X138410000Y-74815000I0J-135000D01*
G01*
X138410000Y-75085000D01*
G75*
G02*
X138275000Y-75220000I-135000J0D01*
G01*
X137905000Y-75220000D01*
G75*
G02*
X137770000Y-75085000I0J135000D01*
G01*
X137770000Y-74815000D01*
G75*
G02*
X137905000Y-74680000I135000J0D01*
G01*
G37*
%TD.AperFunction*%
%TD*%
%TO.P,R22,2*%
%TO.N,TIM3_CH3*%
%TA.AperFunction,SMDPad,CuDef*%
G36*
G01*
X134060000Y-110945000D02*
X134060000Y-110575000D01*
G75*
G02*
X134195000Y-110440000I135000J0D01*
G01*
X134465000Y-110440000D01*
G75*
G02*
X134600000Y-110575000I0J-135000D01*
G01*
X134600000Y-110945000D01*
G75*
G02*
X134465000Y-111080000I-135000J0D01*
G01*
X134195000Y-111080000D01*
G75*
G02*
X134060000Y-110945000I0J135000D01*
G01*
G37*
%TD.AperFunction*%
%TO.P,R22,1*%
%TO.N,Net-(J6-Pad2)*%
%TA.AperFunction,SMDPad,CuDef*%
G36*
G01*
X133040000Y-110945000D02*
X133040000Y-110575000D01*
G75*
G02*
X133175000Y-110440000I135000J0D01*
G01*
X133445000Y-110440000D01*
G75*
G02*
X133580000Y-110575000I0J-135000D01*
G01*
X133580000Y-110945000D01*
G75*
G02*
X133445000Y-111080000I-135000J0D01*
G01*
X133175000Y-111080000D01*
G75*
G02*
X133040000Y-110945000I0J135000D01*
G01*
G37*
%TD.AperFunction*%
%TD*%
%TO.P,R23,1*%
%TO.N,Net-(J6-Pad3)*%
%TA.AperFunction,SMDPad,CuDef*%
G36*
G01*
X133040000Y-112265000D02*
X133040000Y-111895000D01*
G75*
G02*
X133175000Y-111760000I135000J0D01*
G01*
X133445000Y-111760000D01*
G75*
G02*
X133580000Y-111895000I0J-135000D01*
G01*
X133580000Y-112265000D01*
G75*
G02*
X133445000Y-112400000I-135000J0D01*
G01*
X133175000Y-112400000D01*
G75*
G02*
X133040000Y-112265000I0J135000D01*
G01*
G37*
%TD.AperFunction*%
%TO.P,R23,2*%
%TO.N,TIM3_CH4*%
%TA.AperFunction,SMDPad,CuDef*%
G36*
G01*
X134060000Y-112265000D02*
X134060000Y-111895000D01*
G75*
G02*
X134195000Y-111760000I135000J0D01*
G01*
X134465000Y-111760000D01*
G75*
G02*
X134600000Y-111895000I0J-135000D01*
G01*
X134600000Y-112265000D01*
G75*
G02*
X134465000Y-112400000I-135000J0D01*
G01*
X134195000Y-112400000D01*
G75*
G02*
X134060000Y-112265000I0J135000D01*
G01*
G37*
%TD.AperFunction*%
%TD*%
%TO.P,R24,1*%
%TO.N,NRST*%
%TA.AperFunction,SMDPad,CuDef*%
G36*
G01*
X161585000Y-73830000D02*
X161215000Y-73830000D01*
G75*
G02*
X161080000Y-73695000I0J135000D01*
G01*
X161080000Y-73425000D01*
G75*
G02*
X161215000Y-73290000I135000J0D01*
G01*
X161585000Y-73290000D01*
G75*
G02*
X161720000Y-73425000I0J-135000D01*
G01*
X161720000Y-73695000D01*
G75*
G02*
X161585000Y-73830000I-135000J0D01*
G01*
G37*
%TD.AperFunction*%
%TO.P,R24,2*%
%TO.N,Net-(J5-Pad10)*%
%TA.AperFunction,SMDPad,CuDef*%
G36*
G01*
X161585000Y-72810000D02*
X161215000Y-72810000D01*
G75*
G02*
X161080000Y-72675000I0J135000D01*
G01*
X161080000Y-72405000D01*
G75*
G02*
X161215000Y-72270000I135000J0D01*
G01*
X161585000Y-72270000D01*
G75*
G02*
X161720000Y-72405000I0J-135000D01*
G01*
X161720000Y-72675000D01*
G75*
G02*
X161585000Y-72810000I-135000J0D01*
G01*
G37*
%TD.AperFunction*%
%TD*%
%TO.P,R25,1*%
%TO.N,SWDIO*%
%TA.AperFunction,SMDPad,CuDef*%
G36*
G01*
X168615000Y-76690000D02*
X168245000Y-76690000D01*
G75*
G02*
X168110000Y-76555000I0J135000D01*
G01*
X168110000Y-76285000D01*
G75*
G02*
X168245000Y-76150000I135000J0D01*
G01*
X168615000Y-76150000D01*
G75*
G02*
X168750000Y-76285000I0J-135000D01*
G01*
X168750000Y-76555000D01*
G75*
G02*
X168615000Y-76690000I-135000J0D01*
G01*
G37*
%TD.AperFunction*%
%TO.P,R25,2*%
%TO.N,Net-(J5-Pad2)*%
%TA.AperFunction,SMDPad,CuDef*%
G36*
G01*
X168615000Y-75670000D02*
X168245000Y-75670000D01*
G75*
G02*
X168110000Y-75535000I0J135000D01*
G01*
X168110000Y-75265000D01*
G75*
G02*
X168245000Y-75130000I135000J0D01*
G01*
X168615000Y-75130000D01*
G75*
G02*
X168750000Y-75265000I0J-135000D01*
G01*
X168750000Y-75535000D01*
G75*
G02*
X168615000Y-75670000I-135000J0D01*
G01*
G37*
%TD.AperFunction*%
%TD*%
%TO.P,R26,1*%
%TO.N,Net-(J7-Pad2)*%
%TA.AperFunction,SMDPad,CuDef*%
G36*
G01*
X140285000Y-118240000D02*
X139915000Y-118240000D01*
G75*
G02*
X139780000Y-118105000I0J135000D01*
G01*
X139780000Y-117835000D01*
G75*
G02*
X139915000Y-117700000I135000J0D01*
G01*
X140285000Y-117700000D01*
G75*
G02*
X140420000Y-117835000I0J-135000D01*
G01*
X140420000Y-118105000D01*
G75*
G02*
X140285000Y-118240000I-135000J0D01*
G01*
G37*
%TD.AperFunction*%
%TO.P,R26,2*%
%TO.N,TIM2_CH3*%
%TA.AperFunction,SMDPad,CuDef*%
G36*
G01*
X140285000Y-117220000D02*
X139915000Y-117220000D01*
G75*
G02*
X139780000Y-117085000I0J135000D01*
G01*
X139780000Y-116815000D01*
G75*
G02*
X139915000Y-116680000I135000J0D01*
G01*
X140285000Y-116680000D01*
G75*
G02*
X140420000Y-116815000I0J-135000D01*
G01*
X140420000Y-117085000D01*
G75*
G02*
X140285000Y-117220000I-135000J0D01*
G01*
G37*
%TD.AperFunction*%
%TD*%
%TO.P,R27,2*%
%TO.N,TIM2_CH4*%
%TA.AperFunction,SMDPad,CuDef*%
G36*
G01*
X141545000Y-117160000D02*
X141175000Y-117160000D01*
G75*
G02*
X141040000Y-117025000I0J135000D01*
G01*
X141040000Y-116755000D01*
G75*
G02*
X141175000Y-116620000I135000J0D01*
G01*
X141545000Y-116620000D01*
G75*
G02*
X141680000Y-116755000I0J-135000D01*
G01*
X141680000Y-117025000D01*
G75*
G02*
X141545000Y-117160000I-135000J0D01*
G01*
G37*
%TD.AperFunction*%
%TO.P,R27,1*%
%TO.N,Net-(J7-Pad3)*%
%TA.AperFunction,SMDPad,CuDef*%
G36*
G01*
X141545000Y-118180000D02*
X141175000Y-118180000D01*
G75*
G02*
X141040000Y-118045000I0J135000D01*
G01*
X141040000Y-117775000D01*
G75*
G02*
X141175000Y-117640000I135000J0D01*
G01*
X141545000Y-117640000D01*
G75*
G02*
X141680000Y-117775000I0J-135000D01*
G01*
X141680000Y-118045000D01*
G75*
G02*
X141545000Y-118180000I-135000J0D01*
G01*
G37*
%TD.AperFunction*%
%TD*%
%TO.P,R28,2*%
%TO.N,Net-(J5-Pad4)*%
%TA.AperFunction,SMDPad,CuDef*%
G36*
G01*
X167405000Y-75670000D02*
X167035000Y-75670000D01*
G75*
G02*
X166900000Y-75535000I0J135000D01*
G01*
X166900000Y-75265000D01*
G75*
G02*
X167035000Y-75130000I135000J0D01*
G01*
X167405000Y-75130000D01*
G75*
G02*
X167540000Y-75265000I0J-135000D01*
G01*
X167540000Y-75535000D01*
G75*
G02*
X167405000Y-75670000I-135000J0D01*
G01*
G37*
%TD.AperFunction*%
%TO.P,R28,1*%
%TO.N,SWCLK*%
%TA.AperFunction,SMDPad,CuDef*%
G36*
G01*
X167405000Y-76690000D02*
X167035000Y-76690000D01*
G75*
G02*
X166900000Y-76555000I0J135000D01*
G01*
X166900000Y-76285000D01*
G75*
G02*
X167035000Y-76150000I135000J0D01*
G01*
X167405000Y-76150000D01*
G75*
G02*
X167540000Y-76285000I0J-135000D01*
G01*
X167540000Y-76555000D01*
G75*
G02*
X167405000Y-76690000I-135000J0D01*
G01*
G37*
%TD.AperFunction*%
%TD*%
%TO.P,R29,2*%
%TO.N,Net-(J5-Pad6)*%
%TA.AperFunction,SMDPad,CuDef*%
G36*
G01*
X166035000Y-75630000D02*
X165665000Y-75630000D01*
G75*
G02*
X165530000Y-75495000I0J135000D01*
G01*
X165530000Y-75225000D01*
G75*
G02*
X165665000Y-75090000I135000J0D01*
G01*
X166035000Y-75090000D01*
G75*
G02*
X166170000Y-75225000I0J-135000D01*
G01*
X166170000Y-75495000D01*
G75*
G02*
X166035000Y-75630000I-135000J0D01*
G01*
G37*
%TD.AperFunction*%
%TO.P,R29,1*%
%TO.N,SWO*%
%TA.AperFunction,SMDPad,CuDef*%
G36*
G01*
X166035000Y-76650000D02*
X165665000Y-76650000D01*
G75*
G02*
X165530000Y-76515000I0J135000D01*
G01*
X165530000Y-76245000D01*
G75*
G02*
X165665000Y-76110000I135000J0D01*
G01*
X166035000Y-76110000D01*
G75*
G02*
X166170000Y-76245000I0J-135000D01*
G01*
X166170000Y-76515000D01*
G75*
G02*
X166035000Y-76650000I-135000J0D01*
G01*
G37*
%TD.AperFunction*%
%TD*%
%TO.P,R30,1*%
%TO.N,Net-(J9-Pad2)*%
%TA.AperFunction,SMDPad,CuDef*%
G36*
G01*
X132030000Y-99515000D02*
X132030000Y-99145000D01*
G75*
G02*
X132165000Y-99010000I135000J0D01*
G01*
X132435000Y-99010000D01*
G75*
G02*
X132570000Y-99145000I0J-135000D01*
G01*
X132570000Y-99515000D01*
G75*
G02*
X132435000Y-99650000I-135000J0D01*
G01*
X132165000Y-99650000D01*
G75*
G02*
X132030000Y-99515000I0J135000D01*
G01*
G37*
%TD.AperFunction*%
%TO.P,R30,2*%
%TO.N,ADC1_IN2*%
%TA.AperFunction,SMDPad,CuDef*%
G36*
G01*
X133050000Y-99515000D02*
X133050000Y-99145000D01*
G75*
G02*
X133185000Y-99010000I135000J0D01*
G01*
X133455000Y-99010000D01*
G75*
G02*
X133590000Y-99145000I0J-135000D01*
G01*
X133590000Y-99515000D01*
G75*
G02*
X133455000Y-99650000I-135000J0D01*
G01*
X133185000Y-99650000D01*
G75*
G02*
X133050000Y-99515000I0J135000D01*
G01*
G37*
%TD.AperFunction*%
%TD*%
%TO.P,R31,2*%
%TO.N,ADC1_IN3*%
%TA.AperFunction,SMDPad,CuDef*%
G36*
G01*
X133060000Y-100745000D02*
X133060000Y-100375000D01*
G75*
G02*
X133195000Y-100240000I135000J0D01*
G01*
X133465000Y-100240000D01*
G75*
G02*
X133600000Y-100375000I0J-135000D01*
G01*
X133600000Y-100745000D01*
G75*
G02*
X133465000Y-100880000I-135000J0D01*
G01*
X133195000Y-100880000D01*
G75*
G02*
X133060000Y-100745000I0J135000D01*
G01*
G37*
%TD.AperFunction*%
%TO.P,R31,1*%
%TO.N,Net-(J9-Pad3)*%
%TA.AperFunction,SMDPad,CuDef*%
G36*
G01*
X132040000Y-100745000D02*
X132040000Y-100375000D01*
G75*
G02*
X132175000Y-100240000I135000J0D01*
G01*
X132445000Y-100240000D01*
G75*
G02*
X132580000Y-100375000I0J-135000D01*
G01*
X132580000Y-100745000D01*
G75*
G02*
X132445000Y-100880000I-135000J0D01*
G01*
X132175000Y-100880000D01*
G75*
G02*
X132040000Y-100745000I0J135000D01*
G01*
G37*
%TD.AperFunction*%
%TD*%
%TO.P,R32,2*%
%TO.N,ADC1_IN0*%
%TA.AperFunction,SMDPad,CuDef*%
G36*
G01*
X132740000Y-82935000D02*
X132740000Y-82565000D01*
G75*
G02*
X132875000Y-82430000I135000J0D01*
G01*
X133145000Y-82430000D01*
G75*
G02*
X133280000Y-82565000I0J-135000D01*
G01*
X133280000Y-82935000D01*
G75*
G02*
X133145000Y-83070000I-135000J0D01*
G01*
X132875000Y-83070000D01*
G75*
G02*
X132740000Y-82935000I0J135000D01*
G01*
G37*
%TD.AperFunction*%
%TO.P,R32,1*%
%TO.N,Net-(J8-Pad2)*%
%TA.AperFunction,SMDPad,CuDef*%
G36*
G01*
X131720000Y-82935000D02*
X131720000Y-82565000D01*
G75*
G02*
X131855000Y-82430000I135000J0D01*
G01*
X132125000Y-82430000D01*
G75*
G02*
X132260000Y-82565000I0J-135000D01*
G01*
X132260000Y-82935000D01*
G75*
G02*
X132125000Y-83070000I-135000J0D01*
G01*
X131855000Y-83070000D01*
G75*
G02*
X131720000Y-82935000I0J135000D01*
G01*
G37*
%TD.AperFunction*%
%TD*%
%TO.P,R33,1*%
%TO.N,Net-(J8-Pad3)*%
%TA.AperFunction,SMDPad,CuDef*%
G36*
G01*
X131720000Y-84185000D02*
X131720000Y-83815000D01*
G75*
G02*
X131855000Y-83680000I135000J0D01*
G01*
X132125000Y-83680000D01*
G75*
G02*
X132260000Y-83815000I0J-135000D01*
G01*
X132260000Y-84185000D01*
G75*
G02*
X132125000Y-84320000I-135000J0D01*
G01*
X131855000Y-84320000D01*
G75*
G02*
X131720000Y-84185000I0J135000D01*
G01*
G37*
%TD.AperFunction*%
%TO.P,R33,2*%
%TO.N,ADC1_IN1*%
%TA.AperFunction,SMDPad,CuDef*%
G36*
G01*
X132740000Y-84185000D02*
X132740000Y-83815000D01*
G75*
G02*
X132875000Y-83680000I135000J0D01*
G01*
X133145000Y-83680000D01*
G75*
G02*
X133280000Y-83815000I0J-135000D01*
G01*
X133280000Y-84185000D01*
G75*
G02*
X133145000Y-84320000I-135000J0D01*
G01*
X132875000Y-84320000D01*
G75*
G02*
X132740000Y-84185000I0J135000D01*
G01*
G37*
%TD.AperFunction*%
%TD*%
D24*
%TO.P,U1,1*%
%TO.N,Net-(C2-Pad2)*%
X177120000Y-105750000D03*
%TO.P,U1,2*%
%TO.N,GND*%
X178070000Y-105750000D03*
%TO.P,U1,3*%
%TO.N,Net-(R3-Pad2)*%
X179020000Y-105750000D03*
%TO.P,U1,4*%
%TO.N,Net-(R1-Pad2)*%
X179020000Y-103550000D03*
%TO.P,U1,6*%
%TO.N,Net-(C2-Pad1)*%
X177120000Y-103550000D03*
%TO.P,U1,5*%
%TO.N,Net-(C1-Pad1)*%
X178070000Y-103550000D03*
%TD*%
D25*
%TO.P,U3,3*%
%TO.N,FLASH_!WP*%
X169370000Y-100700000D03*
%TO.P,U3,4*%
%TO.N,GND*%
X169370000Y-99430000D03*
%TO.P,U3,2*%
%TO.N,SPI2_MISO*%
X169370000Y-101970000D03*
%TO.P,U3,1*%
%TO.N,SPI2_!CS*%
X169370000Y-103240000D03*
%TO.P,U3,7*%
%TO.N,FLASH_!HOLD*%
X161700000Y-101970000D03*
%TO.P,U3,8*%
%TO.N,+3V3*%
X161700000Y-103240000D03*
%TO.P,U3,6*%
%TO.N,SPI2_SCK*%
X161700000Y-100700000D03*
%TO.P,U3,5*%
%TO.N,SPI2_MOSI*%
X161700000Y-99430000D03*
D26*
%TO.P,U3,9*%
%TO.N,GND*%
X165530000Y-101330000D03*
%TD*%
D27*
%TO.P,U4,1*%
%TO.N,GND*%
X156775000Y-84760000D03*
%TO.P,U4,5*%
%TO.N,SPI3_MISO*%
X154825000Y-83160000D03*
%TO.P,U4,6*%
%TO.N,+3V3*%
X155475000Y-83160000D03*
%TO.P,U4,7*%
%TO.N,GND*%
X156125000Y-83160000D03*
%TO.P,U4,4*%
%TO.N,SPI3_SCK*%
X154825000Y-84760000D03*
%TO.P,U4,3*%
%TO.N,SPI3_MOSI*%
X155475000Y-84760000D03*
%TO.P,U4,2*%
%TO.N,SPI3_!CS*%
X156125000Y-84760000D03*
%TO.P,U4,8*%
%TO.N,+3V3*%
X156775000Y-83160000D03*
%TD*%
D28*
%TO.P,U5,4*%
%TO.N,GND*%
X148190000Y-111310000D03*
%TO.P,U5,5*%
%TO.N,SPI1_!CS_GYR*%
X147690000Y-111310000D03*
%TO.P,U5,6*%
%TO.N,GND*%
X147190000Y-111310000D03*
%TO.P,U5,7*%
X146690000Y-111310000D03*
%TO.P,U5,3*%
%TO.N,+3V3*%
X148690000Y-111310000D03*
%TO.P,U5,2*%
%TO.N,GND*%
X149190000Y-111310000D03*
%TO.P,U5,1*%
%TO.N,Net-(U5-Pad1)*%
X149690000Y-111310000D03*
%TO.P,U5,15*%
%TO.N,SPI1_MISO*%
X149690000Y-108990000D03*
%TO.P,U5,14*%
%TO.N,SPI1_!CS_ACC*%
X149190000Y-108990000D03*
%TO.P,U5,13*%
%TO.N,Net-(U5-Pad13)*%
X148690000Y-108990000D03*
%TO.P,U5,12*%
%TO.N,INT_GYR*%
X148190000Y-108990000D03*
%TO.P,U5,11*%
%TO.N,+3V3*%
X147690000Y-109000000D03*
%TO.P,U5,10*%
%TO.N,SPI1_MISO*%
X147190000Y-109000000D03*
%TO.P,U5,9*%
%TO.N,SPI1_MOSI*%
X146690000Y-109000000D03*
D29*
%TO.P,U5,16*%
%TO.N,INT_ACC*%
X150100000Y-110150000D03*
%TO.P,U5,8*%
%TO.N,SPI1_SCK*%
X146280000Y-110160000D03*
%TD*%
D30*
%TO.P,U6,5*%
%TO.N,+5V*%
X170900000Y-84500000D03*
%TO.P,U6,6*%
%TO.N,USB_D-*%
X170900000Y-85450000D03*
%TO.P,U6,4*%
%TO.N,USB_D+*%
X170900000Y-83550000D03*
%TO.P,U6,3*%
%TO.N,USB_CONN_D+*%
X173100000Y-83550000D03*
%TO.P,U6,2*%
%TO.N,GND*%
X173100000Y-84500000D03*
%TO.P,U6,1*%
%TO.N,USB_CONN_D-*%
X173100000Y-85450000D03*
%TD*%
D31*
%TO.P,Y1,1*%
%TO.N,HSE_IN*%
X139490000Y-90650000D03*
%TO.P,Y1,2*%
%TO.N,GND*%
X139490000Y-92850000D03*
%TO.P,Y1,3*%
%TO.N,Net-(C16-Pad1)*%
X141190000Y-92850000D03*
%TO.P,Y1,4*%
%TO.N,GND*%
X141190000Y-90650000D03*
%TD*%
D32*
%TO.N,GND*%
X153100000Y-104500000D03*
X172000000Y-82200000D03*
X160380000Y-71810000D03*
X163310000Y-67010000D03*
X139700000Y-95500000D03*
X141700000Y-88880000D03*
X143090000Y-95010000D03*
X144120000Y-95020000D03*
X147800000Y-86300000D03*
X147330000Y-80070000D03*
X157050000Y-73270000D03*
X158590000Y-84500000D03*
X157080000Y-82080000D03*
X157475000Y-102875000D03*
X160300000Y-104900000D03*
X165850000Y-66970000D03*
X167120000Y-66950000D03*
X146090000Y-106240000D03*
X147180000Y-110610000D03*
X148230000Y-71390000D03*
X170200000Y-99430000D03*
X165500000Y-98800000D03*
X165500000Y-103800000D03*
X176300000Y-120600000D03*
X182440000Y-103180000D03*
X175250000Y-92120000D03*
X175250000Y-94170000D03*
X176100000Y-80900000D03*
X176100000Y-82100000D03*
X176400000Y-117200000D03*
X176700000Y-109300000D03*
X178060000Y-107100000D03*
X178060000Y-108010000D03*
X178040000Y-104720000D03*
X180300000Y-110700000D03*
X181600000Y-110700000D03*
X157400000Y-87850000D03*
X160800000Y-114500000D03*
X161780000Y-115280000D03*
X173040000Y-102870000D03*
X149180000Y-110550000D03*
X147800000Y-113340000D03*
X181150000Y-104130000D03*
X143700000Y-88900000D03*
X147490000Y-102580000D03*
X141740000Y-86750000D03*
X140570000Y-86720000D03*
X139420000Y-86720000D03*
X138290000Y-86730000D03*
X137170000Y-86750000D03*
X137220000Y-87820000D03*
X137150000Y-89030000D03*
X137170000Y-90300000D03*
X137160000Y-91350000D03*
X137060000Y-93570000D03*
X137080000Y-94610000D03*
X137080000Y-95640000D03*
X138070000Y-96640000D03*
X139040000Y-96600000D03*
X140080000Y-96630000D03*
X141240000Y-96600000D03*
X137070000Y-96610000D03*
X137080000Y-92410000D03*
X143975000Y-85885000D03*
X176400000Y-122300000D03*
X176400000Y-118800000D03*
X159900000Y-88365000D03*
X180400000Y-82100000D03*
X177200000Y-80900000D03*
X177300000Y-82100000D03*
X176700000Y-107700000D03*
X179000000Y-107100000D03*
X179000000Y-108000000D03*
X179000000Y-109000000D03*
X178000000Y-109000000D03*
X177730000Y-93830000D03*
X181870000Y-93830000D03*
%TO.N,+3V3*%
X145525000Y-86225000D03*
X147330000Y-77580000D03*
X142490000Y-74910000D03*
X135260000Y-74960000D03*
X154520000Y-82090000D03*
X168390000Y-66890000D03*
X147090000Y-106700000D03*
X156300000Y-99600000D03*
X149340000Y-77450000D03*
X154710000Y-71360000D03*
X170700000Y-102650000D03*
X146900000Y-90600000D03*
X147600000Y-90000000D03*
X170900000Y-115500000D03*
X174490000Y-115410000D03*
X174420000Y-113960000D03*
X170900000Y-113970000D03*
X155600000Y-91100000D03*
X183900000Y-105900000D03*
X148970000Y-113480000D03*
X159510000Y-101330000D03*
X138370000Y-97930000D03*
X142970000Y-90600000D03*
X163240000Y-115540000D03*
X164600000Y-114300000D03*
X148500000Y-102700000D03*
X155100000Y-98600000D03*
X182495000Y-104805000D03*
X170700000Y-117980000D03*
X173100000Y-117980000D03*
X170500000Y-121400000D03*
X173200000Y-121400000D03*
%TO.N,NRST*%
X153515000Y-76475000D03*
X149810000Y-90500000D03*
%TO.N,USART1_TX*%
X155170000Y-94290000D03*
X155930000Y-113360000D03*
%TO.N,USART1_RX*%
X153700000Y-97100000D03*
X157130000Y-112990000D03*
%TO.N,SWO*%
X159980000Y-85830000D03*
X156210000Y-88610000D03*
%TO.N,INT_ACC*%
X147790000Y-95150000D03*
X150880000Y-110150000D03*
%TO.N,INT_GYR*%
X147380000Y-96650000D03*
X145900000Y-101670000D03*
%TO.N,SPI1_SCK*%
X149600000Y-98720000D03*
X144310000Y-105240000D03*
%TO.N,SPI1_MOSI*%
X150340000Y-106590000D03*
X145480000Y-109020000D03*
%TO.N,SPI2_!CS*%
X158820000Y-99000000D03*
X169020000Y-104900000D03*
%TO.N,SPI2_MISO*%
X168160000Y-101970000D03*
X160610000Y-97840000D03*
%TO.N,SPI3_MOSI*%
X154970000Y-85810000D03*
X152360000Y-86340000D03*
%TD*%
D33*
%TO.N,Net-(C1-Pad1)*%
X174942500Y-100267500D02*
X175975000Y-101300000D01*
X174942500Y-98430000D02*
X174942500Y-100267500D01*
X175975000Y-101300000D02*
X177585000Y-101300000D01*
D34*
X178070000Y-101785000D02*
X177725000Y-101440000D01*
X178070000Y-103550000D02*
X178070000Y-101785000D01*
D35*
%TO.N,GND*%
X148110000Y-87360000D02*
X147800000Y-87050000D01*
X148110000Y-88715000D02*
X148110000Y-87360000D01*
X139325000Y-93015000D02*
X139490000Y-92850000D01*
D36*
X143110000Y-95610000D02*
X143090000Y-95590000D01*
X144120000Y-95610000D02*
X143110000Y-95610000D01*
D35*
X144162980Y-95610000D02*
X144120000Y-95610000D01*
X144692980Y-96140000D02*
X144162980Y-95610000D01*
X145685000Y-96140000D02*
X144692980Y-96140000D01*
D36*
X157310000Y-101785000D02*
X157475000Y-101950000D01*
X157310000Y-100290000D02*
X157310000Y-101785000D01*
D35*
X160370000Y-72560000D02*
X160370000Y-71900000D01*
X160370000Y-71900000D02*
X160370000Y-71900000D01*
X163310000Y-68490000D02*
X163310000Y-67010000D01*
X163310000Y-67010000D02*
X163310000Y-67010000D01*
X143090000Y-95590000D02*
X143090000Y-95010000D01*
X143090000Y-95010000D02*
X143090000Y-95010000D01*
X144120000Y-95610000D02*
X144120000Y-95020000D01*
X144120000Y-95020000D02*
X144120000Y-95020000D01*
D36*
X143700000Y-89640000D02*
X143700000Y-89110000D01*
D35*
X143700000Y-89110000D02*
X143700000Y-89110000D01*
X147800000Y-87050000D02*
X147800000Y-87000000D01*
X147800000Y-87050000D02*
X147800000Y-86300000D01*
X147800000Y-86300000D02*
X147800000Y-86300000D01*
D37*
X147330000Y-79270000D02*
X147330000Y-79880000D01*
X147330000Y-79880000D02*
X147330000Y-80070000D01*
X147330000Y-80070000D02*
X147330000Y-80070000D01*
D35*
X155875000Y-73270000D02*
X156580000Y-73270000D01*
D37*
X156580000Y-73270000D02*
X156580000Y-73270000D01*
D35*
X156580000Y-73270000D02*
X157050000Y-73270000D01*
D37*
X156125000Y-82245000D02*
X156290000Y-82080000D01*
D35*
X156125000Y-83160000D02*
X156125000Y-82245000D01*
D37*
X157035000Y-84500000D02*
X156775000Y-84760000D01*
X157910000Y-84500000D02*
X157035000Y-84500000D01*
X157910000Y-84500000D02*
X158590000Y-84500000D01*
X158590000Y-84500000D02*
X158590000Y-84500000D01*
D35*
X156290000Y-82080000D02*
X156830000Y-82080000D01*
D37*
X156830000Y-82080000D02*
X157080000Y-82080000D01*
X157080000Y-82080000D02*
X157080000Y-82080000D01*
X157415000Y-88675000D02*
X157400000Y-88660000D01*
X157475000Y-101950000D02*
X157475000Y-102875000D01*
X157475000Y-102875000D02*
X157475000Y-102875000D01*
X160270000Y-104660000D02*
X160270000Y-104160000D01*
X160270000Y-104710000D02*
X160270000Y-104660000D01*
D35*
X165850000Y-68490000D02*
X165850000Y-66970000D01*
X167120000Y-68490000D02*
X167120000Y-66950000D01*
X165850000Y-66970000D02*
X165850000Y-66970000D01*
X167120000Y-66950000D02*
X167120000Y-66950000D01*
X146690000Y-111310000D02*
X147190000Y-111310000D01*
X149340000Y-70960000D02*
X149080000Y-70960000D01*
D36*
X149080000Y-70960000D02*
X148650000Y-71390000D01*
X148650000Y-71390000D02*
X148230000Y-71390000D01*
D35*
X148230000Y-71390000D02*
X148230000Y-71390000D01*
X169370000Y-99430000D02*
X170200000Y-99430000D01*
X170200000Y-99430000D02*
X170200000Y-99430000D01*
X165530000Y-98860000D02*
X165530000Y-98860000D01*
D36*
X165530000Y-101220000D02*
X165530000Y-103700000D01*
D35*
X165530000Y-103810000D02*
X165530000Y-103810000D01*
D34*
X181235000Y-103180000D02*
X181150000Y-103095000D01*
X182440000Y-103180000D02*
X181235000Y-103180000D01*
X175250000Y-93300000D02*
X175250000Y-92110000D01*
X175250000Y-93300000D02*
X175250000Y-94170000D01*
X175250000Y-94170000D02*
X175250000Y-94170000D01*
X178060000Y-107030000D02*
X178060000Y-108010000D01*
X178070000Y-104750000D02*
X178040000Y-104720000D01*
X178070000Y-105750000D02*
X178070000Y-104750000D01*
X180825000Y-109120000D02*
X180855000Y-109150000D01*
D36*
X157400000Y-87850000D02*
X157400000Y-88660000D01*
X161780000Y-115280000D02*
X161780000Y-115280000D01*
X161780000Y-114505000D02*
X161055000Y-114505000D01*
X161055000Y-114505000D02*
X161055000Y-114505000D01*
X161780000Y-115280000D02*
X161780000Y-114505000D01*
D35*
X148010000Y-112710000D02*
X148010000Y-113130000D01*
X148010000Y-113130000D02*
X147800000Y-113340000D01*
X147800000Y-113340000D02*
X147800000Y-113340000D01*
D34*
X181150000Y-103095000D02*
X181150000Y-104130000D01*
X181150000Y-104130000D02*
X181150000Y-104130000D01*
D35*
X143700000Y-89110000D02*
X143700000Y-89110000D01*
D36*
X143975000Y-87070000D02*
X143975000Y-86215000D01*
X143975000Y-86215000D02*
X143975000Y-85885000D01*
X143975000Y-85885000D02*
X143975000Y-85885000D01*
D35*
X148190000Y-112530000D02*
X148010000Y-112710000D01*
X148190000Y-111310000D02*
X148190000Y-112530000D01*
X146110000Y-107590000D02*
X146120000Y-107600000D01*
X146090000Y-107570000D02*
X146120000Y-107600000D01*
X146090000Y-106240000D02*
X146090000Y-107570000D01*
X149190000Y-110560000D02*
X149190000Y-111310000D01*
X149180000Y-110550000D02*
X149190000Y-110560000D01*
X147180000Y-111300000D02*
X147190000Y-111310000D01*
X147180000Y-110610000D02*
X147180000Y-111300000D01*
D34*
X179900000Y-93870000D02*
X179860000Y-93830000D01*
X173025000Y-102855000D02*
X173040000Y-102870000D01*
X173025000Y-101300000D02*
X173025000Y-102855000D01*
X178070000Y-107020000D02*
X178060000Y-107030000D01*
X178070000Y-105750000D02*
X178070000Y-107020000D01*
X178060000Y-108010000D02*
X178060000Y-107940000D01*
D35*
X147490000Y-102580000D02*
X147490000Y-102580000D01*
X147490000Y-101870000D02*
X147490000Y-102580000D01*
X147490000Y-101827020D02*
X147490000Y-101870000D01*
X148110000Y-100065000D02*
X148110000Y-101207020D01*
X148110000Y-101207020D02*
X147490000Y-101827020D01*
D36*
X159735000Y-88365000D02*
X159735000Y-88365000D01*
X159900000Y-88365000D02*
X158920000Y-88365000D01*
X158625000Y-88660000D02*
X158920000Y-88365000D01*
X157400000Y-88660000D02*
X158625000Y-88660000D01*
D35*
X153330000Y-104270000D02*
X153100000Y-104500000D01*
X153330000Y-103760000D02*
X153330000Y-104270000D01*
D33*
X175000000Y-108490000D02*
X175410000Y-108490000D01*
X175890000Y-108490000D02*
X176700000Y-109300000D01*
X175000000Y-108490000D02*
X175890000Y-108490000D01*
D36*
X177300000Y-82230000D02*
X177230000Y-82230000D01*
X177200000Y-82130000D02*
X177300000Y-82230000D01*
D34*
X176100000Y-80900000D02*
X177200000Y-80900000D01*
X177200000Y-82000000D02*
X177300000Y-82100000D01*
X177200000Y-80900000D02*
X177200000Y-82000000D01*
X177300000Y-82100000D02*
X176100000Y-82100000D01*
X176100000Y-82100000D02*
X176100000Y-80900000D01*
X176100000Y-82000000D02*
X177200000Y-80900000D01*
X176100000Y-82100000D02*
X176100000Y-82000000D01*
D35*
X173100000Y-84500000D02*
X172400000Y-84500000D01*
X172000000Y-84100000D02*
X172000000Y-82200000D01*
X172400000Y-84500000D02*
X172000000Y-84100000D01*
D33*
X175910000Y-108490000D02*
X176700000Y-107700000D01*
X175000000Y-108490000D02*
X175910000Y-108490000D01*
X176700000Y-107700000D02*
X176700000Y-109300000D01*
X175620000Y-117980000D02*
X176400000Y-117200000D01*
X174875000Y-117980000D02*
X175620000Y-117980000D01*
X176400000Y-117200000D02*
X176400000Y-118800000D01*
X175580000Y-117980000D02*
X176400000Y-118800000D01*
X174875000Y-117980000D02*
X175580000Y-117980000D01*
X175520000Y-121380000D02*
X176300000Y-120600000D01*
X174825000Y-121380000D02*
X175520000Y-121380000D01*
X175480000Y-121380000D02*
X176400000Y-122300000D01*
X174825000Y-121380000D02*
X175480000Y-121380000D01*
X176400000Y-122300000D02*
X176400000Y-118800000D01*
D34*
X180855000Y-110145000D02*
X180300000Y-110700000D01*
X180855000Y-109150000D02*
X180855000Y-110145000D01*
X180300000Y-110700000D02*
X181600000Y-110700000D01*
X180855000Y-109955000D02*
X181600000Y-110700000D01*
X180855000Y-109150000D02*
X180855000Y-109955000D01*
D35*
X140780000Y-90240000D02*
X141190000Y-90650000D01*
X140780000Y-88880000D02*
X140780000Y-90240000D01*
X139490000Y-94270000D02*
X139720000Y-94500000D01*
X139490000Y-92850000D02*
X139490000Y-94270000D01*
X139720000Y-95480000D02*
X139700000Y-95500000D01*
X139720000Y-94500000D02*
X139720000Y-95480000D01*
X141700000Y-88880000D02*
X140780000Y-88880000D01*
X165500000Y-101300000D02*
X165530000Y-101330000D01*
D36*
X165500000Y-98900000D02*
X165500000Y-101600000D01*
X177300000Y-82100000D02*
X180400000Y-82100000D01*
D34*
X178060000Y-108940000D02*
X178000000Y-109000000D01*
X178060000Y-108010000D02*
X178060000Y-108940000D01*
X178000000Y-109000000D02*
X179000000Y-109000000D01*
X179000000Y-109000000D02*
X179000000Y-108000000D01*
X178070000Y-108000000D02*
X178060000Y-108010000D01*
X179000000Y-108000000D02*
X178070000Y-108000000D01*
X178060000Y-108060000D02*
X179000000Y-109000000D01*
X178060000Y-108010000D02*
X178060000Y-108060000D01*
X179000000Y-108000000D02*
X179000000Y-107000000D01*
X178090000Y-107000000D02*
X178060000Y-107030000D01*
X179000000Y-107000000D02*
X178090000Y-107000000D01*
X178060000Y-107060000D02*
X179000000Y-108000000D01*
X178060000Y-107030000D02*
X178060000Y-107060000D01*
X179860000Y-93830000D02*
X177730000Y-93830000D01*
X177730000Y-93830000D02*
X177730000Y-93830000D01*
X179860000Y-93830000D02*
X181870000Y-93830000D01*
X181870000Y-93830000D02*
X181870000Y-93830000D01*
%TO.N,Net-(C2-Pad2)*%
X175495000Y-105750000D02*
X175200000Y-105455000D01*
X177120000Y-105750000D02*
X175495000Y-105750000D01*
%TO.N,Net-(C2-Pad1)*%
X171700000Y-110000000D02*
X172760000Y-111060000D01*
X171700000Y-108490000D02*
X171700000Y-110000000D01*
X171700000Y-105580000D02*
X171700000Y-108490000D01*
X173385000Y-103895000D02*
X171700000Y-105580000D01*
X175190000Y-103895000D02*
X175200000Y-103905000D01*
X173385000Y-103895000D02*
X175190000Y-103895000D01*
X176765000Y-103905000D02*
X177120000Y-103550000D01*
X175200000Y-103905000D02*
X176765000Y-103905000D01*
D35*
%TO.N,+3V3*%
X146840000Y-87945000D02*
X146840000Y-87050000D01*
X147610000Y-88715000D02*
X146840000Y-87945000D01*
X157035000Y-89985000D02*
X157400000Y-89620000D01*
X157035000Y-90640000D02*
X157035000Y-89985000D01*
X155335000Y-100290000D02*
X155110000Y-100065000D01*
X156350000Y-100290000D02*
X155335000Y-100290000D01*
X149330000Y-78310000D02*
X149340000Y-78300000D01*
X147330000Y-78310000D02*
X149330000Y-78310000D01*
D36*
X160310000Y-103240000D02*
X160270000Y-103200000D01*
X161700000Y-103240000D02*
X160310000Y-103240000D01*
X159510000Y-102440000D02*
X159510000Y-101980000D01*
X160270000Y-103200000D02*
X159510000Y-102440000D01*
X145545000Y-87050000D02*
X145525000Y-87070000D01*
X146840000Y-87050000D02*
X145545000Y-87050000D01*
X145525000Y-87070000D02*
X145525000Y-86225000D01*
X145525000Y-86225000D02*
X145525000Y-86225000D01*
D35*
X147330000Y-78310000D02*
X147330000Y-77870000D01*
X147330000Y-77870000D02*
X147330000Y-77580000D01*
X147330000Y-77580000D02*
X147330000Y-77580000D01*
X141840000Y-74910000D02*
X142490000Y-74910000D01*
X142490000Y-74910000D02*
X142490000Y-74910000D01*
D37*
X135940000Y-74960000D02*
X135260000Y-74960000D01*
X135260000Y-74960000D02*
X135260000Y-74960000D01*
X155475000Y-82225000D02*
X155330000Y-82080000D01*
D35*
X155475000Y-83160000D02*
X155475000Y-82225000D01*
X157530000Y-83160000D02*
X157910000Y-83540000D01*
X156775000Y-83160000D02*
X157530000Y-83160000D01*
X155120000Y-82090000D02*
X154560000Y-82090000D01*
D37*
X154770000Y-82080000D02*
X154680000Y-82080000D01*
X154680000Y-82080000D02*
X154680000Y-82080000D01*
D35*
X168390000Y-68490000D02*
X168390000Y-67080000D01*
X168390000Y-67080000D02*
X168390000Y-66890000D01*
X168390000Y-66890000D02*
X168390000Y-66890000D01*
X147080000Y-106690000D02*
X147080000Y-106690000D01*
X156350000Y-100290000D02*
X156350000Y-100120000D01*
X147090000Y-107590000D02*
X147080000Y-107600000D01*
X147090000Y-106700000D02*
X147090000Y-107590000D01*
X149340000Y-78300000D02*
X149340000Y-77690000D01*
X149340000Y-77690000D02*
X149340000Y-77450000D01*
X149340000Y-77450000D02*
X149340000Y-77450000D01*
X153840000Y-70960000D02*
X153900000Y-70960000D01*
D36*
X153900000Y-70960000D02*
X154300000Y-71360000D01*
X154300000Y-71360000D02*
X154710000Y-71360000D01*
D35*
X154710000Y-71360000D02*
X154710000Y-71360000D01*
X170700000Y-101860000D02*
X170700000Y-102440000D01*
X170700000Y-102440000D02*
X170700000Y-102650000D01*
X170700000Y-102650000D02*
X170700000Y-102650000D01*
D33*
X172415000Y-115505000D02*
X172760000Y-115160000D01*
D35*
X156775000Y-83565002D02*
X156490002Y-83850000D01*
X156775000Y-83160000D02*
X156775000Y-83565002D01*
X155475000Y-83565002D02*
X155475000Y-83160000D01*
X155759998Y-83850000D02*
X155475000Y-83565002D01*
X156490002Y-83850000D02*
X155759998Y-83850000D01*
X148970000Y-112710000D02*
X148970000Y-113480000D01*
X148970000Y-113480000D02*
X148970000Y-113480000D01*
D36*
X159510000Y-101980000D02*
X159510000Y-101330000D01*
X159510000Y-101330000D02*
X159510000Y-101330000D01*
D33*
X172725000Y-115195000D02*
X172760000Y-115160000D01*
X171900000Y-121405000D02*
X171875000Y-121380000D01*
X172760000Y-115160000D02*
X172900000Y-115160000D01*
D35*
X143740000Y-90640000D02*
X143700000Y-90600000D01*
X145685000Y-90640000D02*
X143740000Y-90640000D01*
D33*
X174500000Y-113980000D02*
X174500000Y-115330000D01*
X173010000Y-115410000D02*
X172760000Y-115160000D01*
X174500000Y-115380000D02*
X172930000Y-115380000D01*
D36*
X139400000Y-98000000D02*
X138402500Y-98000000D01*
X143700000Y-90600000D02*
X142970000Y-90600000D01*
X142970000Y-90600000D02*
X142970000Y-90600000D01*
X163350000Y-115430000D02*
X163240000Y-115540000D01*
X163350000Y-114477500D02*
X163350000Y-115430000D01*
X163350000Y-114477500D02*
X163350000Y-114330000D01*
X163527500Y-114300000D02*
X163350000Y-114477500D01*
X164600000Y-114300000D02*
X163527500Y-114300000D01*
D35*
X148970000Y-112710000D02*
X148690000Y-112430000D01*
X148690000Y-112430000D02*
X148690000Y-111310000D01*
X147200000Y-107600000D02*
X147690000Y-108090000D01*
X147080000Y-107600000D02*
X147200000Y-107600000D01*
X147690000Y-109000000D02*
X147690000Y-108090000D01*
X148450000Y-101870000D02*
X148610000Y-101710000D01*
X148610000Y-101710000D02*
X148610000Y-100065000D01*
D34*
X182495000Y-105890000D02*
X182510000Y-105890000D01*
X171905000Y-118000000D02*
X171925000Y-117980000D01*
X171855000Y-121400000D02*
X171875000Y-121380000D01*
D35*
X148500000Y-101920000D02*
X148450000Y-101870000D01*
X148500000Y-102700000D02*
X148500000Y-101920000D01*
X147610000Y-89990000D02*
X147600000Y-90000000D01*
X147610000Y-88715000D02*
X147610000Y-89990000D01*
X146860000Y-90640000D02*
X146900000Y-90600000D01*
X145685000Y-90640000D02*
X146860000Y-90640000D01*
X156060000Y-90640000D02*
X155600000Y-91100000D01*
X157035000Y-90640000D02*
X156060000Y-90640000D01*
X156300000Y-100240000D02*
X156350000Y-100290000D01*
X156300000Y-99600000D02*
X156300000Y-100240000D01*
X155110000Y-98610000D02*
X155110000Y-100065000D01*
X155100000Y-98600000D02*
X155110000Y-98610000D01*
D34*
X183890000Y-105890000D02*
X183900000Y-105900000D01*
X182495000Y-105890000D02*
X183890000Y-105890000D01*
X182495000Y-105890000D02*
X182495000Y-104805000D01*
X182495000Y-104805000D02*
X182495000Y-104805000D01*
D33*
X174410000Y-113970000D02*
X174420000Y-113960000D01*
X170900000Y-113970000D02*
X174410000Y-113970000D01*
X174400000Y-115500000D02*
X174490000Y-115410000D01*
X170900000Y-115500000D02*
X174400000Y-115500000D01*
X172060000Y-115160000D02*
X170900000Y-114000000D01*
X172760000Y-115160000D02*
X172060000Y-115160000D01*
X170900000Y-114000000D02*
X170900000Y-115500000D01*
X170900000Y-113970000D02*
X170900000Y-114000000D01*
X171925000Y-115995000D02*
X172760000Y-115160000D01*
X171925000Y-117980000D02*
X171925000Y-115995000D01*
X171925000Y-121330000D02*
X171875000Y-121380000D01*
X171875000Y-118030000D02*
X171925000Y-117980000D01*
X171875000Y-121380000D02*
X171875000Y-118030000D01*
X170700000Y-117980000D02*
X173100000Y-117980000D01*
X170500000Y-121400000D02*
X173200000Y-121400000D01*
D35*
%TO.N,Net-(C6-Pad1)*%
X154610000Y-100065000D02*
X154610000Y-101080000D01*
X155480000Y-101950000D02*
X155925000Y-101950000D01*
X154610000Y-101080000D02*
X155480000Y-101950000D01*
%TO.N,Net-(C8-Pad1)*%
X158920000Y-89915000D02*
X158920000Y-90200000D01*
X157035000Y-91140000D02*
X158112880Y-91140000D01*
X158920000Y-89915000D02*
X158920000Y-90880000D01*
X158660000Y-91140000D02*
X158112880Y-91140000D01*
X158920000Y-90880000D02*
X158660000Y-91140000D01*
%TO.N,+3.3VA*%
X144190000Y-96640000D02*
X144120000Y-96570000D01*
X145685000Y-96640000D02*
X144190000Y-96640000D01*
D36*
X143110000Y-96570000D02*
X143090000Y-96550000D01*
X144120000Y-96570000D02*
X143110000Y-96570000D01*
X141502500Y-98030000D02*
X141680000Y-98030000D01*
X143090000Y-96920000D02*
X143090000Y-96550000D01*
X141502500Y-98030000D02*
X142370000Y-98030000D01*
X143090000Y-97310000D02*
X143090000Y-96920000D01*
X142370000Y-98030000D02*
X143090000Y-97310000D01*
D35*
%TO.N,HSE_IN*%
X145685000Y-92640000D02*
X144640000Y-92640000D01*
X139490000Y-91200000D02*
X139490000Y-90650000D01*
X139990001Y-91700001D02*
X139490000Y-91200000D01*
X144640000Y-92640000D02*
X143700001Y-91700001D01*
X143700001Y-91700001D02*
X139990001Y-91700001D01*
X139490000Y-89210000D02*
X139820000Y-88880000D01*
X139490000Y-90650000D02*
X139490000Y-89210000D01*
%TO.N,Net-(C16-Pad1)*%
X141290000Y-92950000D02*
X141190000Y-92850000D01*
X142620000Y-92950000D02*
X141290000Y-92950000D01*
X140680000Y-93360000D02*
X141190000Y-92850000D01*
X140680000Y-94500000D02*
X140680000Y-93360000D01*
%TO.N,NRST*%
X160410000Y-73560000D02*
X160370000Y-73520000D01*
X161400000Y-73560000D02*
X160410000Y-73560000D01*
X160370000Y-73520000D02*
X160370000Y-74600000D01*
X160370000Y-74600000D02*
X159350000Y-75620000D01*
X159350000Y-75620000D02*
X154370000Y-75620000D01*
X154370000Y-75620000D02*
X153515000Y-76475000D01*
X153515000Y-76475000D02*
X153490000Y-76500000D01*
X149810000Y-90500000D02*
X149810000Y-91770000D01*
X147940000Y-93640000D02*
X145685000Y-93640000D01*
X149810000Y-91770000D02*
X147940000Y-93640000D01*
D36*
%TO.N,+5V*%
X178104999Y-84795001D02*
X179250000Y-84795001D01*
X175600000Y-87300000D02*
X178104999Y-84795001D01*
X173720000Y-91080000D02*
X173650000Y-91080000D01*
X175600000Y-89200000D02*
X173720000Y-91080000D01*
X175600000Y-87300000D02*
X175600000Y-89200000D01*
X171551458Y-84500000D02*
X170900000Y-84500000D01*
X172119999Y-85068541D02*
X171551458Y-84500000D01*
X172119999Y-86519999D02*
X172119999Y-85068541D01*
X172900000Y-87300000D02*
X172119999Y-86519999D01*
X175600000Y-87300000D02*
X172900000Y-87300000D01*
D33*
%TO.N,Net-(D1-Pad1)*%
X170350000Y-93550000D02*
X170300000Y-93600000D01*
X170350000Y-91080000D02*
X170350000Y-93550000D01*
X173050000Y-93600000D02*
X173350000Y-93300000D01*
X170300000Y-93600000D02*
X173050000Y-93600000D01*
D36*
%TO.N,Net-(D3-Pad1)*%
X163302500Y-112855000D02*
X163350000Y-112902500D01*
X161780000Y-112855000D02*
X163302500Y-112855000D01*
%TO.N,Net-(D4-Pad1)*%
X154225000Y-73270000D02*
X152437500Y-73270000D01*
%TO.N,Net-(D4-Pad2)*%
X149480000Y-73270000D02*
X149470000Y-73280000D01*
X150862500Y-73270000D02*
X149480000Y-73270000D01*
X150840000Y-73247500D02*
X150862500Y-73270000D01*
X150840000Y-70960000D02*
X150840000Y-73247500D01*
%TO.N,Net-(D5-Pad1)*%
X152470000Y-78930000D02*
X152470000Y-80520000D01*
X151840000Y-78300000D02*
X152470000Y-78930000D01*
X150940000Y-78300000D02*
X151840000Y-78300000D01*
%TO.N,Net-(D5-Pad2)*%
X151110000Y-79370000D02*
X150940000Y-79200000D01*
X151110000Y-80610000D02*
X151110000Y-79370000D01*
%TO.N,Net-(D5-Pad3)*%
X149340000Y-80490000D02*
X149350000Y-80500000D01*
X149340000Y-79200000D02*
X149340000Y-80490000D01*
D33*
%TO.N,Net-(F1-Pad1)*%
X170787500Y-96400000D02*
X172817500Y-98430000D01*
X170300000Y-96400000D02*
X170787500Y-96400000D01*
D37*
%TO.N,USB_CONN_D-*%
X178825000Y-84120000D02*
X178750000Y-84045000D01*
X179250000Y-84120000D02*
X178825000Y-84120000D01*
D38*
X179155557Y-84025557D02*
X179250000Y-84120000D01*
X173100000Y-85450000D02*
X173895001Y-85450000D01*
X174612845Y-84732156D02*
X176796164Y-84732156D01*
X173895001Y-85450000D02*
X174612845Y-84732156D01*
X177501164Y-84027156D02*
X178182155Y-84027156D01*
X178274999Y-84120000D02*
X179250000Y-84120000D01*
X176796164Y-84732156D02*
X177501164Y-84027156D01*
X178182155Y-84027156D02*
X178274999Y-84120000D01*
D37*
%TO.N,USB_CONN_D+*%
X178825000Y-83470000D02*
X178750000Y-83545000D01*
X179250000Y-83470000D02*
X178825000Y-83470000D01*
D38*
X179064312Y-83470000D02*
X179250000Y-83470000D01*
X174612845Y-84267844D02*
X176603836Y-84267844D01*
X173895001Y-83550000D02*
X174612845Y-84267844D01*
X173100000Y-83550000D02*
X173895001Y-83550000D01*
X178274999Y-83470000D02*
X179250000Y-83470000D01*
X178182155Y-83562844D02*
X178274999Y-83470000D01*
X177308836Y-83562844D02*
X178182155Y-83562844D01*
X176603836Y-84267844D02*
X177308836Y-83562844D01*
D34*
%TO.N,Net-(J1-Pad6)*%
X183100000Y-87345000D02*
X179450000Y-87345000D01*
D36*
X179450000Y-87345000D02*
X179300000Y-87195000D01*
D34*
X179300000Y-79745000D02*
X182950000Y-79745000D01*
X183100000Y-79595000D02*
X183100000Y-87345000D01*
D36*
X182950000Y-79745000D02*
X183100000Y-79595000D01*
D33*
%TO.N,VCC*%
X176330000Y-97330000D02*
X174300000Y-95300000D01*
X179860000Y-97330000D02*
X176330000Y-97330000D01*
D36*
%TO.N,Net-(J3-Pad2)*%
X155870000Y-120880000D02*
X155750000Y-121000000D01*
X155870000Y-118460000D02*
X155870000Y-120880000D01*
%TO.N,Net-(J3-Pad3)*%
X157050000Y-120950000D02*
X157000000Y-121000000D01*
X157050000Y-118440000D02*
X157050000Y-120950000D01*
%TO.N,Net-(J4-Pad3)*%
X138090000Y-71030000D02*
X138090000Y-73930000D01*
%TO.N,Net-(J4-Pad2)*%
X139340000Y-73730000D02*
X139540000Y-73930000D01*
X139340000Y-71030000D02*
X139340000Y-73730000D01*
%TO.N,Net-(J5-Pad2)*%
X168390000Y-75360000D02*
X168430000Y-75400000D01*
X168390000Y-72390000D02*
X168390000Y-75360000D01*
%TO.N,Net-(J5-Pad4)*%
X167120000Y-75300000D02*
X167220000Y-75400000D01*
X167120000Y-72390000D02*
X167120000Y-75300000D01*
%TO.N,Net-(J5-Pad6)*%
X165850000Y-72390000D02*
X165850000Y-75360000D01*
%TO.N,Net-(J5-Pad10)*%
X161550000Y-72390000D02*
X161400000Y-72540000D01*
X163310000Y-72390000D02*
X161550000Y-72390000D01*
%TO.N,Net-(J6-Pad2)*%
X130180000Y-110760000D02*
X130100000Y-110840000D01*
X133310000Y-110760000D02*
X130180000Y-110760000D01*
%TO.N,Net-(J6-Pad3)*%
X130110000Y-112080000D02*
X130100000Y-112090000D01*
X133310000Y-112080000D02*
X130110000Y-112080000D01*
%TO.N,Net-(J7-Pad3)*%
X141360000Y-120350000D02*
X141420000Y-120410000D01*
X141360000Y-117910000D02*
X141360000Y-120350000D01*
%TO.N,Net-(J7-Pad2)*%
X140100000Y-120340000D02*
X140170000Y-120410000D01*
X140100000Y-117970000D02*
X140100000Y-120340000D01*
%TO.N,Net-(J8-Pad3)*%
X131990000Y-84000000D02*
X130000000Y-84000000D01*
%TO.N,Net-(J8-Pad2)*%
X131990000Y-82750000D02*
X130000000Y-82750000D01*
%TO.N,Net-(J9-Pad2)*%
X132260000Y-99370000D02*
X132300000Y-99330000D01*
X130000000Y-99370000D02*
X132260000Y-99370000D01*
%TO.N,Net-(J9-Pad3)*%
X130060000Y-100560000D02*
X130000000Y-100620000D01*
X132310000Y-100560000D02*
X130060000Y-100560000D01*
D34*
%TO.N,Net-(R1-Pad2)*%
X179020000Y-101795000D02*
X179375000Y-101440000D01*
X179020000Y-103550000D02*
X179020000Y-101795000D01*
X181145000Y-101440000D02*
X181150000Y-101445000D01*
X179375000Y-101440000D02*
X181145000Y-101440000D01*
%TO.N,Net-(R3-Pad2)*%
X179160000Y-105890000D02*
X179020000Y-105750000D01*
X180845000Y-105890000D02*
X179160000Y-105890000D01*
X180845000Y-107590000D02*
X180855000Y-107600000D01*
X180845000Y-105890000D02*
X180845000Y-107590000D01*
%TO.N,Net-(R4-Pad2)*%
X182505000Y-107600000D02*
X182505000Y-109150000D01*
D37*
%TO.N,I2C1_SCL*%
X139580000Y-74910000D02*
X139540000Y-74950000D01*
X140820000Y-74910000D02*
X139580000Y-74910000D01*
D35*
X140310000Y-77790000D02*
X139540000Y-77020000D01*
X142090000Y-77790000D02*
X140310000Y-77790000D01*
X139540000Y-77020000D02*
X139540000Y-74950000D01*
X149110000Y-84810000D02*
X142090000Y-77790000D01*
X149110000Y-88715000D02*
X149110000Y-84810000D01*
%TO.N,HSE_OUT*%
X143830000Y-93140000D02*
X143640000Y-92950000D01*
X145685000Y-93140000D02*
X143830000Y-93140000D01*
D37*
%TO.N,I2C1_SDA*%
X136970000Y-74950000D02*
X136960000Y-74960000D01*
X138090000Y-74950000D02*
X136970000Y-74950000D01*
D35*
X138090000Y-76337020D02*
X138090000Y-74950000D01*
X139798510Y-79398510D02*
X138090000Y-77690000D01*
X142748510Y-79398510D02*
X139798510Y-79398510D01*
X138090000Y-77690000D02*
X138090000Y-76337020D01*
X148610000Y-85260000D02*
X142748510Y-79398510D01*
X148610000Y-88715000D02*
X148610000Y-85260000D01*
%TO.N,BOOT0*%
X149610000Y-84320000D02*
X149610000Y-88715000D01*
X145840000Y-80550000D02*
X149610000Y-84320000D01*
X145840000Y-74090000D02*
X145840000Y-80550000D01*
X146650000Y-73280000D02*
X145840000Y-74090000D01*
X148450000Y-73280000D02*
X146650000Y-73280000D01*
%TO.N,TIM3_CH1*%
X152470000Y-81540000D02*
X152470000Y-82580000D01*
X151610000Y-83440000D02*
X152470000Y-82580000D01*
X151610000Y-88715000D02*
X151610000Y-83440000D01*
%TO.N,TIM3_CH2*%
X151110000Y-88715000D02*
X151110000Y-82960000D01*
X151110000Y-81630000D02*
X151110000Y-82960000D01*
%TO.N,TIM4_CH1*%
X150610000Y-88715000D02*
X150610000Y-83600000D01*
X149350000Y-82340000D02*
X149350000Y-81520000D01*
X150610000Y-83600000D02*
X149350000Y-82340000D01*
%TO.N,BOOT1*%
X153110000Y-102520000D02*
X153330000Y-102740000D01*
X153110000Y-100065000D02*
X153110000Y-102520000D01*
%TO.N,FLASH_!WP*%
X170560000Y-100700000D02*
X170700000Y-100840000D01*
X169370000Y-100700000D02*
X170560000Y-100700000D01*
X164810000Y-95640000D02*
X157035000Y-95640000D01*
X167980000Y-96740000D02*
X166880000Y-95640000D01*
X166880000Y-95640000D02*
X164810000Y-95640000D01*
X167980000Y-100010000D02*
X167980000Y-96740000D01*
X168670000Y-100700000D02*
X167980000Y-100010000D01*
X169370000Y-100700000D02*
X168670000Y-100700000D01*
%TO.N,FLASH_!HOLD*%
X161690000Y-101980000D02*
X161700000Y-101970000D01*
X160530000Y-101980000D02*
X161690000Y-101980000D01*
X161700000Y-101970000D02*
X162210000Y-101970000D01*
X162210000Y-101970000D02*
X162910000Y-101270000D01*
X162910000Y-101270000D02*
X162910000Y-96800000D01*
X162250000Y-96140000D02*
X162910000Y-96800000D01*
X157035000Y-96140000D02*
X162250000Y-96140000D01*
%TO.N,USART1_TX*%
X157035000Y-93640000D02*
X155820000Y-93640000D01*
X155820000Y-93640000D02*
X155170000Y-94290000D01*
X155170000Y-94290000D02*
X155170000Y-94290000D01*
X155930000Y-117380000D02*
X155870000Y-117440000D01*
X155930000Y-113360000D02*
X155930000Y-117380000D01*
%TO.N,USART1_RX*%
X157050000Y-113070000D02*
X157130000Y-112990000D01*
X157050000Y-117420000D02*
X157050000Y-113070000D01*
X153650000Y-93920000D02*
X153650000Y-97050000D01*
X153650000Y-97050000D02*
X153700000Y-97100000D01*
X154430000Y-93140000D02*
X153650000Y-93920000D01*
X157035000Y-93140000D02*
X154430000Y-93140000D01*
%TO.N,TIM3_CH3*%
X152110000Y-101120000D02*
X152110000Y-100065000D01*
X151620010Y-101609990D02*
X152110000Y-101120000D01*
X151620010Y-106720010D02*
X151620010Y-101609990D01*
X152800000Y-107900000D02*
X151620010Y-106720010D01*
X152800000Y-112300000D02*
X152800000Y-107900000D01*
X149830030Y-115269970D02*
X152800000Y-112300000D01*
X145240000Y-114340000D02*
X146169970Y-115269970D01*
X145240000Y-114330000D02*
X145240000Y-114340000D01*
X146169970Y-115269970D02*
X149830030Y-115269970D01*
X141670000Y-110760000D02*
X145240000Y-114330000D01*
X134330000Y-110760000D02*
X141670000Y-110760000D01*
%TO.N,TIM3_CH4*%
X152610000Y-101410000D02*
X152610000Y-100065000D01*
X152130000Y-101890000D02*
X152610000Y-101410000D01*
X152130000Y-106350000D02*
X152130000Y-101890000D01*
X153540000Y-107750000D02*
X152579999Y-106789999D01*
X152579999Y-106789999D02*
X152569999Y-106789999D01*
X153540000Y-112430000D02*
X153540000Y-107750000D01*
X150200020Y-115769980D02*
X153540000Y-112430000D01*
X141880000Y-112080000D02*
X145569980Y-115769980D01*
X152569999Y-106789999D02*
X152130000Y-106350000D01*
X145569980Y-115769980D02*
X150200020Y-115769980D01*
X134330000Y-112080000D02*
X141880000Y-112080000D01*
%TO.N,SWDIO*%
X168430000Y-79730000D02*
X168430000Y-76420000D01*
X168430000Y-82170000D02*
X168430000Y-79730000D01*
X158960000Y-91640000D02*
X168430000Y-82170000D01*
X157035000Y-91640000D02*
X158960000Y-91640000D01*
%TO.N,TIM2_CH3*%
X153610000Y-100065000D02*
X153610000Y-101630000D01*
X154229990Y-102250300D02*
X153610010Y-101630320D01*
X154229990Y-113200010D02*
X154229990Y-102250300D01*
X150730000Y-116700000D02*
X154229990Y-113200010D01*
X143600000Y-116700000D02*
X150730000Y-116700000D01*
X142600000Y-115700000D02*
X143600000Y-116700000D01*
X140600000Y-115700000D02*
X142600000Y-115700000D01*
X140100000Y-116200000D02*
X140600000Y-115700000D01*
X140100000Y-116950000D02*
X140100000Y-116200000D01*
%TO.N,TIM2_CH4*%
X141759990Y-117289990D02*
X141360000Y-116890000D01*
X154730000Y-113880000D02*
X151320010Y-117289990D01*
X154730000Y-102043190D02*
X154730000Y-113880000D01*
X154110000Y-101423190D02*
X154730000Y-102043190D01*
X151320010Y-117289990D02*
X141759990Y-117289990D01*
X154110000Y-100065000D02*
X154110000Y-101423190D01*
%TO.N,SWCLK*%
X167220000Y-76420000D02*
X167220000Y-80850000D01*
X155865000Y-86895000D02*
X161175000Y-86895000D01*
X155110000Y-87650000D02*
X155865000Y-86895000D01*
X155110000Y-88715000D02*
X155110000Y-87650000D01*
X167220000Y-80850000D02*
X161175000Y-86895000D01*
%TO.N,SWO*%
X159980000Y-85830000D02*
X159980000Y-85830000D01*
X159980000Y-85830000D02*
X165900000Y-79910000D01*
X165900000Y-76430000D02*
X165850000Y-76380000D01*
X165900000Y-79910000D02*
X165900000Y-76430000D01*
X156210000Y-89290000D02*
X156210000Y-88610000D01*
X154930000Y-90570000D02*
X156210000Y-89290000D01*
X152650000Y-90570000D02*
X154930000Y-90570000D01*
X152110000Y-90030000D02*
X152650000Y-90570000D01*
X152110000Y-88715000D02*
X152110000Y-90030000D01*
%TO.N,ADC1_IN2*%
X133430000Y-99330000D02*
X133320000Y-99330000D01*
X145685000Y-99625000D02*
X145685000Y-98140000D01*
X144570000Y-100740000D02*
X145685000Y-99625000D01*
X144560000Y-100740000D02*
X144570000Y-100740000D01*
X143400000Y-101900000D02*
X144560000Y-100740000D01*
X136900000Y-101900000D02*
X143400000Y-101900000D01*
X134330000Y-99330000D02*
X136900000Y-101900000D01*
X133320000Y-99330000D02*
X134330000Y-99330000D01*
%TO.N,ADC1_IN3*%
X136300000Y-102500000D02*
X134360000Y-100560000D01*
X143890000Y-102500000D02*
X136300000Y-102500000D01*
X145150000Y-101240000D02*
X143890000Y-102500000D01*
X145170000Y-101240000D02*
X145150000Y-101240000D01*
X146345000Y-100065000D02*
X145170000Y-101240000D01*
X147610000Y-100065000D02*
X146345000Y-100065000D01*
X134360000Y-100560000D02*
X133330000Y-100560000D01*
%TO.N,ADC1_IN0*%
X134680000Y-82750000D02*
X133010000Y-82750000D01*
X135735000Y-83805000D02*
X134680000Y-82750000D01*
X138233560Y-99446440D02*
X135735000Y-96947880D01*
X142246540Y-99446440D02*
X138233560Y-99446440D01*
X135735000Y-96947880D02*
X135735000Y-83805000D01*
X144552980Y-97140000D02*
X142246540Y-99446440D01*
X145685000Y-97140000D02*
X144552980Y-97140000D01*
%TO.N,ADC1_IN1*%
X144760100Y-97640000D02*
X145685000Y-97640000D01*
X142160110Y-100239990D02*
X144760100Y-97640000D01*
X137939990Y-100239990D02*
X142160110Y-100239990D01*
X134980000Y-97280000D02*
X137939990Y-100239990D01*
X134980000Y-84860000D02*
X134980000Y-97280000D01*
X134120000Y-84000000D02*
X134980000Y-84860000D01*
X133010000Y-84000000D02*
X134120000Y-84000000D01*
%TO.N,INT_ACC*%
X145685000Y-95140000D02*
X147710000Y-95140000D01*
X150100000Y-110150000D02*
X150880000Y-110150000D01*
X150880000Y-110150000D02*
X150880000Y-110150000D01*
%TO.N,INT_GYR*%
X145685000Y-95640000D02*
X146870000Y-95640000D01*
X146870000Y-95640000D02*
X147380000Y-96150000D01*
X147380000Y-96150000D02*
X147380000Y-96650000D01*
X147380000Y-96650000D02*
X147380000Y-96650000D01*
X145900000Y-102880000D02*
X145900000Y-101670000D01*
X148190000Y-105170000D02*
X145900000Y-102880000D01*
X148190000Y-108990000D02*
X148190000Y-105170000D01*
%TO.N,SPI1_!CS_ACC*%
X149190000Y-108497498D02*
X149190000Y-108990000D01*
X148810000Y-108117498D02*
X149190000Y-108497498D01*
X148810000Y-104810000D02*
X148810000Y-108117498D01*
X149500000Y-104120000D02*
X148810000Y-104810000D01*
X149500000Y-101500000D02*
X149500000Y-104120000D01*
X149110000Y-101110000D02*
X149500000Y-101500000D01*
X149110000Y-100065000D02*
X149110000Y-101110000D01*
%TO.N,SPI1_SCK*%
X149610000Y-100065000D02*
X149610000Y-98760000D01*
X144340000Y-105310000D02*
X144340000Y-108980000D01*
X145520000Y-110160000D02*
X146280000Y-110160000D01*
X144340000Y-108980000D02*
X145520000Y-110160000D01*
%TO.N,SPI1_MISO*%
X150110000Y-100941058D02*
X150110000Y-100065000D01*
X147190000Y-109492502D02*
X147190000Y-109000000D01*
X147357498Y-109660000D02*
X147190000Y-109492502D01*
X149512502Y-109660000D02*
X147357498Y-109660000D01*
X149310010Y-107820010D02*
X149690000Y-108200000D01*
X149690000Y-108200000D02*
X149690000Y-109482502D01*
X149310010Y-105610010D02*
X149310010Y-107820010D01*
X150110000Y-104810020D02*
X149310010Y-105610010D01*
X149690000Y-109482502D02*
X149512502Y-109660000D01*
X150110000Y-100065000D02*
X150110000Y-104810020D01*
%TO.N,SPI1_MOSI*%
X146670000Y-109020000D02*
X146690000Y-109000000D01*
X145480000Y-109020000D02*
X146670000Y-109020000D01*
X150610000Y-101900000D02*
X150610000Y-100065000D01*
X150340000Y-106590000D02*
X150340000Y-106190000D01*
X150610000Y-105920000D02*
X150610000Y-101900000D01*
X150340000Y-106190000D02*
X150610000Y-105920000D01*
%TO.N,SPI1_!CS_GYR*%
X151120000Y-107420000D02*
X151890000Y-108190000D01*
X151120000Y-100970000D02*
X151120000Y-107420000D01*
X151110000Y-100065000D02*
X151110000Y-100960000D01*
X151110000Y-100960000D02*
X151120000Y-100970000D01*
X151890000Y-108190000D02*
X151890000Y-111910000D01*
X146910000Y-112627500D02*
X147690000Y-111847500D01*
X147690000Y-111847500D02*
X147690000Y-111310000D01*
X151890000Y-111910000D02*
X149030040Y-114769960D01*
X146910000Y-114290000D02*
X146910000Y-112627500D01*
X149030040Y-114769960D02*
X147389960Y-114769960D01*
X147389960Y-114769960D02*
X146910000Y-114290000D01*
D37*
%TO.N,SPI2_!CS*%
X157035000Y-98140000D02*
X157960000Y-98140000D01*
X157960000Y-98140000D02*
X158820000Y-99000000D01*
X158820000Y-99000000D02*
X158820000Y-99000000D01*
X169020000Y-103590000D02*
X169370000Y-103240000D01*
X169020000Y-104900000D02*
X169020000Y-103590000D01*
D35*
%TO.N,SPI2_SCK*%
X161700000Y-100700000D02*
X161540000Y-100700000D01*
X157035000Y-97640000D02*
X158730000Y-97640000D01*
X158730000Y-97640000D02*
X159820000Y-98730000D01*
X159820000Y-98730000D02*
X159820000Y-100050000D01*
X159820000Y-100050000D02*
X160470000Y-100700000D01*
X160470000Y-100700000D02*
X161700000Y-100700000D01*
%TO.N,SPI2_MISO*%
X169370000Y-101970000D02*
X168160000Y-101970000D01*
X168160000Y-101970000D02*
X168160000Y-101970000D01*
X160610000Y-97840000D02*
X160610000Y-97650000D01*
X160100000Y-97140000D02*
X157035000Y-97140000D01*
X160610000Y-97650000D02*
X160100000Y-97140000D01*
%TO.N,SPI2_MOSI*%
X161700000Y-99430000D02*
X161700000Y-98020000D01*
X157035000Y-96640000D02*
X160940000Y-96640000D01*
X161700000Y-97400000D02*
X161700000Y-98020000D01*
X160940000Y-96640000D02*
X161700000Y-97400000D01*
D39*
%TO.N,USB_D-*%
X157035000Y-92640000D02*
X157046100Y-92651100D01*
D38*
X157035000Y-92640000D02*
X157052844Y-92622156D01*
X157052844Y-92622156D02*
X160206164Y-92622156D01*
X160206164Y-92622156D02*
X168096164Y-84732156D01*
X170104999Y-85450000D02*
X170900000Y-85450000D01*
X168096164Y-84732156D02*
X169387155Y-84732156D01*
X169387155Y-84732156D02*
X170104999Y-85450000D01*
D39*
%TO.N,USB_D+*%
X157035000Y-92140000D02*
X157046100Y-92128900D01*
D38*
X157035000Y-92140000D02*
X157052844Y-92157844D01*
X157052844Y-92157844D02*
X160013836Y-92157844D01*
X160013836Y-92157844D02*
X167903836Y-84267844D01*
X170104999Y-83550000D02*
X170900000Y-83550000D01*
X169387155Y-84267844D02*
X170104999Y-83550000D01*
X167903836Y-84267844D02*
X169387155Y-84267844D01*
D35*
%TO.N,SPI3_!CS*%
X156125000Y-85725000D02*
X156125000Y-84760000D01*
X156125000Y-85927880D02*
X156125000Y-85725000D01*
X154610000Y-87442880D02*
X156125000Y-85927880D01*
X154610000Y-88715000D02*
X154610000Y-87442880D01*
%TO.N,SPI3_SCK*%
X154500000Y-84760000D02*
X154825000Y-84760000D01*
X154110000Y-85150000D02*
X154500000Y-84760000D01*
X154110000Y-88715000D02*
X154110000Y-85150000D01*
%TO.N,SPI3_MISO*%
X154350000Y-83160000D02*
X154825000Y-83160000D01*
X154000000Y-83160000D02*
X154350000Y-83160000D01*
X153610000Y-83550000D02*
X154000000Y-83160000D01*
X153610000Y-88715000D02*
X153610000Y-83550000D01*
%TO.N,SPI3_MOSI*%
X152360000Y-86957120D02*
X152360000Y-86340000D01*
X153110000Y-87707120D02*
X152360000Y-86957120D01*
X153110000Y-88715000D02*
X153110000Y-87707120D01*
X155475000Y-85305000D02*
X154970000Y-85810000D01*
X155475000Y-84760000D02*
X155475000Y-85305000D01*
%TD*%
M02*
